%TF.GenerationSoftware,KiCad,Pcbnew,7.0.2*%
%TF.CreationDate,2023-08-01T17:34:10+02:00*%
%TF.ProjectId,playstation_adapter,706c6179-7374-4617-9469-6f6e5f616461,0.9*%
%TF.SameCoordinates,Original*%
%TF.FileFunction,Copper,L1,Top*%
%TF.FilePolarity,Positive*%
%FSLAX46Y46*%
G04 Gerber Fmt 4.6, Leading zero omitted, Abs format (unit mm)*
G04 Created by KiCad (PCBNEW 7.0.2) date 2023-08-01 17:34:10*
%MOMM*%
%LPD*%
G01*
G04 APERTURE LIST*
G04 Aperture macros list*
%AMRoundRect*
0 Rectangle with rounded corners*
0 $1 Rounding radius*
0 $2 $3 $4 $5 $6 $7 $8 $9 X,Y pos of 4 corners*
0 Add a 4 corners polygon primitive as box body*
4,1,4,$2,$3,$4,$5,$6,$7,$8,$9,$2,$3,0*
0 Add four circle primitives for the rounded corners*
1,1,$1+$1,$2,$3*
1,1,$1+$1,$4,$5*
1,1,$1+$1,$6,$7*
1,1,$1+$1,$8,$9*
0 Add four rect primitives between the rounded corners*
20,1,$1+$1,$2,$3,$4,$5,0*
20,1,$1+$1,$4,$5,$6,$7,0*
20,1,$1+$1,$6,$7,$8,$9,0*
20,1,$1+$1,$8,$9,$2,$3,0*%
%AMRotRect*
0 Rectangle, with rotation*
0 The origin of the aperture is its center*
0 $1 length*
0 $2 width*
0 $3 Rotation angle, in degrees counterclockwise*
0 Add horizontal line*
21,1,$1,$2,0,0,$3*%
G04 Aperture macros list end*
%TA.AperFunction,SMDPad,CuDef*%
%ADD10R,1.200000X1.400000*%
%TD*%
%TA.AperFunction,SMDPad,CuDef*%
%ADD11RoundRect,0.140000X0.170000X-0.140000X0.170000X0.140000X-0.170000X0.140000X-0.170000X-0.140000X0*%
%TD*%
%TA.AperFunction,SMDPad,CuDef*%
%ADD12RoundRect,0.150000X-0.150000X0.512500X-0.150000X-0.512500X0.150000X-0.512500X0.150000X0.512500X0*%
%TD*%
%TA.AperFunction,SMDPad,CuDef*%
%ADD13RoundRect,0.140000X0.021213X-0.219203X0.219203X-0.021213X-0.021213X0.219203X-0.219203X0.021213X0*%
%TD*%
%TA.AperFunction,SMDPad,CuDef*%
%ADD14RoundRect,0.225000X0.225000X0.250000X-0.225000X0.250000X-0.225000X-0.250000X0.225000X-0.250000X0*%
%TD*%
%TA.AperFunction,SMDPad,CuDef*%
%ADD15RoundRect,0.225000X-0.225000X-0.250000X0.225000X-0.250000X0.225000X0.250000X-0.225000X0.250000X0*%
%TD*%
%TA.AperFunction,SMDPad,CuDef*%
%ADD16RoundRect,0.140000X-0.170000X0.140000X-0.170000X-0.140000X0.170000X-0.140000X0.170000X0.140000X0*%
%TD*%
%TA.AperFunction,SMDPad,CuDef*%
%ADD17RoundRect,0.140000X-0.021213X0.219203X-0.219203X0.021213X0.021213X-0.219203X0.219203X-0.021213X0*%
%TD*%
%TA.AperFunction,SMDPad,CuDef*%
%ADD18RoundRect,0.140000X0.219203X0.021213X0.021213X0.219203X-0.219203X-0.021213X-0.021213X-0.219203X0*%
%TD*%
%TA.AperFunction,SMDPad,CuDef*%
%ADD19R,1.000000X0.750000*%
%TD*%
%TA.AperFunction,SMDPad,CuDef*%
%ADD20R,2.000000X1.500000*%
%TD*%
%TA.AperFunction,SMDPad,CuDef*%
%ADD21R,2.000000X3.800000*%
%TD*%
%TA.AperFunction,SMDPad,CuDef*%
%ADD22RoundRect,0.135000X0.135000X0.185000X-0.135000X0.185000X-0.135000X-0.185000X0.135000X-0.185000X0*%
%TD*%
%TA.AperFunction,SMDPad,CuDef*%
%ADD23RoundRect,0.135000X-0.035355X0.226274X-0.226274X0.035355X0.035355X-0.226274X0.226274X-0.035355X0*%
%TD*%
%TA.AperFunction,SMDPad,CuDef*%
%ADD24R,1.040000X0.600000*%
%TD*%
%TA.AperFunction,SMDPad,CuDef*%
%ADD25R,1.090000X0.600000*%
%TD*%
%TA.AperFunction,SMDPad,CuDef*%
%ADD26R,1.160000X0.300000*%
%TD*%
%TA.AperFunction,SMDPad,CuDef*%
%ADD27R,2.000000X2.000000*%
%TD*%
%TA.AperFunction,ComponentPad*%
%ADD28O,2.000000X0.900000*%
%TD*%
%TA.AperFunction,ComponentPad*%
%ADD29R,1.700000X1.700000*%
%TD*%
%TA.AperFunction,ComponentPad*%
%ADD30O,1.700000X1.700000*%
%TD*%
%TA.AperFunction,SMDPad,CuDef*%
%ADD31RoundRect,0.150000X-0.650000X-0.150000X0.650000X-0.150000X0.650000X0.150000X-0.650000X0.150000X0*%
%TD*%
%TA.AperFunction,SMDPad,CuDef*%
%ADD32RoundRect,0.135000X-0.185000X0.135000X-0.185000X-0.135000X0.185000X-0.135000X0.185000X0.135000X0*%
%TD*%
%TA.AperFunction,SMDPad,CuDef*%
%ADD33RoundRect,0.140000X-0.219203X-0.021213X-0.021213X-0.219203X0.219203X0.021213X0.021213X0.219203X0*%
%TD*%
%TA.AperFunction,SMDPad,CuDef*%
%ADD34RoundRect,0.050000X-0.309359X0.238649X0.238649X-0.309359X0.309359X-0.238649X-0.238649X0.309359X0*%
%TD*%
%TA.AperFunction,SMDPad,CuDef*%
%ADD35RoundRect,0.050000X-0.309359X-0.238649X-0.238649X-0.309359X0.309359X0.238649X0.238649X0.309359X0*%
%TD*%
%TA.AperFunction,SMDPad,CuDef*%
%ADD36RotRect,3.200000X3.200000X315.000000*%
%TD*%
%TA.AperFunction,SMDPad,CuDef*%
%ADD37RoundRect,0.200000X0.200000X0.275000X-0.200000X0.275000X-0.200000X-0.275000X0.200000X-0.275000X0*%
%TD*%
%TA.AperFunction,SMDPad,CuDef*%
%ADD38RoundRect,0.135000X-0.135000X-0.185000X0.135000X-0.185000X0.135000X0.185000X-0.135000X0.185000X0*%
%TD*%
%TA.AperFunction,SMDPad,CuDef*%
%ADD39RoundRect,0.200000X-0.200000X-0.275000X0.200000X-0.275000X0.200000X0.275000X-0.200000X0.275000X0*%
%TD*%
%TA.AperFunction,ComponentPad*%
%ADD40C,1.850000*%
%TD*%
%TA.AperFunction,ComponentPad*%
%ADD41RoundRect,0.250001X1.099999X-1.099999X1.099999X1.099999X-1.099999X1.099999X-1.099999X-1.099999X0*%
%TD*%
%TA.AperFunction,ComponentPad*%
%ADD42C,2.700000*%
%TD*%
%TA.AperFunction,ViaPad*%
%ADD43C,0.500000*%
%TD*%
%TA.AperFunction,ViaPad*%
%ADD44C,0.800000*%
%TD*%
%TA.AperFunction,Conductor*%
%ADD45C,0.127000*%
%TD*%
%TA.AperFunction,Conductor*%
%ADD46C,0.254000*%
%TD*%
%TA.AperFunction,Conductor*%
%ADD47C,1.000000*%
%TD*%
%TA.AperFunction,Conductor*%
%ADD48C,0.300000*%
%TD*%
G04 APERTURE END LIST*
D10*
%TO.P,Y1,1,1*%
%TO.N,/RP2040-base/XIN*%
X67770030Y-80643931D03*
%TO.P,Y1,2,2*%
%TO.N,GND*%
X67770030Y-82843931D03*
%TO.P,Y1,3,3*%
%TO.N,Net-(C16-Pad1)*%
X69470030Y-82843931D03*
%TO.P,Y1,4,4*%
%TO.N,GND*%
X69470030Y-80643931D03*
%TD*%
D11*
%TO.P,C16,1*%
%TO.N,Net-(C16-Pad1)*%
X71120030Y-82223931D03*
%TO.P,C16,2*%
%TO.N,GND*%
X71120030Y-81263931D03*
%TD*%
D12*
%TO.P,U2,1,IO1*%
%TO.N,GND*%
X72350000Y-42862500D03*
%TO.P,U2,2,VN*%
X71400000Y-42862500D03*
%TO.P,U2,3,IO2*%
%TO.N,/RP2040-base/USB_D+*%
X70450000Y-42862500D03*
%TO.P,U2,4,IO3*%
%TO.N,/RP2040-base/USB_D-*%
X70450000Y-45137500D03*
%TO.P,U2,5,VP*%
%TO.N,VBUS*%
X71400000Y-45137500D03*
%TO.P,U2,6,IO4*%
%TO.N,GND*%
X72350000Y-45137500D03*
%TD*%
D13*
%TO.P,C14,1*%
%TO.N,+3V3*%
X78731657Y-70925197D03*
%TO.P,C14,2*%
%TO.N,GND*%
X79410479Y-70246375D03*
%TD*%
D14*
%TO.P,C17,1*%
%TO.N,+3V3*%
X74275000Y-53850000D03*
%TO.P,C17,2*%
%TO.N,GND*%
X72725000Y-53850000D03*
%TD*%
D15*
%TO.P,C1,1*%
%TO.N,VBUS*%
X65437500Y-44500000D03*
%TO.P,C1,2*%
%TO.N,GND*%
X66987500Y-44500000D03*
%TD*%
D13*
%TO.P,C11,1*%
%TO.N,+3V3*%
X75196123Y-67389664D03*
%TO.P,C11,2*%
%TO.N,GND*%
X75874945Y-66710842D03*
%TD*%
D16*
%TO.P,C15,1*%
%TO.N,/RP2040-base/XIN*%
X66120030Y-81263931D03*
%TO.P,C15,2*%
%TO.N,GND*%
X66120030Y-82223931D03*
%TD*%
D17*
%TO.P,C3,1*%
%TO.N,/RP2040-base/1V1*%
X69312994Y-77515433D03*
%TO.P,C3,2*%
%TO.N,GND*%
X68634172Y-78194255D03*
%TD*%
D14*
%TO.P,C2,1*%
%TO.N,Net-(C2-Pad1)*%
X66762500Y-49500000D03*
%TO.P,C2,2*%
%TO.N,GND*%
X65212500Y-49500000D03*
%TD*%
D13*
%TO.P,C4,1*%
%TO.N,/RP2040-base/1V1*%
X74998133Y-66173440D03*
%TO.P,C4,2*%
%TO.N,GND*%
X75676955Y-65494618D03*
%TD*%
D18*
%TO.P,C7,1*%
%TO.N,+3V3*%
X67389664Y-68803877D03*
%TO.P,C7,2*%
%TO.N,GND*%
X66710842Y-68125055D03*
%TD*%
D19*
%TO.P,SW1,1,1*%
%TO.N,GND*%
X63000000Y-41875000D03*
X57000000Y-41875000D03*
%TO.P,SW1,2,2*%
%TO.N,/RP2040-base/~{USB_BOOT}*%
X63000000Y-38125000D03*
X57000000Y-38125000D03*
%TD*%
D20*
%TO.P,U1,1,GND*%
%TO.N,GND*%
X63137500Y-49800000D03*
D21*
%TO.P,U1,2,VO*%
%TO.N,+3V3*%
X56837500Y-47500000D03*
D20*
X63137500Y-47500000D03*
%TO.P,U1,3,VI*%
%TO.N,VBUS*%
X63137500Y-45200000D03*
%TD*%
D22*
%TO.P,R8,1*%
%TO.N,Net-(J3-CC2)*%
X72010000Y-41000000D03*
%TO.P,R8,2*%
%TO.N,GND*%
X70990000Y-41000000D03*
%TD*%
D23*
%TO.P,R4,1*%
%TO.N,/RP2040-base/USB_D-*%
X78017478Y-68810949D03*
%TO.P,R4,2*%
%TO.N,Net-(U3-USB_DM)*%
X77296230Y-69532197D03*
%TD*%
D24*
%TO.P,J3,A1,GND*%
%TO.N,GND*%
X74430000Y-47200000D03*
D25*
%TO.P,J3,A4,VBUS*%
%TO.N,VBUS*%
X74455000Y-46400000D03*
D26*
%TO.P,J3,A5,CC1*%
%TO.N,Net-(J3-CC1)*%
X74490000Y-45250000D03*
%TO.P,J3,A6,D+*%
%TO.N,/RP2040-base/USB_D+*%
X74490000Y-44250000D03*
%TO.P,J3,A7,D-*%
%TO.N,/RP2040-base/USB_D-*%
X74490000Y-43750000D03*
%TO.P,J3,A8,SBU1*%
%TO.N,unconnected-(J3-SBU1-PadA8)*%
X74490000Y-42750000D03*
D25*
%TO.P,J3,A9,VBUS*%
%TO.N,VBUS*%
X74455000Y-41600000D03*
D24*
%TO.P,J3,A12,GND*%
%TO.N,GND*%
X74430000Y-40800000D03*
%TO.P,J3,B1,GND*%
X74430000Y-40800000D03*
D25*
%TO.P,J3,B4,VBUS*%
%TO.N,VBUS*%
X74455000Y-41600000D03*
D26*
%TO.P,J3,B5,CC2*%
%TO.N,Net-(J3-CC2)*%
X74490000Y-42250000D03*
%TO.P,J3,B6,D+*%
%TO.N,/RP2040-base/USB_D+*%
X74490000Y-43250000D03*
%TO.P,J3,B7,D-*%
%TO.N,/RP2040-base/USB_D-*%
X74490000Y-44750000D03*
%TO.P,J3,B8,SBU2*%
%TO.N,unconnected-(J3-SBU2-PadB8)*%
X74490000Y-45750000D03*
D25*
%TO.P,J3,B9,VBUS*%
%TO.N,VBUS*%
X74455000Y-46400000D03*
D24*
%TO.P,J3,B12,GND*%
%TO.N,GND*%
X74430000Y-47200000D03*
D27*
%TO.P,J3,S1,SHIELD*%
X79230000Y-48750000D03*
D28*
X75030000Y-48320000D03*
X75030000Y-39680000D03*
D27*
X79230000Y-39250000D03*
%TD*%
D17*
%TO.P,C8,1*%
%TO.N,+3V3*%
X68605887Y-76808326D03*
%TO.P,C8,2*%
%TO.N,GND*%
X67927065Y-77487148D03*
%TD*%
D29*
%TO.P,J2,1,Pin_1*%
%TO.N,/RP2040-base/GPIO1*%
X62500000Y-55500000D03*
D30*
%TO.P,J2,2,Pin_2*%
%TO.N,/RP2040-base/GPIO2*%
X62500000Y-58040000D03*
%TO.P,J2,3,Pin_3*%
%TO.N,/RP2040-base/GPIO3*%
X62500000Y-60580000D03*
%TO.P,J2,4,Pin_4*%
%TO.N,/RP2040-base/GPIO4*%
X62500000Y-63120000D03*
%TO.P,J2,5,Pin_5*%
%TO.N,/RP2040-base/GPIO5*%
X62500000Y-65660000D03*
%TO.P,J2,6,Pin_6*%
%TO.N,/RP2040-base/GPIO6*%
X62500000Y-68200000D03*
%TO.P,J2,7,Pin_7*%
%TO.N,/RP2040-base/GPIO7*%
X62500000Y-70740000D03*
%TO.P,J2,8,Pin_8*%
%TO.N,/RP2040-base/GPIO8*%
X62500000Y-73280000D03*
%TO.P,J2,9,Pin_9*%
%TO.N,/RP2040-base/GPIO9*%
X62500000Y-75820000D03*
%TO.P,J2,10,Pin_10*%
%TO.N,/RP2040-base/GPIO10*%
X62500000Y-78360000D03*
%TO.P,J2,11,Pin_11*%
%TO.N,/RP2040-base/GPIO11*%
X62500000Y-80900000D03*
%TO.P,J2,12,Pin_12*%
%TO.N,/RP2040-base/GPIO12*%
X62500000Y-83440000D03*
%TO.P,J2,13,Pin_13*%
%TO.N,/RP2040-base/GPIO14*%
X62500000Y-85980000D03*
%TO.P,J2,14,Pin_14*%
%TO.N,/RP2040-base/GPIO15*%
X62500000Y-88520000D03*
%TO.P,J2,15,Pin_15*%
%TO.N,/RP2040-base/GPIO16*%
X62500000Y-91060000D03*
%TD*%
D31*
%TO.P,U4,1,~{CS}*%
%TO.N,/RP2040-base/QSPI_SS*%
X68202010Y-57565068D03*
%TO.P,U4,2,DO(IO1)*%
%TO.N,/RP2040-base/QSPI_SD1*%
X68202010Y-58835068D03*
%TO.P,U4,3,IO2*%
%TO.N,/RP2040-base/QSPI_SD2*%
X68202010Y-60105068D03*
%TO.P,U4,4,GND*%
%TO.N,GND*%
X68202010Y-61375068D03*
%TO.P,U4,5,DI(IO0)*%
%TO.N,/RP2040-base/QSPI_SD0*%
X75402010Y-61375068D03*
%TO.P,U4,6,CLK*%
%TO.N,/RP2040-base/QSPI_SCLK*%
X75402010Y-60105068D03*
%TO.P,U4,7,IO3*%
%TO.N,/RP2040-base/QSPI_SD3*%
X75402010Y-58835068D03*
%TO.P,U4,8,VCC*%
%TO.N,+3V3*%
X75402010Y-57565068D03*
%TD*%
D13*
%TO.P,C12,1*%
%TO.N,+3V3*%
X75903230Y-68096770D03*
%TO.P,C12,2*%
%TO.N,GND*%
X76582052Y-67417948D03*
%TD*%
D22*
%TO.P,R9,1*%
%TO.N,+3V3*%
X59760000Y-92250000D03*
%TO.P,R9,2*%
%TO.N,/RP2040-base/GPIO13*%
X58740000Y-92250000D03*
%TD*%
D32*
%TO.P,R7,1*%
%TO.N,Net-(J3-CC1)*%
X72750000Y-46740000D03*
%TO.P,R7,2*%
%TO.N,GND*%
X72750000Y-47760000D03*
%TD*%
D13*
%TO.P,C5,1*%
%TO.N,+3V3*%
X79438764Y-71632304D03*
%TO.P,C5,2*%
%TO.N,GND*%
X80117586Y-70953482D03*
%TD*%
D18*
%TO.P,C6,1*%
%TO.N,+3V3*%
X70020101Y-66173440D03*
%TO.P,C6,2*%
%TO.N,GND*%
X69341279Y-65494618D03*
%TD*%
D33*
%TO.P,C10,1*%
%TO.N,+3V3*%
X78887220Y-72919239D03*
%TO.P,C10,2*%
%TO.N,GND*%
X79566042Y-73598061D03*
%TD*%
D23*
%TO.P,R3,1*%
%TO.N,/RP2040-base/USB_D+*%
X77310371Y-68103842D03*
%TO.P,R3,2*%
%TO.N,Net-(U3-USB_DP)*%
X76589123Y-68825090D03*
%TD*%
D13*
%TO.P,C13,1*%
%TO.N,/RP2040-base/1V1*%
X78024550Y-70218091D03*
%TO.P,C13,2*%
%TO.N,GND*%
X78703372Y-69539269D03*
%TD*%
D34*
%TO.P,U3,1,IOVDD*%
%TO.N,+3V3*%
X71407798Y-67730843D03*
%TO.P,U3,2,GPIO0*%
%TO.N,/RP2040-base/GPIO0*%
X71124955Y-68013686D03*
%TO.P,U3,3,GPIO1*%
%TO.N,/RP2040-base/GPIO1*%
X70842113Y-68296528D03*
%TO.P,U3,4,GPIO2*%
%TO.N,/RP2040-base/GPIO2*%
X70559270Y-68579371D03*
%TO.P,U3,5,GPIO3*%
%TO.N,/RP2040-base/GPIO3*%
X70276427Y-68862214D03*
%TO.P,U3,6,GPIO4*%
%TO.N,/RP2040-base/GPIO4*%
X69993585Y-69145056D03*
%TO.P,U3,7,GPIO5*%
%TO.N,/RP2040-base/GPIO5*%
X69710742Y-69427899D03*
%TO.P,U3,8,GPIO6*%
%TO.N,/RP2040-base/GPIO6*%
X69427899Y-69710742D03*
%TO.P,U3,9,GPIO7*%
%TO.N,/RP2040-base/GPIO7*%
X69145056Y-69993585D03*
%TO.P,U3,10,IOVDD*%
%TO.N,+3V3*%
X68862214Y-70276427D03*
%TO.P,U3,11,GPIO8*%
%TO.N,/RP2040-base/GPIO8*%
X68579371Y-70559270D03*
%TO.P,U3,12,GPIO9*%
%TO.N,/RP2040-base/GPIO9*%
X68296528Y-70842113D03*
%TO.P,U3,13,GPIO10*%
%TO.N,/RP2040-base/GPIO10*%
X68013686Y-71124955D03*
%TO.P,U3,14,GPIO11*%
%TO.N,/RP2040-base/GPIO11*%
X67730843Y-71407798D03*
D35*
%TO.P,U3,15,GPIO12*%
%TO.N,/RP2040-base/GPIO12*%
X67730843Y-72592202D03*
%TO.P,U3,16,GPIO13*%
%TO.N,/RP2040-base/GPIO13*%
X68013686Y-72875045D03*
%TO.P,U3,17,GPIO14*%
%TO.N,/RP2040-base/GPIO14*%
X68296528Y-73157887D03*
%TO.P,U3,18,GPIO15*%
%TO.N,/RP2040-base/GPIO15*%
X68579371Y-73440730D03*
%TO.P,U3,19,TESTEN*%
%TO.N,GND*%
X68862214Y-73723573D03*
%TO.P,U3,20,XIN*%
%TO.N,/RP2040-base/XIN*%
X69145056Y-74006415D03*
%TO.P,U3,21,XOUT*%
%TO.N,/RP2040-base/XOUT*%
X69427899Y-74289258D03*
%TO.P,U3,22,IOVDD*%
%TO.N,+3V3*%
X69710742Y-74572101D03*
%TO.P,U3,23,DVDD*%
%TO.N,/RP2040-base/1V1*%
X69993585Y-74854944D03*
%TO.P,U3,24,SWCLK*%
%TO.N,/RP2040-base/SWCLK*%
X70276427Y-75137786D03*
%TO.P,U3,25,SWD*%
%TO.N,/RP2040-base/SWD*%
X70559270Y-75420629D03*
%TO.P,U3,26,RUN*%
%TO.N,+3V3*%
X70842113Y-75703472D03*
%TO.P,U3,27,GPIO16*%
%TO.N,/RP2040-base/GPIO16*%
X71124955Y-75986314D03*
%TO.P,U3,28,GPIO17*%
%TO.N,/RP2040-base/GPIO17*%
X71407798Y-76269157D03*
D34*
%TO.P,U3,29,GPIO18*%
%TO.N,/RP2040-base/GPIO18*%
X72592202Y-76269157D03*
%TO.P,U3,30,GPIO19*%
%TO.N,/RP2040-base/GPIO19*%
X72875045Y-75986314D03*
%TO.P,U3,31,GPIO20*%
%TO.N,/RP2040-base/GPIO20*%
X73157887Y-75703472D03*
%TO.P,U3,32,GPIO21*%
%TO.N,/RP2040-base/GPIO21*%
X73440730Y-75420629D03*
%TO.P,U3,33,IOVDD*%
%TO.N,+3V3*%
X73723573Y-75137786D03*
%TO.P,U3,34,GPIO22*%
%TO.N,/RP2040-base/GPIO22*%
X74006415Y-74854944D03*
%TO.P,U3,35,GPIO23*%
%TO.N,/RP2040-base/GPIO23*%
X74289258Y-74572101D03*
%TO.P,U3,36,GPIO24*%
%TO.N,/RP2040-base/GPIO24*%
X74572101Y-74289258D03*
%TO.P,U3,37,GPIO25*%
%TO.N,/RP2040-base/GPIO25*%
X74854944Y-74006415D03*
%TO.P,U3,38,GPIO26_ADC0*%
%TO.N,/RP2040-base/GPIO26*%
X75137786Y-73723573D03*
%TO.P,U3,39,GPIO27_ADC1*%
%TO.N,/RP2040-base/GPIO27*%
X75420629Y-73440730D03*
%TO.P,U3,40,GPIO28_ADC2*%
%TO.N,/RP2040-base/GPIO28*%
X75703472Y-73157887D03*
%TO.P,U3,41,GPIO29_ADC3*%
%TO.N,/RP2040-base/GPIO29*%
X75986314Y-72875045D03*
%TO.P,U3,42,IOVDD*%
%TO.N,+3V3*%
X76269157Y-72592202D03*
D35*
%TO.P,U3,43,ADC_AVDD*%
X76269157Y-71407798D03*
%TO.P,U3,44,VREG_IN*%
X75986314Y-71124955D03*
%TO.P,U3,45,VREG_VOUT*%
%TO.N,/RP2040-base/1V1*%
X75703472Y-70842113D03*
%TO.P,U3,46,USB_DM*%
%TO.N,Net-(U3-USB_DM)*%
X75420629Y-70559270D03*
%TO.P,U3,47,USB_DP*%
%TO.N,Net-(U3-USB_DP)*%
X75137786Y-70276427D03*
%TO.P,U3,48,USB_VDD*%
%TO.N,+3V3*%
X74854944Y-69993585D03*
%TO.P,U3,49,IOVDD*%
X74572101Y-69710742D03*
%TO.P,U3,50,DVDD*%
%TO.N,/RP2040-base/1V1*%
X74289258Y-69427899D03*
%TO.P,U3,51,QSPI_SD3*%
%TO.N,/RP2040-base/QSPI_SD3*%
X74006415Y-69145056D03*
%TO.P,U3,52,QSPI_SCLK*%
%TO.N,/RP2040-base/QSPI_SCLK*%
X73723573Y-68862214D03*
%TO.P,U3,53,QSPI_SD0*%
%TO.N,/RP2040-base/QSPI_SD0*%
X73440730Y-68579371D03*
%TO.P,U3,54,QSPI_SD2*%
%TO.N,/RP2040-base/QSPI_SD2*%
X73157887Y-68296528D03*
%TO.P,U3,55,QSPI_SD1*%
%TO.N,/RP2040-base/QSPI_SD1*%
X72875045Y-68013686D03*
%TO.P,U3,56,QSPI_SS*%
%TO.N,/RP2040-base/QSPI_SS*%
X72592202Y-67730843D03*
D36*
%TO.P,U3,57,GND*%
%TO.N,GND*%
X72000000Y-72000000D03*
%TD*%
D33*
%TO.P,C9,1*%
%TO.N,+3V3*%
X75196123Y-76610336D03*
%TO.P,C9,2*%
%TO.N,GND*%
X75874945Y-77289158D03*
%TD*%
D14*
%TO.P,C18,1*%
%TO.N,+3V3*%
X74275000Y-55580981D03*
%TO.P,C18,2*%
%TO.N,GND*%
X72725000Y-55580981D03*
%TD*%
D23*
%TO.P,R5,1*%
%TO.N,/RP2040-base/XOUT*%
X67919993Y-76080007D03*
%TO.P,R5,2*%
%TO.N,Net-(C16-Pad1)*%
X67198745Y-76801255D03*
%TD*%
D37*
%TO.P,R6,1*%
%TO.N,/RP2040-base/QSPI_SS*%
X68825000Y-55580981D03*
%TO.P,R6,2*%
%TO.N,/RP2040-base/~{USB_BOOT}*%
X67175000Y-55580981D03*
%TD*%
D38*
%TO.P,R10,1*%
%TO.N,+3V3*%
X60599999Y-51800000D03*
%TO.P,R10,2*%
%TO.N,/RP2040-base/GPIO0*%
X61619999Y-51800000D03*
%TD*%
D39*
%TO.P,R1,1*%
%TO.N,+3V3*%
X65162500Y-47500000D03*
%TO.P,R1,2*%
%TO.N,Net-(C2-Pad1)*%
X66812500Y-47500000D03*
%TD*%
D40*
%TO.P,SWD1,1,Pin_1*%
%TO.N,/RP2040-base/SWCLK*%
X69095000Y-91770000D03*
%TO.P,SWD1,2,Pin_2*%
%TO.N,GND*%
X70365000Y-89230000D03*
%TO.P,SWD1,3,Pin_3*%
%TO.N,/RP2040-base/SWD*%
X71635000Y-91770000D03*
%TO.P,SWD1,4,Pin_4*%
%TO.N,VBUS*%
X72905000Y-89230000D03*
%TD*%
D29*
%TO.P,J1,1,Pin_1*%
%TO.N,+3V3*%
X79500000Y-80960000D03*
D30*
%TO.P,J1,2,Pin_2*%
%TO.N,GND*%
X79500000Y-83500000D03*
%TO.P,J1,3,Pin_3*%
%TO.N,VBUS*%
X79500000Y-86040000D03*
%TD*%
D41*
%TO.P,J4,1,data*%
%TO.N,/RP2040-base/GPIO13*%
X59000000Y-87840000D03*
D42*
%TO.P,J4,2,cmd*%
%TO.N,/RP2040-base/GPIO12*%
X59000000Y-83880000D03*
%TO.P,J4,3,vpwr*%
%TO.N,/vibrator power*%
X59000000Y-79920000D03*
%TO.P,J4,4,gnd*%
%TO.N,GND*%
X59000000Y-75960000D03*
%TO.P,J4,5,pwr*%
%TO.N,+3V3*%
X59000000Y-72000000D03*
%TO.P,J4,6,att*%
%TO.N,/RP2040-base/GPIO6*%
X59000000Y-68040000D03*
%TO.P,J4,7,clk*%
%TO.N,/RP2040-base/GPIO4*%
X59000000Y-64080000D03*
%TO.P,J4,8,n.c.*%
%TO.N,unconnected-(J4-n.c.-Pad8)*%
X59000000Y-60120000D03*
%TO.P,J4,9,ack*%
%TO.N,/RP2040-base/GPIO0*%
X59000000Y-56160000D03*
%TD*%
D43*
%TO.N,GND*%
X67757359Y-84020815D03*
X73414214Y-70585786D03*
X74298097Y-72530330D03*
X67000000Y-45500000D03*
X80131728Y-69525126D03*
X69525126Y-61393398D03*
X68641243Y-79247845D03*
X76419417Y-76772971D03*
X77250000Y-66700000D03*
X69171573Y-72000000D03*
X69525126Y-79424621D03*
X61750000Y-50250000D03*
X74298097Y-71469670D03*
X79424621Y-68818019D03*
X67000000Y-43500000D03*
X72707107Y-56443651D03*
X79071068Y-74121320D03*
X68818019Y-62100505D03*
X61750000Y-49250000D03*
X68818019Y-64928932D03*
X70585786Y-80485281D03*
X72707107Y-54675884D03*
X72707107Y-52908117D03*
X65250000Y-50500000D03*
X72000000Y-46250000D03*
X73237437Y-73590990D03*
X70585786Y-70585786D03*
X67757359Y-78363961D03*
X66696699Y-82960155D03*
X67403806Y-67757359D03*
X68110913Y-62100505D03*
X72250000Y-41750000D03*
X76596194Y-65989592D03*
X72000000Y-69171573D03*
X70585786Y-73414214D03*
X76242641Y-64928932D03*
D44*
%TO.N,+3V3*%
X77651194Y-48052304D03*
D43*
X74474874Y-77303301D03*
X66696699Y-69525126D03*
X67050253Y-75889087D03*
X80131728Y-72353553D03*
X70479720Y-66802765D03*
%TO.N,/RP2040-base/~{USB_BOOT}*%
X66500000Y-53750000D03*
X64250000Y-38250000D03*
%TO.N,/RP2040-base/SWCLK*%
X69900000Y-76550000D03*
%TO.N,/RP2040-base/SWD*%
X71500000Y-75000000D03*
%TO.N,/RP2040-base/GPIO16*%
X71800000Y-77400000D03*
X72000000Y-87000000D03*
D44*
%TO.N,VBUS*%
X76000000Y-45444394D03*
X61250000Y-45250000D03*
%TD*%
D45*
%TO.N,/RP2040-base/1V1*%
X75436456Y-71109129D02*
X75082362Y-71109129D01*
X74568225Y-69148933D02*
X74289258Y-69427899D01*
X73060660Y-74474874D02*
X75082362Y-72453172D01*
X74998133Y-66173440D02*
X74568225Y-66603348D01*
X74022242Y-70049009D02*
X74022242Y-69694915D01*
X76327494Y-70218091D02*
X75703472Y-70842113D01*
X75082362Y-71109129D02*
X74022242Y-70049009D01*
X69312994Y-75535534D02*
X69993585Y-74854944D01*
X70373654Y-74474874D02*
X73060660Y-74474874D01*
X69993585Y-74854944D02*
X70373654Y-74474874D01*
X74568225Y-66603348D02*
X74568225Y-69148933D01*
X74022242Y-69694915D02*
X74289258Y-69427899D01*
X75703472Y-70842113D02*
X75436456Y-71109129D01*
X78024550Y-70218091D02*
X76327494Y-70218091D01*
X75082362Y-72453172D02*
X75082362Y-71109129D01*
X69312994Y-77515433D02*
X69312994Y-75535534D01*
%TO.N,/RP2040-base/XIN*%
X68000000Y-80786950D02*
X66166369Y-78953319D01*
X66120030Y-81263932D02*
X68000000Y-81263932D01*
X68000000Y-81263932D02*
X68000000Y-80786950D01*
X67863425Y-75288047D02*
X69145056Y-74006415D01*
X66166369Y-78953319D02*
X66166369Y-76065864D01*
X66166369Y-76065864D02*
X66944187Y-75288047D01*
X66944187Y-75288047D02*
X67863425Y-75288047D01*
D46*
%TO.N,GND*%
X74430000Y-47720000D02*
X75030000Y-48320000D01*
X75874945Y-66710842D02*
X75874946Y-66710842D01*
X74430000Y-40800000D02*
X74430000Y-40280000D01*
X74430000Y-40280000D02*
X75030000Y-39680000D01*
X74430000Y-47200000D02*
X74430000Y-47720000D01*
D47*
%TO.N,/RP2040-base/USB_D+*%
X78239047Y-54149076D02*
X78054607Y-53753542D01*
X78467926Y-66811025D02*
X78533323Y-66697751D01*
X69323000Y-47970352D02*
X69323000Y-44225000D01*
X71028309Y-50907655D02*
X70686010Y-50751333D01*
X72405403Y-51073993D02*
X71755153Y-51066264D01*
X71755153Y-51066264D02*
X71389371Y-51013672D01*
X70686010Y-50751333D02*
X70369430Y-50547879D01*
X69478845Y-49358191D02*
X69372828Y-48997129D01*
X78054607Y-53753542D02*
X77836396Y-53375588D01*
X78635467Y-66312010D02*
X78636500Y-66246590D01*
X75728407Y-51525795D02*
X75365939Y-51375656D01*
X76662632Y-52094642D02*
X76305136Y-51844319D01*
X75365939Y-51375656D02*
X74992802Y-51254416D01*
X74992802Y-51254416D02*
X74611298Y-51162825D01*
X69320236Y-48631347D02*
X69312507Y-47981097D01*
X69312507Y-47981097D02*
X69323000Y-47970352D01*
X78388312Y-54559180D02*
X78239047Y-54149076D01*
X78615087Y-55845288D02*
X78577050Y-55410526D01*
X77568255Y-67731745D02*
X78398517Y-66901483D01*
X78617228Y-66450564D02*
X78635467Y-66312010D01*
X69635167Y-49700490D02*
X69478845Y-49358191D01*
X77836396Y-53375588D02*
X77586075Y-53018090D01*
X73827580Y-51070268D02*
X73157427Y-51064228D01*
X78617228Y-66227318D02*
X78617228Y-56063500D01*
X78577050Y-55410526D02*
X78501266Y-54980733D01*
X73157427Y-51064228D02*
X72415403Y-51064228D01*
X72415403Y-51064228D02*
X72405403Y-51073993D01*
X78617228Y-56063500D02*
X78615087Y-55845288D01*
X70123000Y-43425000D02*
X70250000Y-43425000D01*
X74223797Y-51101452D02*
X73827580Y-51070268D01*
X70369430Y-50547879D02*
X70085044Y-50301456D01*
X75941491Y-51634367D02*
X75728407Y-51525795D01*
X77305548Y-52683770D02*
X76996951Y-52375171D01*
X69838621Y-50017070D02*
X69635167Y-49700490D01*
X71389371Y-51013672D02*
X71028309Y-50907655D01*
X70085044Y-50301456D02*
X69838621Y-50017070D01*
X76996951Y-52375171D02*
X76662632Y-52094642D01*
X69372828Y-48997129D02*
X69320236Y-48631347D01*
X78583376Y-66576909D02*
X78617228Y-66450564D01*
X78533323Y-66697751D02*
X78583376Y-66576909D01*
X78636500Y-66246590D02*
X78617228Y-66227318D01*
X77586075Y-53018090D02*
X77305548Y-52683770D01*
X78501266Y-54980733D02*
X78388312Y-54559180D01*
X74611298Y-51162825D02*
X74223797Y-51101452D01*
X78398517Y-66901483D02*
X78467926Y-66811025D01*
X76305136Y-51844319D02*
X75941491Y-51634367D01*
X70123000Y-43425000D02*
G75*
G03*
X69323000Y-44225000I0J-800000D01*
G01*
D48*
%TO.N,+3V3*%
X62827000Y-44173000D02*
X60164500Y-44173000D01*
D45*
X76906204Y-64972476D02*
X76906204Y-58521428D01*
D48*
X77000000Y-40071867D02*
X75881133Y-38953000D01*
D45*
X75917372Y-68110913D02*
X76582759Y-68110913D01*
X70500000Y-78187184D02*
X70500000Y-76045585D01*
X75903229Y-68096771D02*
X75691097Y-68308903D01*
D48*
X56173000Y-69173000D02*
X56173000Y-48164500D01*
D45*
X76596194Y-72919239D02*
X78887220Y-72919239D01*
D46*
X74344777Y-57044777D02*
X74344777Y-53744777D01*
X74275000Y-53850000D02*
X74275000Y-53719123D01*
D45*
X75949844Y-57565068D02*
X75402010Y-57565068D01*
X76539626Y-71137330D02*
X76269157Y-71407798D01*
X78887220Y-72919239D02*
X79247845Y-72558614D01*
X75691097Y-69157431D02*
X74854944Y-69993585D01*
D48*
X59000000Y-72000000D02*
X56173000Y-69173000D01*
D45*
X80540500Y-82000500D02*
X79500000Y-80960000D01*
X75196123Y-66682557D02*
X76906204Y-64972476D01*
X76269157Y-72592202D02*
X76596194Y-72919239D01*
X75903229Y-68096771D02*
X75917372Y-68110913D01*
X78731657Y-70925198D02*
X79438763Y-71632304D01*
X78731657Y-70925198D02*
X77600286Y-70925198D01*
X74983991Y-69298852D02*
X74572101Y-69710742D01*
X77105311Y-71137330D02*
X76539626Y-71137330D01*
X74474874Y-77303301D02*
X73590991Y-78187184D01*
X66696699Y-69525126D02*
X66696699Y-69496842D01*
X75196123Y-67389664D02*
X75196123Y-67417948D01*
X74474874Y-75889087D02*
X73723573Y-75137786D01*
D46*
X65916500Y-49806408D02*
X65916500Y-48254000D01*
D45*
X77458864Y-70783776D02*
X76327494Y-70783776D01*
X74863500Y-93336500D02*
X80540500Y-87659500D01*
D48*
X77000000Y-47401110D02*
X77000000Y-40071867D01*
X60164500Y-44173000D02*
X56837500Y-47500000D01*
D45*
X70500000Y-76045585D02*
X70842113Y-75703472D01*
X76327494Y-70783776D02*
X75986314Y-71124955D01*
D48*
X77651194Y-48052304D02*
X77000000Y-47401110D01*
D45*
X75196123Y-67417948D02*
X75874945Y-68096771D01*
X77600286Y-70925198D02*
X77458864Y-70783776D01*
D46*
X74275000Y-53719123D02*
X72905877Y-52350000D01*
D45*
X73590991Y-78187184D02*
X70055456Y-78187184D01*
X68605887Y-76808326D02*
X67969491Y-76808326D01*
X79247845Y-72558614D02*
X79926667Y-72558614D01*
X79438763Y-71632304D02*
X79247845Y-71823223D01*
X75691097Y-68308903D02*
X75691097Y-69157431D01*
X60846500Y-93336500D02*
X74863500Y-93336500D01*
D46*
X65916500Y-48254000D02*
X65162500Y-47500000D01*
D45*
X68605887Y-76808326D02*
X68605887Y-75676955D01*
X71407798Y-67730843D02*
X70020101Y-66343146D01*
D46*
X60200000Y-51800000D02*
X56837500Y-48437500D01*
X68460092Y-52350000D02*
X65916500Y-49806408D01*
X74865068Y-57565068D02*
X74344777Y-57044777D01*
D48*
X56173000Y-48164500D02*
X56837500Y-47500000D01*
D45*
X67969491Y-76808326D02*
X67050253Y-75889087D01*
X75196123Y-67389664D02*
X75196123Y-66682557D01*
X77600286Y-71632304D02*
X77105311Y-71137330D01*
D48*
X65162500Y-47500000D02*
X56837500Y-47500000D01*
X68047000Y-38953000D02*
X62827000Y-44173000D01*
D46*
X75402010Y-57565068D02*
X74865068Y-57565068D01*
D45*
X75874945Y-68096771D02*
X75903229Y-68096771D01*
X74983991Y-67601796D02*
X74983991Y-69298852D01*
X76582759Y-68110913D02*
X78731657Y-70259810D01*
X74503158Y-77303301D02*
X74474874Y-77303301D01*
X74474874Y-75889087D02*
X75196123Y-76610336D01*
D46*
X56837500Y-48437500D02*
X56837500Y-47500000D01*
D45*
X68605887Y-77473714D02*
X68605887Y-76808326D01*
X70479720Y-66802765D02*
X70020101Y-66343146D01*
X68605887Y-75676955D02*
X69710742Y-74572101D01*
X59760000Y-92250000D02*
X60846500Y-93336500D01*
X70020101Y-66343146D02*
X70020101Y-66173440D01*
X76906204Y-58521428D02*
X75949844Y-57565068D01*
X79247845Y-71823223D02*
X79247845Y-72558614D01*
X80540500Y-87659500D02*
X80540500Y-82000500D01*
X75196123Y-67389664D02*
X74983991Y-67601796D01*
D48*
X75881133Y-38953000D02*
X68047000Y-38953000D01*
D45*
X78731657Y-70259810D02*
X78731657Y-70925198D01*
X69319358Y-78187184D02*
X68605887Y-77473714D01*
D46*
X72905877Y-52350000D02*
X68460092Y-52350000D01*
D45*
X70055456Y-78187184D02*
X69319358Y-78187184D01*
X75196123Y-76610336D02*
X74503158Y-77303301D01*
X70055456Y-78187184D02*
X70500000Y-78187184D01*
X79926667Y-72558614D02*
X80131728Y-72353553D01*
X66696699Y-69496842D02*
X67389664Y-68803877D01*
X67389664Y-68803877D02*
X68862214Y-70276427D01*
X79438763Y-71632304D02*
X77600286Y-71632304D01*
D46*
X60599999Y-51800000D02*
X60200000Y-51800000D01*
D47*
%TO.N,/RP2040-base/USB_D-*%
X79140516Y-67759484D02*
X78300000Y-68600000D01*
X79237451Y-67659465D02*
X79140516Y-67759484D01*
X79763500Y-66255468D02*
X79761300Y-66394735D01*
X79652861Y-66939933D02*
X79546274Y-67197267D01*
X70450000Y-45137500D02*
X70450000Y-48436500D01*
X79546274Y-67197267D02*
X79407010Y-67438487D01*
X79761300Y-66394735D02*
X79724948Y-66670888D01*
X79407010Y-67438487D02*
X79237451Y-67659465D01*
X71950000Y-49936500D02*
X73636500Y-49936500D01*
X79763500Y-56063500D02*
X79763500Y-66255468D01*
X79724948Y-66670888D02*
X79652861Y-66939933D01*
X70450000Y-48436500D02*
G75*
G03*
X71950000Y-49936500I1500000J0D01*
G01*
X79763500Y-56063500D02*
G75*
G03*
X73636500Y-49936500I-6127000J0D01*
G01*
D45*
%TO.N,Net-(C16-Pad1)*%
X67198745Y-78498745D02*
X68679530Y-79979530D01*
X67198745Y-76801255D02*
X67198745Y-78498745D01*
X68679530Y-82053431D02*
X69470030Y-82843931D01*
X68679530Y-79979530D02*
X68679530Y-82053431D01*
X69470030Y-82843931D02*
X70500030Y-82843931D01*
X70500030Y-82843931D02*
X71120030Y-82223931D01*
%TO.N,/RP2040-base/QSPI_SS*%
X68202010Y-57565068D02*
X67343049Y-57565068D01*
X66852263Y-58055854D02*
X66852263Y-61990904D01*
X67343049Y-57565068D02*
X66852263Y-58055854D01*
X68825000Y-55580981D02*
X68202010Y-56203971D01*
X68202010Y-56203971D02*
X68202010Y-57565068D01*
X66852263Y-61990904D02*
X72592202Y-67730843D01*
%TO.N,/RP2040-base/~{USB_BOOT}*%
X63000000Y-38125000D02*
X57000000Y-38125000D01*
X64125000Y-38125000D02*
X63000000Y-38125000D01*
X64250000Y-38250000D02*
X64125000Y-38125000D01*
X67175000Y-55580981D02*
X67175000Y-54425000D01*
X67175000Y-54425000D02*
X66500000Y-53750000D01*
%TO.N,/RP2040-base/XOUT*%
X67919994Y-76080006D02*
X67919994Y-75797163D01*
X67919994Y-75797163D02*
X69427899Y-74289258D01*
%TO.N,/RP2040-base/QSPI_SD1*%
X73142061Y-67392576D02*
X72644174Y-66894689D01*
X73142061Y-67746669D02*
X73142061Y-67392576D01*
X72644174Y-66894689D02*
X72155563Y-66894689D01*
X67205816Y-61944942D02*
X67205816Y-59116514D01*
X72155563Y-66894689D02*
X67205816Y-61944942D01*
X72875045Y-68013686D02*
X73142061Y-67746669D01*
X67487262Y-58835068D02*
X68202010Y-58835068D01*
X67205816Y-59116514D02*
X67487262Y-58835068D01*
%TO.N,/RP2040-base/QSPI_SD2*%
X68202010Y-60105067D02*
X68901476Y-60105067D01*
X73424904Y-68029512D02*
X73157887Y-68296528D01*
X68901476Y-60105067D02*
X70055456Y-61259048D01*
X73424904Y-67316208D02*
X73424904Y-68029512D01*
X70055456Y-63946761D02*
X73424904Y-67316208D01*
X70055456Y-61259048D02*
X70055456Y-63946761D01*
%TO.N,/RP2040-base/QSPI_SD0*%
X73707746Y-68312355D02*
X73440730Y-68579371D01*
X73707746Y-62514079D02*
X73707746Y-68312355D01*
X75402010Y-61375068D02*
X74846757Y-61375068D01*
X74846757Y-61375068D02*
X73707746Y-62514079D01*
%TO.N,/RP2040-base/QSPI_SCLK*%
X73995322Y-68590464D02*
X73995322Y-64063295D01*
X76398204Y-60530728D02*
X75972544Y-60105067D01*
X73995322Y-64063295D02*
X76398204Y-61660413D01*
X75972544Y-60105067D02*
X75402010Y-60105067D01*
X73723573Y-68862214D02*
X73995322Y-68590464D01*
X76398204Y-61660413D02*
X76398204Y-60530728D01*
%TO.N,/RP2040-base/QSPI_SD3*%
X74006415Y-69145056D02*
X74314225Y-68837247D01*
X74314225Y-68837247D02*
X74314225Y-64103603D01*
X74314225Y-64103603D02*
X76652204Y-61765624D01*
X76652204Y-59370514D02*
X76116758Y-58835068D01*
X76116758Y-58835068D02*
X75402010Y-58835068D01*
X76652204Y-61765624D02*
X76652204Y-59370514D01*
%TO.N,/RP2040-base/GPIO0*%
X66000000Y-56180001D02*
X66000000Y-63000000D01*
X71013686Y-68013686D02*
X71124955Y-68013686D01*
X61619999Y-51800000D02*
X66000000Y-56180001D01*
X59000000Y-56160000D02*
X61619999Y-53540001D01*
X61619999Y-53540001D02*
X61619999Y-51800000D01*
X66000000Y-63000000D02*
X71013686Y-68013686D01*
%TO.N,/RP2040-base/GPIO1*%
X65685585Y-58685585D02*
X65685585Y-61225585D01*
X65685585Y-63140000D02*
X65685585Y-61225585D01*
X62500000Y-55500000D02*
X65685585Y-58685585D01*
X70842113Y-68296528D02*
X65685585Y-63140000D01*
%TO.N,/RP2040-base/GPIO2*%
X65431585Y-60971585D02*
X62500000Y-58040000D01*
X65431585Y-63451686D02*
X65431585Y-60971585D01*
X70559270Y-68579371D02*
X65431585Y-63451686D01*
%TO.N,/RP2040-base/GPIO3*%
X62500000Y-60580000D02*
X62500000Y-61085787D01*
X62500000Y-61085787D02*
X70276427Y-68862214D01*
%TO.N,/RP2040-base/GPIO4*%
X62500000Y-63120000D02*
X61540000Y-64080000D01*
X69726568Y-68878039D02*
X69726568Y-68671565D01*
X69993585Y-69145056D02*
X69726568Y-68878039D01*
X61540000Y-64080000D02*
X59000000Y-64080000D01*
X64175003Y-63120000D02*
X62500000Y-63120000D01*
X69726568Y-68671565D02*
X64175003Y-63120000D01*
%TO.N,/RP2040-base/GPIO5*%
X66355793Y-65660000D02*
X62500000Y-65660000D01*
X68200000Y-67504207D02*
X66355793Y-65660000D01*
X68200000Y-67917157D02*
X68200000Y-67504207D01*
X69710742Y-69427899D02*
X68200000Y-67917157D01*
%TO.N,/RP2040-base/GPIO6*%
X62500000Y-68200000D02*
X59160000Y-68200000D01*
X63450000Y-67250000D02*
X67586583Y-67250000D01*
X67586583Y-67250000D02*
X67900000Y-67563417D01*
X59160000Y-68200000D02*
X59000000Y-68040000D01*
X62500000Y-68200000D02*
X63450000Y-67250000D01*
X67900000Y-67563417D02*
X67900000Y-68182843D01*
X67900000Y-68182843D02*
X69427899Y-69710742D01*
%TO.N,/RP2040-base/GPIO7*%
X68250000Y-69098529D02*
X69145056Y-69993585D01*
X62500000Y-70740000D02*
X64788153Y-70740000D01*
X67273980Y-68254173D02*
X67554173Y-68254173D01*
X64788153Y-70740000D02*
X67273980Y-68254173D01*
X68250000Y-68950000D02*
X68250000Y-69098529D01*
X67554173Y-68254173D02*
X68250000Y-68950000D01*
%TO.N,/RP2040-base/GPIO8*%
X68312355Y-70292254D02*
X68579371Y-70559270D01*
X66907746Y-70292254D02*
X68312355Y-70292254D01*
X62500000Y-73280000D02*
X63920000Y-73280000D01*
X63920000Y-73280000D02*
X66907746Y-70292254D01*
%TO.N,/RP2040-base/GPIO9*%
X68296528Y-70842113D02*
X68029511Y-70575096D01*
X67675419Y-70575096D02*
X67646576Y-70603939D01*
X67287366Y-70603939D02*
X62500000Y-75391306D01*
X62500000Y-75391306D02*
X62500000Y-75820000D01*
X67646576Y-70603939D02*
X67287366Y-70603939D01*
X68029511Y-70575096D02*
X67675419Y-70575096D01*
%TO.N,/RP2040-base/GPIO10*%
X68013686Y-71124955D02*
X67746670Y-70857939D01*
X63794500Y-77000000D02*
X63794500Y-77065500D01*
X63794500Y-77065500D02*
X62500000Y-78360000D01*
X67746670Y-70857939D02*
X67392576Y-70857939D01*
X63794500Y-74456015D02*
X63794500Y-77000000D01*
X67392576Y-70857939D02*
X63794500Y-74456015D01*
%TO.N,/RP2040-base/GPIO11*%
X67730843Y-71407798D02*
X64048001Y-75090640D01*
X64048001Y-79351999D02*
X63600000Y-79800000D01*
X63600000Y-79800000D02*
X62500000Y-80900000D01*
X64048001Y-75090640D02*
X64048001Y-79351999D01*
%TO.N,/RP2040-base/GPIO12*%
X62500000Y-83440000D02*
X64400000Y-81540000D01*
X62500000Y-83440000D02*
X59440000Y-83440000D01*
X64400000Y-75923045D02*
X67730843Y-72592202D01*
X64400000Y-81540000D02*
X64400000Y-75923045D01*
X59440000Y-83440000D02*
X59000000Y-83880000D01*
%TO.N,/RP2040-base/GPIO13*%
X64654000Y-76234731D02*
X64654000Y-82757490D01*
X58740000Y-88100000D02*
X59000000Y-87840000D01*
X59179605Y-87660395D02*
X59179605Y-88019605D01*
X64654000Y-82757490D02*
X62471990Y-84939500D01*
X68013686Y-72875045D02*
X64654000Y-76234731D01*
X62471990Y-84939500D02*
X61900500Y-84939500D01*
X61900500Y-84939500D02*
X59179605Y-87660395D01*
X58740000Y-92250000D02*
X58740000Y-88100000D01*
%TO.N,/RP2040-base/GPIO14*%
X68296528Y-73157887D02*
X64908000Y-76546415D01*
X64908000Y-76546415D02*
X64908000Y-83572000D01*
X64908000Y-83572000D02*
X62500000Y-85980000D01*
%TO.N,/RP2040-base/GPIO15*%
X65200000Y-85820000D02*
X62500000Y-88520000D01*
X65200000Y-76613625D02*
X65200000Y-85820000D01*
X68579371Y-73440730D02*
X67620101Y-74400000D01*
X67620101Y-74400000D02*
X67413625Y-74400000D01*
X67413625Y-74400000D02*
X65200000Y-76613625D01*
%TO.N,/RP2040-base/SWCLK*%
X69900000Y-76550000D02*
X69900000Y-75514213D01*
X69900000Y-75514213D02*
X70276427Y-75137786D01*
%TO.N,/RP2040-base/SWD*%
X71500000Y-75000000D02*
X70979899Y-75000000D01*
X70979899Y-75000000D02*
X70559270Y-75420629D01*
%TO.N,/RP2040-base/GPIO16*%
X70857939Y-76253330D02*
X71124955Y-75986314D01*
X70857939Y-76607424D02*
X70857939Y-76253330D01*
X72000000Y-87000000D02*
X66560000Y-87000000D01*
X71650515Y-77400000D02*
X70857939Y-76607424D01*
X71800000Y-77400000D02*
X71650515Y-77400000D01*
X66560000Y-87000000D02*
X62500000Y-91060000D01*
D48*
%TO.N,VBUS*%
X73856000Y-41600000D02*
X72256000Y-40000000D01*
D46*
X73200000Y-48600000D02*
X73600000Y-48200000D01*
D48*
X76000000Y-42555606D02*
X76000000Y-45444394D01*
X75044394Y-46400000D02*
X76000000Y-45444394D01*
D46*
X73600000Y-48200000D02*
X73600000Y-46600000D01*
D48*
X74455000Y-41600000D02*
X73856000Y-41600000D01*
X68500000Y-40000000D02*
X65437500Y-43062500D01*
X72256000Y-40000000D02*
X68500000Y-40000000D01*
X74455000Y-46400000D02*
X75044394Y-46400000D01*
D46*
X63087500Y-45250000D02*
X63137500Y-45200000D01*
D48*
X64737500Y-45200000D02*
X65437500Y-44500000D01*
D46*
X72000000Y-48600000D02*
X73200000Y-48600000D01*
X71400000Y-45137500D02*
X71400000Y-48000000D01*
X71400000Y-48000000D02*
X72000000Y-48600000D01*
D48*
X75044394Y-41600000D02*
X76000000Y-42555606D01*
X65437500Y-43062500D02*
X65437500Y-44500000D01*
X74455000Y-41600000D02*
X75044394Y-41600000D01*
X61250000Y-45250000D02*
X63087500Y-45250000D01*
D46*
X73800000Y-46400000D02*
X74455000Y-46400000D01*
D48*
X63137500Y-45200000D02*
X64737500Y-45200000D01*
D46*
X73600000Y-46600000D02*
X73800000Y-46400000D01*
D45*
%TO.N,Net-(J3-CC1)*%
X74490000Y-45250000D02*
X73783000Y-45250000D01*
X73783000Y-45250000D02*
X72750000Y-46283000D01*
X72750000Y-46283000D02*
X72750000Y-46740000D01*
%TO.N,Net-(J3-CC2)*%
X72490000Y-41000000D02*
X72010000Y-41000000D01*
X74490000Y-42250000D02*
X73740000Y-42250000D01*
X73740000Y-42250000D02*
X72490000Y-41000000D01*
D48*
%TO.N,Net-(C2-Pad1)*%
X66812500Y-49450000D02*
X66762500Y-49500000D01*
X66812500Y-47500000D02*
X66812500Y-49450000D01*
D45*
%TO.N,Net-(U3-USB_DP)*%
X76589123Y-68825091D02*
X75137786Y-70276427D01*
%TO.N,Net-(U3-USB_DM)*%
X77296230Y-69532197D02*
X76447702Y-69532197D01*
X76447702Y-69532197D02*
X75420629Y-70559270D01*
%TD*%
%TA.AperFunction,Conductor*%
%TO.N,/RP2040-base/USB_D-*%
G36*
X75340677Y-43569685D02*
G01*
X75361319Y-43586319D01*
X75613681Y-43838681D01*
X75647166Y-43900004D01*
X75650000Y-43926362D01*
X75650000Y-44598638D01*
X75630315Y-44665677D01*
X75613681Y-44686319D01*
X75361319Y-44938681D01*
X75299996Y-44972166D01*
X75273638Y-44975000D01*
X75107339Y-44975000D01*
X75083147Y-44972617D01*
X75082559Y-44972500D01*
X75082558Y-44972500D01*
X73897442Y-44972500D01*
X73860252Y-44979897D01*
X73818077Y-45008078D01*
X73817003Y-45009686D01*
X73763389Y-45054489D01*
X73727790Y-45064010D01*
X73723873Y-45064452D01*
X73712337Y-45065752D01*
X73688347Y-45075691D01*
X73685975Y-45076233D01*
X73658836Y-45079348D01*
X72901983Y-45082297D01*
X72834867Y-45062874D01*
X72788907Y-45010249D01*
X72777500Y-44958298D01*
X72777500Y-44587141D01*
X72777500Y-44587140D01*
X72777500Y-44583568D01*
X72774808Y-44560366D01*
X72732903Y-44465458D01*
X72659542Y-44392097D01*
X72612088Y-44371144D01*
X72564633Y-44350191D01*
X72544979Y-44347911D01*
X72544969Y-44347910D01*
X72541432Y-44347500D01*
X72158568Y-44347500D01*
X72155031Y-44347910D01*
X72155020Y-44347911D01*
X72135366Y-44350191D01*
X72040458Y-44392097D01*
X71962681Y-44469874D01*
X71901357Y-44503358D01*
X71831666Y-44498374D01*
X71787319Y-44469874D01*
X71749735Y-44432290D01*
X71709542Y-44392097D01*
X71667635Y-44373594D01*
X71614633Y-44350191D01*
X71594979Y-44347911D01*
X71594969Y-44347910D01*
X71591432Y-44347500D01*
X71208568Y-44347500D01*
X71205031Y-44347910D01*
X71205020Y-44347911D01*
X71185366Y-44350191D01*
X71090456Y-44392098D01*
X71017098Y-44465456D01*
X70975191Y-44560366D01*
X70972911Y-44580020D01*
X70972910Y-44580031D01*
X70972500Y-44583568D01*
X70972500Y-44587140D01*
X70972500Y-44587141D01*
X70972500Y-45016092D01*
X70952815Y-45083131D01*
X70950000Y-45086630D01*
X70949940Y-45326032D01*
X70930238Y-45393066D01*
X70877423Y-45438807D01*
X70825940Y-45450000D01*
X70074500Y-45450000D01*
X70007461Y-45430315D01*
X69961706Y-45377511D01*
X69950500Y-45326000D01*
X69950500Y-44237211D01*
X69952883Y-44213020D01*
X69958819Y-44183177D01*
X69977329Y-44138484D01*
X69987323Y-44123528D01*
X70021528Y-44089323D01*
X70036484Y-44079329D01*
X70081173Y-44060819D01*
X70111028Y-44054881D01*
X70135212Y-44052500D01*
X70199192Y-44052500D01*
X70205354Y-44052500D01*
X70222999Y-44053761D01*
X70249000Y-44057500D01*
X73302115Y-44057500D01*
X73369154Y-44077185D01*
X73409426Y-44119370D01*
X73432363Y-44158987D01*
X73567320Y-44392097D01*
X73574510Y-44404515D01*
X73593340Y-44429621D01*
X73633614Y-44471808D01*
X73666634Y-44491922D01*
X73692122Y-44507448D01*
X73759161Y-44527133D01*
X73796491Y-44532500D01*
X73796492Y-44532500D01*
X74922690Y-44532500D01*
X74926000Y-44532500D01*
X74954166Y-44529472D01*
X74956197Y-44529030D01*
X74975206Y-44527500D01*
X75082558Y-44527500D01*
X75119748Y-44520102D01*
X75161922Y-44491922D01*
X75190102Y-44449748D01*
X75197500Y-44412558D01*
X75197500Y-44087442D01*
X75190102Y-44050252D01*
X75161922Y-44008078D01*
X75119748Y-43979898D01*
X75110613Y-43973794D01*
X75101550Y-43965798D01*
X75030368Y-43920051D01*
X74963328Y-43900366D01*
X74926001Y-43895000D01*
X74926000Y-43895000D01*
X74039000Y-43895000D01*
X73971961Y-43875315D01*
X73926206Y-43822511D01*
X73915000Y-43771000D01*
X73915000Y-43729000D01*
X73934685Y-43661961D01*
X73987489Y-43616206D01*
X74039000Y-43605000D01*
X74922690Y-43605000D01*
X74926000Y-43605000D01*
X74954166Y-43601972D01*
X75005677Y-43590766D01*
X75060914Y-43563115D01*
X75116418Y-43550000D01*
X75273638Y-43550000D01*
X75340677Y-43569685D01*
G37*
%TD.AperFunction*%
%TD*%
%TA.AperFunction,Conductor*%
%TO.N,GND*%
G36*
X80800000Y-50075000D02*
G01*
X77800000Y-50075000D01*
X77800000Y-48561628D01*
X77917220Y-48513075D01*
X78027412Y-48428522D01*
X78111965Y-48318330D01*
X78165117Y-48190009D01*
X78183246Y-48052304D01*
X78165117Y-47914599D01*
X78111965Y-47786278D01*
X78111964Y-47786277D01*
X78027412Y-47676085D01*
X77917219Y-47591532D01*
X77800000Y-47542979D01*
X77800000Y-37875000D01*
X80800000Y-37875000D01*
X80800000Y-50075000D01*
G37*
%TD.AperFunction*%
%TD*%
%TA.AperFunction,Conductor*%
%TO.N,/RP2040-base/USB_D+*%
G36*
X70915539Y-42944685D02*
G01*
X70961294Y-42997489D01*
X70972500Y-43049000D01*
X70972500Y-43416432D01*
X70972910Y-43419969D01*
X70972911Y-43419979D01*
X70975191Y-43439633D01*
X70989703Y-43472500D01*
X71017097Y-43534542D01*
X71090458Y-43607903D01*
X71185366Y-43649808D01*
X71208568Y-43652500D01*
X71212142Y-43652500D01*
X71587858Y-43652500D01*
X71591432Y-43652500D01*
X71614634Y-43649808D01*
X71709542Y-43607903D01*
X71782903Y-43534542D01*
X71782903Y-43534541D01*
X71787319Y-43530126D01*
X71848642Y-43496641D01*
X71918334Y-43501625D01*
X71962681Y-43530126D01*
X71967097Y-43534542D01*
X72040458Y-43607903D01*
X72135366Y-43649808D01*
X72158568Y-43652500D01*
X72162142Y-43652500D01*
X72537858Y-43652500D01*
X72541432Y-43652500D01*
X72564634Y-43649808D01*
X72659542Y-43607903D01*
X72732903Y-43534542D01*
X72774808Y-43439634D01*
X72777500Y-43416432D01*
X72777500Y-43049000D01*
X72797185Y-42981961D01*
X72849989Y-42936206D01*
X72901500Y-42925000D01*
X73707083Y-42925000D01*
X73774122Y-42944685D01*
X73810184Y-42980108D01*
X73818078Y-42991922D01*
X73860252Y-43020102D01*
X73897442Y-43027500D01*
X74926000Y-43027500D01*
X74993039Y-43047185D01*
X75038794Y-43099989D01*
X75050000Y-43151500D01*
X75050000Y-43348500D01*
X75030315Y-43415539D01*
X74977511Y-43461294D01*
X74926000Y-43472500D01*
X73897442Y-43472500D01*
X73860252Y-43479897D01*
X73818077Y-43508077D01*
X73789897Y-43550252D01*
X73782500Y-43587441D01*
X73782500Y-43912558D01*
X73789897Y-43949747D01*
X73818077Y-43991922D01*
X73860252Y-44020102D01*
X73897442Y-44027500D01*
X74926000Y-44027500D01*
X74993039Y-44047185D01*
X75038794Y-44099989D01*
X75050000Y-44151500D01*
X75050000Y-44276000D01*
X75030315Y-44343039D01*
X74977511Y-44388794D01*
X74926000Y-44400000D01*
X73796492Y-44400000D01*
X73729453Y-44380315D01*
X73689179Y-44338128D01*
X73653210Y-44276000D01*
X73450000Y-43925000D01*
X70249000Y-43925000D01*
X70181961Y-43905315D01*
X70136206Y-43852511D01*
X70125000Y-43801000D01*
X70125000Y-43732716D01*
X70125958Y-43717336D01*
X70142195Y-43587441D01*
X70211422Y-43033618D01*
X70239269Y-42969540D01*
X70297341Y-42930687D01*
X70334464Y-42925000D01*
X70848500Y-42925000D01*
X70915539Y-42944685D01*
G37*
%TD.AperFunction*%
%TD*%
%TA.AperFunction,Conductor*%
%TO.N,GND*%
G36*
X80603056Y-37300801D02*
G01*
X80730342Y-37313337D01*
X80742353Y-37315726D01*
X80861799Y-37351960D01*
X80873110Y-37356644D01*
X80983195Y-37415486D01*
X80993378Y-37422291D01*
X81089862Y-37501474D01*
X81098525Y-37510137D01*
X81177708Y-37606621D01*
X81184514Y-37616807D01*
X81229116Y-37700251D01*
X81243351Y-37726881D01*
X81248040Y-37738202D01*
X81284272Y-37857645D01*
X81286662Y-37869660D01*
X81299199Y-37996941D01*
X81299500Y-38003068D01*
X81299500Y-92696930D01*
X81299199Y-92703056D01*
X81286662Y-92830338D01*
X81284272Y-92842354D01*
X81248040Y-92961797D01*
X81243351Y-92973118D01*
X81184515Y-93083191D01*
X81177708Y-93093378D01*
X81098525Y-93189862D01*
X81089862Y-93198525D01*
X80993378Y-93277708D01*
X80983191Y-93284515D01*
X80873118Y-93343351D01*
X80861797Y-93348040D01*
X80742354Y-93384272D01*
X80730338Y-93386662D01*
X80603056Y-93399199D01*
X80596930Y-93399500D01*
X75221503Y-93399500D01*
X75177309Y-93381194D01*
X75159003Y-93337000D01*
X75177309Y-93292806D01*
X76538851Y-91931264D01*
X80645102Y-87825011D01*
X80662176Y-87812897D01*
X80662649Y-87812670D01*
X80680962Y-87789705D01*
X80685607Y-87784506D01*
X80690775Y-87779340D01*
X80694655Y-87773162D01*
X80698709Y-87767451D01*
X80717011Y-87744503D01*
X80717127Y-87743996D01*
X80725145Y-87724640D01*
X80725418Y-87724206D01*
X80728703Y-87695034D01*
X80729879Y-87688121D01*
X80731500Y-87681022D01*
X80731500Y-87673735D01*
X80731893Y-87666737D01*
X80735180Y-87637565D01*
X80735118Y-87637389D01*
X80735007Y-87637069D01*
X80731500Y-87616428D01*
X80731500Y-82043571D01*
X80735007Y-82022929D01*
X80735180Y-82022435D01*
X80731893Y-81993260D01*
X80731500Y-81986263D01*
X80731500Y-81978982D01*
X80731500Y-81978979D01*
X80729875Y-81971862D01*
X80728703Y-81964960D01*
X80728353Y-81961857D01*
X80725418Y-81935794D01*
X80725137Y-81935348D01*
X80717126Y-81916004D01*
X80717011Y-81915497D01*
X80717009Y-81915494D01*
X80698703Y-81892539D01*
X80694653Y-81886832D01*
X80690775Y-81880660D01*
X80685621Y-81875506D01*
X80680960Y-81870291D01*
X80662649Y-81847330D01*
X80662646Y-81847328D01*
X80662171Y-81847099D01*
X80645100Y-81834985D01*
X80495806Y-81685691D01*
X80477500Y-81641497D01*
X80477500Y-80097442D01*
X80474688Y-80083305D01*
X80470102Y-80060252D01*
X80441922Y-80018078D01*
X80399748Y-79989898D01*
X80362558Y-79982500D01*
X78637442Y-79982500D01*
X78618846Y-79986199D01*
X78600251Y-79989898D01*
X78558078Y-80018078D01*
X78529898Y-80060251D01*
X78529897Y-80060252D01*
X78529898Y-80060252D01*
X78522500Y-80097442D01*
X78522500Y-81822558D01*
X78529898Y-81859748D01*
X78558078Y-81901922D01*
X78600252Y-81930102D01*
X78637442Y-81937500D01*
X80181497Y-81937500D01*
X80225691Y-81955806D01*
X80331194Y-82061309D01*
X80349500Y-82105503D01*
X80349500Y-82820389D01*
X80331194Y-82864583D01*
X80287000Y-82882889D01*
X80242806Y-82864583D01*
X80238687Y-82860039D01*
X80194183Y-82805811D01*
X80045419Y-82683724D01*
X79875692Y-82593003D01*
X79691524Y-82537136D01*
X79627000Y-82530780D01*
X79627000Y-83013118D01*
X79535763Y-83000000D01*
X79464237Y-83000000D01*
X79373000Y-83013118D01*
X79373000Y-82530781D01*
X79372999Y-82530780D01*
X79308475Y-82537136D01*
X79124307Y-82593003D01*
X78954580Y-82683724D01*
X78805813Y-82805813D01*
X78683724Y-82954580D01*
X78593003Y-83124307D01*
X78537136Y-83308477D01*
X78530782Y-83373000D01*
X79016182Y-83373000D01*
X79000000Y-83428111D01*
X79000000Y-83571889D01*
X79016182Y-83627000D01*
X78530782Y-83627000D01*
X78537136Y-83691522D01*
X78593003Y-83875692D01*
X78683724Y-84045419D01*
X78805813Y-84194186D01*
X78954580Y-84316275D01*
X79124307Y-84406996D01*
X79308477Y-84462863D01*
X79373000Y-84469217D01*
X79373000Y-83986881D01*
X79464237Y-84000000D01*
X79535763Y-84000000D01*
X79627000Y-83986881D01*
X79627000Y-84469217D01*
X79691522Y-84462863D01*
X79875692Y-84406996D01*
X80045419Y-84316275D01*
X80194183Y-84194188D01*
X80238686Y-84139961D01*
X80280873Y-84117411D01*
X80326649Y-84131296D01*
X80349199Y-84173483D01*
X80349500Y-84179610D01*
X80349500Y-85359601D01*
X80331194Y-85403795D01*
X80287000Y-85422101D01*
X80242806Y-85403795D01*
X80238687Y-85399251D01*
X80233155Y-85392510D01*
X80194541Y-85345459D01*
X80045698Y-85223306D01*
X80035396Y-85217799D01*
X79875885Y-85132538D01*
X79691622Y-85076642D01*
X79500000Y-85057770D01*
X79308377Y-85076642D01*
X79124114Y-85132538D01*
X78954303Y-85223305D01*
X78805459Y-85345459D01*
X78683305Y-85494303D01*
X78592538Y-85664114D01*
X78536642Y-85848377D01*
X78517770Y-86040000D01*
X78536642Y-86231622D01*
X78592538Y-86415885D01*
X78650500Y-86524322D01*
X78683306Y-86585698D01*
X78805459Y-86734541D01*
X78954302Y-86856694D01*
X78993884Y-86877851D01*
X79124114Y-86947461D01*
X79124116Y-86947461D01*
X79124117Y-86947462D01*
X79308376Y-87003357D01*
X79500000Y-87022230D01*
X79691624Y-87003357D01*
X79875883Y-86947462D01*
X80045698Y-86856694D01*
X80194541Y-86734541D01*
X80238687Y-86680748D01*
X80280874Y-86658199D01*
X80326649Y-86672085D01*
X80349199Y-86714272D01*
X80349500Y-86720398D01*
X80349500Y-87554497D01*
X80331194Y-87598691D01*
X75410625Y-92519259D01*
X75366431Y-92537565D01*
X75322237Y-92519259D01*
X75303931Y-92475065D01*
X75310622Y-92446929D01*
X75396370Y-92276860D01*
X75429690Y-92168061D01*
X75463885Y-92056401D01*
X75466095Y-92039143D01*
X75493172Y-91827694D01*
X75483386Y-91597332D01*
X75434810Y-91371938D01*
X75348841Y-91157994D01*
X75348840Y-91157992D01*
X75227952Y-90961658D01*
X75075620Y-90788575D01*
X75006455Y-90732728D01*
X74896228Y-90643726D01*
X74877107Y-90633044D01*
X74694939Y-90531279D01*
X74477538Y-90454467D01*
X74250285Y-90415500D01*
X74077465Y-90415500D01*
X74076159Y-90415611D01*
X74076139Y-90415612D01*
X73905258Y-90430157D01*
X73682134Y-90488254D01*
X73682132Y-90488254D01*
X73682131Y-90488255D01*
X73624506Y-90514303D01*
X73472030Y-90583226D01*
X73280996Y-90712343D01*
X73114537Y-90871879D01*
X72977435Y-91057255D01*
X72873627Y-91263143D01*
X72806114Y-91483598D01*
X72796101Y-91561795D01*
X72772329Y-91603306D01*
X72726168Y-91615850D01*
X72684657Y-91592078D01*
X72675539Y-91569115D01*
X72674059Y-91569565D01*
X72671702Y-91561795D01*
X72612089Y-91365277D01*
X72514356Y-91182433D01*
X72462275Y-91118972D01*
X72382831Y-91022168D01*
X72222569Y-90890646D01*
X72222570Y-90890646D01*
X72222567Y-90890644D01*
X72039723Y-90792911D01*
X71929582Y-90759500D01*
X71841324Y-90732727D01*
X71657539Y-90714626D01*
X71635000Y-90712407D01*
X71634999Y-90712407D01*
X71428675Y-90732727D01*
X71230276Y-90792911D01*
X71125294Y-90849025D01*
X71047433Y-90890644D01*
X71047431Y-90890645D01*
X71047430Y-90890646D01*
X70887168Y-91022168D01*
X70755646Y-91182430D01*
X70657911Y-91365276D01*
X70597727Y-91563675D01*
X70577407Y-91769999D01*
X70597727Y-91976324D01*
X70622017Y-92056397D01*
X70657911Y-92174723D01*
X70755644Y-92357567D01*
X70790364Y-92399873D01*
X70887168Y-92517831D01*
X70960901Y-92578341D01*
X71047433Y-92649356D01*
X71230277Y-92747089D01*
X71428674Y-92807272D01*
X71635000Y-92827593D01*
X71841326Y-92807272D01*
X72039723Y-92747089D01*
X72222567Y-92649356D01*
X72382831Y-92517831D01*
X72514356Y-92357567D01*
X72612089Y-92174723D01*
X72672272Y-91976326D01*
X72672272Y-91976324D01*
X72673302Y-91972930D01*
X72703649Y-91935953D01*
X72751254Y-91931264D01*
X72788231Y-91961611D01*
X72794208Y-91977906D01*
X72835189Y-92168061D01*
X72921159Y-92382007D01*
X73042047Y-92578341D01*
X73133516Y-92682270D01*
X73194380Y-92751425D01*
X73373772Y-92896274D01*
X73464857Y-92947156D01*
X73575060Y-93008720D01*
X73618504Y-93024070D01*
X73654076Y-93056053D01*
X73656613Y-93103821D01*
X73624630Y-93139393D01*
X73597683Y-93145500D01*
X60951503Y-93145500D01*
X60907309Y-93127194D01*
X60175806Y-92395691D01*
X60157500Y-92351497D01*
X60157500Y-92039143D01*
X60142270Y-91962577D01*
X60084252Y-91875747D01*
X59997422Y-91817729D01*
X59920857Y-91802500D01*
X59920856Y-91802500D01*
X59599144Y-91802500D01*
X59599143Y-91802500D01*
X59522577Y-91817729D01*
X59435747Y-91875747D01*
X59377729Y-91962577D01*
X59362500Y-92039143D01*
X59362500Y-92460856D01*
X59377729Y-92537422D01*
X59435747Y-92624252D01*
X59522577Y-92682270D01*
X59599143Y-92697500D01*
X59911497Y-92697500D01*
X59955691Y-92715806D01*
X60532691Y-93292806D01*
X60550997Y-93337000D01*
X60532691Y-93381194D01*
X60488497Y-93399500D01*
X55863000Y-93399500D01*
X55818806Y-93381194D01*
X55800500Y-93337000D01*
X55800500Y-79920000D01*
X57517436Y-79920000D01*
X57537656Y-80164022D01*
X57597765Y-80401388D01*
X57696124Y-80625622D01*
X57830049Y-80830610D01*
X57995887Y-81010758D01*
X58189114Y-81161153D01*
X58404461Y-81277693D01*
X58636052Y-81357198D01*
X58877571Y-81397500D01*
X58877573Y-81397500D01*
X59122427Y-81397500D01*
X59122429Y-81397500D01*
X59363948Y-81357198D01*
X59595539Y-81277693D01*
X59810886Y-81161153D01*
X60004113Y-81010758D01*
X60169951Y-80830610D01*
X60303876Y-80625622D01*
X60402235Y-80401388D01*
X60462344Y-80164022D01*
X60482564Y-79920000D01*
X60462344Y-79675978D01*
X60402235Y-79438612D01*
X60303876Y-79214378D01*
X60169951Y-79009390D01*
X60004113Y-78829242D01*
X59810886Y-78678847D01*
X59595539Y-78562307D01*
X59363948Y-78482802D01*
X59122429Y-78442500D01*
X58877571Y-78442500D01*
X58636052Y-78482802D01*
X58435580Y-78551624D01*
X58404458Y-78562308D01*
X58189112Y-78678848D01*
X57995889Y-78829240D01*
X57830048Y-79009390D01*
X57758547Y-79118832D01*
X57696124Y-79214378D01*
X57597765Y-79438612D01*
X57537656Y-79675978D01*
X57517436Y-79920000D01*
X55800500Y-79920000D01*
X55800500Y-75960000D01*
X57517938Y-75960000D01*
X57538151Y-76203944D01*
X57598238Y-76441221D01*
X57696566Y-76665385D01*
X57830447Y-76870303D01*
X57868619Y-76911771D01*
X57868621Y-76911772D01*
X58314478Y-76465914D01*
X58412009Y-76580735D01*
X58495443Y-76644160D01*
X58048516Y-77091086D01*
X58189389Y-77200733D01*
X58404659Y-77317231D01*
X58636176Y-77396710D01*
X58877614Y-77437000D01*
X59122386Y-77437000D01*
X59363823Y-77396710D01*
X59595340Y-77317231D01*
X59810610Y-77200733D01*
X59951481Y-77091086D01*
X59951482Y-77091086D01*
X59507212Y-76646817D01*
X59517431Y-76640669D01*
X59651658Y-76513523D01*
X59684576Y-76464970D01*
X60131377Y-76911771D01*
X60131378Y-76911771D01*
X60169555Y-76870300D01*
X60303433Y-76665385D01*
X60401761Y-76441221D01*
X60461848Y-76203944D01*
X60482061Y-75960000D01*
X60461848Y-75716055D01*
X60401761Y-75478778D01*
X60303433Y-75254614D01*
X60169552Y-75049696D01*
X60131379Y-75008227D01*
X60131377Y-75008226D01*
X59685519Y-75454083D01*
X59587991Y-75339265D01*
X59504554Y-75275838D01*
X59951482Y-74828912D01*
X59810610Y-74719266D01*
X59595340Y-74602768D01*
X59363823Y-74523289D01*
X59122386Y-74483000D01*
X58877614Y-74483000D01*
X58636176Y-74523289D01*
X58404659Y-74602768D01*
X58189387Y-74719268D01*
X58048517Y-74828912D01*
X58048516Y-74828912D01*
X58492787Y-75273182D01*
X58482569Y-75279331D01*
X58348342Y-75406477D01*
X58315423Y-75455028D01*
X57868621Y-75008226D01*
X57830443Y-75049700D01*
X57696566Y-75254614D01*
X57598238Y-75478778D01*
X57538151Y-75716055D01*
X57517938Y-75960000D01*
X55800500Y-75960000D01*
X55800500Y-69318190D01*
X55818806Y-69273996D01*
X55863000Y-69255690D01*
X55907194Y-69273996D01*
X55916140Y-69285291D01*
X55924642Y-69299024D01*
X55928676Y-69306677D01*
X55940097Y-69332542D01*
X55948886Y-69341331D01*
X55957830Y-69352622D01*
X55961051Y-69357825D01*
X55964373Y-69363189D01*
X55981576Y-69376180D01*
X55986935Y-69380227D01*
X55993464Y-69385909D01*
X57741562Y-71134007D01*
X57759868Y-71178201D01*
X57749691Y-71212385D01*
X57696124Y-71294376D01*
X57613388Y-71482995D01*
X57597765Y-71518612D01*
X57537656Y-71755978D01*
X57517436Y-72000000D01*
X57537656Y-72244022D01*
X57597765Y-72481388D01*
X57696124Y-72705622D01*
X57830049Y-72910610D01*
X57995887Y-73090758D01*
X58189114Y-73241153D01*
X58404461Y-73357693D01*
X58636052Y-73437198D01*
X58877571Y-73477500D01*
X58877573Y-73477500D01*
X59122427Y-73477500D01*
X59122429Y-73477500D01*
X59363948Y-73437198D01*
X59595539Y-73357693D01*
X59810886Y-73241153D01*
X60004113Y-73090758D01*
X60169951Y-72910610D01*
X60303876Y-72705622D01*
X60402235Y-72481388D01*
X60462344Y-72244022D01*
X60482564Y-72000000D01*
X60462344Y-71755978D01*
X60402235Y-71518612D01*
X60303876Y-71294378D01*
X60169951Y-71089390D01*
X60004113Y-70909242D01*
X59810886Y-70758847D01*
X59595539Y-70642307D01*
X59363948Y-70562802D01*
X59122429Y-70522500D01*
X58877571Y-70522500D01*
X58636052Y-70562802D01*
X58430112Y-70633501D01*
X58404458Y-70642308D01*
X58205559Y-70749947D01*
X58157978Y-70754882D01*
X58131618Y-70739174D01*
X56468806Y-69076362D01*
X56450500Y-69032168D01*
X56450500Y-60120000D01*
X57517436Y-60120000D01*
X57537656Y-60364022D01*
X57597765Y-60601388D01*
X57696124Y-60825622D01*
X57696125Y-60825623D01*
X57804931Y-60992165D01*
X57830049Y-61030610D01*
X57995887Y-61210758D01*
X58189114Y-61361153D01*
X58404461Y-61477693D01*
X58636052Y-61557198D01*
X58877571Y-61597500D01*
X58877573Y-61597500D01*
X59122427Y-61597500D01*
X59122429Y-61597500D01*
X59363948Y-61557198D01*
X59595539Y-61477693D01*
X59810886Y-61361153D01*
X60004113Y-61210758D01*
X60169951Y-61030610D01*
X60303876Y-60825622D01*
X60402235Y-60601388D01*
X60462344Y-60364022D01*
X60482564Y-60120000D01*
X60462344Y-59875978D01*
X60402235Y-59638612D01*
X60303876Y-59414378D01*
X60169951Y-59209390D01*
X60004113Y-59029242D01*
X59810886Y-58878847D01*
X59595539Y-58762307D01*
X59363948Y-58682802D01*
X59122429Y-58642500D01*
X58877571Y-58642500D01*
X58636052Y-58682802D01*
X58485344Y-58734540D01*
X58404458Y-58762308D01*
X58189112Y-58878848D01*
X57995889Y-59029240D01*
X57830048Y-59209390D01*
X57760523Y-59315807D01*
X57696124Y-59414378D01*
X57597765Y-59638612D01*
X57537656Y-59875978D01*
X57517436Y-60120000D01*
X56450500Y-60120000D01*
X56450500Y-49590000D01*
X56468806Y-49545806D01*
X56513000Y-49527500D01*
X57541694Y-49527500D01*
X57585888Y-49545806D01*
X59997965Y-51957883D01*
X60005735Y-51967349D01*
X60016516Y-51983484D01*
X60032644Y-51994260D01*
X60032654Y-51994268D01*
X60100697Y-52039734D01*
X60103654Y-52040631D01*
X60106736Y-52040934D01*
X60173527Y-52054220D01*
X60213301Y-52080796D01*
X60275746Y-52174252D01*
X60362576Y-52232270D01*
X60439142Y-52247500D01*
X60439143Y-52247500D01*
X60760856Y-52247500D01*
X60802698Y-52239177D01*
X60837422Y-52232270D01*
X60924251Y-52174252D01*
X60982269Y-52087423D01*
X60997499Y-52010856D01*
X60997499Y-51589144D01*
X60982269Y-51512577D01*
X60965449Y-51487404D01*
X60924251Y-51425747D01*
X60837421Y-51367729D01*
X60760856Y-51352500D01*
X60760855Y-51352500D01*
X60439143Y-51352500D01*
X60439142Y-51352500D01*
X60362576Y-51367729D01*
X60265410Y-51432655D01*
X60263026Y-51429087D01*
X60242140Y-51443013D01*
X60195233Y-51433634D01*
X60185814Y-51425896D01*
X58686918Y-49927000D01*
X62010500Y-49927000D01*
X62010500Y-50562508D01*
X62017868Y-50599552D01*
X62045938Y-50641561D01*
X62087947Y-50669631D01*
X62124991Y-50677000D01*
X63010500Y-50677000D01*
X63010500Y-49927000D01*
X63264500Y-49927000D01*
X63264500Y-50677000D01*
X64150009Y-50677000D01*
X64187052Y-50669631D01*
X64229061Y-50641561D01*
X64257131Y-50599552D01*
X64264500Y-50562508D01*
X64264500Y-49927000D01*
X63264500Y-49927000D01*
X63010500Y-49927000D01*
X62010500Y-49927000D01*
X58686918Y-49927000D01*
X58432918Y-49673000D01*
X62010500Y-49673000D01*
X63010500Y-49673000D01*
X63010500Y-48923000D01*
X63264500Y-48923000D01*
X63264500Y-49673000D01*
X64264500Y-49673000D01*
X64264500Y-49627000D01*
X64635501Y-49627000D01*
X64635501Y-49783405D01*
X64645468Y-49851824D01*
X64697065Y-49957368D01*
X64780131Y-50040434D01*
X64885675Y-50092031D01*
X64954094Y-50101999D01*
X65085499Y-50101999D01*
X65085500Y-50101998D01*
X65085500Y-49627000D01*
X64635501Y-49627000D01*
X64264500Y-49627000D01*
X64264500Y-49372999D01*
X64635499Y-49372999D01*
X64635500Y-49373000D01*
X65085499Y-49373000D01*
X65085500Y-48898000D01*
X64954094Y-48898000D01*
X64885675Y-48907968D01*
X64780131Y-48959565D01*
X64697065Y-49042631D01*
X64645468Y-49148175D01*
X64635500Y-49216595D01*
X64635499Y-49372999D01*
X64264500Y-49372999D01*
X64264500Y-49037491D01*
X64257131Y-49000447D01*
X64229061Y-48958438D01*
X64187052Y-48930368D01*
X64150009Y-48923000D01*
X63264500Y-48923000D01*
X63010500Y-48923000D01*
X62124991Y-48923000D01*
X62087947Y-48930368D01*
X62045938Y-48958438D01*
X62017868Y-49000447D01*
X62010500Y-49037491D01*
X62010500Y-49673000D01*
X58432918Y-49673000D01*
X57983306Y-49223388D01*
X57965000Y-49179194D01*
X57965000Y-47840000D01*
X57983306Y-47795806D01*
X58027500Y-47777500D01*
X61947500Y-47777500D01*
X61991694Y-47795806D01*
X62010000Y-47840000D01*
X62009999Y-48262557D01*
X62014509Y-48285225D01*
X62017398Y-48299748D01*
X62045578Y-48341922D01*
X62087752Y-48370102D01*
X62124942Y-48377500D01*
X62124943Y-48377500D01*
X64150057Y-48377500D01*
X64150058Y-48377500D01*
X64187248Y-48370102D01*
X64229422Y-48341922D01*
X64257602Y-48299748D01*
X64265000Y-48262558D01*
X64265000Y-47840000D01*
X64283306Y-47795806D01*
X64327500Y-47777500D01*
X64575466Y-47777500D01*
X64619660Y-47795806D01*
X64637431Y-47831843D01*
X64641278Y-47861070D01*
X64690088Y-47965744D01*
X64771755Y-48047411D01*
X64848913Y-48083390D01*
X64876429Y-48096221D01*
X64924125Y-48102500D01*
X65379193Y-48102499D01*
X65423387Y-48120805D01*
X65643694Y-48341112D01*
X65662000Y-48385306D01*
X65662000Y-48867816D01*
X65643694Y-48912010D01*
X65599500Y-48930316D01*
X65572051Y-48923966D01*
X65539326Y-48907968D01*
X65470905Y-48898000D01*
X65339500Y-48898000D01*
X65339500Y-50101999D01*
X65470905Y-50101999D01*
X65539326Y-50092031D01*
X65644867Y-50040435D01*
X65673543Y-50011759D01*
X65717736Y-49993452D01*
X65761931Y-50011757D01*
X68258057Y-52507883D01*
X68265827Y-52517349D01*
X68276608Y-52533484D01*
X68292736Y-52544260D01*
X68292744Y-52544267D01*
X68330648Y-52569593D01*
X68360791Y-52589734D01*
X68441057Y-52605700D01*
X68441067Y-52605701D01*
X68460092Y-52609485D01*
X68479117Y-52605701D01*
X68491309Y-52604500D01*
X72774571Y-52604500D01*
X72818765Y-52622806D01*
X73683592Y-53487633D01*
X73701898Y-53531827D01*
X73701245Y-53540836D01*
X73697500Y-53566544D01*
X73697500Y-54133453D01*
X73707483Y-54201972D01*
X73759151Y-54307662D01*
X73842337Y-54390848D01*
X73890254Y-54414273D01*
X73948028Y-54442517D01*
X74016547Y-54452500D01*
X74027775Y-54452499D01*
X74071968Y-54470802D01*
X74090277Y-54514995D01*
X74090277Y-54915981D01*
X74071971Y-54960175D01*
X74027781Y-54978481D01*
X74016548Y-54978481D01*
X73948027Y-54988464D01*
X73842337Y-55040132D01*
X73759151Y-55123318D01*
X73707483Y-55229007D01*
X73697500Y-55297527D01*
X73697500Y-55864434D01*
X73707483Y-55932953D01*
X73759151Y-56038643D01*
X73842337Y-56121829D01*
X73929561Y-56164470D01*
X73948028Y-56173498D01*
X74016547Y-56183481D01*
X74027775Y-56183480D01*
X74071968Y-56201783D01*
X74090277Y-56245976D01*
X74090277Y-57013555D01*
X74089076Y-57025747D01*
X74085291Y-57044777D01*
X74089219Y-57064527D01*
X74105042Y-57144077D01*
X74150507Y-57212121D01*
X74150512Y-57212127D01*
X74157982Y-57223306D01*
X74161293Y-57228261D01*
X74177422Y-57239038D01*
X74186893Y-57246811D01*
X74326159Y-57386077D01*
X74456204Y-57516121D01*
X74474510Y-57560315D01*
X74474510Y-57756500D01*
X74474716Y-57758283D01*
X74474718Y-57758302D01*
X74477201Y-57779700D01*
X74519106Y-57874610D01*
X74592467Y-57947971D01*
X74639921Y-57968923D01*
X74687376Y-57989876D01*
X74694487Y-57990701D01*
X74708775Y-57992359D01*
X74708778Y-57992359D01*
X74710578Y-57992568D01*
X74712381Y-57992568D01*
X76081341Y-57992568D01*
X76125535Y-58010874D01*
X76696898Y-58582237D01*
X76715204Y-58626431D01*
X76715204Y-59012511D01*
X76696898Y-59056705D01*
X76652704Y-59075011D01*
X76608510Y-59056705D01*
X76347816Y-58796010D01*
X76329510Y-58751816D01*
X76329510Y-58645439D01*
X76329510Y-58645438D01*
X76329510Y-58643636D01*
X76326818Y-58620434D01*
X76292788Y-58543362D01*
X76284913Y-58525525D01*
X76211552Y-58452164D01*
X76116642Y-58410259D01*
X76095244Y-58407776D01*
X76095225Y-58407774D01*
X76093442Y-58407568D01*
X74710578Y-58407568D01*
X74708795Y-58407774D01*
X74708775Y-58407776D01*
X74687377Y-58410259D01*
X74592467Y-58452164D01*
X74519106Y-58525525D01*
X74477201Y-58620435D01*
X74474718Y-58641833D01*
X74474716Y-58641853D01*
X74474510Y-58643636D01*
X74474510Y-59026500D01*
X74474716Y-59028283D01*
X74474718Y-59028302D01*
X74477201Y-59049700D01*
X74519106Y-59144610D01*
X74592467Y-59217971D01*
X74619150Y-59229752D01*
X74687376Y-59259876D01*
X74695433Y-59260810D01*
X74708775Y-59262359D01*
X74708778Y-59262359D01*
X74710578Y-59262568D01*
X74712381Y-59262568D01*
X76091639Y-59262568D01*
X76093442Y-59262568D01*
X76095242Y-59262359D01*
X76095244Y-59262359D01*
X76116641Y-59259877D01*
X76116643Y-59259876D01*
X76116644Y-59259876D01*
X76184870Y-59229751D01*
X76232692Y-59228648D01*
X76254308Y-59242733D01*
X76442898Y-59431323D01*
X76461204Y-59475517D01*
X76461204Y-60172725D01*
X76442898Y-60216919D01*
X76398704Y-60235225D01*
X76354510Y-60216919D01*
X76347816Y-60210225D01*
X76329510Y-60166031D01*
X76329510Y-59915439D01*
X76329510Y-59913636D01*
X76326818Y-59890434D01*
X76284913Y-59795526D01*
X76284913Y-59795525D01*
X76211552Y-59722164D01*
X76116642Y-59680259D01*
X76095244Y-59677776D01*
X76095225Y-59677774D01*
X76093442Y-59677568D01*
X74710578Y-59677568D01*
X74708795Y-59677774D01*
X74708775Y-59677776D01*
X74687377Y-59680259D01*
X74592467Y-59722164D01*
X74519106Y-59795525D01*
X74477201Y-59890435D01*
X74474718Y-59911833D01*
X74474716Y-59911853D01*
X74474510Y-59913636D01*
X74474510Y-60296500D01*
X74474716Y-60298283D01*
X74474718Y-60298302D01*
X74477201Y-60319700D01*
X74519106Y-60414610D01*
X74592467Y-60487971D01*
X74627247Y-60503327D01*
X74687376Y-60529876D01*
X74695433Y-60530810D01*
X74708775Y-60532359D01*
X74708778Y-60532359D01*
X74710578Y-60532568D01*
X74712381Y-60532568D01*
X76091639Y-60532568D01*
X76093442Y-60532568D01*
X76095664Y-60532310D01*
X76096107Y-60532259D01*
X76096255Y-60532301D01*
X76097041Y-60532256D01*
X76096317Y-60532318D01*
X76142117Y-60545346D01*
X76147509Y-60550148D01*
X76188897Y-60591536D01*
X76207203Y-60635730D01*
X76207204Y-60894328D01*
X76188898Y-60938522D01*
X76144704Y-60956828D01*
X76119460Y-60951503D01*
X76116642Y-60950259D01*
X76095244Y-60947776D01*
X76095225Y-60947774D01*
X76093442Y-60947568D01*
X74710578Y-60947568D01*
X74708795Y-60947774D01*
X74708775Y-60947776D01*
X74687377Y-60950259D01*
X74592467Y-60992164D01*
X74519106Y-61065525D01*
X74477201Y-61160435D01*
X74474718Y-61181833D01*
X74474716Y-61181853D01*
X74474510Y-61183636D01*
X74474510Y-61185439D01*
X74474510Y-61451311D01*
X74456204Y-61495505D01*
X73603142Y-62348566D01*
X73586071Y-62360680D01*
X73585596Y-62360908D01*
X73567292Y-62383860D01*
X73562628Y-62389081D01*
X73557470Y-62394239D01*
X73553596Y-62400405D01*
X73549542Y-62406118D01*
X73531234Y-62429075D01*
X73531117Y-62429590D01*
X73523109Y-62448926D01*
X73522827Y-62449373D01*
X73519540Y-62478549D01*
X73518367Y-62485454D01*
X73516746Y-62492558D01*
X73516746Y-62499842D01*
X73516353Y-62506839D01*
X73513066Y-62536013D01*
X73513239Y-62536508D01*
X73516746Y-62557150D01*
X73516746Y-66987047D01*
X73498440Y-67031241D01*
X73454246Y-67049547D01*
X73410052Y-67031241D01*
X70264762Y-63885951D01*
X70246456Y-63841757D01*
X70246456Y-61302119D01*
X70249963Y-61281477D01*
X70250136Y-61280983D01*
X70246849Y-61251808D01*
X70246456Y-61244811D01*
X70246456Y-61237530D01*
X70246456Y-61237527D01*
X70244831Y-61230410D01*
X70243659Y-61223508D01*
X70240374Y-61194343D01*
X70240374Y-61194342D01*
X70240093Y-61193896D01*
X70232082Y-61174552D01*
X70231967Y-61174045D01*
X70221205Y-61160550D01*
X70213659Y-61151087D01*
X70209609Y-61145380D01*
X70205731Y-61139208D01*
X70200577Y-61134054D01*
X70195916Y-61128839D01*
X70177605Y-61105878D01*
X70177604Y-61105877D01*
X70177602Y-61105875D01*
X70177126Y-61105646D01*
X70160057Y-61093533D01*
X69147816Y-60081292D01*
X69129510Y-60037098D01*
X69129510Y-59915439D01*
X69129510Y-59915438D01*
X69129510Y-59913636D01*
X69126818Y-59890434D01*
X69084913Y-59795526D01*
X69084913Y-59795525D01*
X69011552Y-59722164D01*
X68916642Y-59680259D01*
X68895244Y-59677776D01*
X68895225Y-59677774D01*
X68893442Y-59677568D01*
X67510578Y-59677568D01*
X67508795Y-59677774D01*
X67508775Y-59677776D01*
X67487377Y-59680259D01*
X67484560Y-59681503D01*
X67436737Y-59682607D01*
X67402141Y-59649572D01*
X67396816Y-59624328D01*
X67396816Y-59315807D01*
X67415122Y-59271613D01*
X67459316Y-59253307D01*
X67484562Y-59258633D01*
X67487376Y-59259876D01*
X67499083Y-59261234D01*
X67508775Y-59262359D01*
X67508778Y-59262359D01*
X67510578Y-59262568D01*
X67512381Y-59262568D01*
X68891639Y-59262568D01*
X68893442Y-59262568D01*
X68895242Y-59262359D01*
X68895244Y-59262359D01*
X68900529Y-59261745D01*
X68916644Y-59259876D01*
X69011552Y-59217971D01*
X69084913Y-59144610D01*
X69126818Y-59049702D01*
X69129510Y-59026500D01*
X69129510Y-58643636D01*
X69126818Y-58620434D01*
X69092788Y-58543362D01*
X69084913Y-58525525D01*
X69011552Y-58452164D01*
X68916642Y-58410259D01*
X68895244Y-58407776D01*
X68895225Y-58407774D01*
X68893442Y-58407568D01*
X67510578Y-58407568D01*
X67508795Y-58407774D01*
X67508775Y-58407776D01*
X67487377Y-58410259D01*
X67392467Y-58452164D01*
X67319106Y-58525525D01*
X67277201Y-58620435D01*
X67274718Y-58641833D01*
X67274716Y-58641853D01*
X67274510Y-58643636D01*
X67274510Y-58645439D01*
X67274510Y-58751816D01*
X67256204Y-58796010D01*
X67149957Y-58902257D01*
X67105763Y-58920563D01*
X67061569Y-58902257D01*
X67043263Y-58858063D01*
X67043263Y-58160856D01*
X67061568Y-58116663D01*
X67267171Y-57911060D01*
X67311363Y-57892755D01*
X67355557Y-57911061D01*
X67392467Y-57947971D01*
X67439921Y-57968923D01*
X67487376Y-57989876D01*
X67494487Y-57990701D01*
X67508775Y-57992359D01*
X67508778Y-57992359D01*
X67510578Y-57992568D01*
X67512381Y-57992568D01*
X68891639Y-57992568D01*
X68893442Y-57992568D01*
X68895242Y-57992359D01*
X68895244Y-57992359D01*
X68900529Y-57991745D01*
X68916644Y-57989876D01*
X69011552Y-57947971D01*
X69084913Y-57874610D01*
X69126818Y-57779702D01*
X69129510Y-57756500D01*
X69129510Y-57373636D01*
X69127821Y-57359083D01*
X69126818Y-57350435D01*
X69084913Y-57255525D01*
X69011552Y-57182164D01*
X68916642Y-57140259D01*
X68895244Y-57137776D01*
X68895225Y-57137774D01*
X68893442Y-57137568D01*
X68891639Y-57137568D01*
X68455510Y-57137568D01*
X68411316Y-57119262D01*
X68393010Y-57075068D01*
X68393010Y-56308973D01*
X68411315Y-56264780D01*
X68481758Y-56194337D01*
X68525950Y-56176032D01*
X68534108Y-56176567D01*
X68538927Y-56177201D01*
X68538929Y-56177202D01*
X68586625Y-56183481D01*
X69063374Y-56183480D01*
X69111071Y-56177202D01*
X69215744Y-56128392D01*
X69297411Y-56046725D01*
X69346221Y-55942052D01*
X69352500Y-55894356D01*
X69352500Y-55707981D01*
X72148001Y-55707981D01*
X72148001Y-55864386D01*
X72157968Y-55932805D01*
X72209565Y-56038349D01*
X72292631Y-56121415D01*
X72398175Y-56173012D01*
X72466594Y-56182980D01*
X72597999Y-56182980D01*
X72598000Y-56182979D01*
X72598000Y-55707981D01*
X72852000Y-55707981D01*
X72852000Y-56182980D01*
X72983405Y-56182980D01*
X73051824Y-56173012D01*
X73157368Y-56121415D01*
X73240434Y-56038349D01*
X73292031Y-55932805D01*
X73302000Y-55864385D01*
X73302000Y-55707981D01*
X72852000Y-55707981D01*
X72598000Y-55707981D01*
X72148001Y-55707981D01*
X69352500Y-55707981D01*
X69352499Y-55453981D01*
X72148000Y-55453981D01*
X72598000Y-55453981D01*
X72598000Y-54978981D01*
X72852000Y-54978981D01*
X72852000Y-55453981D01*
X73301999Y-55453981D01*
X73301999Y-55297575D01*
X73292031Y-55229156D01*
X73240434Y-55123612D01*
X73157368Y-55040546D01*
X73051824Y-54988949D01*
X72983405Y-54978981D01*
X72852000Y-54978981D01*
X72598000Y-54978981D01*
X72466594Y-54978981D01*
X72398175Y-54988949D01*
X72292631Y-55040546D01*
X72209565Y-55123612D01*
X72157968Y-55229156D01*
X72148000Y-55297576D01*
X72148000Y-55453981D01*
X69352499Y-55453981D01*
X69352499Y-55267607D01*
X69346221Y-55219910D01*
X69346220Y-55219910D01*
X69297411Y-55115236D01*
X69215744Y-55033569D01*
X69111070Y-54984759D01*
X69065408Y-54978748D01*
X69065398Y-54978747D01*
X69063375Y-54978481D01*
X69061328Y-54978481D01*
X68588662Y-54978481D01*
X68588646Y-54978481D01*
X68586626Y-54978482D01*
X68584613Y-54978746D01*
X68584597Y-54978748D01*
X68538929Y-54984759D01*
X68434255Y-55033569D01*
X68352588Y-55115236D01*
X68303778Y-55219910D01*
X68297767Y-55265572D01*
X68297767Y-55265578D01*
X68297500Y-55267606D01*
X68297500Y-55269651D01*
X68297500Y-55269652D01*
X68297500Y-55812477D01*
X68279194Y-55856671D01*
X68097406Y-56038458D01*
X68080335Y-56050572D01*
X68079860Y-56050800D01*
X68061556Y-56073752D01*
X68056892Y-56078973D01*
X68051734Y-56084131D01*
X68047860Y-56090297D01*
X68043806Y-56096010D01*
X68025498Y-56118967D01*
X68025381Y-56119482D01*
X68017373Y-56138818D01*
X68017091Y-56139265D01*
X68013804Y-56168441D01*
X68012631Y-56175346D01*
X68011010Y-56182450D01*
X68011010Y-56189734D01*
X68010617Y-56196731D01*
X68007330Y-56225905D01*
X68007503Y-56226400D01*
X68011010Y-56247042D01*
X68011010Y-57075068D01*
X67992704Y-57119262D01*
X67948510Y-57137568D01*
X67510578Y-57137568D01*
X67508795Y-57137774D01*
X67508775Y-57137776D01*
X67487377Y-57140259D01*
X67392467Y-57182164D01*
X67319106Y-57255525D01*
X67273383Y-57359083D01*
X67272449Y-57358670D01*
X67254134Y-57391675D01*
X67235089Y-57406863D01*
X67229375Y-57410918D01*
X67223209Y-57414792D01*
X67218051Y-57419950D01*
X67212830Y-57424614D01*
X67189878Y-57442918D01*
X67189650Y-57443393D01*
X67177536Y-57460464D01*
X66747659Y-57890341D01*
X66730588Y-57902455D01*
X66730113Y-57902683D01*
X66711809Y-57925635D01*
X66707145Y-57930856D01*
X66701987Y-57936014D01*
X66698113Y-57942180D01*
X66694059Y-57947893D01*
X66675751Y-57970850D01*
X66675634Y-57971365D01*
X66667626Y-57990701D01*
X66667344Y-57991148D01*
X66664057Y-58020324D01*
X66662884Y-58027229D01*
X66661263Y-58034333D01*
X66661263Y-58041617D01*
X66660870Y-58048614D01*
X66657583Y-58077788D01*
X66657756Y-58078283D01*
X66661263Y-58098925D01*
X66661263Y-61947833D01*
X66657756Y-61968474D01*
X66657583Y-61968968D01*
X66660870Y-61998141D01*
X66661263Y-62005139D01*
X66661263Y-62012424D01*
X66662884Y-62019528D01*
X66664057Y-62026434D01*
X66667344Y-62055609D01*
X66667622Y-62056051D01*
X66675634Y-62075393D01*
X66675750Y-62075905D01*
X66694054Y-62098856D01*
X66698111Y-62104574D01*
X66701988Y-62110744D01*
X66707139Y-62115895D01*
X66711811Y-62121123D01*
X66725086Y-62137770D01*
X66730114Y-62144074D01*
X66730588Y-62144302D01*
X66747661Y-62156417D01*
X69506329Y-64915085D01*
X69524635Y-64959279D01*
X69506329Y-65003473D01*
X69462135Y-65021779D01*
X69449943Y-65020578D01*
X69362492Y-65003184D01*
X69258313Y-65023905D01*
X69192288Y-65068022D01*
X69143289Y-65117022D01*
X69143289Y-65117023D01*
X69476690Y-65450424D01*
X69494996Y-65494618D01*
X69476690Y-65538812D01*
X69385473Y-65630029D01*
X69341279Y-65648335D01*
X69297085Y-65630029D01*
X68963684Y-65296628D01*
X68914683Y-65345627D01*
X68870566Y-65411652D01*
X68862054Y-65454446D01*
X68835478Y-65494219D01*
X68788561Y-65503551D01*
X68756561Y-65486446D01*
X67831504Y-64561389D01*
X66209306Y-62939190D01*
X66191000Y-62894996D01*
X66191000Y-56223072D01*
X66194507Y-56202430D01*
X66194680Y-56201936D01*
X66191393Y-56172761D01*
X66191000Y-56165764D01*
X66191000Y-56158483D01*
X66191000Y-56158480D01*
X66189375Y-56151363D01*
X66188203Y-56144461D01*
X66187567Y-56138818D01*
X66184918Y-56115295D01*
X66184637Y-56114849D01*
X66176626Y-56095505D01*
X66176511Y-56094998D01*
X66167845Y-56084131D01*
X66158203Y-56072040D01*
X66154153Y-56066333D01*
X66150275Y-56060161D01*
X66145121Y-56055007D01*
X66140460Y-56049792D01*
X66122149Y-56026831D01*
X66122146Y-56026829D01*
X66121671Y-56026600D01*
X66104600Y-56014486D01*
X63840114Y-53750000D01*
X66090458Y-53750000D01*
X66110502Y-53876556D01*
X66168673Y-53990723D01*
X66259276Y-54081326D01*
X66361485Y-54133404D01*
X66373445Y-54139498D01*
X66500000Y-54159542D01*
X66588910Y-54145459D01*
X66635422Y-54156625D01*
X66642880Y-54162995D01*
X66965694Y-54485809D01*
X66984000Y-54530002D01*
X66984000Y-54917433D01*
X66965694Y-54961627D01*
X66929657Y-54979398D01*
X66888929Y-54984759D01*
X66784255Y-55033569D01*
X66702588Y-55115236D01*
X66653778Y-55219910D01*
X66647767Y-55265572D01*
X66647767Y-55265578D01*
X66647500Y-55267606D01*
X66647500Y-55269651D01*
X66647500Y-55269652D01*
X66647500Y-55892318D01*
X66647500Y-55892333D01*
X66647501Y-55894355D01*
X66647766Y-55896368D01*
X66647767Y-55896383D01*
X66653778Y-55942051D01*
X66702588Y-56046725D01*
X66784255Y-56128392D01*
X66880984Y-56173497D01*
X66888929Y-56177202D01*
X66936625Y-56183481D01*
X67413374Y-56183480D01*
X67461071Y-56177202D01*
X67565744Y-56128392D01*
X67647411Y-56046725D01*
X67696221Y-55942052D01*
X67702500Y-55894356D01*
X67702499Y-55267607D01*
X67696221Y-55219910D01*
X67696220Y-55219909D01*
X67647411Y-55115236D01*
X67565744Y-55033569D01*
X67461070Y-54984759D01*
X67420343Y-54979398D01*
X67378916Y-54955481D01*
X67366000Y-54917433D01*
X67366000Y-54468071D01*
X67369507Y-54447429D01*
X67369680Y-54446935D01*
X67366393Y-54417760D01*
X67366000Y-54410763D01*
X67366000Y-54403482D01*
X67366000Y-54403479D01*
X67364375Y-54396362D01*
X67363203Y-54389460D01*
X67363200Y-54389437D01*
X67359918Y-54360294D01*
X67359637Y-54359848D01*
X67351626Y-54340504D01*
X67351511Y-54339997D01*
X67351509Y-54339994D01*
X67333203Y-54317039D01*
X67329153Y-54311332D01*
X67325275Y-54305160D01*
X67320121Y-54300006D01*
X67315460Y-54294791D01*
X67297149Y-54271830D01*
X67297146Y-54271828D01*
X67296671Y-54271599D01*
X67279600Y-54259485D01*
X66997115Y-53977000D01*
X72148001Y-53977000D01*
X72148001Y-54133405D01*
X72157968Y-54201824D01*
X72209565Y-54307368D01*
X72292631Y-54390434D01*
X72398175Y-54442031D01*
X72466594Y-54451999D01*
X72597999Y-54451999D01*
X72598000Y-54451998D01*
X72598000Y-53977000D01*
X72852000Y-53977000D01*
X72852000Y-54451999D01*
X72983405Y-54451999D01*
X73051824Y-54442031D01*
X73157368Y-54390434D01*
X73240434Y-54307368D01*
X73292031Y-54201824D01*
X73302000Y-54133404D01*
X73302000Y-53977000D01*
X72852000Y-53977000D01*
X72598000Y-53977000D01*
X72148001Y-53977000D01*
X66997115Y-53977000D01*
X66912995Y-53892880D01*
X66894689Y-53848686D01*
X66895457Y-53838921D01*
X66909542Y-53750000D01*
X66905266Y-53723000D01*
X72148000Y-53723000D01*
X72598000Y-53723000D01*
X72598000Y-53248000D01*
X72852000Y-53248000D01*
X72852000Y-53723000D01*
X73301999Y-53723000D01*
X73301999Y-53566594D01*
X73292031Y-53498175D01*
X73240434Y-53392631D01*
X73157368Y-53309565D01*
X73051824Y-53257968D01*
X72983405Y-53248000D01*
X72852000Y-53248000D01*
X72598000Y-53248000D01*
X72466594Y-53248000D01*
X72398175Y-53257968D01*
X72292631Y-53309565D01*
X72209565Y-53392631D01*
X72157968Y-53498175D01*
X72148000Y-53566595D01*
X72148000Y-53723000D01*
X66905266Y-53723000D01*
X66889498Y-53623445D01*
X66880172Y-53605141D01*
X66831326Y-53509276D01*
X66740723Y-53418673D01*
X66626556Y-53360502D01*
X66563277Y-53350480D01*
X66500000Y-53340458D01*
X66499999Y-53340458D01*
X66373443Y-53360502D01*
X66259276Y-53418673D01*
X66168673Y-53509276D01*
X66110502Y-53623443D01*
X66090458Y-53750000D01*
X63840114Y-53750000D01*
X62035805Y-51945691D01*
X62017499Y-51901497D01*
X62017499Y-51778360D01*
X62017499Y-51589144D01*
X62002269Y-51512577D01*
X61985449Y-51487404D01*
X61944251Y-51425747D01*
X61857421Y-51367729D01*
X61780856Y-51352500D01*
X61780855Y-51352500D01*
X61459143Y-51352500D01*
X61459142Y-51352500D01*
X61382576Y-51367729D01*
X61295746Y-51425747D01*
X61237728Y-51512577D01*
X61222499Y-51589143D01*
X61222499Y-52010856D01*
X61237728Y-52087422D01*
X61295746Y-52174252D01*
X61392913Y-52239177D01*
X61392071Y-52240437D01*
X61418463Y-52258068D01*
X61428999Y-52292796D01*
X61428999Y-53434997D01*
X61410693Y-53479191D01*
X59939970Y-54949913D01*
X59895776Y-54968219D01*
X59857388Y-54955041D01*
X59810886Y-54918847D01*
X59703212Y-54860577D01*
X59595541Y-54802308D01*
X59595540Y-54802307D01*
X59595539Y-54802307D01*
X59363948Y-54722802D01*
X59122429Y-54682500D01*
X58877571Y-54682500D01*
X58636052Y-54722802D01*
X58569967Y-54745489D01*
X58404458Y-54802308D01*
X58189112Y-54918848D01*
X57995889Y-55069240D01*
X57830048Y-55249390D01*
X57696383Y-55453981D01*
X57696124Y-55454378D01*
X57597765Y-55678612D01*
X57537656Y-55915978D01*
X57517436Y-56160000D01*
X57537656Y-56404022D01*
X57597765Y-56641388D01*
X57696124Y-56865622D01*
X57696125Y-56865623D01*
X57813171Y-57044777D01*
X57830049Y-57070610D01*
X57995887Y-57250758D01*
X58189114Y-57401153D01*
X58404461Y-57517693D01*
X58636052Y-57597198D01*
X58877571Y-57637500D01*
X58877573Y-57637500D01*
X59122427Y-57637500D01*
X59122429Y-57637500D01*
X59363948Y-57597198D01*
X59595539Y-57517693D01*
X59810886Y-57401153D01*
X60004113Y-57250758D01*
X60169951Y-57070610D01*
X60303876Y-56865622D01*
X60402235Y-56641388D01*
X60462344Y-56404022D01*
X60482564Y-56160000D01*
X60462344Y-55915978D01*
X60402235Y-55678612D01*
X60303876Y-55454378D01*
X60201966Y-55298394D01*
X60193120Y-55251385D01*
X60210094Y-55220019D01*
X61724601Y-53705512D01*
X61741675Y-53693398D01*
X61742148Y-53693171D01*
X61760461Y-53670206D01*
X61765106Y-53665007D01*
X61770274Y-53659841D01*
X61774154Y-53653663D01*
X61778208Y-53647952D01*
X61796510Y-53625004D01*
X61796626Y-53624497D01*
X61804644Y-53605141D01*
X61804917Y-53604707D01*
X61808202Y-53575535D01*
X61809378Y-53568622D01*
X61810999Y-53561523D01*
X61810999Y-53554236D01*
X61811392Y-53547238D01*
X61812113Y-53540836D01*
X61814679Y-53518066D01*
X61814506Y-53517571D01*
X61810999Y-53496930D01*
X61810999Y-52412003D01*
X61829305Y-52367809D01*
X61873499Y-52349503D01*
X61917693Y-52367809D01*
X65790694Y-56240810D01*
X65809000Y-56285003D01*
X65809000Y-58387997D01*
X65790694Y-58432191D01*
X65746500Y-58450497D01*
X65702306Y-58432191D01*
X63495806Y-56225691D01*
X63477500Y-56181497D01*
X63477500Y-54637442D01*
X63470102Y-54600252D01*
X63441922Y-54558078D01*
X63399748Y-54529898D01*
X63362558Y-54522500D01*
X61637442Y-54522500D01*
X61618846Y-54526199D01*
X61600251Y-54529898D01*
X61558078Y-54558078D01*
X61529898Y-54600251D01*
X61522499Y-54637442D01*
X61522499Y-56362557D01*
X61529898Y-56399748D01*
X61558078Y-56441922D01*
X61600252Y-56470102D01*
X61637442Y-56477500D01*
X63181497Y-56477500D01*
X63225691Y-56495806D01*
X65476278Y-58746393D01*
X65494584Y-58790587D01*
X65494585Y-60613581D01*
X65476279Y-60657775D01*
X65432085Y-60676081D01*
X65387891Y-60657775D01*
X63349164Y-58619049D01*
X63330858Y-58574855D01*
X63338238Y-58545393D01*
X63407461Y-58415885D01*
X63407462Y-58415883D01*
X63463357Y-58231624D01*
X63482230Y-58040000D01*
X63463357Y-57848376D01*
X63407462Y-57664117D01*
X63407461Y-57664116D01*
X63407461Y-57664114D01*
X63338141Y-57534427D01*
X63316694Y-57494302D01*
X63194541Y-57345459D01*
X63045698Y-57223306D01*
X62968729Y-57182165D01*
X62875885Y-57132538D01*
X62691622Y-57076642D01*
X62520933Y-57059831D01*
X62500000Y-57057770D01*
X62499999Y-57057770D01*
X62308377Y-57076642D01*
X62124114Y-57132538D01*
X61954303Y-57223305D01*
X61805459Y-57345459D01*
X61683305Y-57494303D01*
X61592538Y-57664114D01*
X61536642Y-57848377D01*
X61517770Y-58040000D01*
X61536642Y-58231622D01*
X61592538Y-58415885D01*
X61666299Y-58553880D01*
X61683306Y-58585698D01*
X61805459Y-58734541D01*
X61954302Y-58856694D01*
X62015049Y-58889164D01*
X62124114Y-58947461D01*
X62124116Y-58947461D01*
X62124117Y-58947462D01*
X62308376Y-59003357D01*
X62500000Y-59022230D01*
X62691624Y-59003357D01*
X62875883Y-58947462D01*
X62875885Y-58947461D01*
X63005393Y-58878238D01*
X63052998Y-58873549D01*
X63079049Y-58889164D01*
X65222279Y-61032394D01*
X65240585Y-61076588D01*
X65240585Y-63405369D01*
X65222279Y-63449563D01*
X65178085Y-63467869D01*
X65133891Y-63449563D01*
X63113859Y-61429531D01*
X63095553Y-61385337D01*
X63113859Y-61341143D01*
X63118382Y-61337042D01*
X63194541Y-61274541D01*
X63316694Y-61125698D01*
X63407462Y-60955883D01*
X63463357Y-60771624D01*
X63482230Y-60580000D01*
X63463357Y-60388376D01*
X63407462Y-60204117D01*
X63407461Y-60204116D01*
X63407461Y-60204114D01*
X63359324Y-60114058D01*
X63316694Y-60034302D01*
X63194541Y-59885459D01*
X63045698Y-59763306D01*
X62968729Y-59722165D01*
X62875885Y-59672538D01*
X62691622Y-59616642D01*
X62520933Y-59599831D01*
X62500000Y-59597770D01*
X62499999Y-59597770D01*
X62308377Y-59616642D01*
X62124114Y-59672538D01*
X61954303Y-59763305D01*
X61805459Y-59885459D01*
X61683305Y-60034303D01*
X61592538Y-60204114D01*
X61536642Y-60388377D01*
X61517770Y-60579999D01*
X61536642Y-60771622D01*
X61592538Y-60955885D01*
X61651143Y-61065525D01*
X61683306Y-61125698D01*
X61805459Y-61274541D01*
X61954302Y-61396694D01*
X62015736Y-61429531D01*
X62124114Y-61487461D01*
X62124116Y-61487461D01*
X62124117Y-61487462D01*
X62308376Y-61543357D01*
X62500000Y-61562230D01*
X62658411Y-61546627D01*
X62704185Y-61560513D01*
X62708730Y-61564632D01*
X63966404Y-62822306D01*
X63984710Y-62866500D01*
X63966404Y-62910694D01*
X63922210Y-62929000D01*
X63509899Y-62929000D01*
X63465705Y-62910694D01*
X63450091Y-62884644D01*
X63407462Y-62744117D01*
X63407461Y-62744116D01*
X63407461Y-62744114D01*
X63326792Y-62593194D01*
X63316694Y-62574302D01*
X63194541Y-62425459D01*
X63045698Y-62303306D01*
X63035396Y-62297799D01*
X62875885Y-62212538D01*
X62691622Y-62156642D01*
X62520933Y-62139831D01*
X62500000Y-62137770D01*
X62499999Y-62137770D01*
X62308377Y-62156642D01*
X62124114Y-62212538D01*
X61954303Y-62303305D01*
X61805459Y-62425459D01*
X61683305Y-62574303D01*
X61592538Y-62744114D01*
X61536642Y-62928377D01*
X61517770Y-63120000D01*
X61536642Y-63311622D01*
X61592538Y-63495885D01*
X61661761Y-63625392D01*
X61666450Y-63672997D01*
X61650835Y-63699048D01*
X61479191Y-63870694D01*
X61434997Y-63889000D01*
X60524273Y-63889000D01*
X60480079Y-63870694D01*
X60466029Y-63840387D01*
X60463615Y-63840999D01*
X60462344Y-63835980D01*
X60462344Y-63835978D01*
X60402235Y-63598612D01*
X60303876Y-63374378D01*
X60169951Y-63169390D01*
X60004113Y-62989242D01*
X59810886Y-62838847D01*
X59595539Y-62722307D01*
X59363948Y-62642802D01*
X59122429Y-62602500D01*
X58877571Y-62602500D01*
X58636052Y-62642802D01*
X58423011Y-62715938D01*
X58404458Y-62722308D01*
X58189112Y-62838848D01*
X57995889Y-62989240D01*
X57830048Y-63169390D01*
X57696125Y-63374376D01*
X57696124Y-63374378D01*
X57597765Y-63598612D01*
X57537656Y-63835978D01*
X57517436Y-64080000D01*
X57537656Y-64324022D01*
X57597765Y-64561388D01*
X57696124Y-64785622D01*
X57696125Y-64785623D01*
X57822931Y-64979716D01*
X57830049Y-64990610D01*
X57995887Y-65170758D01*
X58189114Y-65321153D01*
X58404461Y-65437693D01*
X58636052Y-65517198D01*
X58877571Y-65557500D01*
X58877573Y-65557500D01*
X59122427Y-65557500D01*
X59122429Y-65557500D01*
X59363948Y-65517198D01*
X59595539Y-65437693D01*
X59810886Y-65321153D01*
X60004113Y-65170758D01*
X60169951Y-64990610D01*
X60303876Y-64785622D01*
X60402235Y-64561388D01*
X60462344Y-64324022D01*
X60462344Y-64324019D01*
X60463615Y-64319001D01*
X60466425Y-64319712D01*
X60483883Y-64285804D01*
X60524273Y-64271000D01*
X61496929Y-64271000D01*
X61517570Y-64274506D01*
X61518065Y-64274680D01*
X61544333Y-64271720D01*
X61547239Y-64271393D01*
X61554236Y-64271000D01*
X61561523Y-64271000D01*
X61568621Y-64269379D01*
X61575534Y-64268203D01*
X61604706Y-64264918D01*
X61605141Y-64264644D01*
X61624496Y-64256627D01*
X61625003Y-64256511D01*
X61647951Y-64238209D01*
X61653662Y-64234155D01*
X61659840Y-64230275D01*
X61665006Y-64225107D01*
X61670205Y-64220462D01*
X61693170Y-64202149D01*
X61693397Y-64201676D01*
X61705511Y-64184602D01*
X61920951Y-63969162D01*
X61965144Y-63950857D01*
X61994606Y-63958237D01*
X62124114Y-64027461D01*
X62124116Y-64027461D01*
X62124117Y-64027462D01*
X62308376Y-64083357D01*
X62500000Y-64102230D01*
X62691624Y-64083357D01*
X62875883Y-64027462D01*
X63045698Y-63936694D01*
X63194541Y-63814541D01*
X63316694Y-63665698D01*
X63407462Y-63495883D01*
X63450090Y-63355355D01*
X63480437Y-63318380D01*
X63509899Y-63311000D01*
X64070000Y-63311000D01*
X64114194Y-63329306D01*
X66147194Y-65362306D01*
X66165500Y-65406500D01*
X66147194Y-65450694D01*
X66103000Y-65469000D01*
X63509899Y-65469000D01*
X63465705Y-65450694D01*
X63450091Y-65424644D01*
X63407462Y-65284117D01*
X63407461Y-65284116D01*
X63407461Y-65284114D01*
X63325341Y-65130480D01*
X63316694Y-65114302D01*
X63194541Y-64965459D01*
X63045698Y-64843306D01*
X63035396Y-64837799D01*
X62875885Y-64752538D01*
X62691622Y-64696642D01*
X62520933Y-64679831D01*
X62500000Y-64677770D01*
X62499999Y-64677770D01*
X62308377Y-64696642D01*
X62124114Y-64752538D01*
X61954303Y-64843305D01*
X61805459Y-64965459D01*
X61683305Y-65114303D01*
X61592538Y-65284114D01*
X61536642Y-65468377D01*
X61517770Y-65660000D01*
X61536642Y-65851622D01*
X61592538Y-66035885D01*
X61662383Y-66166554D01*
X61683306Y-66205698D01*
X61805459Y-66354541D01*
X61954302Y-66476694D01*
X62021947Y-66512851D01*
X62124114Y-66567461D01*
X62124116Y-66567461D01*
X62124117Y-66567462D01*
X62308376Y-66623357D01*
X62500000Y-66642230D01*
X62691624Y-66623357D01*
X62875883Y-66567462D01*
X63045698Y-66476694D01*
X63194541Y-66354541D01*
X63316694Y-66205698D01*
X63407462Y-66035883D01*
X63450090Y-65895355D01*
X63480437Y-65858380D01*
X63509899Y-65851000D01*
X66250790Y-65851000D01*
X66294984Y-65869306D01*
X66869736Y-66444058D01*
X67377985Y-66952306D01*
X67396291Y-66996500D01*
X67377985Y-67040694D01*
X67333791Y-67059000D01*
X63493071Y-67059000D01*
X63472429Y-67055493D01*
X63471935Y-67055320D01*
X63471934Y-67055320D01*
X63442761Y-67058607D01*
X63435764Y-67059000D01*
X63428479Y-67059000D01*
X63421375Y-67060621D01*
X63414470Y-67061794D01*
X63385294Y-67065081D01*
X63384847Y-67065363D01*
X63365511Y-67073371D01*
X63364996Y-67073488D01*
X63342039Y-67091796D01*
X63336326Y-67095850D01*
X63330160Y-67099724D01*
X63325002Y-67104882D01*
X63319781Y-67109546D01*
X63296829Y-67127850D01*
X63296601Y-67128325D01*
X63284487Y-67145396D01*
X63079048Y-67350835D01*
X63034854Y-67369141D01*
X63005392Y-67361761D01*
X62875885Y-67292538D01*
X62691622Y-67236642D01*
X62520933Y-67219831D01*
X62500000Y-67217770D01*
X62499999Y-67217770D01*
X62308377Y-67236642D01*
X62124114Y-67292538D01*
X61954303Y-67383305D01*
X61805459Y-67505459D01*
X61683305Y-67654303D01*
X61592538Y-67824114D01*
X61569169Y-67901154D01*
X61549909Y-67964644D01*
X61519563Y-68001620D01*
X61490101Y-68009000D01*
X60537531Y-68009000D01*
X60493337Y-67990694D01*
X60475244Y-67951661D01*
X60471059Y-67901154D01*
X60462344Y-67795978D01*
X60402235Y-67558612D01*
X60303876Y-67334378D01*
X60169951Y-67129390D01*
X60004113Y-66949242D01*
X59810886Y-66798847D01*
X59601223Y-66685383D01*
X59595541Y-66682308D01*
X59595540Y-66682307D01*
X59595539Y-66682307D01*
X59363948Y-66602802D01*
X59122429Y-66562500D01*
X58877571Y-66562500D01*
X58636052Y-66602802D01*
X58435268Y-66671731D01*
X58404458Y-66682308D01*
X58189112Y-66798848D01*
X57995889Y-66949240D01*
X57995887Y-66949241D01*
X57995887Y-66949242D01*
X57983517Y-66962679D01*
X57830048Y-67129390D01*
X57709226Y-67314324D01*
X57696124Y-67334378D01*
X57597765Y-67558612D01*
X57537656Y-67795978D01*
X57517436Y-68040000D01*
X57537656Y-68284022D01*
X57597765Y-68521388D01*
X57696124Y-68745622D01*
X57727220Y-68793218D01*
X57830048Y-68950609D01*
X57835899Y-68956965D01*
X57995887Y-69130758D01*
X58189114Y-69281153D01*
X58404461Y-69397693D01*
X58636052Y-69477198D01*
X58877571Y-69517500D01*
X58877573Y-69517500D01*
X59122427Y-69517500D01*
X59122429Y-69517500D01*
X59363948Y-69477198D01*
X59595539Y-69397693D01*
X59810886Y-69281153D01*
X60004113Y-69130758D01*
X60169951Y-68950610D01*
X60303876Y-68745622D01*
X60402235Y-68521388D01*
X60423312Y-68438154D01*
X60451906Y-68399809D01*
X60483899Y-68391000D01*
X61490101Y-68391000D01*
X61534295Y-68409306D01*
X61549908Y-68435355D01*
X61550759Y-68438157D01*
X61592538Y-68575885D01*
X61652097Y-68687310D01*
X61683306Y-68745698D01*
X61805459Y-68894541D01*
X61954302Y-69016694D01*
X61983252Y-69032168D01*
X62124114Y-69107461D01*
X62124116Y-69107461D01*
X62124117Y-69107462D01*
X62308376Y-69163357D01*
X62500000Y-69182230D01*
X62691624Y-69163357D01*
X62875883Y-69107462D01*
X63045698Y-69016694D01*
X63194541Y-68894541D01*
X63316694Y-68745698D01*
X63407462Y-68575883D01*
X63463357Y-68391624D01*
X63482230Y-68200000D01*
X63476938Y-68146268D01*
X66219408Y-68146268D01*
X66240129Y-68250446D01*
X66284244Y-68316468D01*
X66312034Y-68344257D01*
X66531237Y-68125055D01*
X66333247Y-67927065D01*
X66284246Y-67976064D01*
X66240129Y-68042089D01*
X66219408Y-68146268D01*
X63476938Y-68146268D01*
X63463357Y-68008376D01*
X63407462Y-67824117D01*
X63407461Y-67824116D01*
X63407461Y-67824114D01*
X63366488Y-67747460D01*
X66512852Y-67747460D01*
X66710841Y-67945449D01*
X66930044Y-67726247D01*
X66902256Y-67698459D01*
X66836233Y-67654342D01*
X66732055Y-67633621D01*
X66627876Y-67654342D01*
X66561851Y-67698459D01*
X66512852Y-67747459D01*
X66512852Y-67747460D01*
X63366488Y-67747460D01*
X63338237Y-67694606D01*
X63333548Y-67647001D01*
X63349161Y-67620952D01*
X63510808Y-67459306D01*
X63555003Y-67441000D01*
X67481580Y-67441000D01*
X67525774Y-67459306D01*
X67690694Y-67624225D01*
X67709000Y-67668419D01*
X67709000Y-68012796D01*
X67690694Y-68056990D01*
X67646500Y-68075296D01*
X67629801Y-68070485D01*
X67589703Y-68065967D01*
X67582797Y-68064794D01*
X67579567Y-68064057D01*
X67575694Y-68063173D01*
X67575693Y-68063173D01*
X67568409Y-68063173D01*
X67561412Y-68062780D01*
X67532238Y-68059493D01*
X67531744Y-68059666D01*
X67511102Y-68063173D01*
X67317051Y-68063173D01*
X67296409Y-68059666D01*
X67295915Y-68059493D01*
X67295914Y-68059493D01*
X67266741Y-68062780D01*
X67259744Y-68063173D01*
X67245479Y-68063173D01*
X67201285Y-68044867D01*
X67184180Y-68012865D01*
X67181554Y-67999663D01*
X67137439Y-67933641D01*
X67109649Y-67905852D01*
X66491639Y-68523862D01*
X66519428Y-68551652D01*
X66568178Y-68584226D01*
X66594754Y-68624000D01*
X66585422Y-68670916D01*
X66577649Y-68680387D01*
X64727344Y-70530694D01*
X64683150Y-70549000D01*
X63509899Y-70549000D01*
X63465705Y-70530694D01*
X63450091Y-70504644D01*
X63407462Y-70364117D01*
X63407461Y-70364116D01*
X63407461Y-70364114D01*
X63344972Y-70247206D01*
X63316694Y-70194302D01*
X63194541Y-70045459D01*
X63045698Y-69923306D01*
X63010438Y-69904459D01*
X62875885Y-69832538D01*
X62691622Y-69776642D01*
X62507107Y-69758470D01*
X62500000Y-69757770D01*
X62499999Y-69757770D01*
X62308377Y-69776642D01*
X62124114Y-69832538D01*
X61954303Y-69923305D01*
X61805459Y-70045459D01*
X61683305Y-70194303D01*
X61592538Y-70364114D01*
X61536642Y-70548377D01*
X61517770Y-70739999D01*
X61536642Y-70931622D01*
X61592538Y-71115885D01*
X61644119Y-71212385D01*
X61683306Y-71285698D01*
X61805459Y-71434541D01*
X61954302Y-71556694D01*
X62034058Y-71599324D01*
X62124114Y-71647461D01*
X62124116Y-71647461D01*
X62124117Y-71647462D01*
X62308376Y-71703357D01*
X62500000Y-71722230D01*
X62691624Y-71703357D01*
X62875883Y-71647462D01*
X63045698Y-71556694D01*
X63194541Y-71434541D01*
X63316694Y-71285698D01*
X63407462Y-71115883D01*
X63450090Y-70975355D01*
X63480437Y-70938380D01*
X63509899Y-70931000D01*
X64745082Y-70931000D01*
X64765723Y-70934506D01*
X64766218Y-70934680D01*
X64793359Y-70931622D01*
X64795392Y-70931393D01*
X64802389Y-70931000D01*
X64809676Y-70931000D01*
X64816774Y-70929379D01*
X64823687Y-70928203D01*
X64852859Y-70924918D01*
X64853294Y-70924644D01*
X64872649Y-70916627D01*
X64873156Y-70916511D01*
X64896104Y-70898209D01*
X64901815Y-70894155D01*
X64907993Y-70890275D01*
X64913159Y-70885107D01*
X64918358Y-70880462D01*
X64941323Y-70862149D01*
X64941550Y-70861676D01*
X64953664Y-70844602D01*
X66198505Y-69599761D01*
X66242698Y-69581456D01*
X66286892Y-69599762D01*
X66304428Y-69634178D01*
X66307200Y-69651679D01*
X66365372Y-69765849D01*
X66455975Y-69856452D01*
X66492631Y-69875129D01*
X66570144Y-69914624D01*
X66696699Y-69934668D01*
X66823254Y-69914624D01*
X66937422Y-69856452D01*
X67028025Y-69765849D01*
X67086197Y-69651681D01*
X67106241Y-69525126D01*
X67088291Y-69411794D01*
X67099459Y-69365282D01*
X67105821Y-69357833D01*
X67182560Y-69281094D01*
X67226753Y-69262789D01*
X67261475Y-69273321D01*
X67264077Y-69275060D01*
X67368451Y-69295821D01*
X67472825Y-69275060D01*
X67500856Y-69256329D01*
X67547772Y-69246997D01*
X67579774Y-69264102D01*
X68294643Y-69978971D01*
X68312949Y-70023165D01*
X68294643Y-70067359D01*
X68281026Y-70074639D01*
X68281804Y-70075803D01*
X68271467Y-70082709D01*
X68271466Y-70082710D01*
X68259474Y-70090721D01*
X68224754Y-70101254D01*
X66950817Y-70101254D01*
X66930175Y-70097747D01*
X66929681Y-70097574D01*
X66929680Y-70097574D01*
X66900507Y-70100861D01*
X66893510Y-70101254D01*
X66886225Y-70101254D01*
X66879121Y-70102875D01*
X66872216Y-70104048D01*
X66843040Y-70107335D01*
X66842593Y-70107617D01*
X66823257Y-70115625D01*
X66822742Y-70115742D01*
X66799785Y-70134050D01*
X66794072Y-70138104D01*
X66787906Y-70141978D01*
X66782748Y-70147136D01*
X66777527Y-70151800D01*
X66754575Y-70170104D01*
X66754347Y-70170579D01*
X66742233Y-70187650D01*
X63859191Y-73070694D01*
X63814997Y-73089000D01*
X63509899Y-73089000D01*
X63465705Y-73070694D01*
X63450091Y-73044644D01*
X63407462Y-72904117D01*
X63407461Y-72904116D01*
X63407461Y-72904114D01*
X63332084Y-72763095D01*
X63316694Y-72734302D01*
X63194541Y-72585459D01*
X63045698Y-72463306D01*
X63017167Y-72448056D01*
X62875885Y-72372538D01*
X62691622Y-72316642D01*
X62520933Y-72299831D01*
X62500000Y-72297770D01*
X62499999Y-72297770D01*
X62308377Y-72316642D01*
X62124114Y-72372538D01*
X61954303Y-72463305D01*
X61805459Y-72585459D01*
X61683305Y-72734303D01*
X61592538Y-72904114D01*
X61536642Y-73088377D01*
X61517770Y-73280000D01*
X61536642Y-73471622D01*
X61592538Y-73655885D01*
X61667459Y-73796051D01*
X61683306Y-73825698D01*
X61805459Y-73974541D01*
X61954302Y-74096694D01*
X62007016Y-74124870D01*
X62124114Y-74187461D01*
X62124116Y-74187461D01*
X62124117Y-74187462D01*
X62308376Y-74243357D01*
X62500000Y-74262230D01*
X62691624Y-74243357D01*
X62875883Y-74187462D01*
X63045698Y-74096694D01*
X63194541Y-73974541D01*
X63316694Y-73825698D01*
X63401955Y-73666184D01*
X63407461Y-73655885D01*
X63407462Y-73655883D01*
X63450090Y-73515355D01*
X63480437Y-73478380D01*
X63509899Y-73471000D01*
X63876929Y-73471000D01*
X63897570Y-73474506D01*
X63898065Y-73474680D01*
X63925206Y-73471622D01*
X63927239Y-73471393D01*
X63934236Y-73471000D01*
X63941523Y-73471000D01*
X63948621Y-73469379D01*
X63955534Y-73468203D01*
X63979188Y-73465539D01*
X63998886Y-73463321D01*
X63999204Y-73466150D01*
X64023795Y-73461968D01*
X64062813Y-73489642D01*
X64070833Y-73536800D01*
X64054092Y-73567097D01*
X62774063Y-74847126D01*
X62729869Y-74865432D01*
X62711728Y-74862741D01*
X62702665Y-74859992D01*
X62691622Y-74856642D01*
X62516956Y-74839440D01*
X62500000Y-74837770D01*
X62499999Y-74837770D01*
X62308377Y-74856642D01*
X62124114Y-74912538D01*
X61954303Y-75003305D01*
X61805459Y-75125459D01*
X61683305Y-75274303D01*
X61592538Y-75444114D01*
X61536642Y-75628377D01*
X61517770Y-75820000D01*
X61536642Y-76011622D01*
X61592538Y-76195885D01*
X61668562Y-76338114D01*
X61683306Y-76365698D01*
X61805459Y-76514541D01*
X61954302Y-76636694D01*
X62007979Y-76665385D01*
X62124114Y-76727461D01*
X62124116Y-76727461D01*
X62124117Y-76727462D01*
X62308376Y-76783357D01*
X62500000Y-76802230D01*
X62691624Y-76783357D01*
X62875883Y-76727462D01*
X62876254Y-76727264D01*
X62896603Y-76716387D01*
X63045698Y-76636694D01*
X63194541Y-76514541D01*
X63316694Y-76365698D01*
X63407462Y-76195883D01*
X63463357Y-76011624D01*
X63478800Y-75854817D01*
X63496274Y-75822126D01*
X63478800Y-75785182D01*
X63463357Y-75628376D01*
X63407462Y-75444117D01*
X63407461Y-75444116D01*
X63407461Y-75444114D01*
X63355473Y-75346853D01*
X63316694Y-75274302D01*
X63194541Y-75125459D01*
X63160745Y-75097723D01*
X63138197Y-75055537D01*
X63152083Y-75009761D01*
X63156192Y-75005227D01*
X63496806Y-74664613D01*
X63540999Y-74646308D01*
X63585193Y-74664614D01*
X63603499Y-74708808D01*
X63603499Y-75779055D01*
X63586602Y-75819846D01*
X63589312Y-75821295D01*
X63603499Y-75860945D01*
X63603499Y-76960496D01*
X63585193Y-77004690D01*
X63079048Y-77510835D01*
X63034854Y-77529141D01*
X63005392Y-77521761D01*
X62875885Y-77452538D01*
X62691622Y-77396642D01*
X62520682Y-77379807D01*
X62500000Y-77377770D01*
X62499999Y-77377770D01*
X62308377Y-77396642D01*
X62124114Y-77452538D01*
X61954303Y-77543305D01*
X61805459Y-77665459D01*
X61683305Y-77814303D01*
X61592538Y-77984114D01*
X61536642Y-78168377D01*
X61517770Y-78360000D01*
X61536642Y-78551622D01*
X61592538Y-78735885D01*
X61666472Y-78874204D01*
X61683306Y-78905698D01*
X61805459Y-79054541D01*
X61954302Y-79176694D01*
X62024800Y-79214376D01*
X62124114Y-79267461D01*
X62124116Y-79267461D01*
X62124117Y-79267462D01*
X62308376Y-79323357D01*
X62500000Y-79342230D01*
X62691624Y-79323357D01*
X62875883Y-79267462D01*
X63045698Y-79176694D01*
X63194541Y-79054541D01*
X63316694Y-78905698D01*
X63407462Y-78735883D01*
X63463357Y-78551624D01*
X63482230Y-78360000D01*
X63463357Y-78168376D01*
X63407462Y-77984117D01*
X63407461Y-77984116D01*
X63407461Y-77984114D01*
X63338237Y-77854606D01*
X63333548Y-77807001D01*
X63349161Y-77780952D01*
X63750307Y-77379806D01*
X63794500Y-77361501D01*
X63838694Y-77379807D01*
X63857000Y-77424001D01*
X63857000Y-79246994D01*
X63838694Y-79291188D01*
X63450629Y-79679254D01*
X63450629Y-79679255D01*
X63079048Y-80050835D01*
X63034854Y-80069141D01*
X63005392Y-80061761D01*
X62875885Y-79992538D01*
X62691622Y-79936642D01*
X62520933Y-79919831D01*
X62500000Y-79917770D01*
X62499999Y-79917770D01*
X62308377Y-79936642D01*
X62124114Y-79992538D01*
X61954303Y-80083305D01*
X61805459Y-80205459D01*
X61683305Y-80354303D01*
X61592538Y-80524114D01*
X61536642Y-80708377D01*
X61517770Y-80899999D01*
X61536642Y-81091622D01*
X61592538Y-81275885D01*
X61675038Y-81430229D01*
X61683306Y-81445698D01*
X61805459Y-81594541D01*
X61954302Y-81716694D01*
X62011214Y-81747114D01*
X62124114Y-81807461D01*
X62124116Y-81807461D01*
X62124117Y-81807462D01*
X62308376Y-81863357D01*
X62500000Y-81882230D01*
X62691624Y-81863357D01*
X62875883Y-81807462D01*
X63045698Y-81716694D01*
X63194541Y-81594541D01*
X63316694Y-81445698D01*
X63407462Y-81275883D01*
X63463357Y-81091624D01*
X63482230Y-80900000D01*
X63463357Y-80708376D01*
X63407462Y-80524117D01*
X63407461Y-80524116D01*
X63407461Y-80524114D01*
X63338237Y-80394606D01*
X63333548Y-80347001D01*
X63349161Y-80320952D01*
X63750275Y-79919840D01*
X63750275Y-79919839D01*
X64102306Y-79567807D01*
X64146499Y-79549502D01*
X64190693Y-79567808D01*
X64208999Y-79612002D01*
X64208999Y-81434996D01*
X64190693Y-81479190D01*
X63079048Y-82590835D01*
X63034854Y-82609141D01*
X63005392Y-82601761D01*
X62875885Y-82532538D01*
X62691622Y-82476642D01*
X62520933Y-82459831D01*
X62500000Y-82457770D01*
X62499999Y-82457770D01*
X62308377Y-82476642D01*
X62124114Y-82532538D01*
X61954303Y-82623305D01*
X61805459Y-82745459D01*
X61683305Y-82894303D01*
X61592538Y-83064114D01*
X61582432Y-83097431D01*
X61549909Y-83204644D01*
X61519563Y-83241620D01*
X61490101Y-83249000D01*
X60377442Y-83249000D01*
X60333248Y-83230694D01*
X60320207Y-83211607D01*
X60303876Y-83174379D01*
X60303876Y-83174378D01*
X60169951Y-82969390D01*
X60004113Y-82789242D01*
X59810886Y-82638847D01*
X59595539Y-82522307D01*
X59363948Y-82442802D01*
X59122429Y-82402500D01*
X58877571Y-82402500D01*
X58636052Y-82442802D01*
X58423011Y-82515938D01*
X58404458Y-82522308D01*
X58189112Y-82638848D01*
X57995889Y-82789240D01*
X57830048Y-82969390D01*
X57696125Y-83174376D01*
X57696124Y-83174378D01*
X57597765Y-83398612D01*
X57537656Y-83635978D01*
X57517436Y-83880000D01*
X57537656Y-84124022D01*
X57597765Y-84361388D01*
X57696124Y-84585622D01*
X57696125Y-84585623D01*
X57825392Y-84783483D01*
X57830049Y-84790610D01*
X57995887Y-84970758D01*
X58189114Y-85121153D01*
X58404461Y-85237693D01*
X58636052Y-85317198D01*
X58877571Y-85357500D01*
X58877573Y-85357500D01*
X59122427Y-85357500D01*
X59122429Y-85357500D01*
X59363948Y-85317198D01*
X59595539Y-85237693D01*
X59810886Y-85121153D01*
X60004113Y-84970758D01*
X60169951Y-84790610D01*
X60303876Y-84585622D01*
X60402235Y-84361388D01*
X60462344Y-84124022D01*
X60482564Y-83880000D01*
X60467537Y-83698661D01*
X60482132Y-83653106D01*
X60524664Y-83631213D01*
X60529825Y-83631000D01*
X61490101Y-83631000D01*
X61534295Y-83649306D01*
X61549908Y-83675355D01*
X61556845Y-83698219D01*
X61592538Y-83815885D01*
X61677799Y-83975396D01*
X61683306Y-83985698D01*
X61805459Y-84134541D01*
X61954302Y-84256694D01*
X62034058Y-84299324D01*
X62124114Y-84347461D01*
X62124116Y-84347461D01*
X62124117Y-84347462D01*
X62308376Y-84403357D01*
X62500000Y-84422230D01*
X62569252Y-84415409D01*
X62615028Y-84429295D01*
X62637577Y-84471482D01*
X62623691Y-84517258D01*
X62619572Y-84521802D01*
X62411181Y-84730194D01*
X62366987Y-84748500D01*
X61943571Y-84748500D01*
X61922929Y-84744993D01*
X61922434Y-84744819D01*
X61893258Y-84748107D01*
X61886261Y-84748500D01*
X61878978Y-84748500D01*
X61871882Y-84750119D01*
X61864979Y-84751292D01*
X61835791Y-84754581D01*
X61835341Y-84754864D01*
X61816014Y-84762870D01*
X61815499Y-84762987D01*
X61792537Y-84781298D01*
X61786829Y-84785348D01*
X61780660Y-84789225D01*
X61775509Y-84794376D01*
X61770294Y-84799036D01*
X61747330Y-84817351D01*
X61747329Y-84817352D01*
X61747100Y-84817828D01*
X61734987Y-84834897D01*
X60220459Y-86349425D01*
X60176265Y-86367731D01*
X60167256Y-86367078D01*
X60135829Y-86362500D01*
X60135826Y-86362500D01*
X57864174Y-86362500D01*
X57790795Y-86373191D01*
X57677611Y-86428523D01*
X57588523Y-86517611D01*
X57533191Y-86630795D01*
X57522500Y-86704174D01*
X57522500Y-88975825D01*
X57533191Y-89049204D01*
X57588523Y-89162388D01*
X57588524Y-89162389D01*
X57677611Y-89251476D01*
X57790797Y-89306809D01*
X57864174Y-89317500D01*
X58486500Y-89317500D01*
X58530694Y-89335806D01*
X58549000Y-89380000D01*
X58549000Y-91757203D01*
X58530694Y-91801397D01*
X58512321Y-91811219D01*
X58415747Y-91875748D01*
X58357729Y-91962577D01*
X58342500Y-92039143D01*
X58342500Y-92460856D01*
X58357729Y-92537422D01*
X58415747Y-92624252D01*
X58502577Y-92682270D01*
X58579143Y-92697500D01*
X58579144Y-92697500D01*
X58900857Y-92697500D01*
X58939139Y-92689885D01*
X58977423Y-92682270D01*
X59064252Y-92624252D01*
X59122270Y-92537423D01*
X59137500Y-92460856D01*
X59137500Y-92039144D01*
X59122270Y-91962577D01*
X59064252Y-91875748D01*
X58977423Y-91817730D01*
X58977422Y-91817729D01*
X58967087Y-91810824D01*
X58967928Y-91809564D01*
X58941529Y-91791920D01*
X58931000Y-91757203D01*
X58931000Y-91059999D01*
X61517770Y-91059999D01*
X61536642Y-91251622D01*
X61592538Y-91435885D01*
X61676026Y-91592078D01*
X61683306Y-91605698D01*
X61805459Y-91754541D01*
X61954302Y-91876694D01*
X62034058Y-91919324D01*
X62124114Y-91967461D01*
X62124116Y-91967461D01*
X62124117Y-91967462D01*
X62308376Y-92023357D01*
X62500000Y-92042230D01*
X62691624Y-92023357D01*
X62875883Y-91967462D01*
X63045698Y-91876694D01*
X63175704Y-91770000D01*
X68037407Y-91770000D01*
X68057727Y-91976324D01*
X68082017Y-92056397D01*
X68117911Y-92174723D01*
X68215644Y-92357567D01*
X68250364Y-92399873D01*
X68347168Y-92517831D01*
X68420901Y-92578341D01*
X68507433Y-92649356D01*
X68690277Y-92747089D01*
X68888674Y-92807272D01*
X69095000Y-92827593D01*
X69301326Y-92807272D01*
X69499723Y-92747089D01*
X69682567Y-92649356D01*
X69842831Y-92517831D01*
X69974356Y-92357567D01*
X70072089Y-92174723D01*
X70132272Y-91976326D01*
X70152593Y-91770000D01*
X70132272Y-91563674D01*
X70072089Y-91365277D01*
X69974356Y-91182433D01*
X69922275Y-91118972D01*
X69842831Y-91022168D01*
X69682569Y-90890646D01*
X69682570Y-90890646D01*
X69682567Y-90890644D01*
X69499723Y-90792911D01*
X69389582Y-90759500D01*
X69301324Y-90732727D01*
X69117539Y-90714626D01*
X69095000Y-90712407D01*
X69094999Y-90712407D01*
X68888675Y-90732727D01*
X68690276Y-90792911D01*
X68585294Y-90849025D01*
X68507433Y-90890644D01*
X68507431Y-90890645D01*
X68507430Y-90890646D01*
X68347168Y-91022168D01*
X68215646Y-91182430D01*
X68117911Y-91365276D01*
X68057727Y-91563675D01*
X68037407Y-91770000D01*
X63175704Y-91770000D01*
X63194541Y-91754541D01*
X63316694Y-91605698D01*
X63407462Y-91435883D01*
X63463357Y-91251624D01*
X63482230Y-91060000D01*
X63463357Y-90868376D01*
X63407462Y-90684117D01*
X63407461Y-90684116D01*
X63407461Y-90684114D01*
X63338237Y-90554606D01*
X63333548Y-90507001D01*
X63349161Y-90480952D01*
X64538327Y-89291786D01*
X66331768Y-89291786D01*
X66361535Y-89536936D01*
X66430237Y-89774129D01*
X66536106Y-89997241D01*
X66676386Y-90200471D01*
X66847454Y-90378572D01*
X67044873Y-90526923D01*
X67044875Y-90526924D01*
X67263537Y-90641686D01*
X67497776Y-90719887D01*
X67741526Y-90759500D01*
X67741529Y-90759500D01*
X67925381Y-90759500D01*
X67926639Y-90759500D01*
X68111147Y-90744605D01*
X68350919Y-90685506D01*
X68578107Y-90588711D01*
X68786825Y-90456726D01*
X68971668Y-90292969D01*
X69127849Y-90101682D01*
X69251323Y-89887818D01*
X69315646Y-89718211D01*
X69348432Y-89683383D01*
X69396246Y-89681938D01*
X69429203Y-89710914D01*
X69486064Y-89817291D01*
X69536565Y-89878827D01*
X69536566Y-89878827D01*
X69770227Y-89645165D01*
X69834064Y-89730912D01*
X69948047Y-89826556D01*
X69716171Y-90058432D01*
X69716171Y-90058433D01*
X69777710Y-90108937D01*
X69960467Y-90206623D01*
X70158773Y-90266778D01*
X70365000Y-90287089D01*
X70571226Y-90266778D01*
X70769532Y-90206623D01*
X70952286Y-90108938D01*
X71013827Y-90058432D01*
X70780122Y-89824727D01*
X70834194Y-89789163D01*
X70950499Y-89665888D01*
X70961477Y-89646872D01*
X71193432Y-89878827D01*
X71243938Y-89817286D01*
X71341623Y-89634532D01*
X71401778Y-89436226D01*
X71422089Y-89230000D01*
X71422089Y-89229999D01*
X71847407Y-89229999D01*
X71867727Y-89436324D01*
X71915851Y-89594968D01*
X71927911Y-89634723D01*
X72025644Y-89817567D01*
X72025646Y-89817569D01*
X72157168Y-89977831D01*
X72253972Y-90057275D01*
X72317433Y-90109356D01*
X72500277Y-90207089D01*
X72698674Y-90267272D01*
X72905000Y-90287593D01*
X73111326Y-90267272D01*
X73309723Y-90207089D01*
X73492567Y-90109356D01*
X73652831Y-89977831D01*
X73784356Y-89817567D01*
X73882089Y-89634723D01*
X73942272Y-89436326D01*
X73962593Y-89230000D01*
X73942272Y-89023674D01*
X73882089Y-88825277D01*
X73784356Y-88642433D01*
X73703644Y-88544085D01*
X73652831Y-88482168D01*
X73534873Y-88385364D01*
X73492567Y-88350644D01*
X73309723Y-88252911D01*
X73309723Y-88252910D01*
X73111324Y-88192727D01*
X72927539Y-88174626D01*
X72905000Y-88172407D01*
X72904999Y-88172407D01*
X72698675Y-88192727D01*
X72500276Y-88252911D01*
X72395294Y-88309025D01*
X72317433Y-88350644D01*
X72317431Y-88350645D01*
X72317430Y-88350646D01*
X72157168Y-88482168D01*
X72025646Y-88642430D01*
X71927911Y-88825276D01*
X71867727Y-89023675D01*
X71847407Y-89229999D01*
X71422089Y-89229999D01*
X71401778Y-89023773D01*
X71341623Y-88825467D01*
X71243937Y-88642710D01*
X71193433Y-88581171D01*
X71193432Y-88581171D01*
X70959770Y-88814832D01*
X70895936Y-88729088D01*
X70781950Y-88633442D01*
X71013827Y-88401566D01*
X71013827Y-88401565D01*
X70952289Y-88351062D01*
X70769532Y-88253376D01*
X70571226Y-88193221D01*
X70365000Y-88172910D01*
X70158773Y-88193221D01*
X69960467Y-88253376D01*
X69777713Y-88351061D01*
X69716171Y-88401566D01*
X69949877Y-88635272D01*
X69895806Y-88670837D01*
X69779501Y-88794112D01*
X69768522Y-88813127D01*
X69536566Y-88581171D01*
X69486062Y-88642712D01*
X69429542Y-88748451D01*
X69392564Y-88778797D01*
X69344959Y-88774108D01*
X69314613Y-88737130D01*
X69314431Y-88736518D01*
X69299760Y-88685867D01*
X69193895Y-88462762D01*
X69193894Y-88462761D01*
X69193893Y-88462758D01*
X69053613Y-88259528D01*
X68882545Y-88081427D01*
X68685126Y-87933076D01*
X68466466Y-87818315D01*
X68380814Y-87789720D01*
X68232224Y-87740113D01*
X67988474Y-87700500D01*
X67803361Y-87700500D01*
X67802116Y-87700600D01*
X67802103Y-87700601D01*
X67618855Y-87715394D01*
X67502815Y-87743996D01*
X67379081Y-87774494D01*
X67259461Y-87825459D01*
X67151888Y-87871291D01*
X66943176Y-88003272D01*
X66758333Y-88167029D01*
X66602151Y-88358317D01*
X66478675Y-88572186D01*
X66391108Y-88803078D01*
X66341711Y-89045041D01*
X66331768Y-89291786D01*
X64538327Y-89291786D01*
X66620808Y-87209306D01*
X66665003Y-87191000D01*
X71605039Y-87191000D01*
X71649233Y-87209306D01*
X71660727Y-87225126D01*
X71668674Y-87240723D01*
X71759276Y-87331326D01*
X71873443Y-87389497D01*
X71873445Y-87389498D01*
X72000000Y-87409542D01*
X72126555Y-87389498D01*
X72240723Y-87331326D01*
X72331326Y-87240723D01*
X72389498Y-87126555D01*
X72409542Y-87000000D01*
X72389498Y-86873445D01*
X72377412Y-86849725D01*
X72331326Y-86759276D01*
X72240723Y-86668673D01*
X72126556Y-86610502D01*
X72000000Y-86590458D01*
X71873443Y-86610502D01*
X71759276Y-86668673D01*
X71668674Y-86759276D01*
X71660727Y-86774874D01*
X71624353Y-86805941D01*
X71605039Y-86809000D01*
X66603071Y-86809000D01*
X66582429Y-86805493D01*
X66581935Y-86805320D01*
X66581934Y-86805320D01*
X66552761Y-86808607D01*
X66545764Y-86809000D01*
X66538479Y-86809000D01*
X66531375Y-86810621D01*
X66524470Y-86811794D01*
X66495294Y-86815081D01*
X66494847Y-86815363D01*
X66475511Y-86823371D01*
X66474996Y-86823488D01*
X66452039Y-86841796D01*
X66446326Y-86845850D01*
X66440160Y-86849724D01*
X66435002Y-86854882D01*
X66429781Y-86859546D01*
X66406829Y-86877850D01*
X66406601Y-86878325D01*
X66394487Y-86895396D01*
X63079048Y-90210835D01*
X63034854Y-90229141D01*
X63005392Y-90221761D01*
X62875885Y-90152538D01*
X62691622Y-90096642D01*
X62520933Y-90079831D01*
X62500000Y-90077770D01*
X62499999Y-90077770D01*
X62308377Y-90096642D01*
X62124114Y-90152538D01*
X61954303Y-90243305D01*
X61805459Y-90365459D01*
X61683305Y-90514303D01*
X61592538Y-90684114D01*
X61536642Y-90868377D01*
X61517770Y-91059999D01*
X58931000Y-91059999D01*
X58931000Y-89380000D01*
X58949306Y-89335806D01*
X58993500Y-89317500D01*
X60135826Y-89317500D01*
X60209203Y-89306809D01*
X60322389Y-89251476D01*
X60411476Y-89162389D01*
X60466809Y-89049203D01*
X60477500Y-88975826D01*
X60477500Y-86704174D01*
X60472920Y-86672743D01*
X60484662Y-86626373D01*
X60490566Y-86619546D01*
X61453788Y-85656324D01*
X61497981Y-85638019D01*
X61542175Y-85656325D01*
X61560481Y-85700519D01*
X61557790Y-85718661D01*
X61536642Y-85788375D01*
X61517770Y-85980000D01*
X61536642Y-86171622D01*
X61592538Y-86355885D01*
X61631365Y-86428524D01*
X61683306Y-86525698D01*
X61805459Y-86674541D01*
X61954302Y-86796694D01*
X62004430Y-86823488D01*
X62124114Y-86887461D01*
X62124116Y-86887461D01*
X62124117Y-86887462D01*
X62308376Y-86943357D01*
X62500000Y-86962230D01*
X62691624Y-86943357D01*
X62875883Y-86887462D01*
X63045698Y-86796694D01*
X63194541Y-86674541D01*
X63316694Y-86525698D01*
X63407462Y-86355883D01*
X63463357Y-86171624D01*
X63482230Y-85980000D01*
X63463357Y-85788376D01*
X63407462Y-85604117D01*
X63407461Y-85604116D01*
X63407461Y-85604114D01*
X63338237Y-85474606D01*
X63333548Y-85427001D01*
X63349161Y-85400952D01*
X64902306Y-83847807D01*
X64946499Y-83829502D01*
X64990693Y-83847808D01*
X65008999Y-83892002D01*
X65008999Y-85714997D01*
X64990693Y-85759191D01*
X63079048Y-87670836D01*
X63034854Y-87689142D01*
X63005392Y-87681762D01*
X62875883Y-87612538D01*
X62830236Y-87598691D01*
X62691622Y-87556642D01*
X62520933Y-87539831D01*
X62500000Y-87537770D01*
X62499999Y-87537770D01*
X62308377Y-87556642D01*
X62124114Y-87612538D01*
X61954303Y-87703305D01*
X61805459Y-87825459D01*
X61683305Y-87974303D01*
X61592538Y-88144114D01*
X61536642Y-88328377D01*
X61517770Y-88520000D01*
X61536642Y-88711622D01*
X61592538Y-88895885D01*
X61672265Y-89045041D01*
X61683306Y-89065698D01*
X61805459Y-89214541D01*
X61954302Y-89336694D01*
X61991828Y-89356752D01*
X62124114Y-89427461D01*
X62124116Y-89427461D01*
X62124117Y-89427462D01*
X62308376Y-89483357D01*
X62500000Y-89502230D01*
X62691624Y-89483357D01*
X62875883Y-89427462D01*
X63045698Y-89336694D01*
X63194541Y-89214541D01*
X63316694Y-89065698D01*
X63407462Y-88895883D01*
X63463357Y-88711624D01*
X63482230Y-88520000D01*
X63463357Y-88328376D01*
X63407462Y-88144117D01*
X63407461Y-88144116D01*
X63407461Y-88144114D01*
X63338237Y-88014605D01*
X63333548Y-87967000D01*
X63349161Y-87940951D01*
X65304600Y-85985512D01*
X65321674Y-85973398D01*
X65322149Y-85973170D01*
X65340466Y-85950200D01*
X65345111Y-85945001D01*
X65350275Y-85939839D01*
X65354154Y-85933664D01*
X65358197Y-85927966D01*
X65376511Y-85905003D01*
X65376626Y-85904495D01*
X65384638Y-85885152D01*
X65384919Y-85884706D01*
X65388206Y-85855521D01*
X65389377Y-85848631D01*
X65391000Y-85841521D01*
X65390999Y-85834239D01*
X65391391Y-85827246D01*
X65394680Y-85798065D01*
X65394505Y-85797567D01*
X65391000Y-85776935D01*
X65391000Y-83556439D01*
X67043029Y-83556439D01*
X67050398Y-83593483D01*
X67078468Y-83635492D01*
X67120477Y-83663562D01*
X67157521Y-83670931D01*
X67643030Y-83670931D01*
X67643030Y-82970931D01*
X67897030Y-82970931D01*
X67897030Y-83670931D01*
X68382539Y-83670931D01*
X68419582Y-83663562D01*
X68461591Y-83635492D01*
X68489661Y-83593483D01*
X68497030Y-83556439D01*
X68497030Y-82970931D01*
X67897030Y-82970931D01*
X67643030Y-82970931D01*
X67043030Y-82970931D01*
X67043029Y-83556439D01*
X65391000Y-83556439D01*
X65391000Y-82350931D01*
X65683030Y-82350931D01*
X65683030Y-82390229D01*
X65698520Y-82468108D01*
X65757533Y-82556427D01*
X65845852Y-82615440D01*
X65923731Y-82630931D01*
X65993030Y-82630931D01*
X65993030Y-82350931D01*
X66247030Y-82350931D01*
X66247030Y-82630931D01*
X66316329Y-82630931D01*
X66394207Y-82615440D01*
X66482526Y-82556427D01*
X66541539Y-82468108D01*
X66557030Y-82390229D01*
X66557030Y-82350931D01*
X66247030Y-82350931D01*
X65993030Y-82350931D01*
X65683030Y-82350931D01*
X65391000Y-82350931D01*
X65391000Y-82131422D01*
X67043029Y-82131422D01*
X67043030Y-82716931D01*
X67643030Y-82716931D01*
X67643030Y-82016931D01*
X67157521Y-82016931D01*
X67120477Y-82024299D01*
X67078468Y-82052369D01*
X67050398Y-82094378D01*
X67043029Y-82131422D01*
X65391000Y-82131422D01*
X65391000Y-82096931D01*
X65683029Y-82096931D01*
X65993030Y-82096931D01*
X65993030Y-81816931D01*
X66247030Y-81816931D01*
X66247030Y-82096931D01*
X66557029Y-82096931D01*
X66557030Y-82057632D01*
X66541539Y-81979753D01*
X66482526Y-81891434D01*
X66394207Y-81832421D01*
X66316329Y-81816931D01*
X66247030Y-81816931D01*
X65993030Y-81816931D01*
X65923731Y-81816931D01*
X65845852Y-81832421D01*
X65757533Y-81891434D01*
X65698520Y-81979753D01*
X65683030Y-82057632D01*
X65683029Y-82096931D01*
X65391000Y-82096931D01*
X65391000Y-76718626D01*
X65409305Y-76674433D01*
X65868675Y-76215064D01*
X65912869Y-76196758D01*
X65957063Y-76215064D01*
X65975369Y-76259258D01*
X65975369Y-78910248D01*
X65971862Y-78930889D01*
X65971689Y-78931383D01*
X65974976Y-78960556D01*
X65975369Y-78967554D01*
X65975369Y-78974839D01*
X65976990Y-78981943D01*
X65978163Y-78988849D01*
X65981450Y-79018024D01*
X65981728Y-79018466D01*
X65989740Y-79037808D01*
X65989856Y-79038320D01*
X65989858Y-79038322D01*
X66002792Y-79054541D01*
X66008160Y-79061271D01*
X66012217Y-79066989D01*
X66016094Y-79073159D01*
X66021245Y-79078310D01*
X66025916Y-79083536D01*
X66044220Y-79106489D01*
X66044694Y-79106717D01*
X66061767Y-79118832D01*
X67024224Y-80081289D01*
X67042530Y-80125483D01*
X67042530Y-81010432D01*
X67024224Y-81054626D01*
X66980030Y-81072932D01*
X66603919Y-81072932D01*
X66559725Y-81054626D01*
X66542620Y-81022624D01*
X66542010Y-81019558D01*
X66535912Y-81010432D01*
X66482887Y-80931074D01*
X66423762Y-80891568D01*
X66394402Y-80871950D01*
X66316379Y-80856431D01*
X66316378Y-80856431D01*
X65923682Y-80856431D01*
X65923681Y-80856431D01*
X65845657Y-80871950D01*
X65757173Y-80931074D01*
X65698049Y-81019558D01*
X65682530Y-81097582D01*
X65682530Y-81430279D01*
X65698049Y-81508303D01*
X65698050Y-81508304D01*
X65757173Y-81596788D01*
X65824085Y-81641497D01*
X65845657Y-81655911D01*
X65923681Y-81671431D01*
X65923682Y-81671431D01*
X66316379Y-81671431D01*
X66355390Y-81663671D01*
X66394403Y-81655911D01*
X66482887Y-81596788D01*
X66542010Y-81508304D01*
X66542619Y-81505239D01*
X66569196Y-81465465D01*
X66603919Y-81454932D01*
X67087703Y-81454932D01*
X67112787Y-81462541D01*
X67120280Y-81464031D01*
X67120282Y-81464033D01*
X67157472Y-81471431D01*
X67157473Y-81471431D01*
X68382586Y-81471431D01*
X68382588Y-81471431D01*
X68413838Y-81465214D01*
X68460751Y-81474545D01*
X68487329Y-81514318D01*
X68488530Y-81526513D01*
X68488530Y-81961857D01*
X68470224Y-82006051D01*
X68426030Y-82024357D01*
X68413838Y-82023156D01*
X68382540Y-82016931D01*
X67897030Y-82016931D01*
X67897030Y-82716931D01*
X68497030Y-82716931D01*
X68497030Y-82291934D01*
X68515336Y-82247740D01*
X68559530Y-82229434D01*
X68603724Y-82247740D01*
X68724224Y-82368240D01*
X68742530Y-82412434D01*
X68742530Y-83556489D01*
X68749928Y-83593679D01*
X68778108Y-83635853D01*
X68820282Y-83664033D01*
X68857472Y-83671431D01*
X68857473Y-83671431D01*
X70082587Y-83671431D01*
X70082588Y-83671431D01*
X70119778Y-83664033D01*
X70161952Y-83635853D01*
X70190132Y-83593679D01*
X70197530Y-83556489D01*
X70197530Y-83097430D01*
X70215836Y-83053237D01*
X70260030Y-83034931D01*
X70456959Y-83034931D01*
X70477600Y-83038437D01*
X70478095Y-83038611D01*
X70504363Y-83035651D01*
X70507269Y-83035324D01*
X70514266Y-83034931D01*
X70521553Y-83034931D01*
X70528651Y-83033310D01*
X70535564Y-83032134D01*
X70564736Y-83028849D01*
X70565171Y-83028575D01*
X70584526Y-83020558D01*
X70585033Y-83020442D01*
X70607981Y-83002140D01*
X70613692Y-82998086D01*
X70619870Y-82994206D01*
X70625036Y-82989038D01*
X70630235Y-82984393D01*
X70653200Y-82966080D01*
X70653427Y-82965607D01*
X70665541Y-82948533D01*
X70964338Y-82649737D01*
X71008533Y-82631431D01*
X71316379Y-82631431D01*
X71357225Y-82623306D01*
X71394403Y-82615911D01*
X71482887Y-82556788D01*
X71542010Y-82468304D01*
X71557530Y-82390279D01*
X71557530Y-82057583D01*
X71550909Y-82024299D01*
X71542010Y-81979558D01*
X71536879Y-81971879D01*
X71482887Y-81891074D01*
X71410183Y-81842495D01*
X71394402Y-81831950D01*
X71316379Y-81816431D01*
X71316378Y-81816431D01*
X70923682Y-81816431D01*
X70923681Y-81816431D01*
X70845657Y-81831950D01*
X70757173Y-81891074D01*
X70698049Y-81979558D01*
X70682530Y-82057582D01*
X70682530Y-82365427D01*
X70664224Y-82409621D01*
X70439221Y-82634625D01*
X70395027Y-82652931D01*
X70260030Y-82652931D01*
X70215836Y-82634625D01*
X70197530Y-82590431D01*
X70197530Y-82131373D01*
X70194897Y-82118137D01*
X70190132Y-82094183D01*
X70161952Y-82052009D01*
X70119778Y-82023829D01*
X70082588Y-82016431D01*
X70082587Y-82016431D01*
X68938533Y-82016431D01*
X68894339Y-81998125D01*
X68888836Y-81992622D01*
X68870530Y-81948428D01*
X68870530Y-81533431D01*
X68888836Y-81489237D01*
X68933030Y-81470931D01*
X69343030Y-81470931D01*
X69343030Y-80770931D01*
X69597030Y-80770931D01*
X69597030Y-81470931D01*
X70082539Y-81470931D01*
X70119582Y-81463562D01*
X70161591Y-81435492D01*
X70189661Y-81393483D01*
X70190169Y-81390931D01*
X70683030Y-81390931D01*
X70683030Y-81430229D01*
X70698520Y-81508108D01*
X70757533Y-81596427D01*
X70845852Y-81655440D01*
X70923731Y-81670931D01*
X70993030Y-81670931D01*
X70993030Y-81390931D01*
X71247030Y-81390931D01*
X71247030Y-81670931D01*
X71316329Y-81670931D01*
X71394207Y-81655440D01*
X71482526Y-81596427D01*
X71541539Y-81508108D01*
X71557030Y-81430229D01*
X71557030Y-81390931D01*
X71247030Y-81390931D01*
X70993030Y-81390931D01*
X70683030Y-81390931D01*
X70190169Y-81390931D01*
X70197030Y-81356439D01*
X70197030Y-81136931D01*
X70683030Y-81136931D01*
X70993030Y-81136931D01*
X70993030Y-80856931D01*
X71247030Y-80856931D01*
X71247030Y-81136931D01*
X71557030Y-81136931D01*
X71557030Y-81097632D01*
X71541539Y-81019753D01*
X71482526Y-80931434D01*
X71394207Y-80872421D01*
X71316329Y-80856931D01*
X71247030Y-80856931D01*
X70993030Y-80856931D01*
X70923731Y-80856931D01*
X70845852Y-80872421D01*
X70757533Y-80931434D01*
X70698520Y-81019753D01*
X70683030Y-81097632D01*
X70683030Y-81136931D01*
X70197030Y-81136931D01*
X70197030Y-80770931D01*
X69597030Y-80770931D01*
X69343030Y-80770931D01*
X69343030Y-79816931D01*
X69597030Y-79816931D01*
X69597030Y-80516931D01*
X70197030Y-80516931D01*
X70197030Y-79931422D01*
X70189661Y-79894378D01*
X70161591Y-79852369D01*
X70119582Y-79824299D01*
X70082539Y-79816931D01*
X69597030Y-79816931D01*
X69343030Y-79816931D01*
X68857521Y-79816931D01*
X68831503Y-79822106D01*
X68784586Y-79812774D01*
X68775116Y-79805001D01*
X67541964Y-78571849D01*
X68436181Y-78571849D01*
X68485183Y-78620850D01*
X68551208Y-78664967D01*
X68655385Y-78685688D01*
X68759563Y-78664967D01*
X68825585Y-78620852D01*
X68853374Y-78593062D01*
X68634172Y-78373860D01*
X68436181Y-78571849D01*
X67541964Y-78571849D01*
X67408051Y-78437936D01*
X67389745Y-78393742D01*
X67389745Y-78173041D01*
X68142738Y-78173041D01*
X68163459Y-78277218D01*
X68207576Y-78343243D01*
X68256576Y-78392244D01*
X68454567Y-78194254D01*
X68273663Y-78013351D01*
X68235364Y-77975052D01*
X68207574Y-78002841D01*
X68163459Y-78068863D01*
X68142738Y-78173041D01*
X67389745Y-78173041D01*
X67389745Y-77864742D01*
X67729074Y-77864742D01*
X67778076Y-77913743D01*
X67844101Y-77957860D01*
X67948278Y-77978581D01*
X68052456Y-77957860D01*
X68118478Y-77913745D01*
X68146268Y-77885955D01*
X67927065Y-77666752D01*
X67729074Y-77864742D01*
X67389745Y-77864742D01*
X67389745Y-77676301D01*
X67408051Y-77632107D01*
X67452245Y-77613801D01*
X67496439Y-77632107D01*
X67496440Y-77632107D01*
X67549469Y-77685137D01*
X67882870Y-77351736D01*
X67927064Y-77333430D01*
X67971258Y-77351736D01*
X68325872Y-77706350D01*
X68353662Y-77678561D01*
X68384239Y-77632800D01*
X68424013Y-77606224D01*
X68470929Y-77615556D01*
X68482719Y-77626393D01*
X68483767Y-77626898D01*
X68515641Y-77662567D01*
X68512958Y-77710327D01*
X68491372Y-77735175D01*
X68442756Y-77767659D01*
X68414969Y-77795447D01*
X69032979Y-78413457D01*
X69032980Y-78413457D01*
X69060766Y-78385671D01*
X69092914Y-78337559D01*
X69132688Y-78310983D01*
X69179604Y-78320315D01*
X69183844Y-78323414D01*
X69189135Y-78327633D01*
X69189142Y-78327638D01*
X69194368Y-78332309D01*
X69199514Y-78337455D01*
X69199516Y-78337456D01*
X69199519Y-78337459D01*
X69205693Y-78341339D01*
X69211389Y-78345380D01*
X69229722Y-78360000D01*
X69234355Y-78363695D01*
X69234862Y-78363811D01*
X69254205Y-78371822D01*
X69254652Y-78372103D01*
X69270248Y-78373860D01*
X69283829Y-78375390D01*
X69290735Y-78376563D01*
X69297837Y-78378184D01*
X69305120Y-78378184D01*
X69312117Y-78378577D01*
X69341293Y-78381864D01*
X69341293Y-78381863D01*
X69341294Y-78381864D01*
X69341788Y-78381690D01*
X69362430Y-78378184D01*
X70033935Y-78378184D01*
X70456405Y-78378184D01*
X70543595Y-78378184D01*
X73547920Y-78378184D01*
X73568561Y-78381690D01*
X73569056Y-78381864D01*
X73595324Y-78378904D01*
X73598230Y-78378577D01*
X73605227Y-78378184D01*
X73612514Y-78378184D01*
X73619612Y-78376563D01*
X73626525Y-78375387D01*
X73655697Y-78372102D01*
X73656132Y-78371828D01*
X73675487Y-78363811D01*
X73675994Y-78363695D01*
X73698942Y-78345393D01*
X73704653Y-78341339D01*
X73710831Y-78337459D01*
X73715997Y-78332291D01*
X73721196Y-78327646D01*
X73744161Y-78309333D01*
X73744388Y-78308860D01*
X73756502Y-78291786D01*
X74331992Y-77716296D01*
X74376185Y-77697991D01*
X74385954Y-77698759D01*
X74474874Y-77712843D01*
X74601429Y-77692799D01*
X74610914Y-77687966D01*
X75655741Y-77687966D01*
X75683526Y-77715751D01*
X75749555Y-77759870D01*
X75853732Y-77780591D01*
X75957910Y-77759870D01*
X76023935Y-77715753D01*
X76072935Y-77666753D01*
X75874945Y-77468763D01*
X75655741Y-77687966D01*
X74610914Y-77687966D01*
X74715597Y-77634627D01*
X74806200Y-77544024D01*
X74864372Y-77429856D01*
X74883296Y-77310370D01*
X75383511Y-77310370D01*
X75404232Y-77414549D01*
X75448347Y-77480571D01*
X75476137Y-77508360D01*
X75695339Y-77289158D01*
X76054550Y-77289158D01*
X76252540Y-77487148D01*
X76301540Y-77438148D01*
X76345657Y-77372123D01*
X76366378Y-77267945D01*
X76345657Y-77163766D01*
X76301542Y-77097744D01*
X76273752Y-77069955D01*
X76054550Y-77289158D01*
X75695339Y-77289158D01*
X76094148Y-76890350D01*
X76066358Y-76862560D01*
X76000336Y-76818445D01*
X75896158Y-76797724D01*
X75791979Y-76818445D01*
X75725954Y-76862562D01*
X75448349Y-77140167D01*
X75404232Y-77206192D01*
X75383511Y-77310370D01*
X74883296Y-77310370D01*
X74884416Y-77303301D01*
X74874200Y-77238804D01*
X74885366Y-77192293D01*
X74891729Y-77184842D01*
X74989019Y-77087553D01*
X75033212Y-77069248D01*
X75067934Y-77079780D01*
X75070536Y-77081519D01*
X75174910Y-77102280D01*
X75279284Y-77081519D01*
X75345430Y-77037321D01*
X75623108Y-76759643D01*
X75667306Y-76693497D01*
X75688067Y-76589123D01*
X75667306Y-76484749D01*
X75661894Y-76476650D01*
X75623107Y-76418601D01*
X75387857Y-76183351D01*
X75321709Y-76139152D01*
X75217336Y-76118392D01*
X75112960Y-76139153D01*
X75084928Y-76157883D01*
X75038012Y-76167215D01*
X75006012Y-76150110D01*
X74291143Y-75435241D01*
X74272837Y-75391047D01*
X74291143Y-75346853D01*
X74304761Y-75339576D01*
X74303983Y-75338411D01*
X74314586Y-75331326D01*
X74358215Y-75302175D01*
X74453646Y-75206744D01*
X74482975Y-75162849D01*
X74492946Y-75112724D01*
X74493773Y-75108565D01*
X74520349Y-75068791D01*
X74542879Y-75059459D01*
X74570433Y-75053978D01*
X74597163Y-75048661D01*
X74641058Y-75019332D01*
X74736489Y-74923901D01*
X74765818Y-74880006D01*
X74776615Y-74825722D01*
X74803192Y-74785948D01*
X74825722Y-74776616D01*
X74849646Y-74771857D01*
X74880006Y-74765818D01*
X74923901Y-74736489D01*
X75019332Y-74641058D01*
X75048661Y-74597163D01*
X75056846Y-74556017D01*
X75059459Y-74542879D01*
X75086035Y-74503105D01*
X75108565Y-74493773D01*
X75132489Y-74489014D01*
X75162849Y-74482975D01*
X75206744Y-74453646D01*
X75302175Y-74358215D01*
X75331504Y-74314320D01*
X75342301Y-74260035D01*
X75368876Y-74220263D01*
X75391404Y-74210931D01*
X75445691Y-74200133D01*
X75489586Y-74170804D01*
X75585017Y-74075373D01*
X75614346Y-74031478D01*
X75621230Y-73996869D01*
X79346838Y-73996869D01*
X79374623Y-74024654D01*
X79440652Y-74068773D01*
X79544829Y-74089494D01*
X79649007Y-74068773D01*
X79715032Y-74024656D01*
X79764032Y-73975656D01*
X79566042Y-73777666D01*
X79346838Y-73996869D01*
X75621230Y-73996869D01*
X75625144Y-73977194D01*
X75651720Y-73937420D01*
X75674250Y-73928088D01*
X75698174Y-73923329D01*
X75728534Y-73917290D01*
X75772429Y-73887961D01*
X75867860Y-73792530D01*
X75897189Y-73748635D01*
X75907986Y-73694351D01*
X75934563Y-73654577D01*
X75957093Y-73645245D01*
X75981017Y-73640486D01*
X76011377Y-73634447D01*
X76034086Y-73619274D01*
X79074608Y-73619274D01*
X79095329Y-73723452D01*
X79139444Y-73789474D01*
X79167234Y-73817263D01*
X79386436Y-73598061D01*
X79745647Y-73598061D01*
X79943637Y-73796051D01*
X79992637Y-73747051D01*
X80036754Y-73681026D01*
X80057475Y-73576848D01*
X80036754Y-73472669D01*
X79992639Y-73406647D01*
X79964849Y-73378858D01*
X79745647Y-73598061D01*
X79386436Y-73598061D01*
X79785245Y-73199253D01*
X79757455Y-73171463D01*
X79691433Y-73127348D01*
X79587255Y-73106627D01*
X79483076Y-73127348D01*
X79417051Y-73171465D01*
X79139446Y-73449070D01*
X79095329Y-73515095D01*
X79074608Y-73619274D01*
X76034086Y-73619274D01*
X76055272Y-73605118D01*
X76150703Y-73509687D01*
X76180032Y-73465792D01*
X76190829Y-73411507D01*
X76217404Y-73371735D01*
X76239932Y-73362403D01*
X76294219Y-73351605D01*
X76338114Y-73322276D01*
X76433545Y-73226845D01*
X76462874Y-73182950D01*
X76468499Y-73154668D01*
X76495076Y-73114894D01*
X76536793Y-73104754D01*
X76560667Y-73107443D01*
X76567556Y-73108614D01*
X76574673Y-73110239D01*
X76581958Y-73110239D01*
X76588955Y-73110632D01*
X76591974Y-73110972D01*
X76618129Y-73113919D01*
X76618623Y-73113745D01*
X76639265Y-73110239D01*
X78433614Y-73110239D01*
X78477808Y-73128545D01*
X78695485Y-73346223D01*
X78761632Y-73390422D01*
X78761633Y-73390422D01*
X78866007Y-73411183D01*
X78970381Y-73390422D01*
X79036527Y-73346224D01*
X79314205Y-73068546D01*
X79358403Y-73002400D01*
X79379164Y-72898026D01*
X79369608Y-72849982D01*
X79364501Y-72824306D01*
X79373834Y-72777390D01*
X79413608Y-72750815D01*
X79425800Y-72749614D01*
X79883596Y-72749614D01*
X79904237Y-72753120D01*
X79904732Y-72753294D01*
X79931000Y-72750334D01*
X79933906Y-72750007D01*
X79940903Y-72749614D01*
X79948190Y-72749614D01*
X79955288Y-72747993D01*
X79962198Y-72746818D01*
X79991373Y-72743532D01*
X79991373Y-72743531D01*
X79992798Y-72743371D01*
X80009566Y-72743746D01*
X80131728Y-72763095D01*
X80258283Y-72743051D01*
X80372451Y-72684879D01*
X80463054Y-72594276D01*
X80521226Y-72480108D01*
X80541270Y-72353553D01*
X80521226Y-72226998D01*
X80464487Y-72115642D01*
X80463054Y-72112829D01*
X80372451Y-72022226D01*
X80258284Y-71964055D01*
X80131728Y-71944011D01*
X80005171Y-71964055D01*
X79891004Y-72022226D01*
X79800401Y-72112829D01*
X79742230Y-72226996D01*
X79742229Y-72226998D01*
X79742230Y-72226998D01*
X79728309Y-72314892D01*
X79703316Y-72355677D01*
X79666579Y-72367614D01*
X79501345Y-72367614D01*
X79457151Y-72349308D01*
X79438845Y-72305114D01*
X79438845Y-72179744D01*
X79457151Y-72135550D01*
X79489152Y-72118445D01*
X79525910Y-72111133D01*
X79564351Y-72103487D01*
X79630497Y-72059289D01*
X79865749Y-71824037D01*
X79909947Y-71757891D01*
X79930708Y-71653517D01*
X79909947Y-71549143D01*
X79865749Y-71482997D01*
X79865748Y-71482995D01*
X79588072Y-71205319D01*
X79521924Y-71161120D01*
X79417551Y-71140360D01*
X79313177Y-71161120D01*
X79310574Y-71162860D01*
X79263657Y-71172189D01*
X79231659Y-71155085D01*
X79208875Y-71132301D01*
X79190569Y-71088107D01*
X79201105Y-71053380D01*
X79202840Y-71050784D01*
X79223601Y-70946410D01*
X79220788Y-70932269D01*
X79626152Y-70932269D01*
X79646873Y-71036447D01*
X79690990Y-71102472D01*
X79968595Y-71380077D01*
X80034620Y-71424194D01*
X80138799Y-71444915D01*
X80242977Y-71424194D01*
X80309000Y-71380077D01*
X80336789Y-71352288D01*
X80117586Y-71133087D01*
X79937980Y-70953481D01*
X80297191Y-70953481D01*
X80516393Y-71172684D01*
X80544183Y-71144895D01*
X80588298Y-71078873D01*
X80609019Y-70974695D01*
X80588298Y-70870516D01*
X80544181Y-70804491D01*
X80495181Y-70755492D01*
X80297191Y-70953481D01*
X79937980Y-70953481D01*
X79718778Y-70734279D01*
X79690988Y-70762068D01*
X79646873Y-70828090D01*
X79626152Y-70932269D01*
X79220788Y-70932269D01*
X79202840Y-70842036D01*
X79202840Y-70842035D01*
X79158641Y-70775888D01*
X78940963Y-70558210D01*
X78922657Y-70514016D01*
X78922657Y-70485027D01*
X78940963Y-70440833D01*
X78985157Y-70422527D01*
X79029351Y-70440833D01*
X79261488Y-70672970D01*
X79327513Y-70717087D01*
X79431691Y-70737808D01*
X79535870Y-70717087D01*
X79601892Y-70672972D01*
X79629681Y-70645182D01*
X79539173Y-70554674D01*
X79898383Y-70554674D01*
X80117586Y-70773877D01*
X80315576Y-70575887D01*
X80315576Y-70575886D01*
X80266576Y-70526886D01*
X80200551Y-70482769D01*
X80096373Y-70462048D01*
X79992194Y-70482769D01*
X79926172Y-70526884D01*
X79898383Y-70554674D01*
X79539173Y-70554674D01*
X79230874Y-70246375D01*
X79590084Y-70246375D01*
X79809286Y-70465577D01*
X79837076Y-70437788D01*
X79881191Y-70371766D01*
X79901912Y-70267588D01*
X79881191Y-70163409D01*
X79837074Y-70097384D01*
X79788074Y-70048385D01*
X79590084Y-70246375D01*
X79230874Y-70246375D01*
X79041181Y-70056682D01*
X79041178Y-70056680D01*
X79011670Y-70027172D01*
X78983882Y-70054960D01*
X78953303Y-70100724D01*
X78913529Y-70127299D01*
X78866613Y-70117966D01*
X78854823Y-70107129D01*
X78853772Y-70106623D01*
X78821901Y-70070952D01*
X78824587Y-70023192D01*
X78846172Y-69998348D01*
X78894785Y-69965866D01*
X78922574Y-69938076D01*
X78832065Y-69847567D01*
X79191276Y-69847567D01*
X79410479Y-70066770D01*
X79608469Y-69868779D01*
X79559469Y-69819779D01*
X79493444Y-69775662D01*
X79389266Y-69754941D01*
X79285087Y-69775662D01*
X79219065Y-69819777D01*
X79191276Y-69847567D01*
X78832065Y-69847567D01*
X78567961Y-69583463D01*
X78549655Y-69539269D01*
X78882977Y-69539269D01*
X79072670Y-69728962D01*
X79072672Y-69728963D01*
X79072673Y-69728963D01*
X79102180Y-69758470D01*
X79129967Y-69730683D01*
X79174084Y-69664660D01*
X79194805Y-69560482D01*
X79174084Y-69456303D01*
X79129967Y-69390278D01*
X79080967Y-69341279D01*
X78882977Y-69539269D01*
X78549655Y-69539269D01*
X78567961Y-69495075D01*
X78901362Y-69161673D01*
X78852361Y-69112672D01*
X78809209Y-69083838D01*
X78782634Y-69044064D01*
X78791967Y-68997148D01*
X78799730Y-68987688D01*
X79526464Y-68260953D01*
X79534466Y-68254647D01*
X79538538Y-68250446D01*
X79587710Y-68199708D01*
X79612139Y-68175280D01*
X79613342Y-68173728D01*
X79614647Y-68172249D01*
X79614357Y-68172599D01*
X79617537Y-68168931D01*
X79655345Y-68129920D01*
X79661632Y-68124260D01*
X79687027Y-68104349D01*
X79711315Y-68072694D01*
X79713354Y-68070177D01*
X79714145Y-68069250D01*
X79715527Y-68067825D01*
X79737247Y-68038898D01*
X79873868Y-67860847D01*
X79879517Y-67853485D01*
X79884446Y-67847805D01*
X79898208Y-67833751D01*
X79910810Y-67820882D01*
X79949700Y-67753520D01*
X79988787Y-67686629D01*
X79988787Y-67686625D01*
X79991724Y-67681601D01*
X79993108Y-67678331D01*
X80068915Y-67547025D01*
X80073046Y-67540772D01*
X80095677Y-67510631D01*
X80125416Y-67438829D01*
X80155464Y-67367347D01*
X80155464Y-67367346D01*
X80157720Y-67361980D01*
X80158668Y-67358548D01*
X80161863Y-67350835D01*
X80216683Y-67218481D01*
X80219971Y-67211726D01*
X80238465Y-67178906D01*
X80258582Y-67103824D01*
X80279039Y-67029042D01*
X80279039Y-67029040D01*
X80280574Y-67023429D01*
X80281063Y-67019916D01*
X80320305Y-66873456D01*
X80322678Y-66866345D01*
X80336735Y-66831378D01*
X80346880Y-66754307D01*
X80357400Y-66677504D01*
X80357399Y-66677501D01*
X80358190Y-66671731D01*
X80358216Y-66668183D01*
X80377288Y-66523301D01*
X80378967Y-66514975D01*
X80387470Y-66483908D01*
X80388099Y-66444043D01*
X80388236Y-66440790D01*
X80388327Y-66439449D01*
X80388585Y-66437493D01*
X80388773Y-66401375D01*
X80389632Y-66346996D01*
X80391000Y-66336826D01*
X80391000Y-66260414D01*
X80391060Y-66256600D01*
X80391545Y-66225909D01*
X80391328Y-66223947D01*
X80391237Y-66221996D01*
X80391263Y-66222336D01*
X80391000Y-66217533D01*
X80391000Y-55811929D01*
X80391000Y-55810764D01*
X80353226Y-55306707D01*
X80277890Y-54806881D01*
X80165412Y-54314083D01*
X80016422Y-53831069D01*
X79831752Y-53360539D01*
X79807005Y-53309152D01*
X79612935Y-52906159D01*
X79612934Y-52906157D01*
X79612437Y-52905125D01*
X79359701Y-52467374D01*
X79074959Y-52049735D01*
X78759803Y-51654541D01*
X78415995Y-51284005D01*
X78045459Y-50940197D01*
X77706179Y-50669631D01*
X77651168Y-50625761D01*
X77651166Y-50625759D01*
X77650265Y-50625041D01*
X77232626Y-50340299D01*
X76794875Y-50087563D01*
X76793852Y-50087070D01*
X76793840Y-50087064D01*
X76340509Y-49868752D01*
X76340493Y-49868745D01*
X76339461Y-49868248D01*
X76338389Y-49867827D01*
X76338377Y-49867822D01*
X75870012Y-49684002D01*
X75870005Y-49683999D01*
X75868931Y-49683578D01*
X75867815Y-49683233D01*
X75867810Y-49683232D01*
X75387044Y-49534935D01*
X75387028Y-49534930D01*
X75385917Y-49534588D01*
X75384788Y-49534330D01*
X75384772Y-49534326D01*
X74894269Y-49422372D01*
X74894256Y-49422369D01*
X74893119Y-49422110D01*
X74843596Y-49414645D01*
X74394437Y-49346946D01*
X74394425Y-49346944D01*
X74393293Y-49346774D01*
X74392140Y-49346687D01*
X74392135Y-49346687D01*
X73890401Y-49309087D01*
X73890392Y-49309086D01*
X73889236Y-49309000D01*
X73888070Y-49309000D01*
X71953070Y-49309000D01*
X71946944Y-49308699D01*
X71785911Y-49292838D01*
X71773894Y-49290448D01*
X71621997Y-49244371D01*
X71610678Y-49239682D01*
X71470692Y-49164858D01*
X71460505Y-49158051D01*
X71387155Y-49097855D01*
X71337805Y-49057354D01*
X71329143Y-49048692D01*
X71324169Y-49042631D01*
X71228445Y-48925990D01*
X71221644Y-48915811D01*
X71146815Y-48775817D01*
X71142130Y-48764507D01*
X71096050Y-48612601D01*
X71093661Y-48600588D01*
X71092062Y-48584356D01*
X71077801Y-48439556D01*
X71077500Y-48433430D01*
X71077500Y-48181468D01*
X71095806Y-48137274D01*
X71140000Y-48118968D01*
X71184194Y-48137274D01*
X71191967Y-48146745D01*
X71205730Y-48167344D01*
X71205735Y-48167350D01*
X71216516Y-48183484D01*
X71226281Y-48190009D01*
X71232644Y-48194260D01*
X71242115Y-48202033D01*
X71797965Y-48757883D01*
X71805735Y-48767349D01*
X71811396Y-48775821D01*
X71816516Y-48783484D01*
X71832644Y-48794260D01*
X71832652Y-48794267D01*
X71900699Y-48839734D01*
X71980965Y-48855700D01*
X71980975Y-48855701D01*
X72000000Y-48859485D01*
X72019025Y-48855701D01*
X72031217Y-48854500D01*
X73168778Y-48854500D01*
X73180970Y-48855701D01*
X73184754Y-48856453D01*
X73200000Y-48859486D01*
X73243774Y-48850779D01*
X73299301Y-48839734D01*
X73362234Y-48797684D01*
X73362234Y-48797683D01*
X73371104Y-48791757D01*
X73371108Y-48791752D01*
X73383484Y-48783484D01*
X73394264Y-48767349D01*
X73402028Y-48757888D01*
X73757883Y-48402032D01*
X73767351Y-48394263D01*
X73783484Y-48383484D01*
X73793894Y-48367904D01*
X73833667Y-48341329D01*
X73880583Y-48350661D01*
X73907159Y-48390435D01*
X73907825Y-48394470D01*
X73917850Y-48470624D01*
X73975991Y-48610989D01*
X74068478Y-48731521D01*
X74189010Y-48824008D01*
X74329375Y-48882149D01*
X74440148Y-48896732D01*
X74444227Y-48897000D01*
X74903000Y-48897000D01*
X74903000Y-48620000D01*
X75157000Y-48620000D01*
X75157000Y-48897000D01*
X75615773Y-48897000D01*
X75619851Y-48896732D01*
X75730624Y-48882149D01*
X75870991Y-48824007D01*
X75991520Y-48731521D01*
X76084007Y-48610992D01*
X76142148Y-48470626D01*
X76145259Y-48447000D01*
X75855773Y-48447000D01*
X75883895Y-48348160D01*
X75873546Y-48236479D01*
X75851896Y-48193000D01*
X76145258Y-48193000D01*
X76142148Y-48169370D01*
X76084011Y-48029013D01*
X75991521Y-47908478D01*
X75870989Y-47815991D01*
X75730624Y-47757850D01*
X75619851Y-47743267D01*
X75615773Y-47743000D01*
X75157000Y-47743000D01*
X75157000Y-48020000D01*
X74903000Y-48020000D01*
X74903000Y-47743000D01*
X74893694Y-47733694D01*
X74875388Y-47689500D01*
X74893694Y-47645306D01*
X74937888Y-47627000D01*
X74962509Y-47627000D01*
X74999552Y-47619631D01*
X75041561Y-47591561D01*
X75069631Y-47549552D01*
X75077000Y-47512508D01*
X75077000Y-47354420D01*
X75095306Y-47310226D01*
X75139500Y-47291920D01*
X75183694Y-47310226D01*
X75185178Y-47311762D01*
X75196771Y-47324176D01*
X75327010Y-47403375D01*
X75473785Y-47444500D01*
X75473786Y-47444500D01*
X75585798Y-47444500D01*
X75587927Y-47444500D01*
X75701009Y-47428957D01*
X75840818Y-47368230D01*
X75959058Y-47272034D01*
X76046961Y-47147504D01*
X76050517Y-47137500D01*
X76098006Y-47003877D01*
X76108408Y-46851806D01*
X76108408Y-46851804D01*
X76077396Y-46702564D01*
X76007269Y-46567225D01*
X75995124Y-46554221D01*
X75903229Y-46455824D01*
X75772990Y-46376624D01*
X75631549Y-46336994D01*
X75593933Y-46307444D01*
X75588230Y-46259949D01*
X75604215Y-46232622D01*
X75854839Y-45981997D01*
X75899032Y-45963692D01*
X75907189Y-45964226D01*
X76000000Y-45976446D01*
X76137705Y-45958317D01*
X76266026Y-45905165D01*
X76376218Y-45820612D01*
X76460771Y-45710420D01*
X76513923Y-45582099D01*
X76532052Y-45444394D01*
X76513923Y-45306689D01*
X76460771Y-45178368D01*
X76376218Y-45068176D01*
X76359012Y-45054973D01*
X76301952Y-45011188D01*
X76278035Y-44969761D01*
X76277500Y-44961604D01*
X76277500Y-42611070D01*
X76279729Y-42597405D01*
X76279268Y-42587442D01*
X76277567Y-42550640D01*
X76277500Y-42547753D01*
X76277500Y-42529892D01*
X76277500Y-42529891D01*
X76277111Y-42527810D01*
X76276113Y-42519211D01*
X76275808Y-42512614D01*
X76274808Y-42490972D01*
X76269786Y-42479598D01*
X76265526Y-42465840D01*
X76265421Y-42465276D01*
X76263243Y-42453625D01*
X76248359Y-42429587D01*
X76244323Y-42421929D01*
X76232903Y-42396064D01*
X76224113Y-42387274D01*
X76215169Y-42375982D01*
X76208627Y-42365417D01*
X76186062Y-42348376D01*
X76179534Y-42342695D01*
X75909339Y-42072500D01*
X75600777Y-41763939D01*
X75582472Y-41719746D01*
X75600778Y-41675552D01*
X75636459Y-41657829D01*
X75701009Y-41648957D01*
X75840818Y-41588230D01*
X75959058Y-41492034D01*
X76046961Y-41367504D01*
X76098006Y-41223877D01*
X76108408Y-41071804D01*
X76077396Y-40922564D01*
X76007269Y-40787225D01*
X75970092Y-40747418D01*
X75903229Y-40675824D01*
X75772989Y-40596624D01*
X75626215Y-40555500D01*
X75626214Y-40555500D01*
X75512073Y-40555500D01*
X75509975Y-40555788D01*
X75509965Y-40555789D01*
X75398991Y-40571043D01*
X75259181Y-40631770D01*
X75178943Y-40697049D01*
X75133108Y-40710739D01*
X75091018Y-40688010D01*
X75077000Y-40648567D01*
X75077000Y-40487491D01*
X75069631Y-40450447D01*
X75041561Y-40408438D01*
X74999552Y-40380368D01*
X74962509Y-40373000D01*
X74937888Y-40373000D01*
X74893694Y-40354694D01*
X74875388Y-40310500D01*
X74893694Y-40266306D01*
X74903000Y-40257000D01*
X74903000Y-39980000D01*
X75157000Y-39980000D01*
X75157000Y-40257000D01*
X75615773Y-40257000D01*
X75619851Y-40256732D01*
X75730624Y-40242149D01*
X75870991Y-40184007D01*
X75991520Y-40091521D01*
X76084008Y-39970991D01*
X76142149Y-39830625D01*
X76151685Y-39758191D01*
X76175602Y-39716765D01*
X76221808Y-39704384D01*
X76257844Y-39722155D01*
X76704194Y-40168505D01*
X76722500Y-40212699D01*
X76722500Y-47345647D01*
X76720270Y-47359313D01*
X76722433Y-47406075D01*
X76722500Y-47408962D01*
X76722500Y-47426827D01*
X76722889Y-47428910D01*
X76723885Y-47437498D01*
X76725192Y-47465745D01*
X76730212Y-47477115D01*
X76734473Y-47490873D01*
X76736757Y-47503093D01*
X76751641Y-47527132D01*
X76755676Y-47534787D01*
X76767097Y-47560652D01*
X76775886Y-47569441D01*
X76784830Y-47580732D01*
X76791373Y-47591299D01*
X76813935Y-47608337D01*
X76820464Y-47614019D01*
X77113589Y-47907143D01*
X77131895Y-47951337D01*
X77131360Y-47959495D01*
X77119141Y-48052303D01*
X77137270Y-48190007D01*
X77190423Y-48318331D01*
X77274975Y-48428522D01*
X77385166Y-48513074D01*
X77385167Y-48513074D01*
X77385168Y-48513075D01*
X77513489Y-48566227D01*
X77651194Y-48584356D01*
X77788899Y-48566227D01*
X77800000Y-48561628D01*
X77800000Y-50075000D01*
X80800000Y-50075000D01*
X80800000Y-37875000D01*
X77800000Y-37875000D01*
X77800000Y-47542978D01*
X77788897Y-47538380D01*
X77651193Y-47520251D01*
X77558385Y-47532470D01*
X77512179Y-47520089D01*
X77506033Y-47514699D01*
X77295806Y-47304472D01*
X77277500Y-47260278D01*
X77277500Y-40127331D01*
X77279729Y-40113666D01*
X77277567Y-40066901D01*
X77277500Y-40064014D01*
X77277500Y-40046153D01*
X77277500Y-40046152D01*
X77277111Y-40044071D01*
X77276113Y-40035472D01*
X77274808Y-40007234D01*
X77269787Y-39995862D01*
X77265526Y-39982101D01*
X77263243Y-39969886D01*
X77248359Y-39945848D01*
X77244323Y-39938190D01*
X77232903Y-39912325D01*
X77224113Y-39903535D01*
X77215169Y-39892243D01*
X77208627Y-39881678D01*
X77186062Y-39864637D01*
X77179534Y-39858956D01*
X76116574Y-38795997D01*
X76108489Y-38784759D01*
X76073881Y-38753210D01*
X76071793Y-38751216D01*
X76059174Y-38738597D01*
X76059172Y-38738595D01*
X76057419Y-38737394D01*
X76050648Y-38732030D01*
X76029748Y-38712978D01*
X76018154Y-38708486D01*
X76005415Y-38701771D01*
X75995160Y-38694746D01*
X75967643Y-38688274D01*
X75959378Y-38685715D01*
X75933008Y-38675500D01*
X75933007Y-38675500D01*
X75920576Y-38675500D01*
X75906268Y-38673840D01*
X75894171Y-38670995D01*
X75894170Y-38670995D01*
X75866168Y-38674901D01*
X75857534Y-38675500D01*
X68102463Y-38675500D01*
X68088796Y-38673270D01*
X68042035Y-38675433D01*
X68039148Y-38675500D01*
X68021284Y-38675500D01*
X68019196Y-38675890D01*
X68010611Y-38676885D01*
X67982366Y-38678192D01*
X67970990Y-38683214D01*
X67957238Y-38687472D01*
X67945018Y-38689756D01*
X67920983Y-38704638D01*
X67913330Y-38708672D01*
X67887458Y-38720096D01*
X67878663Y-38728891D01*
X67867375Y-38737831D01*
X67856812Y-38744371D01*
X67839772Y-38766935D01*
X67834091Y-38773462D01*
X62730362Y-43877194D01*
X62686168Y-43895500D01*
X60219963Y-43895500D01*
X60206296Y-43893270D01*
X60159535Y-43895433D01*
X60156648Y-43895500D01*
X60138784Y-43895500D01*
X60136696Y-43895890D01*
X60128111Y-43896885D01*
X60099866Y-43898192D01*
X60088490Y-43903214D01*
X60074738Y-43907472D01*
X60062520Y-43909756D01*
X60038480Y-43924641D01*
X60030825Y-43928675D01*
X60004957Y-43940097D01*
X59996163Y-43948890D01*
X59984880Y-43957827D01*
X59974311Y-43964371D01*
X59957268Y-43986939D01*
X59951588Y-43993466D01*
X58071694Y-45873361D01*
X58027500Y-45891667D01*
X57983306Y-45873361D01*
X57965000Y-45829167D01*
X57965000Y-45587442D01*
X57963937Y-45582097D01*
X57957602Y-45550252D01*
X57929422Y-45508078D01*
X57887248Y-45479898D01*
X57850058Y-45472500D01*
X55863000Y-45472500D01*
X55818806Y-45454194D01*
X55800500Y-45410000D01*
X55800500Y-42002000D01*
X56373000Y-42002000D01*
X56373000Y-42262508D01*
X56380368Y-42299552D01*
X56408438Y-42341561D01*
X56450447Y-42369631D01*
X56487491Y-42377000D01*
X56873000Y-42377000D01*
X56873000Y-42002000D01*
X57127000Y-42002000D01*
X57127000Y-42377000D01*
X57512509Y-42377000D01*
X57549552Y-42369631D01*
X57591561Y-42341561D01*
X57619631Y-42299552D01*
X57627000Y-42262508D01*
X57627000Y-42002000D01*
X62373000Y-42002000D01*
X62373000Y-42262508D01*
X62380368Y-42299552D01*
X62408438Y-42341561D01*
X62450447Y-42369631D01*
X62487491Y-42377000D01*
X62873000Y-42377000D01*
X62873000Y-42002000D01*
X63127000Y-42002000D01*
X63127000Y-42377000D01*
X63512509Y-42377000D01*
X63549552Y-42369631D01*
X63591561Y-42341561D01*
X63619631Y-42299552D01*
X63627000Y-42262508D01*
X63627000Y-42002000D01*
X63127000Y-42002000D01*
X62873000Y-42002000D01*
X62373000Y-42002000D01*
X57627000Y-42002000D01*
X57127000Y-42002000D01*
X56873000Y-42002000D01*
X56373000Y-42002000D01*
X55800500Y-42002000D01*
X55800500Y-41748000D01*
X56373000Y-41748000D01*
X56873000Y-41748000D01*
X56873000Y-41373000D01*
X57127000Y-41373000D01*
X57127000Y-41748000D01*
X57627000Y-41748000D01*
X62373000Y-41748000D01*
X62873000Y-41748000D01*
X62873000Y-41373000D01*
X63127000Y-41373000D01*
X63127000Y-41748000D01*
X63627000Y-41748000D01*
X63627000Y-41487491D01*
X63619631Y-41450447D01*
X63591561Y-41408438D01*
X63549552Y-41380368D01*
X63512509Y-41373000D01*
X63127000Y-41373000D01*
X62873000Y-41373000D01*
X62487491Y-41373000D01*
X62450447Y-41380368D01*
X62408438Y-41408438D01*
X62380368Y-41450447D01*
X62373000Y-41487491D01*
X62373000Y-41748000D01*
X57627000Y-41748000D01*
X57627000Y-41487491D01*
X57619631Y-41450447D01*
X57591561Y-41408438D01*
X57549552Y-41380368D01*
X57512509Y-41373000D01*
X57127000Y-41373000D01*
X56873000Y-41373000D01*
X56487491Y-41373000D01*
X56450447Y-41380368D01*
X56408438Y-41408438D01*
X56380368Y-41450447D01*
X56373000Y-41487491D01*
X56373000Y-41748000D01*
X55800500Y-41748000D01*
X55800500Y-38512558D01*
X56372500Y-38512558D01*
X56379898Y-38549748D01*
X56408078Y-38591922D01*
X56450252Y-38620102D01*
X56487442Y-38627500D01*
X56487443Y-38627500D01*
X57512557Y-38627500D01*
X57512558Y-38627500D01*
X57549748Y-38620102D01*
X57591922Y-38591922D01*
X57620102Y-38549748D01*
X57627500Y-38512558D01*
X57627499Y-38378499D01*
X57645806Y-38334306D01*
X57690000Y-38316000D01*
X62310000Y-38316000D01*
X62354194Y-38334306D01*
X62372500Y-38378500D01*
X62372500Y-38512558D01*
X62379898Y-38549748D01*
X62408078Y-38591922D01*
X62450252Y-38620102D01*
X62487442Y-38627500D01*
X62487443Y-38627500D01*
X63512557Y-38627500D01*
X63512558Y-38627500D01*
X63549748Y-38620102D01*
X63591922Y-38591922D01*
X63620102Y-38549748D01*
X63627500Y-38512558D01*
X63627499Y-38378499D01*
X63645806Y-38334306D01*
X63690000Y-38316000D01*
X63797531Y-38316000D01*
X63841725Y-38334306D01*
X63859262Y-38368723D01*
X63860502Y-38376556D01*
X63918673Y-38490723D01*
X64009276Y-38581326D01*
X64099898Y-38627500D01*
X64123445Y-38639498D01*
X64250000Y-38659542D01*
X64376555Y-38639498D01*
X64490723Y-38581326D01*
X64581326Y-38490723D01*
X64639498Y-38376555D01*
X64659542Y-38250000D01*
X64639498Y-38123445D01*
X64639271Y-38123000D01*
X64581326Y-38009276D01*
X64490723Y-37918673D01*
X64376556Y-37860502D01*
X64313277Y-37850480D01*
X64250000Y-37840458D01*
X64249999Y-37840458D01*
X64123443Y-37860502D01*
X64000456Y-37923168D01*
X63999367Y-37921032D01*
X63968062Y-37934000D01*
X63690000Y-37934000D01*
X63645806Y-37915694D01*
X63627500Y-37871500D01*
X63627500Y-37840458D01*
X63627500Y-37737442D01*
X63620102Y-37700252D01*
X63591922Y-37658078D01*
X63549748Y-37629898D01*
X63512558Y-37622500D01*
X62487442Y-37622500D01*
X62468846Y-37626199D01*
X62450251Y-37629898D01*
X62408078Y-37658078D01*
X62379898Y-37700251D01*
X62372500Y-37737442D01*
X62372500Y-37871500D01*
X62354194Y-37915694D01*
X62310000Y-37934000D01*
X57690000Y-37934000D01*
X57645806Y-37915694D01*
X57627500Y-37871500D01*
X57627500Y-37840458D01*
X57627500Y-37737442D01*
X57620102Y-37700252D01*
X57591922Y-37658078D01*
X57549748Y-37629898D01*
X57512558Y-37622500D01*
X56487442Y-37622500D01*
X56468846Y-37626199D01*
X56450251Y-37629898D01*
X56408078Y-37658078D01*
X56379898Y-37700251D01*
X56379897Y-37700252D01*
X56379898Y-37700252D01*
X56372500Y-37737442D01*
X56372500Y-38512558D01*
X55800500Y-38512558D01*
X55800500Y-37363000D01*
X55818806Y-37318806D01*
X55863000Y-37300500D01*
X80552405Y-37300500D01*
X80596930Y-37300500D01*
X80603056Y-37300801D01*
G37*
%TD.AperFunction*%
%TA.AperFunction,Conductor*%
G36*
X70590800Y-66001253D02*
G01*
X70600270Y-66009026D01*
X72252083Y-67660839D01*
X72270389Y-67705033D01*
X72252083Y-67749227D01*
X72144971Y-67856338D01*
X72115641Y-67900235D01*
X72102548Y-67966064D01*
X72101866Y-67969492D01*
X72103173Y-67976064D01*
X72115641Y-68038747D01*
X72131699Y-68062780D01*
X72144971Y-68082643D01*
X72240402Y-68178074D01*
X72272780Y-68199708D01*
X72284297Y-68207403D01*
X72338581Y-68218201D01*
X72378355Y-68244777D01*
X72387687Y-68267307D01*
X72398484Y-68321589D01*
X72427814Y-68365486D01*
X72523244Y-68460916D01*
X72567140Y-68490246D01*
X72621423Y-68501044D01*
X72661197Y-68527620D01*
X72670529Y-68550150D01*
X72681326Y-68604432D01*
X72710656Y-68648328D01*
X72806087Y-68743759D01*
X72808877Y-68745623D01*
X72849982Y-68773088D01*
X72904266Y-68783886D01*
X72944040Y-68810462D01*
X72953372Y-68832992D01*
X72964169Y-68887275D01*
X72992358Y-68929464D01*
X72993499Y-68931171D01*
X73088930Y-69026602D01*
X73127581Y-69052427D01*
X73132825Y-69055931D01*
X73187109Y-69066729D01*
X73226883Y-69093305D01*
X73236215Y-69115835D01*
X73247012Y-69170118D01*
X73259943Y-69189471D01*
X73276342Y-69214014D01*
X73371773Y-69309445D01*
X73401802Y-69329509D01*
X73415668Y-69338774D01*
X73469951Y-69349572D01*
X73509725Y-69376148D01*
X73519057Y-69398678D01*
X73529854Y-69452960D01*
X73546049Y-69477198D01*
X73559184Y-69496856D01*
X73654615Y-69592287D01*
X73677786Y-69607769D01*
X73698510Y-69621616D01*
X73752794Y-69632414D01*
X73792568Y-69658990D01*
X73801900Y-69681520D01*
X73812698Y-69735804D01*
X73820709Y-69747794D01*
X73831242Y-69782516D01*
X73831242Y-70005938D01*
X73827735Y-70026579D01*
X73827562Y-70027074D01*
X73829633Y-70045459D01*
X73830849Y-70056246D01*
X73831242Y-70063244D01*
X73831242Y-70070530D01*
X73831922Y-70073509D01*
X73832863Y-70077633D01*
X73834036Y-70084539D01*
X73837323Y-70113714D01*
X73837601Y-70114156D01*
X73845613Y-70133498D01*
X73845729Y-70134010D01*
X73864033Y-70156961D01*
X73868090Y-70162679D01*
X73871967Y-70168849D01*
X73877118Y-70174000D01*
X73881789Y-70179226D01*
X73900093Y-70202179D01*
X73900567Y-70202407D01*
X73917640Y-70214522D01*
X74873056Y-71169938D01*
X74891362Y-71214132D01*
X74891362Y-72348169D01*
X74873056Y-72392363D01*
X72999851Y-74265568D01*
X72955657Y-74283874D01*
X72544553Y-74283874D01*
X74828427Y-72000000D01*
X72000000Y-69171573D01*
X69171573Y-72000000D01*
X71455447Y-74283874D01*
X70416725Y-74283874D01*
X70396083Y-74280367D01*
X70395589Y-74280194D01*
X70395588Y-74280194D01*
X70366415Y-74283481D01*
X70359418Y-74283874D01*
X70352133Y-74283874D01*
X70345029Y-74285495D01*
X70338124Y-74286668D01*
X70308948Y-74289955D01*
X70308501Y-74290237D01*
X70289165Y-74298245D01*
X70288650Y-74298362D01*
X70287284Y-74299452D01*
X70241318Y-74312692D01*
X70199452Y-74289550D01*
X70188537Y-74266044D01*
X70157972Y-74220300D01*
X70062542Y-74124870D01*
X70018646Y-74095540D01*
X69964363Y-74084743D01*
X69924589Y-74058167D01*
X69915257Y-74035637D01*
X69904459Y-73981353D01*
X69875129Y-73937457D01*
X69779699Y-73842027D01*
X69735803Y-73812697D01*
X69681520Y-73801900D01*
X69641746Y-73775324D01*
X69632414Y-73752794D01*
X69621616Y-73698510D01*
X69608833Y-73679379D01*
X69592287Y-73654615D01*
X69496856Y-73559184D01*
X69452960Y-73529854D01*
X69412400Y-73521786D01*
X69398146Y-73518951D01*
X69358373Y-73492377D01*
X69349041Y-73469845D01*
X69338304Y-73415862D01*
X69327506Y-73399701D01*
X69327505Y-73399700D01*
X68862214Y-73864994D01*
X68538342Y-74188863D01*
X68564841Y-74206571D01*
X68562977Y-74209358D01*
X68585681Y-74224528D01*
X68595014Y-74271444D01*
X68577909Y-74303446D01*
X67802616Y-75078741D01*
X67758422Y-75097047D01*
X67137581Y-75097047D01*
X67093387Y-75078741D01*
X67075081Y-75034547D01*
X67093387Y-74990353D01*
X67474434Y-74609306D01*
X67518628Y-74591000D01*
X67577030Y-74591000D01*
X67597671Y-74594506D01*
X67598166Y-74594680D01*
X67624434Y-74591720D01*
X67627340Y-74591393D01*
X67634337Y-74591000D01*
X67641624Y-74591000D01*
X67648722Y-74589379D01*
X67655635Y-74588203D01*
X67684807Y-74584918D01*
X67685242Y-74584644D01*
X67704597Y-74576627D01*
X67705104Y-74576511D01*
X67705104Y-74576510D01*
X67728056Y-74558205D01*
X67733763Y-74554155D01*
X67739941Y-74550275D01*
X67745107Y-74545107D01*
X67750306Y-74540462D01*
X67773271Y-74522149D01*
X67773498Y-74521676D01*
X67785612Y-74504602D01*
X68282340Y-74007873D01*
X68326533Y-73989568D01*
X68370727Y-74007874D01*
X68378112Y-74021686D01*
X68379218Y-74020948D01*
X68396920Y-74047444D01*
X68862214Y-73582152D01*
X69186084Y-73258281D01*
X69169923Y-73247482D01*
X69115941Y-73236745D01*
X69076167Y-73210170D01*
X69066834Y-73187639D01*
X69065901Y-73182950D01*
X69055931Y-73132825D01*
X69026602Y-73088930D01*
X68931171Y-72993499D01*
X68887276Y-72964170D01*
X68887275Y-72964169D01*
X68832992Y-72953372D01*
X68793218Y-72926796D01*
X68783886Y-72904266D01*
X68773088Y-72849982D01*
X68743758Y-72806086D01*
X68648328Y-72710656D01*
X68604432Y-72681326D01*
X68550150Y-72670529D01*
X68510376Y-72643953D01*
X68501044Y-72621423D01*
X68490246Y-72567140D01*
X68486226Y-72561123D01*
X68460917Y-72523245D01*
X68365486Y-72427814D01*
X68354869Y-72420720D01*
X68321590Y-72398484D01*
X68267307Y-72387687D01*
X68227533Y-72361111D01*
X68218201Y-72338581D01*
X68207403Y-72284297D01*
X68207402Y-72284297D01*
X68178074Y-72240402D01*
X68082643Y-72144971D01*
X68051628Y-72124248D01*
X68038747Y-72115641D01*
X67977641Y-72103487D01*
X67969492Y-72101866D01*
X67969491Y-72101866D01*
X67900235Y-72115641D01*
X67856339Y-72144971D01*
X67283612Y-72717698D01*
X67254282Y-72761594D01*
X67248780Y-72789254D01*
X67231675Y-72821253D01*
X64345695Y-75707234D01*
X64301501Y-75725540D01*
X64257307Y-75707234D01*
X64239001Y-75663040D01*
X64239001Y-75195642D01*
X64257306Y-75151449D01*
X67660839Y-71747915D01*
X67705033Y-71729610D01*
X67749226Y-71747915D01*
X67856340Y-71855029D01*
X67900235Y-71884358D01*
X67969492Y-71898134D01*
X68038748Y-71884358D01*
X68082643Y-71855029D01*
X68178074Y-71759598D01*
X68207403Y-71715703D01*
X68218200Y-71661419D01*
X68244777Y-71621645D01*
X68267307Y-71612313D01*
X68291231Y-71607554D01*
X68321591Y-71601515D01*
X68365486Y-71572186D01*
X68460917Y-71476755D01*
X68490246Y-71432860D01*
X68501043Y-71378575D01*
X68527618Y-71338803D01*
X68550146Y-71329471D01*
X68604433Y-71318673D01*
X68648328Y-71289344D01*
X68743759Y-71193913D01*
X68773088Y-71150018D01*
X68773088Y-71150017D01*
X68773089Y-71150016D01*
X68783886Y-71095734D01*
X68810462Y-71055960D01*
X68832992Y-71046628D01*
X68856916Y-71041869D01*
X68887276Y-71035830D01*
X68931171Y-71006501D01*
X69026602Y-70911070D01*
X69055931Y-70867175D01*
X69066728Y-70812891D01*
X69093305Y-70773117D01*
X69115835Y-70763785D01*
X69140659Y-70758847D01*
X69170119Y-70752987D01*
X69214014Y-70723658D01*
X69309445Y-70628227D01*
X69338774Y-70584332D01*
X69349571Y-70530047D01*
X69376146Y-70490275D01*
X69398674Y-70480943D01*
X69452961Y-70470145D01*
X69496856Y-70440816D01*
X69592287Y-70345385D01*
X69621616Y-70301490D01*
X69628360Y-70267588D01*
X69632414Y-70247206D01*
X69658990Y-70207432D01*
X69681520Y-70198100D01*
X69705444Y-70193341D01*
X69735804Y-70187302D01*
X69779699Y-70157973D01*
X69875130Y-70062542D01*
X69904459Y-70018647D01*
X69915256Y-69964363D01*
X69941833Y-69924589D01*
X69964363Y-69915257D01*
X69988287Y-69910498D01*
X70018647Y-69904459D01*
X70062542Y-69875130D01*
X70157973Y-69779699D01*
X70187302Y-69735804D01*
X70187302Y-69735803D01*
X70187303Y-69735802D01*
X70198100Y-69681520D01*
X70224676Y-69641746D01*
X70247206Y-69632414D01*
X70271130Y-69627655D01*
X70301490Y-69621616D01*
X70345385Y-69592287D01*
X70440816Y-69496856D01*
X70470145Y-69452961D01*
X70480942Y-69398676D01*
X70507517Y-69358904D01*
X70530045Y-69349572D01*
X70584332Y-69338774D01*
X70628227Y-69309445D01*
X70723658Y-69214014D01*
X70752987Y-69170119D01*
X70760816Y-69130759D01*
X70763785Y-69115835D01*
X70790361Y-69076061D01*
X70812891Y-69066729D01*
X70836815Y-69061970D01*
X70867175Y-69055931D01*
X70911070Y-69026602D01*
X71006501Y-68931171D01*
X71035830Y-68887276D01*
X71046627Y-68832992D01*
X71073204Y-68793218D01*
X71095734Y-68783886D01*
X71132528Y-68776567D01*
X71150018Y-68773088D01*
X71193913Y-68743759D01*
X71289344Y-68648328D01*
X71318673Y-68604433D01*
X71329470Y-68550148D01*
X71356045Y-68510376D01*
X71378573Y-68501044D01*
X71432860Y-68490246D01*
X71476755Y-68460917D01*
X71572186Y-68365486D01*
X71601515Y-68321591D01*
X71601515Y-68321590D01*
X71601516Y-68321589D01*
X71612313Y-68267307D01*
X71638889Y-68227533D01*
X71661419Y-68218201D01*
X71685343Y-68213442D01*
X71715703Y-68207403D01*
X71759598Y-68178074D01*
X71855029Y-68082643D01*
X71884358Y-68038748D01*
X71898134Y-67969492D01*
X71884358Y-67900235D01*
X71855029Y-67856340D01*
X71282301Y-67283612D01*
X71238406Y-67254283D01*
X71238405Y-67254282D01*
X71210745Y-67248780D01*
X71178745Y-67231675D01*
X70892715Y-66945645D01*
X70874409Y-66901451D01*
X70875177Y-66891686D01*
X70889262Y-66802765D01*
X70869218Y-66676210D01*
X70855682Y-66649644D01*
X70811046Y-66562041D01*
X70720443Y-66471438D01*
X70606276Y-66413267D01*
X70571370Y-66407738D01*
X70504057Y-66397077D01*
X70463271Y-66372084D01*
X70452104Y-66325570D01*
X70461869Y-66300623D01*
X70491284Y-66256601D01*
X70512045Y-66152227D01*
X70496974Y-66076462D01*
X70494777Y-66065413D01*
X70504109Y-66018496D01*
X70543883Y-65991921D01*
X70590800Y-66001253D01*
G37*
%TD.AperFunction*%
%TA.AperFunction,Conductor*%
G36*
X74015077Y-39248806D02*
G01*
X74033383Y-39293000D01*
X74020467Y-39331048D01*
X73975992Y-39389007D01*
X73917851Y-39529373D01*
X73914741Y-39553000D01*
X74204227Y-39553000D01*
X74176105Y-39651840D01*
X74186454Y-39763521D01*
X74208104Y-39807000D01*
X73914741Y-39807000D01*
X73917851Y-39830629D01*
X73975988Y-39970986D01*
X74068478Y-40091521D01*
X74189010Y-40184008D01*
X74329375Y-40242149D01*
X74440148Y-40256732D01*
X74444227Y-40257000D01*
X74522112Y-40257000D01*
X74566306Y-40275306D01*
X74584612Y-40319500D01*
X74566306Y-40363694D01*
X74557000Y-40373000D01*
X74557000Y-40864500D01*
X74538694Y-40908694D01*
X74494500Y-40927000D01*
X73783000Y-40927000D01*
X73783000Y-40983667D01*
X73764694Y-41027861D01*
X73720500Y-41046167D01*
X73676306Y-41027861D01*
X73321445Y-40673000D01*
X73783000Y-40673000D01*
X74303000Y-40673000D01*
X74303000Y-40373000D01*
X73897491Y-40373000D01*
X73860447Y-40380368D01*
X73818438Y-40408438D01*
X73790368Y-40450447D01*
X73783000Y-40487491D01*
X73783000Y-40673000D01*
X73321445Y-40673000D01*
X72491441Y-39842997D01*
X72483356Y-39831759D01*
X72448748Y-39800210D01*
X72446660Y-39798216D01*
X72434041Y-39785597D01*
X72434039Y-39785595D01*
X72432286Y-39784394D01*
X72425515Y-39779030D01*
X72404615Y-39759978D01*
X72393021Y-39755486D01*
X72380282Y-39748771D01*
X72370027Y-39741746D01*
X72342510Y-39735274D01*
X72334245Y-39732715D01*
X72307875Y-39722500D01*
X72307874Y-39722500D01*
X72295443Y-39722500D01*
X72281135Y-39720840D01*
X72269038Y-39717995D01*
X72269037Y-39717995D01*
X72241035Y-39721901D01*
X72232401Y-39722500D01*
X68555463Y-39722500D01*
X68541796Y-39720270D01*
X68495035Y-39722433D01*
X68492148Y-39722500D01*
X68474284Y-39722500D01*
X68472196Y-39722890D01*
X68463611Y-39723885D01*
X68435366Y-39725191D01*
X68429665Y-39727708D01*
X68423989Y-39730214D01*
X68410237Y-39734472D01*
X68398019Y-39736756D01*
X68373980Y-39751639D01*
X68366328Y-39755673D01*
X68340458Y-39767096D01*
X68331663Y-39775891D01*
X68320375Y-39784831D01*
X68309812Y-39791371D01*
X68292772Y-39813935D01*
X68287091Y-39820462D01*
X65280494Y-42827060D01*
X65269255Y-42835147D01*
X65237718Y-42869741D01*
X65235729Y-42871824D01*
X65223096Y-42884458D01*
X65221895Y-42886212D01*
X65216531Y-42892982D01*
X65197476Y-42913885D01*
X65192984Y-42925481D01*
X65186271Y-42938218D01*
X65179246Y-42948473D01*
X65172774Y-42975990D01*
X65170215Y-42984255D01*
X65160000Y-43010625D01*
X65160000Y-43023056D01*
X65158340Y-43037366D01*
X65155494Y-43049463D01*
X65159400Y-43077465D01*
X65159999Y-43086098D01*
X65159999Y-43846221D01*
X65141693Y-43890415D01*
X65118696Y-43901954D01*
X65119302Y-43903193D01*
X65004837Y-43959151D01*
X64921651Y-44042337D01*
X64869983Y-44148026D01*
X64860000Y-44216547D01*
X64860000Y-44659167D01*
X64841694Y-44703361D01*
X64640862Y-44904194D01*
X64596668Y-44922500D01*
X64327500Y-44922500D01*
X64283306Y-44904194D01*
X64265000Y-44860000D01*
X64265000Y-44437442D01*
X64257602Y-44400252D01*
X64229422Y-44358078D01*
X64187248Y-44329898D01*
X64150058Y-44322500D01*
X64150057Y-44322500D01*
X63220833Y-44322500D01*
X63176639Y-44304194D01*
X63158333Y-44260000D01*
X63176639Y-44215806D01*
X68143639Y-39248806D01*
X68187833Y-39230500D01*
X73970883Y-39230500D01*
X74015077Y-39248806D01*
G37*
%TD.AperFunction*%
%TA.AperFunction,Conductor*%
G36*
X72159361Y-40295806D02*
G01*
X72352812Y-40489257D01*
X72371118Y-40533451D01*
X72352812Y-40577645D01*
X72308618Y-40595951D01*
X72273895Y-40585418D01*
X72247422Y-40567729D01*
X72170857Y-40552500D01*
X72170856Y-40552500D01*
X71849144Y-40552500D01*
X71849143Y-40552500D01*
X71772577Y-40567729D01*
X71685747Y-40625747D01*
X71627729Y-40712577D01*
X71612500Y-40789143D01*
X71612500Y-41210856D01*
X71627729Y-41287422D01*
X71685747Y-41374252D01*
X71772577Y-41432270D01*
X71849143Y-41447500D01*
X71849144Y-41447500D01*
X72170857Y-41447500D01*
X72209139Y-41439884D01*
X72247423Y-41432270D01*
X72334252Y-41374252D01*
X72392270Y-41287423D01*
X72392270Y-41287421D01*
X72396037Y-41281784D01*
X72435811Y-41255208D01*
X72482727Y-41264540D01*
X72492198Y-41272313D01*
X73574485Y-42354600D01*
X73586599Y-42371671D01*
X73586828Y-42372146D01*
X73586830Y-42372149D01*
X73609791Y-42390460D01*
X73615006Y-42395121D01*
X73620160Y-42400275D01*
X73626332Y-42404153D01*
X73632039Y-42408203D01*
X73654994Y-42426509D01*
X73654997Y-42426511D01*
X73655504Y-42426626D01*
X73674848Y-42434637D01*
X73675294Y-42434918D01*
X73704467Y-42438204D01*
X73711362Y-42439375D01*
X73718479Y-42441000D01*
X73725764Y-42441000D01*
X73732761Y-42441393D01*
X73751551Y-42443510D01*
X73793418Y-42466649D01*
X73806661Y-42512614D01*
X73796521Y-42540340D01*
X73789898Y-42550251D01*
X73782500Y-42587442D01*
X73782500Y-42731214D01*
X73764194Y-42775408D01*
X73720000Y-42793714D01*
X73711109Y-42793078D01*
X73707087Y-42792500D01*
X73707083Y-42792500D01*
X72901500Y-42792500D01*
X72899862Y-42792676D01*
X72899845Y-42792677D01*
X72875001Y-42795348D01*
X72874986Y-42795350D01*
X72873334Y-42795528D01*
X72871710Y-42795881D01*
X72871693Y-42795884D01*
X72852784Y-42799998D01*
X72805709Y-42791504D01*
X72778427Y-42752211D01*
X72776999Y-42738926D01*
X72776999Y-42310449D01*
X72776791Y-42306849D01*
X72774313Y-42285482D01*
X72732482Y-42190744D01*
X72659255Y-42117517D01*
X72564517Y-42075687D01*
X72543144Y-42073207D01*
X72539554Y-42073000D01*
X72477000Y-42073000D01*
X72477000Y-42927000D01*
X72458694Y-42971194D01*
X72414500Y-42989500D01*
X72285500Y-42989500D01*
X72241306Y-42971194D01*
X72223000Y-42927000D01*
X72223000Y-42073000D01*
X72160449Y-42073000D01*
X72156848Y-42073209D01*
X72135482Y-42075686D01*
X72040744Y-42117517D01*
X71967517Y-42190744D01*
X71932175Y-42270788D01*
X71897578Y-42303822D01*
X71849755Y-42302718D01*
X71817825Y-42270788D01*
X71782482Y-42190744D01*
X71709255Y-42117517D01*
X71614517Y-42075687D01*
X71593144Y-42073207D01*
X71589554Y-42073000D01*
X71527000Y-42073000D01*
X71527000Y-42927000D01*
X71508694Y-42971194D01*
X71464500Y-42989500D01*
X71335500Y-42989500D01*
X71291306Y-42971194D01*
X71273000Y-42927000D01*
X71273000Y-42073000D01*
X71210449Y-42073000D01*
X71206848Y-42073209D01*
X71185482Y-42075686D01*
X71090744Y-42117517D01*
X71017517Y-42190744D01*
X70982448Y-42270169D01*
X70947851Y-42303204D01*
X70900028Y-42302099D01*
X70868098Y-42270169D01*
X70832902Y-42190456D01*
X70759542Y-42117096D01*
X70664632Y-42075191D01*
X70643234Y-42072708D01*
X70643215Y-42072706D01*
X70641432Y-42072500D01*
X70258568Y-42072500D01*
X70256785Y-42072706D01*
X70256765Y-42072708D01*
X70235367Y-42075191D01*
X70140457Y-42117096D01*
X70067096Y-42190457D01*
X70025191Y-42285367D01*
X70022708Y-42306765D01*
X70022706Y-42306785D01*
X70022500Y-42308568D01*
X70022500Y-42310371D01*
X70022500Y-42742243D01*
X70004194Y-42786437D01*
X69969777Y-42803973D01*
X69788728Y-42832649D01*
X69575032Y-42902082D01*
X69374828Y-43004092D01*
X69193042Y-43136167D01*
X69034167Y-43295042D01*
X68902092Y-43476828D01*
X68800082Y-43677032D01*
X68730751Y-43890415D01*
X68730650Y-43890726D01*
X68695500Y-44112653D01*
X68695500Y-44112655D01*
X68695500Y-47855109D01*
X68693717Y-47869931D01*
X68684109Y-47909288D01*
X68684405Y-47934256D01*
X68683751Y-47944039D01*
X68680140Y-47968728D01*
X68685090Y-48015202D01*
X68685437Y-48021078D01*
X68692286Y-48597213D01*
X68691922Y-48604725D01*
X68687841Y-48642182D01*
X68698922Y-48719259D01*
X68710329Y-48801667D01*
X68711264Y-48805099D01*
X68746381Y-49049340D01*
X68746980Y-49056093D01*
X68748412Y-49097854D01*
X68763119Y-49147941D01*
X68768086Y-49164858D01*
X68769233Y-49168762D01*
X68789274Y-49241609D01*
X68793614Y-49251795D01*
X68866200Y-49499007D01*
X68867754Y-49505604D01*
X68875118Y-49546753D01*
X68905836Y-49614015D01*
X68936020Y-49683224D01*
X68941767Y-49692693D01*
X69048802Y-49927069D01*
X69051279Y-49933378D01*
X69064422Y-49973054D01*
X69104379Y-50035228D01*
X69144121Y-50099463D01*
X69151161Y-50108023D01*
X69290468Y-50324787D01*
X69293819Y-50330680D01*
X69312477Y-50368088D01*
X69360887Y-50423955D01*
X69409357Y-50481869D01*
X69417540Y-50489336D01*
X69586263Y-50684052D01*
X69590418Y-50689409D01*
X69614206Y-50723775D01*
X69670087Y-50772196D01*
X69726305Y-50822620D01*
X69735459Y-50828841D01*
X69930181Y-50997569D01*
X69935045Y-51002268D01*
X69963490Y-51032908D01*
X70025682Y-51072876D01*
X70087124Y-51113867D01*
X70088503Y-51114787D01*
X70098452Y-51119643D01*
X70234667Y-51207183D01*
X70315224Y-51258954D01*
X70320719Y-51262922D01*
X70336668Y-51275811D01*
X70353230Y-51289197D01*
X70420475Y-51319906D01*
X70487128Y-51351737D01*
X70487129Y-51351737D01*
X70488628Y-51352453D01*
X70499166Y-51355843D01*
X70733554Y-51462884D01*
X70739543Y-51466022D01*
X70775461Y-51487404D01*
X70846405Y-51508235D01*
X70916899Y-51530252D01*
X70916901Y-51530252D01*
X70918486Y-51530747D01*
X70929392Y-51532602D01*
X71176626Y-51605196D01*
X71183018Y-51607456D01*
X71221603Y-51623503D01*
X71294755Y-51634020D01*
X71367699Y-51645787D01*
X71367701Y-51645786D01*
X71369339Y-51646051D01*
X71380402Y-51646334D01*
X71620665Y-51680879D01*
X71624680Y-51681457D01*
X71632049Y-51682974D01*
X71668429Y-51692778D01*
X71746185Y-51693702D01*
X71823659Y-51695030D01*
X71823662Y-51695029D01*
X71829483Y-51695129D01*
X71833011Y-51694733D01*
X72321781Y-51700543D01*
X72335388Y-51702210D01*
X72338398Y-51702921D01*
X72406832Y-51701583D01*
X72408732Y-51701576D01*
X72437418Y-51701918D01*
X72444321Y-51701128D01*
X72450177Y-51700737D01*
X72496912Y-51699826D01*
X72517865Y-51694007D01*
X72534590Y-51691728D01*
X73154610Y-51691728D01*
X73797926Y-51697525D01*
X73802247Y-51697714D01*
X74147543Y-51724890D01*
X74152390Y-51725463D01*
X74486370Y-51778360D01*
X74491183Y-51779318D01*
X74819969Y-51858252D01*
X74824659Y-51859575D01*
X75146283Y-51964077D01*
X75150845Y-51965761D01*
X75364404Y-52054220D01*
X75463222Y-52095152D01*
X75467679Y-52097206D01*
X75640505Y-52185267D01*
X75643380Y-52186828D01*
X75766772Y-52258068D01*
X75965307Y-52372692D01*
X75969883Y-52375608D01*
X76278037Y-52591381D01*
X76282350Y-52594691D01*
X76315856Y-52622806D01*
X76570521Y-52836496D01*
X76574541Y-52840180D01*
X76840536Y-53106178D01*
X76844220Y-53110198D01*
X77086020Y-53398364D01*
X77089339Y-53402690D01*
X77305095Y-53710824D01*
X77308025Y-53715422D01*
X77496119Y-54041213D01*
X77498635Y-54046047D01*
X77640770Y-54350860D01*
X77657603Y-54386957D01*
X77659690Y-54391995D01*
X77788351Y-54745489D01*
X77789990Y-54750689D01*
X77887349Y-55114039D01*
X77888530Y-55119362D01*
X77953852Y-55489829D01*
X77954563Y-55495235D01*
X77987643Y-55873345D01*
X77987878Y-55878178D01*
X77989728Y-56066540D01*
X77989728Y-66151141D01*
X77988223Y-66164773D01*
X77987547Y-66167793D01*
X77989697Y-66236190D01*
X77989728Y-66238153D01*
X77989728Y-66266794D01*
X77989972Y-66268733D01*
X77989974Y-66268751D01*
X77990597Y-66273687D01*
X77991058Y-66279547D01*
X77992775Y-66334151D01*
X77992116Y-66334171D01*
X77992366Y-66358106D01*
X77988958Y-66370826D01*
X77986330Y-66378568D01*
X77970894Y-66415836D01*
X77967278Y-66423168D01*
X77947102Y-66458115D01*
X77942560Y-66464914D01*
X77928214Y-66483610D01*
X77922823Y-66489756D01*
X77116562Y-67296018D01*
X77072368Y-67314324D01*
X77028174Y-67296018D01*
X77020402Y-67286548D01*
X77008648Y-67268958D01*
X76959647Y-67219958D01*
X76626246Y-67553358D01*
X76582052Y-67571664D01*
X76537858Y-67553358D01*
X76212754Y-67228255D01*
X76212751Y-67228253D01*
X76183243Y-67198745D01*
X76155458Y-67226529D01*
X76111339Y-67292558D01*
X76090618Y-67396735D01*
X76111339Y-67500913D01*
X76155456Y-67566938D01*
X76401737Y-67813219D01*
X76420043Y-67857413D01*
X76401737Y-67901607D01*
X76357543Y-67919913D01*
X76328553Y-67919913D01*
X76284359Y-67901607D01*
X76052538Y-67669785D01*
X75986390Y-67625586D01*
X75882017Y-67604826D01*
X75777643Y-67625586D01*
X75758086Y-67638654D01*
X75711170Y-67647985D01*
X75679171Y-67630881D01*
X75670591Y-67622302D01*
X75662012Y-67613722D01*
X75643706Y-67569531D01*
X75654239Y-67534806D01*
X75667306Y-67515251D01*
X75688067Y-67410877D01*
X75667306Y-67306503D01*
X75653972Y-67286548D01*
X75623107Y-67240355D01*
X75405429Y-67022677D01*
X75387123Y-66978483D01*
X75387123Y-66949494D01*
X75405429Y-66905300D01*
X75449623Y-66886994D01*
X75493817Y-66905300D01*
X75725954Y-67137437D01*
X75791979Y-67181554D01*
X75896158Y-67202275D01*
X76000336Y-67181554D01*
X76066358Y-67137439D01*
X76094147Y-67109649D01*
X76003638Y-67019140D01*
X76362849Y-67019140D01*
X76582052Y-67238343D01*
X76780042Y-67040353D01*
X76780042Y-67040352D01*
X76731042Y-66991352D01*
X76665017Y-66947235D01*
X76560839Y-66926514D01*
X76456660Y-66947235D01*
X76390638Y-66991350D01*
X76362849Y-67019140D01*
X76003638Y-67019140D01*
X75739534Y-66755036D01*
X75721228Y-66710842D01*
X76054550Y-66710842D01*
X76244243Y-66900535D01*
X76244245Y-66900536D01*
X76244246Y-66900536D01*
X76273753Y-66930043D01*
X76301540Y-66902256D01*
X76345657Y-66836233D01*
X76366378Y-66732054D01*
X76345657Y-66627878D01*
X76301540Y-66561853D01*
X76252539Y-66512851D01*
X76054550Y-66710841D01*
X76054550Y-66710842D01*
X75721228Y-66710842D01*
X75739534Y-66666648D01*
X75874945Y-66531237D01*
X76072935Y-66333246D01*
X76023932Y-66284245D01*
X75991710Y-66262715D01*
X75965134Y-66222941D01*
X75974466Y-66176025D01*
X75982231Y-66166563D01*
X77010806Y-65137987D01*
X77027880Y-65125873D01*
X77028353Y-65125646D01*
X77046666Y-65102681D01*
X77051311Y-65097482D01*
X77056479Y-65092316D01*
X77060365Y-65086130D01*
X77064400Y-65080443D01*
X77082715Y-65057479D01*
X77082830Y-65056974D01*
X77090848Y-65037618D01*
X77091123Y-65037182D01*
X77094411Y-65007994D01*
X77095581Y-65001107D01*
X77097204Y-64993997D01*
X77097204Y-64986713D01*
X77097597Y-64979716D01*
X77099203Y-64965459D01*
X77100884Y-64950541D01*
X77100711Y-64950046D01*
X77097204Y-64929405D01*
X77097204Y-58564499D01*
X77100711Y-58543857D01*
X77100884Y-58543363D01*
X77097597Y-58514188D01*
X77097204Y-58507191D01*
X77097204Y-58499910D01*
X77097204Y-58499907D01*
X77095579Y-58492790D01*
X77094407Y-58485888D01*
X77091122Y-58456723D01*
X77091122Y-58456722D01*
X77090841Y-58456276D01*
X77082830Y-58436932D01*
X77082715Y-58436425D01*
X77082713Y-58436422D01*
X77064407Y-58413467D01*
X77060357Y-58407760D01*
X77056479Y-58401588D01*
X77051325Y-58396434D01*
X77046664Y-58391219D01*
X77028353Y-58368258D01*
X77027879Y-58368029D01*
X77010805Y-58355914D01*
X76347816Y-57692924D01*
X76329510Y-57648730D01*
X76329510Y-57375439D01*
X76329510Y-57373636D01*
X76327821Y-57359083D01*
X76326818Y-57350435D01*
X76284913Y-57255525D01*
X76211552Y-57182164D01*
X76116642Y-57140259D01*
X76095244Y-57137776D01*
X76095225Y-57137774D01*
X76093442Y-57137568D01*
X76091639Y-57137568D01*
X74823373Y-57137568D01*
X74779179Y-57119262D01*
X74617583Y-56957665D01*
X74599277Y-56913471D01*
X74599277Y-56213829D01*
X74617583Y-56169635D01*
X74634323Y-56157682D01*
X74707662Y-56121829D01*
X74790848Y-56038643D01*
X74842517Y-55932953D01*
X74852500Y-55864434D01*
X74852499Y-55297529D01*
X74842517Y-55229009D01*
X74816107Y-55174986D01*
X74790848Y-55123318D01*
X74707662Y-55040132D01*
X74634327Y-55004281D01*
X74602663Y-54968426D01*
X74599277Y-54948132D01*
X74599277Y-54482848D01*
X74617583Y-54438654D01*
X74634323Y-54426701D01*
X74707662Y-54390848D01*
X74790848Y-54307662D01*
X74842517Y-54201972D01*
X74852500Y-54133453D01*
X74852499Y-53566548D01*
X74852498Y-53566544D01*
X74845436Y-53518066D01*
X74842517Y-53498028D01*
X74803723Y-53418674D01*
X74790848Y-53392337D01*
X74707662Y-53309151D01*
X74601973Y-53257483D01*
X74533453Y-53247500D01*
X74189182Y-53247500D01*
X74144988Y-53229194D01*
X73107910Y-52192115D01*
X73100137Y-52182644D01*
X73089361Y-52166516D01*
X73073227Y-52155735D01*
X73073221Y-52155730D01*
X73005177Y-52110265D01*
X72924906Y-52094299D01*
X72905877Y-52090514D01*
X72905876Y-52090514D01*
X72886847Y-52094299D01*
X72874655Y-52095500D01*
X68591398Y-52095500D01*
X68547204Y-52077194D01*
X66679203Y-50209193D01*
X66660897Y-50164999D01*
X66679203Y-50120805D01*
X66723397Y-50102499D01*
X67020953Y-50102499D01*
X67029665Y-50101229D01*
X67089472Y-50092517D01*
X67195162Y-50040848D01*
X67278348Y-49957662D01*
X67330017Y-49851972D01*
X67340000Y-49783453D01*
X67339999Y-49216548D01*
X67330017Y-49148028D01*
X67285690Y-49057356D01*
X67278348Y-49042337D01*
X67195162Y-48959151D01*
X67125050Y-48924875D01*
X67093386Y-48889019D01*
X67090000Y-48868726D01*
X67090000Y-48140034D01*
X67108306Y-48095840D01*
X67126087Y-48083390D01*
X67203244Y-48047411D01*
X67284911Y-47965744D01*
X67311237Y-47909288D01*
X67333721Y-47861071D01*
X67340000Y-47813375D01*
X67339999Y-47186626D01*
X67333721Y-47138929D01*
X67311514Y-47091306D01*
X67284911Y-47034255D01*
X67203244Y-46952588D01*
X67098570Y-46903778D01*
X67052908Y-46897767D01*
X67052898Y-46897766D01*
X67050875Y-46897500D01*
X67048828Y-46897500D01*
X66576162Y-46897500D01*
X66576146Y-46897500D01*
X66574126Y-46897501D01*
X66572113Y-46897765D01*
X66572097Y-46897767D01*
X66526429Y-46903778D01*
X66421755Y-46952588D01*
X66340088Y-47034255D01*
X66291278Y-47138929D01*
X66285267Y-47184591D01*
X66285267Y-47184597D01*
X66285000Y-47186625D01*
X66285000Y-47188670D01*
X66285000Y-47188671D01*
X66285000Y-47811337D01*
X66285000Y-47811352D01*
X66285001Y-47813374D01*
X66285266Y-47815387D01*
X66285267Y-47815402D01*
X66291278Y-47861070D01*
X66340088Y-47965744D01*
X66421755Y-48047411D01*
X66498912Y-48083390D01*
X66531230Y-48118658D01*
X66534999Y-48140034D01*
X66534999Y-48838937D01*
X66516693Y-48883131D01*
X66481509Y-48900784D01*
X66435527Y-48907482D01*
X66329839Y-48959150D01*
X66277693Y-49011296D01*
X66233498Y-49029601D01*
X66189304Y-49011295D01*
X66170999Y-48967101D01*
X66170999Y-48285225D01*
X66172200Y-48273030D01*
X66174283Y-48262558D01*
X66175986Y-48254000D01*
X66164800Y-48197766D01*
X66163257Y-48190007D01*
X66156234Y-48154697D01*
X66146139Y-48139589D01*
X66110767Y-48086652D01*
X66110760Y-48086644D01*
X66099984Y-48070516D01*
X66092996Y-48065847D01*
X66083849Y-48059735D01*
X66074383Y-48051965D01*
X65708305Y-47685887D01*
X65689999Y-47641693D01*
X65689999Y-47188662D01*
X65689999Y-47188661D01*
X65689999Y-47186626D01*
X65683721Y-47138929D01*
X65661514Y-47091306D01*
X65634911Y-47034255D01*
X65553244Y-46952588D01*
X65448570Y-46903778D01*
X65402908Y-46897767D01*
X65402898Y-46897766D01*
X65400875Y-46897500D01*
X65398828Y-46897500D01*
X64926162Y-46897500D01*
X64926146Y-46897500D01*
X64924126Y-46897501D01*
X64922113Y-46897765D01*
X64922097Y-46897767D01*
X64876429Y-46903778D01*
X64771755Y-46952588D01*
X64690088Y-47034255D01*
X64641278Y-47138929D01*
X64637431Y-47168157D01*
X64613514Y-47209584D01*
X64575466Y-47222500D01*
X64327500Y-47222500D01*
X64283306Y-47204194D01*
X64265000Y-47160000D01*
X64265000Y-46737442D01*
X64257602Y-46700252D01*
X64229422Y-46658078D01*
X64187248Y-46629898D01*
X64150058Y-46622500D01*
X62124942Y-46622500D01*
X62112043Y-46625066D01*
X62087751Y-46629898D01*
X62045578Y-46658078D01*
X62017398Y-46700251D01*
X62009999Y-46737442D01*
X62010000Y-47160000D01*
X61991694Y-47204194D01*
X61947500Y-47222500D01*
X58027500Y-47222500D01*
X57983306Y-47204194D01*
X57965000Y-47160000D01*
X57965000Y-46790832D01*
X57983306Y-46746638D01*
X60261139Y-44468806D01*
X60305333Y-44450500D01*
X61947500Y-44450500D01*
X61991694Y-44468806D01*
X62010000Y-44513000D01*
X62010000Y-44910000D01*
X61991694Y-44954194D01*
X61947500Y-44972500D01*
X61732789Y-44972500D01*
X61688595Y-44954194D01*
X61683205Y-44948048D01*
X61626219Y-44873783D01*
X61626216Y-44873781D01*
X61516026Y-44789229D01*
X61516025Y-44789228D01*
X61387703Y-44736076D01*
X61250000Y-44717948D01*
X61112296Y-44736076D01*
X60983972Y-44789229D01*
X60873781Y-44873781D01*
X60789229Y-44983972D01*
X60736076Y-45112296D01*
X60717948Y-45250000D01*
X60736076Y-45387703D01*
X60789229Y-45516027D01*
X60873781Y-45626218D01*
X60983972Y-45710770D01*
X60983973Y-45710770D01*
X60983974Y-45710771D01*
X61112295Y-45763923D01*
X61250000Y-45782052D01*
X61387705Y-45763923D01*
X61516026Y-45710771D01*
X61626218Y-45626218D01*
X61660073Y-45582097D01*
X61683205Y-45551952D01*
X61724631Y-45528035D01*
X61732789Y-45527500D01*
X61947500Y-45527500D01*
X61991694Y-45545806D01*
X62010000Y-45589999D01*
X62010000Y-45962558D01*
X62017398Y-45999748D01*
X62045578Y-46041922D01*
X62087752Y-46070102D01*
X62124942Y-46077500D01*
X62124943Y-46077500D01*
X64150057Y-46077500D01*
X64150058Y-46077500D01*
X64187248Y-46070102D01*
X64229422Y-46041922D01*
X64257602Y-45999748D01*
X64265000Y-45962558D01*
X64265000Y-45539999D01*
X64283306Y-45495806D01*
X64327500Y-45477500D01*
X64682037Y-45477500D01*
X64695703Y-45479729D01*
X64698496Y-45479599D01*
X64698497Y-45479600D01*
X64742464Y-45477567D01*
X64745352Y-45477500D01*
X64763214Y-45477500D01*
X64763215Y-45477500D01*
X64765292Y-45477111D01*
X64773890Y-45476113D01*
X64802135Y-45474808D01*
X64813502Y-45469788D01*
X64827263Y-45465526D01*
X64839481Y-45463243D01*
X64863517Y-45448359D01*
X64871175Y-45444324D01*
X64880902Y-45440029D01*
X64897042Y-45432903D01*
X64902429Y-45427515D01*
X64905832Y-45424113D01*
X64917127Y-45415166D01*
X64927689Y-45408627D01*
X64944728Y-45386062D01*
X64950403Y-45379540D01*
X65209138Y-45120804D01*
X65253332Y-45102499D01*
X65695953Y-45102499D01*
X65704665Y-45101229D01*
X65764472Y-45092517D01*
X65870162Y-45040848D01*
X65953348Y-44957662D01*
X66005017Y-44851972D01*
X66015000Y-44783453D01*
X66015000Y-44627000D01*
X66410501Y-44627000D01*
X66410501Y-44783405D01*
X66420468Y-44851824D01*
X66472065Y-44957368D01*
X66555131Y-45040434D01*
X66660675Y-45092031D01*
X66729094Y-45101999D01*
X66860499Y-45101999D01*
X66860500Y-45101998D01*
X66860500Y-44627000D01*
X67114500Y-44627000D01*
X67114500Y-45101999D01*
X67245905Y-45101999D01*
X67314324Y-45092031D01*
X67419868Y-45040434D01*
X67502934Y-44957368D01*
X67554531Y-44851824D01*
X67564500Y-44783404D01*
X67564500Y-44627000D01*
X67114500Y-44627000D01*
X66860500Y-44627000D01*
X66410501Y-44627000D01*
X66015000Y-44627000D01*
X66014999Y-44216595D01*
X66410499Y-44216595D01*
X66410500Y-44373000D01*
X66860500Y-44373000D01*
X66860500Y-43898000D01*
X67114500Y-43898000D01*
X67114500Y-44373000D01*
X67564499Y-44373000D01*
X67564499Y-44216594D01*
X67554531Y-44148175D01*
X67502934Y-44042631D01*
X67419868Y-43959565D01*
X67314324Y-43907968D01*
X67245905Y-43898000D01*
X67114500Y-43898000D01*
X66860500Y-43898000D01*
X66729094Y-43898000D01*
X66660675Y-43907968D01*
X66555131Y-43959565D01*
X66472065Y-44042631D01*
X66420468Y-44148175D01*
X66410499Y-44216595D01*
X66014999Y-44216595D01*
X66014999Y-44216548D01*
X66005017Y-44148028D01*
X65978607Y-44094006D01*
X65953348Y-44042337D01*
X65870162Y-43959151D01*
X65755698Y-43903193D01*
X65756737Y-43901066D01*
X65727395Y-43883581D01*
X65715000Y-43846221D01*
X65715000Y-43203332D01*
X65733306Y-43159138D01*
X67765444Y-41127000D01*
X70593000Y-41127000D01*
X70593000Y-41210806D01*
X70608200Y-41287226D01*
X70666108Y-41373891D01*
X70752773Y-41431799D01*
X70829193Y-41447000D01*
X70863000Y-41447000D01*
X70863000Y-41127000D01*
X71117000Y-41127000D01*
X71117000Y-41447000D01*
X71150807Y-41447000D01*
X71227226Y-41431799D01*
X71313891Y-41373891D01*
X71371799Y-41287226D01*
X71387000Y-41210806D01*
X71387000Y-41127000D01*
X71117000Y-41127000D01*
X70863000Y-41127000D01*
X70593000Y-41127000D01*
X67765444Y-41127000D01*
X68019444Y-40873000D01*
X70593000Y-40873000D01*
X70863000Y-40873000D01*
X70863000Y-40553000D01*
X71117000Y-40553000D01*
X71117000Y-40873000D01*
X71387000Y-40873000D01*
X71387000Y-40789193D01*
X71371799Y-40712773D01*
X71313891Y-40626108D01*
X71227226Y-40568200D01*
X71150807Y-40553000D01*
X71117000Y-40553000D01*
X70863000Y-40553000D01*
X70829193Y-40553000D01*
X70752773Y-40568200D01*
X70666108Y-40626108D01*
X70608200Y-40712773D01*
X70593000Y-40789193D01*
X70593000Y-40873000D01*
X68019444Y-40873000D01*
X68596638Y-40295806D01*
X68640832Y-40277500D01*
X72115167Y-40277500D01*
X72159361Y-40295806D01*
G37*
%TD.AperFunction*%
%TA.AperFunction,Conductor*%
G36*
X69043707Y-60517413D02*
G01*
X69846150Y-61319856D01*
X69864456Y-61364050D01*
X69864456Y-63903690D01*
X69860949Y-63924331D01*
X69860776Y-63924825D01*
X69864063Y-63953998D01*
X69864456Y-63960996D01*
X69864456Y-63968281D01*
X69866077Y-63975385D01*
X69867250Y-63982291D01*
X69870537Y-64011466D01*
X69870815Y-64011908D01*
X69878827Y-64031250D01*
X69878943Y-64031762D01*
X69897247Y-64054713D01*
X69901304Y-64060431D01*
X69905181Y-64066601D01*
X69910332Y-64071752D01*
X69915003Y-64076978D01*
X69933307Y-64099931D01*
X69933781Y-64100159D01*
X69950854Y-64112274D01*
X71225901Y-65387321D01*
X72435576Y-66596995D01*
X72453882Y-66641189D01*
X72435576Y-66685383D01*
X72391382Y-66703689D01*
X72260566Y-66703689D01*
X72216372Y-66685383D01*
X67436720Y-61905731D01*
X67418414Y-61861537D01*
X67436720Y-61817343D01*
X67480914Y-61799037D01*
X67488118Y-61799454D01*
X67508850Y-61801859D01*
X67512456Y-61802067D01*
X68075010Y-61802067D01*
X68075010Y-61502068D01*
X68329010Y-61502068D01*
X68329010Y-61802067D01*
X68891561Y-61802067D01*
X68895160Y-61801859D01*
X68916527Y-61799381D01*
X69011265Y-61757550D01*
X69084492Y-61684323D01*
X69126322Y-61589585D01*
X69128802Y-61568212D01*
X69129010Y-61564621D01*
X69129010Y-61502068D01*
X68329010Y-61502068D01*
X68075010Y-61502068D01*
X68075010Y-60948068D01*
X68329010Y-60948068D01*
X68329010Y-61248068D01*
X69129009Y-61248068D01*
X69129009Y-61185517D01*
X69128801Y-61181917D01*
X69126323Y-61160550D01*
X69084492Y-61065812D01*
X69011265Y-60992585D01*
X68916527Y-60950755D01*
X68895154Y-60948275D01*
X68891564Y-60948068D01*
X68329010Y-60948068D01*
X68075010Y-60948068D01*
X67512459Y-60948068D01*
X67508859Y-60948276D01*
X67487488Y-60950755D01*
X67484557Y-60952049D01*
X67436734Y-60953151D01*
X67402140Y-60920114D01*
X67396816Y-60894873D01*
X67396816Y-60585807D01*
X67415122Y-60541613D01*
X67459316Y-60523307D01*
X67484562Y-60528633D01*
X67487376Y-60529876D01*
X67499083Y-60531234D01*
X67508775Y-60532359D01*
X67508778Y-60532359D01*
X67510578Y-60532568D01*
X67512381Y-60532568D01*
X68891639Y-60532568D01*
X68893442Y-60532568D01*
X68895242Y-60532359D01*
X68895244Y-60532359D01*
X68916640Y-60529877D01*
X68916641Y-60529876D01*
X68916644Y-60529876D01*
X68974270Y-60504431D01*
X69022090Y-60503327D01*
X69043707Y-60517413D01*
G37*
%TD.AperFunction*%
%TA.AperFunction,Conductor*%
G36*
X76696898Y-62079432D02*
G01*
X76715204Y-62123626D01*
X76715204Y-64867472D01*
X76696898Y-64911666D01*
X76221242Y-65387321D01*
X76177048Y-65405627D01*
X76132854Y-65387321D01*
X76125082Y-65377851D01*
X76103553Y-65345632D01*
X76054549Y-65296627D01*
X75856560Y-65494617D01*
X75856560Y-65494618D01*
X75941059Y-65579117D01*
X75959365Y-65623311D01*
X75941059Y-65667505D01*
X75849842Y-65758721D01*
X75805648Y-65777027D01*
X75761454Y-65758721D01*
X75676955Y-65674223D01*
X75278147Y-65275415D01*
X75250357Y-65303204D01*
X75206242Y-65369226D01*
X75185521Y-65473404D01*
X75206242Y-65577583D01*
X75250359Y-65643608D01*
X75527964Y-65921213D01*
X75560187Y-65942744D01*
X75586763Y-65982518D01*
X75577431Y-66029434D01*
X75569657Y-66038906D01*
X75542779Y-66065783D01*
X75498585Y-66084088D01*
X75454391Y-66065781D01*
X75446619Y-66056311D01*
X75425117Y-66024131D01*
X75147441Y-65746455D01*
X75081293Y-65702256D01*
X74976920Y-65681496D01*
X74872546Y-65702256D01*
X74806398Y-65746455D01*
X74611919Y-65940934D01*
X74567725Y-65959240D01*
X74523531Y-65940934D01*
X74505225Y-65896740D01*
X74505225Y-65095810D01*
X75457752Y-65095810D01*
X75676954Y-65315012D01*
X75874945Y-65117022D01*
X75825943Y-65068022D01*
X75759918Y-65023905D01*
X75655742Y-65003184D01*
X75551563Y-65023905D01*
X75485541Y-65068020D01*
X75457752Y-65095810D01*
X74505225Y-65095810D01*
X74505225Y-64208604D01*
X74523530Y-64164411D01*
X76608510Y-62079431D01*
X76652704Y-62061126D01*
X76696898Y-62079432D01*
G37*
%TD.AperFunction*%
%TA.AperFunction,Conductor*%
G36*
X72458694Y-45028806D02*
G01*
X72477000Y-45073000D01*
X72477000Y-45926999D01*
X72539551Y-45926999D01*
X72543150Y-45926791D01*
X72564517Y-45924313D01*
X72659255Y-45882482D01*
X72732482Y-45809255D01*
X72774312Y-45714517D01*
X72776792Y-45693144D01*
X72776999Y-45689553D01*
X72776999Y-45267215D01*
X72795305Y-45223021D01*
X72839499Y-45204715D01*
X72856873Y-45207178D01*
X72865150Y-45209574D01*
X72902499Y-45214796D01*
X73398891Y-45212861D01*
X73443157Y-45230995D01*
X73461635Y-45275117D01*
X73443501Y-45319383D01*
X73443329Y-45319555D01*
X72645396Y-46117487D01*
X72628325Y-46129601D01*
X72627850Y-46129829D01*
X72609546Y-46152781D01*
X72604882Y-46158002D01*
X72599724Y-46163160D01*
X72595850Y-46169326D01*
X72591796Y-46175039D01*
X72573488Y-46197996D01*
X72573371Y-46198511D01*
X72565363Y-46217847D01*
X72565081Y-46218294D01*
X72561794Y-46247470D01*
X72560621Y-46254375D01*
X72559000Y-46261479D01*
X72559000Y-46268763D01*
X72558607Y-46275762D01*
X72556475Y-46294680D01*
X72533335Y-46336546D01*
X72506562Y-46348980D01*
X72462577Y-46357729D01*
X72375747Y-46415747D01*
X72317729Y-46502577D01*
X72302500Y-46579143D01*
X72302500Y-46900856D01*
X72317729Y-46977422D01*
X72375747Y-47064252D01*
X72462577Y-47122270D01*
X72539143Y-47137500D01*
X72539144Y-47137500D01*
X72960857Y-47137500D01*
X72999139Y-47129884D01*
X73037423Y-47122270D01*
X73124252Y-47064252D01*
X73182270Y-46977423D01*
X73197500Y-46900856D01*
X73197500Y-46579144D01*
X73182270Y-46502577D01*
X73124252Y-46415748D01*
X73045569Y-46363173D01*
X73018995Y-46323400D01*
X73028327Y-46276483D01*
X73036091Y-46267023D01*
X73675806Y-45627306D01*
X73720000Y-45609001D01*
X73764194Y-45627307D01*
X73782500Y-45671500D01*
X73782500Y-45912558D01*
X73785373Y-45926999D01*
X73789898Y-45949748D01*
X73800274Y-45965277D01*
X73809606Y-46012194D01*
X73800274Y-46034723D01*
X73789898Y-46050251D01*
X73782500Y-46087442D01*
X73782500Y-46092701D01*
X73764194Y-46136895D01*
X73732194Y-46154000D01*
X73700698Y-46160265D01*
X73637793Y-46202297D01*
X73637765Y-46202317D01*
X73616514Y-46216516D01*
X73605733Y-46232651D01*
X73597962Y-46242119D01*
X73442114Y-46397966D01*
X73432646Y-46405737D01*
X73416514Y-46416516D01*
X73402318Y-46437762D01*
X73402352Y-46437712D01*
X73360265Y-46500699D01*
X73340514Y-46599999D01*
X73344299Y-46619027D01*
X73345500Y-46631220D01*
X73345500Y-48068694D01*
X73327194Y-48112888D01*
X73112888Y-48327194D01*
X73068694Y-48345500D01*
X72131306Y-48345500D01*
X72087112Y-48327194D01*
X71672806Y-47912888D01*
X71662083Y-47887000D01*
X72303000Y-47887000D01*
X72303000Y-47920806D01*
X72318200Y-47997226D01*
X72376108Y-48083891D01*
X72462773Y-48141799D01*
X72539193Y-48157000D01*
X72623000Y-48157000D01*
X72623000Y-47887000D01*
X72877000Y-47887000D01*
X72877000Y-48157000D01*
X72960807Y-48157000D01*
X73037226Y-48141799D01*
X73123891Y-48083891D01*
X73181799Y-47997226D01*
X73197000Y-47920806D01*
X73197000Y-47887000D01*
X72877000Y-47887000D01*
X72623000Y-47887000D01*
X72303000Y-47887000D01*
X71662083Y-47887000D01*
X71654500Y-47868694D01*
X71654500Y-47633000D01*
X72303000Y-47633000D01*
X72623000Y-47633000D01*
X72623000Y-47363000D01*
X72877000Y-47363000D01*
X72877000Y-47633000D01*
X73197000Y-47633000D01*
X73197000Y-47599193D01*
X73181799Y-47522773D01*
X73123891Y-47436108D01*
X73037226Y-47378200D01*
X72960807Y-47363000D01*
X72877000Y-47363000D01*
X72623000Y-47363000D01*
X72539193Y-47363000D01*
X72462773Y-47378200D01*
X72376108Y-47436108D01*
X72318200Y-47522773D01*
X72303000Y-47599193D01*
X72303000Y-47633000D01*
X71654500Y-47633000D01*
X71654500Y-45947930D01*
X71672806Y-45903736D01*
X71691751Y-45890757D01*
X71709542Y-45882903D01*
X71782903Y-45809542D01*
X71818098Y-45729829D01*
X71852693Y-45696796D01*
X71900516Y-45697900D01*
X71932446Y-45729830D01*
X71967515Y-45809253D01*
X72040744Y-45882482D01*
X72135482Y-45924312D01*
X72156856Y-45926792D01*
X72160445Y-45926999D01*
X72222999Y-45926999D01*
X72223000Y-45926998D01*
X72223000Y-45073000D01*
X72241306Y-45028806D01*
X72285500Y-45010500D01*
X72414500Y-45010500D01*
X72458694Y-45028806D01*
G37*
%TD.AperFunction*%
%TA.AperFunction,Conductor*%
G36*
X74538694Y-46845806D02*
G01*
X74557000Y-46890000D01*
X74557000Y-47627000D01*
X74566306Y-47636306D01*
X74584612Y-47680500D01*
X74566306Y-47724694D01*
X74522112Y-47743000D01*
X74444227Y-47743000D01*
X74440148Y-47743267D01*
X74329375Y-47757850D01*
X74189008Y-47815992D01*
X74068479Y-47908478D01*
X73975989Y-48029010D01*
X73974742Y-48032023D01*
X73940917Y-48065848D01*
X73893082Y-48065847D01*
X73859257Y-48032022D01*
X73854500Y-48008105D01*
X73854500Y-47689500D01*
X73872806Y-47645306D01*
X73917000Y-47627000D01*
X74303000Y-47627000D01*
X74303000Y-47327000D01*
X73917000Y-47327000D01*
X73872806Y-47308694D01*
X73854500Y-47264500D01*
X73854500Y-47135500D01*
X73872806Y-47091306D01*
X73917000Y-47073000D01*
X74303000Y-47073000D01*
X74303000Y-46890000D01*
X74321306Y-46845806D01*
X74365500Y-46827500D01*
X74494500Y-46827500D01*
X74538694Y-46845806D01*
G37*
%TD.AperFunction*%
%TD*%
%TA.AperFunction,Conductor*%
%TO.N,GND*%
G36*
X74828427Y-72000000D02*
G01*
X72544553Y-74283874D01*
X71455447Y-74283874D01*
X69171573Y-72000000D01*
X72000000Y-69171573D01*
X74828427Y-72000000D01*
G37*
%TD.AperFunction*%
%TD*%
M02*
