%TF.GenerationSoftware,KiCad,Pcbnew,7.0.2*%
%TF.CreationDate,2023-07-30T12:29:19+02:00*%
%TF.ProjectId,RP2040_base_example,52503230-3430-45f6-9261-73655f657861,rev?*%
%TF.SameCoordinates,Original*%
%TF.FileFunction,Copper,L1,Top*%
%TF.FilePolarity,Positive*%
%FSLAX46Y46*%
G04 Gerber Fmt 4.6, Leading zero omitted, Abs format (unit mm)*
G04 Created by KiCad (PCBNEW 7.0.2) date 2023-07-30 12:29:19*
%MOMM*%
%LPD*%
G01*
G04 APERTURE LIST*
G04 Aperture macros list*
%AMRoundRect*
0 Rectangle with rounded corners*
0 $1 Rounding radius*
0 $2 $3 $4 $5 $6 $7 $8 $9 X,Y pos of 4 corners*
0 Add a 4 corners polygon primitive as box body*
4,1,4,$2,$3,$4,$5,$6,$7,$8,$9,$2,$3,0*
0 Add four circle primitives for the rounded corners*
1,1,$1+$1,$2,$3*
1,1,$1+$1,$4,$5*
1,1,$1+$1,$6,$7*
1,1,$1+$1,$8,$9*
0 Add four rect primitives between the rounded corners*
20,1,$1+$1,$2,$3,$4,$5,0*
20,1,$1+$1,$4,$5,$6,$7,0*
20,1,$1+$1,$6,$7,$8,$9,0*
20,1,$1+$1,$8,$9,$2,$3,0*%
%AMRotRect*
0 Rectangle, with rotation*
0 The origin of the aperture is its center*
0 $1 length*
0 $2 width*
0 $3 Rotation angle, in degrees counterclockwise*
0 Add horizontal line*
21,1,$1,$2,0,0,$3*%
G04 Aperture macros list end*
%TA.AperFunction,SMDPad,CuDef*%
%ADD10RoundRect,0.150000X-0.650000X-0.150000X0.650000X-0.150000X0.650000X0.150000X-0.650000X0.150000X0*%
%TD*%
%TA.AperFunction,SMDPad,CuDef*%
%ADD11RoundRect,0.150000X0.256326X0.468458X-0.468458X-0.256326X-0.256326X-0.468458X0.468458X0.256326X0*%
%TD*%
%TA.AperFunction,SMDPad,CuDef*%
%ADD12RoundRect,0.150000X-0.512500X-0.150000X0.512500X-0.150000X0.512500X0.150000X-0.512500X0.150000X0*%
%TD*%
%TA.AperFunction,SMDPad,CuDef*%
%ADD13R,1.200000X1.400000*%
%TD*%
%TA.AperFunction,SMDPad,CuDef*%
%ADD14RoundRect,0.140000X0.170000X-0.140000X0.170000X0.140000X-0.170000X0.140000X-0.170000X-0.140000X0*%
%TD*%
%TA.AperFunction,SMDPad,CuDef*%
%ADD15RoundRect,0.140000X0.021213X-0.219203X0.219203X-0.021213X-0.021213X0.219203X-0.219203X0.021213X0*%
%TD*%
%TA.AperFunction,SMDPad,CuDef*%
%ADD16RoundRect,0.225000X0.225000X0.250000X-0.225000X0.250000X-0.225000X-0.250000X0.225000X-0.250000X0*%
%TD*%
%TA.AperFunction,SMDPad,CuDef*%
%ADD17RoundRect,0.225000X-0.250000X0.225000X-0.250000X-0.225000X0.250000X-0.225000X0.250000X0.225000X0*%
%TD*%
%TA.AperFunction,SMDPad,CuDef*%
%ADD18RoundRect,0.140000X-0.170000X0.140000X-0.170000X-0.140000X0.170000X-0.140000X0.170000X0.140000X0*%
%TD*%
%TA.AperFunction,SMDPad,CuDef*%
%ADD19RoundRect,0.140000X-0.021213X0.219203X-0.219203X0.021213X0.021213X-0.219203X0.219203X-0.021213X0*%
%TD*%
%TA.AperFunction,ComponentPad*%
%ADD20R,1.700000X1.700000*%
%TD*%
%TA.AperFunction,ComponentPad*%
%ADD21O,1.700000X1.700000*%
%TD*%
%TA.AperFunction,SMDPad,CuDef*%
%ADD22RoundRect,0.140000X0.219203X0.021213X0.021213X0.219203X-0.219203X-0.021213X-0.021213X-0.219203X0*%
%TD*%
%TA.AperFunction,SMDPad,CuDef*%
%ADD23R,0.750000X1.000000*%
%TD*%
%TA.AperFunction,SMDPad,CuDef*%
%ADD24RoundRect,0.135000X0.135000X0.185000X-0.135000X0.185000X-0.135000X-0.185000X0.135000X-0.185000X0*%
%TD*%
%TA.AperFunction,SMDPad,CuDef*%
%ADD25RoundRect,0.135000X-0.035355X0.226274X-0.226274X0.035355X0.035355X-0.226274X0.226274X-0.035355X0*%
%TD*%
%TA.AperFunction,SMDPad,CuDef*%
%ADD26R,0.600000X1.040000*%
%TD*%
%TA.AperFunction,SMDPad,CuDef*%
%ADD27R,0.600000X1.090000*%
%TD*%
%TA.AperFunction,SMDPad,CuDef*%
%ADD28R,0.300000X1.160000*%
%TD*%
%TA.AperFunction,SMDPad,CuDef*%
%ADD29R,2.000000X2.000000*%
%TD*%
%TA.AperFunction,ComponentPad*%
%ADD30O,0.900000X2.000000*%
%TD*%
%TA.AperFunction,SMDPad,CuDef*%
%ADD31RoundRect,0.135000X-0.135000X-0.185000X0.135000X-0.185000X0.135000X0.185000X-0.135000X0.185000X0*%
%TD*%
%TA.AperFunction,SMDPad,CuDef*%
%ADD32RoundRect,0.140000X-0.219203X-0.021213X-0.021213X-0.219203X0.219203X0.021213X0.021213X0.219203X0*%
%TD*%
%TA.AperFunction,SMDPad,CuDef*%
%ADD33RoundRect,0.050000X-0.309359X0.238649X0.238649X-0.309359X0.309359X-0.238649X-0.238649X0.309359X0*%
%TD*%
%TA.AperFunction,SMDPad,CuDef*%
%ADD34RoundRect,0.050000X-0.309359X-0.238649X-0.238649X-0.309359X0.309359X0.238649X0.238649X0.309359X0*%
%TD*%
%TA.AperFunction,SMDPad,CuDef*%
%ADD35RotRect,3.200000X3.200000X315.000000*%
%TD*%
%TA.AperFunction,SMDPad,CuDef*%
%ADD36RoundRect,0.225000X0.250000X-0.225000X0.250000X0.225000X-0.250000X0.225000X-0.250000X-0.225000X0*%
%TD*%
%TA.AperFunction,SMDPad,CuDef*%
%ADD37RoundRect,0.200000X0.200000X0.275000X-0.200000X0.275000X-0.200000X-0.275000X0.200000X-0.275000X0*%
%TD*%
%TA.AperFunction,ViaPad*%
%ADD38C,0.500000*%
%TD*%
%TA.AperFunction,ViaPad*%
%ADD39C,0.800000*%
%TD*%
%TA.AperFunction,Conductor*%
%ADD40C,0.254000*%
%TD*%
%TA.AperFunction,Conductor*%
%ADD41C,0.127000*%
%TD*%
%TA.AperFunction,Conductor*%
%ADD42C,1.000000*%
%TD*%
G04 APERTURE END LIST*
D10*
%TO.P,U4,1,~{CS}*%
%TO.N,/RP2040-base/QSPI_SS*%
X68202010Y-57565068D03*
%TO.P,U4,2,DO(IO1)*%
%TO.N,/RP2040-base/QSPI_SD1*%
X68202010Y-58835068D03*
%TO.P,U4,3,IO2*%
%TO.N,/RP2040-base/QSPI_SD2*%
X68202010Y-60105068D03*
%TO.P,U4,4,GND*%
%TO.N,GND*%
X68202010Y-61375068D03*
%TO.P,U4,5,DI(IO0)*%
%TO.N,/RP2040-base/QSPI_SD0*%
X75402010Y-61375068D03*
%TO.P,U4,6,CLK*%
%TO.N,/RP2040-base/QSPI_SCLK*%
X75402010Y-60105068D03*
%TO.P,U4,7,IO3*%
%TO.N,/RP2040-base/QSPI_SD3*%
X75402010Y-58835068D03*
%TO.P,U4,8,VCC*%
%TO.N,+3V3*%
X75402010Y-57565068D03*
%TD*%
D11*
%TO.P,U2,1,IO1*%
%TO.N,/RP2040-base/USB_D-*%
X79176085Y-53242417D03*
%TO.P,U2,2,VN*%
%TO.N,GND*%
X78504334Y-52570666D03*
%TO.P,U2,3,IO2*%
X77832583Y-51898915D03*
%TO.P,U2,4,IO3*%
X76223915Y-53507583D03*
%TO.P,U2,5,VP*%
%TO.N,VBUS*%
X76895666Y-54179334D03*
%TO.P,U2,6,IO4*%
%TO.N,/RP2040-base/USB_D+*%
X77567417Y-54851085D03*
%TD*%
D12*
%TO.P,U1,1,GND*%
%TO.N,GND*%
X64216327Y-43050000D03*
%TO.P,U1,2,VO*%
%TO.N,+3V3*%
X64216327Y-44950000D03*
%TO.P,U1,3,VI*%
%TO.N,VBUS*%
X66491327Y-44000000D03*
%TD*%
D13*
%TO.P,Y1,1,1*%
%TO.N,/RP2040-base/XIN*%
X67770030Y-80643931D03*
%TO.P,Y1,2,2*%
%TO.N,GND*%
X67770030Y-82843931D03*
%TO.P,Y1,3,3*%
%TO.N,Net-(C16-Pad1)*%
X69470030Y-82843931D03*
%TO.P,Y1,4,4*%
%TO.N,GND*%
X69470030Y-80643931D03*
%TD*%
D14*
%TO.P,C16,1*%
%TO.N,Net-(C16-Pad1)*%
X71120030Y-82223931D03*
%TO.P,C16,2*%
%TO.N,GND*%
X71120030Y-81263931D03*
%TD*%
D15*
%TO.P,C14,1*%
%TO.N,+3V3*%
X78731657Y-70925197D03*
%TO.P,C14,2*%
%TO.N,GND*%
X79410479Y-70246375D03*
%TD*%
D16*
%TO.P,C17,1*%
%TO.N,+3V3*%
X74275000Y-53850000D03*
%TO.P,C17,2*%
%TO.N,GND*%
X72725000Y-53850000D03*
%TD*%
D17*
%TO.P,C1,1*%
%TO.N,VBUS*%
X68353827Y-43225000D03*
%TO.P,C1,2*%
%TO.N,GND*%
X68353827Y-44775000D03*
%TD*%
D15*
%TO.P,C11,1*%
%TO.N,+3V3*%
X75196123Y-67389664D03*
%TO.P,C11,2*%
%TO.N,GND*%
X75874945Y-66710842D03*
%TD*%
D18*
%TO.P,C15,1*%
%TO.N,/RP2040-base/XIN*%
X66120030Y-81263931D03*
%TO.P,C15,2*%
%TO.N,GND*%
X66120030Y-82223931D03*
%TD*%
D19*
%TO.P,C3,1*%
%TO.N,/RP2040-base/1V1*%
X69312994Y-77515433D03*
%TO.P,C3,2*%
%TO.N,GND*%
X68634172Y-78194255D03*
%TD*%
D20*
%TO.P,J2,1,Pin_1*%
%TO.N,/RP2040-base/GPIO0*%
X62500000Y-55500000D03*
D21*
%TO.P,J2,2,Pin_2*%
%TO.N,/RP2040-base/GPIO1*%
X62500000Y-58040000D03*
%TO.P,J2,3,Pin_3*%
%TO.N,/RP2040-base/GPIO2*%
X62500000Y-60580000D03*
%TO.P,J2,4,Pin_4*%
%TO.N,/RP2040-base/GPIO3*%
X62500000Y-63120000D03*
%TO.P,J2,5,Pin_5*%
%TO.N,/RP2040-base/GPIO4*%
X62500000Y-65660000D03*
%TO.P,J2,6,Pin_6*%
%TO.N,/RP2040-base/GPIO5*%
X62500000Y-68200000D03*
%TO.P,J2,7,Pin_7*%
%TO.N,/RP2040-base/GPIO6*%
X62500000Y-70740000D03*
%TO.P,J2,8,Pin_8*%
%TO.N,/RP2040-base/GPIO7*%
X62500000Y-73280000D03*
%TO.P,J2,9,Pin_9*%
%TO.N,/RP2040-base/GPIO8*%
X62500000Y-75820000D03*
%TO.P,J2,10,Pin_10*%
%TO.N,/RP2040-base/GPIO9*%
X62500000Y-78360000D03*
%TO.P,J2,11,Pin_11*%
%TO.N,/RP2040-base/GPIO10*%
X62500000Y-80900000D03*
%TO.P,J2,12,Pin_12*%
%TO.N,/RP2040-base/GPIO11*%
X62500000Y-83440000D03*
%TO.P,J2,13,Pin_13*%
%TO.N,/RP2040-base/GPIO12*%
X62500000Y-85980000D03*
%TD*%
D15*
%TO.P,C4,1*%
%TO.N,/RP2040-base/1V1*%
X74998133Y-66173440D03*
%TO.P,C4,2*%
%TO.N,GND*%
X75676955Y-65494618D03*
%TD*%
D22*
%TO.P,C7,1*%
%TO.N,+3V3*%
X67389664Y-68803877D03*
%TO.P,C7,2*%
%TO.N,GND*%
X66710842Y-68125055D03*
%TD*%
D23*
%TO.P,SW1,1,1*%
%TO.N,GND*%
X61795282Y-52500000D03*
X61795282Y-46500000D03*
%TO.P,SW1,2,2*%
%TO.N,/RP2040-base/~{USB_BOOT}*%
X65545282Y-52500000D03*
X65545282Y-46500000D03*
%TD*%
D24*
%TO.P,R2,1*%
%TO.N,Net-(J3-CC2)*%
X72510000Y-51500000D03*
%TO.P,R2,2*%
%TO.N,GND*%
X71490000Y-51500000D03*
%TD*%
D25*
%TO.P,R4,1*%
%TO.N,/RP2040-base/USB_D-*%
X78017478Y-68810949D03*
%TO.P,R4,2*%
%TO.N,Net-(U3-USB_DM)*%
X77296230Y-69532197D03*
%TD*%
D26*
%TO.P,J3,A1,GND*%
%TO.N,GND*%
X78700000Y-49560000D03*
D27*
%TO.P,J3,A4,VBUS*%
%TO.N,VBUS*%
X77900000Y-49535000D03*
D28*
%TO.P,J3,A5,CC1*%
%TO.N,Net-(J3-CC1)*%
X76750000Y-49500000D03*
%TO.P,J3,A6,D+*%
%TO.N,/RP2040-base/USB_D+*%
X75750000Y-49500000D03*
%TO.P,J3,A7,D-*%
%TO.N,/RP2040-base/USB_D-*%
X75250000Y-49500000D03*
%TO.P,J3,A8,SBU1*%
%TO.N,unconnected-(J3-SBU1-PadA8)*%
X74250000Y-49500000D03*
D27*
%TO.P,J3,A9,VBUS*%
%TO.N,VBUS*%
X73100000Y-49535000D03*
D26*
%TO.P,J3,A12,GND*%
%TO.N,GND*%
X72300000Y-49560000D03*
%TO.P,J3,B1,GND*%
X72300000Y-49560000D03*
D27*
%TO.P,J3,B4,VBUS*%
%TO.N,VBUS*%
X73100000Y-49535000D03*
D28*
%TO.P,J3,B5,CC2*%
%TO.N,Net-(J3-CC2)*%
X73750000Y-49500000D03*
%TO.P,J3,B6,D+*%
%TO.N,/RP2040-base/USB_D+*%
X74750000Y-49500000D03*
%TO.P,J3,B7,D-*%
%TO.N,/RP2040-base/USB_D-*%
X76250000Y-49500000D03*
%TO.P,J3,B8,SBU2*%
%TO.N,unconnected-(J3-SBU2-PadB8)*%
X77250000Y-49500000D03*
D27*
%TO.P,J3,B9,VBUS*%
%TO.N,VBUS*%
X77900000Y-49535000D03*
D26*
%TO.P,J3,B12,GND*%
%TO.N,GND*%
X78700000Y-49560000D03*
D29*
%TO.P,J3,S1,SHIELD*%
X80250000Y-44760000D03*
D30*
X79820000Y-48960000D03*
X71180000Y-48960000D03*
D29*
X70750000Y-44760000D03*
%TD*%
D19*
%TO.P,C8,1*%
%TO.N,+3V3*%
X68605887Y-76808326D03*
%TO.P,C8,2*%
%TO.N,GND*%
X67927065Y-77487148D03*
%TD*%
D20*
%TO.P,SWD1,1,Pin_1*%
%TO.N,/RP2040-base/SWCLK*%
X68975000Y-86000000D03*
D21*
%TO.P,SWD1,2,Pin_2*%
%TO.N,GND*%
X71515000Y-86000000D03*
%TO.P,SWD1,3,Pin_3*%
%TO.N,/RP2040-base/SWD*%
X74055000Y-86000000D03*
%TD*%
D15*
%TO.P,C12,1*%
%TO.N,+3V3*%
X75903230Y-68096770D03*
%TO.P,C12,2*%
%TO.N,GND*%
X76582052Y-67417948D03*
%TD*%
D31*
%TO.P,R1,1*%
%TO.N,Net-(J3-CC1)*%
X79690000Y-51200000D03*
%TO.P,R1,2*%
%TO.N,GND*%
X80710000Y-51200000D03*
%TD*%
D15*
%TO.P,C5,1*%
%TO.N,+3V3*%
X79438764Y-71632304D03*
%TO.P,C5,2*%
%TO.N,GND*%
X80117586Y-70953482D03*
%TD*%
D22*
%TO.P,C6,1*%
%TO.N,+3V3*%
X70020101Y-66173440D03*
%TO.P,C6,2*%
%TO.N,GND*%
X69341279Y-65494618D03*
%TD*%
D32*
%TO.P,C10,1*%
%TO.N,+3V3*%
X78887220Y-72919239D03*
%TO.P,C10,2*%
%TO.N,GND*%
X79566042Y-73598061D03*
%TD*%
D25*
%TO.P,R3,1*%
%TO.N,/RP2040-base/USB_D+*%
X77310371Y-68103842D03*
%TO.P,R3,2*%
%TO.N,Net-(U3-USB_DP)*%
X76589123Y-68825090D03*
%TD*%
D15*
%TO.P,C13,1*%
%TO.N,/RP2040-base/1V1*%
X78024550Y-70218091D03*
%TO.P,C13,2*%
%TO.N,GND*%
X78703372Y-69539269D03*
%TD*%
D33*
%TO.P,U3,1,IOVDD*%
%TO.N,+3V3*%
X71407798Y-67730843D03*
%TO.P,U3,2,GPIO0*%
%TO.N,/RP2040-base/GPIO0*%
X71124955Y-68013686D03*
%TO.P,U3,3,GPIO1*%
%TO.N,/RP2040-base/GPIO1*%
X70842113Y-68296528D03*
%TO.P,U3,4,GPIO2*%
%TO.N,/RP2040-base/GPIO2*%
X70559270Y-68579371D03*
%TO.P,U3,5,GPIO3*%
%TO.N,/RP2040-base/GPIO3*%
X70276427Y-68862214D03*
%TO.P,U3,6,GPIO4*%
%TO.N,/RP2040-base/GPIO4*%
X69993585Y-69145056D03*
%TO.P,U3,7,GPIO5*%
%TO.N,/RP2040-base/GPIO5*%
X69710742Y-69427899D03*
%TO.P,U3,8,GPIO6*%
%TO.N,/RP2040-base/GPIO6*%
X69427899Y-69710742D03*
%TO.P,U3,9,GPIO7*%
%TO.N,/RP2040-base/GPIO7*%
X69145056Y-69993585D03*
%TO.P,U3,10,IOVDD*%
%TO.N,+3V3*%
X68862214Y-70276427D03*
%TO.P,U3,11,GPIO8*%
%TO.N,/RP2040-base/GPIO8*%
X68579371Y-70559270D03*
%TO.P,U3,12,GPIO9*%
%TO.N,/RP2040-base/GPIO9*%
X68296528Y-70842113D03*
%TO.P,U3,13,GPIO10*%
%TO.N,/RP2040-base/GPIO10*%
X68013686Y-71124955D03*
%TO.P,U3,14,GPIO11*%
%TO.N,/RP2040-base/GPIO11*%
X67730843Y-71407798D03*
D34*
%TO.P,U3,15,GPIO12*%
%TO.N,/RP2040-base/GPIO12*%
X67730843Y-72592202D03*
%TO.P,U3,16,GPIO13*%
%TO.N,/RP2040-base/GPIO13*%
X68013686Y-72875045D03*
%TO.P,U3,17,GPIO14*%
%TO.N,/RP2040-base/GPIO14*%
X68296528Y-73157887D03*
%TO.P,U3,18,GPIO15*%
%TO.N,/RP2040-base/GPIO15*%
X68579371Y-73440730D03*
%TO.P,U3,19,TESTEN*%
%TO.N,GND*%
X68862214Y-73723573D03*
%TO.P,U3,20,XIN*%
%TO.N,/RP2040-base/XIN*%
X69145056Y-74006415D03*
%TO.P,U3,21,XOUT*%
%TO.N,/RP2040-base/XOUT*%
X69427899Y-74289258D03*
%TO.P,U3,22,IOVDD*%
%TO.N,+3V3*%
X69710742Y-74572101D03*
%TO.P,U3,23,DVDD*%
%TO.N,/RP2040-base/1V1*%
X69993585Y-74854944D03*
%TO.P,U3,24,SWCLK*%
%TO.N,/RP2040-base/SWCLK*%
X70276427Y-75137786D03*
%TO.P,U3,25,SWD*%
%TO.N,/RP2040-base/SWD*%
X70559270Y-75420629D03*
%TO.P,U3,26,RUN*%
%TO.N,+3V3*%
X70842113Y-75703472D03*
%TO.P,U3,27,GPIO16*%
%TO.N,/RP2040-base/GPIO16*%
X71124955Y-75986314D03*
%TO.P,U3,28,GPIO17*%
%TO.N,/RP2040-base/GPIO17*%
X71407798Y-76269157D03*
D33*
%TO.P,U3,29,GPIO18*%
%TO.N,/RP2040-base/GPIO18*%
X72592202Y-76269157D03*
%TO.P,U3,30,GPIO19*%
%TO.N,/RP2040-base/GPIO19*%
X72875045Y-75986314D03*
%TO.P,U3,31,GPIO20*%
%TO.N,/RP2040-base/GPIO20*%
X73157887Y-75703472D03*
%TO.P,U3,32,GPIO21*%
%TO.N,/RP2040-base/GPIO21*%
X73440730Y-75420629D03*
%TO.P,U3,33,IOVDD*%
%TO.N,+3V3*%
X73723573Y-75137786D03*
%TO.P,U3,34,GPIO22*%
%TO.N,/RP2040-base/GPIO22*%
X74006415Y-74854944D03*
%TO.P,U3,35,GPIO23*%
%TO.N,/RP2040-base/GPIO23*%
X74289258Y-74572101D03*
%TO.P,U3,36,GPIO24*%
%TO.N,/RP2040-base/GPIO24*%
X74572101Y-74289258D03*
%TO.P,U3,37,GPIO25*%
%TO.N,/RP2040-base/GPIO25*%
X74854944Y-74006415D03*
%TO.P,U3,38,GPIO26_ADC0*%
%TO.N,/RP2040-base/GPIO26*%
X75137786Y-73723573D03*
%TO.P,U3,39,GPIO27_ADC1*%
%TO.N,/RP2040-base/GPIO27*%
X75420629Y-73440730D03*
%TO.P,U3,40,GPIO28_ADC2*%
%TO.N,/RP2040-base/GPIO28*%
X75703472Y-73157887D03*
%TO.P,U3,41,GPIO29_ADC3*%
%TO.N,/RP2040-base/GPIO29*%
X75986314Y-72875045D03*
%TO.P,U3,42,IOVDD*%
%TO.N,+3V3*%
X76269157Y-72592202D03*
D34*
%TO.P,U3,43,ADC_AVDD*%
X76269157Y-71407798D03*
%TO.P,U3,44,VREG_IN*%
X75986314Y-71124955D03*
%TO.P,U3,45,VREG_VOUT*%
%TO.N,/RP2040-base/1V1*%
X75703472Y-70842113D03*
%TO.P,U3,46,USB_DM*%
%TO.N,Net-(U3-USB_DM)*%
X75420629Y-70559270D03*
%TO.P,U3,47,USB_DP*%
%TO.N,Net-(U3-USB_DP)*%
X75137786Y-70276427D03*
%TO.P,U3,48,USB_VDD*%
%TO.N,+3V3*%
X74854944Y-69993585D03*
%TO.P,U3,49,IOVDD*%
X74572101Y-69710742D03*
%TO.P,U3,50,DVDD*%
%TO.N,/RP2040-base/1V1*%
X74289258Y-69427899D03*
%TO.P,U3,51,QSPI_SD3*%
%TO.N,/RP2040-base/QSPI_SD3*%
X74006415Y-69145056D03*
%TO.P,U3,52,QSPI_SCLK*%
%TO.N,/RP2040-base/QSPI_SCLK*%
X73723573Y-68862214D03*
%TO.P,U3,53,QSPI_SD0*%
%TO.N,/RP2040-base/QSPI_SD0*%
X73440730Y-68579371D03*
%TO.P,U3,54,QSPI_SD2*%
%TO.N,/RP2040-base/QSPI_SD2*%
X73157887Y-68296528D03*
%TO.P,U3,55,QSPI_SD1*%
%TO.N,/RP2040-base/QSPI_SD1*%
X72875045Y-68013686D03*
%TO.P,U3,56,QSPI_SS*%
%TO.N,/RP2040-base/QSPI_SS*%
X72592202Y-67730843D03*
D35*
%TO.P,U3,57,GND*%
%TO.N,GND*%
X72000000Y-72000000D03*
%TD*%
D32*
%TO.P,C9,1*%
%TO.N,+3V3*%
X75196123Y-76610336D03*
%TO.P,C9,2*%
%TO.N,GND*%
X75874945Y-77289158D03*
%TD*%
D16*
%TO.P,C18,1*%
%TO.N,+3V3*%
X74275000Y-55580981D03*
%TO.P,C18,2*%
%TO.N,GND*%
X72725000Y-55580981D03*
%TD*%
D25*
%TO.P,R5,1*%
%TO.N,/RP2040-base/XOUT*%
X67919993Y-76080007D03*
%TO.P,R5,2*%
%TO.N,Net-(C16-Pad1)*%
X67198745Y-76801255D03*
%TD*%
D36*
%TO.P,C2,1*%
%TO.N,+3V3*%
X62353827Y-44775000D03*
%TO.P,C2,2*%
%TO.N,GND*%
X62353827Y-43225000D03*
%TD*%
D37*
%TO.P,R6,1*%
%TO.N,/RP2040-base/QSPI_SS*%
X68825000Y-55580981D03*
%TO.P,R6,2*%
%TO.N,/RP2040-base/~{USB_BOOT}*%
X67175000Y-55580981D03*
%TD*%
D20*
%TO.P,J1,1,Pin_1*%
%TO.N,+3V3*%
X79500000Y-80960000D03*
D21*
%TO.P,J1,2,Pin_2*%
%TO.N,GND*%
X79500000Y-83500000D03*
%TO.P,J1,3,Pin_3*%
%TO.N,VBUS*%
X79500000Y-86040000D03*
%TD*%
D38*
%TO.N,GND*%
X67757359Y-84020815D03*
X73414214Y-70585786D03*
X74298097Y-72530330D03*
X80131728Y-69525126D03*
X69525126Y-61393398D03*
X68641243Y-79247845D03*
X76419417Y-76772971D03*
X77250000Y-66700000D03*
X69171573Y-72000000D03*
X69525126Y-79424621D03*
X74298097Y-71469670D03*
X79424621Y-68818019D03*
X72707107Y-56443651D03*
X79071068Y-74121320D03*
X68818019Y-62100505D03*
X68818019Y-64928932D03*
X70585786Y-80485281D03*
X72707107Y-54675884D03*
X72707107Y-52908117D03*
X73237437Y-73590990D03*
X70585786Y-70585786D03*
X67757359Y-78363961D03*
X66696699Y-82960155D03*
X67403806Y-67757359D03*
X68110913Y-62100505D03*
X76596194Y-65989592D03*
X80838835Y-70232233D03*
X72000000Y-69171573D03*
X70585786Y-73414214D03*
X76242641Y-64928932D03*
D39*
%TO.N,+3V3*%
X65000000Y-86500000D03*
X64135000Y-46355000D03*
D38*
X74474874Y-77303301D03*
X66696699Y-69525126D03*
X67050253Y-75889087D03*
X80131728Y-72353553D03*
X70479720Y-66802765D03*
%TO.N,/RP2040-base/SWCLK*%
X69900000Y-76550000D03*
%TO.N,/RP2040-base/SWD*%
X71500000Y-75000000D03*
D39*
%TO.N,VBUS*%
X75800000Y-55100000D03*
X66000000Y-87000000D03*
X73000000Y-47000000D03*
%TD*%
D40*
%TO.N,VBUS*%
X75800000Y-55100000D02*
X75975000Y-55100000D01*
X75975000Y-55100000D02*
X76895666Y-54179334D01*
D41*
%TO.N,/RP2040-base/XIN*%
X66120030Y-81263932D02*
X68000000Y-81263932D01*
X68000000Y-81263932D02*
X68000000Y-80786950D01*
X66944187Y-75288047D02*
X67863425Y-75288047D01*
X68000000Y-80786950D02*
X66166369Y-78953319D01*
X66166369Y-78953319D02*
X66166369Y-76065864D01*
X66166369Y-76065864D02*
X66944187Y-75288047D01*
X67863425Y-75288047D02*
X69145056Y-74006415D01*
%TO.N,/RP2040-base/1V1*%
X75436456Y-71109129D02*
X75082362Y-71109129D01*
X74568225Y-69148933D02*
X74289258Y-69427899D01*
X73060660Y-74474874D02*
X75082362Y-72453172D01*
X74998133Y-66173440D02*
X74568225Y-66603348D01*
X74022242Y-70049009D02*
X74022242Y-69694915D01*
X76327494Y-70218091D02*
X75703472Y-70842113D01*
X75082362Y-71109129D02*
X74022242Y-70049009D01*
X69312994Y-75535534D02*
X69993585Y-74854944D01*
X70373654Y-74474874D02*
X73060660Y-74474874D01*
X69993585Y-74854944D02*
X70373654Y-74474874D01*
X74568225Y-66603348D02*
X74568225Y-69148933D01*
X74022242Y-69694915D02*
X74289258Y-69427899D01*
X75703472Y-70842113D02*
X75436456Y-71109129D01*
X78024550Y-70218091D02*
X76327494Y-70218091D01*
X75082362Y-72453172D02*
X75082362Y-71109129D01*
X69312994Y-77515433D02*
X69312994Y-75535534D01*
D40*
%TO.N,GND*%
X75874945Y-66710842D02*
X75874946Y-66710842D01*
D41*
%TO.N,/RP2040-base/USB_D+*%
X78175380Y-54676085D02*
X77467417Y-54676085D01*
X74750000Y-51250000D02*
X74750000Y-49500000D01*
X77800000Y-53775000D02*
X76270353Y-52245353D01*
X75050000Y-51550000D02*
X74750000Y-51250000D01*
D42*
X78636500Y-55137205D02*
X78636500Y-66249286D01*
D41*
X77800000Y-54343502D02*
X77800000Y-53775000D01*
D42*
X78343607Y-66956393D02*
X77568255Y-67731745D01*
X75050000Y-51550000D02*
X75050000Y-51550705D01*
X75050000Y-51550705D02*
X75744647Y-52245353D01*
D41*
X78636500Y-55137205D02*
X78175380Y-54676085D01*
X77467417Y-54676085D02*
X77800000Y-54343502D01*
X76270353Y-52245353D02*
X75744647Y-52245353D01*
D42*
X78343614Y-66956400D02*
G75*
G03*
X78636500Y-66249286I-707114J707100D01*
G01*
D41*
%TO.N,+3V3*%
X76906204Y-64972476D02*
X76906204Y-58521428D01*
D40*
X70130000Y-52350000D02*
X66775000Y-48995000D01*
D41*
X75917372Y-68110913D02*
X76582759Y-68110913D01*
X70500000Y-78187184D02*
X70500000Y-76045585D01*
X75903229Y-68096771D02*
X75691097Y-68308903D01*
D40*
X64041327Y-44775000D02*
X64216327Y-44950000D01*
D41*
X76596194Y-72919239D02*
X78887220Y-72919239D01*
D40*
X75564000Y-84896000D02*
X66604000Y-84896000D01*
X74344777Y-57044777D02*
X74344777Y-53744777D01*
D41*
X75949844Y-57565068D02*
X75402010Y-57565068D01*
X76539626Y-71137330D02*
X76269157Y-71407798D01*
X78887220Y-72919239D02*
X79247845Y-72558614D01*
X75691097Y-69157431D02*
X74854944Y-69993585D01*
D40*
X79500000Y-80960000D02*
X75564000Y-84896000D01*
D41*
X75196123Y-66682557D02*
X76906204Y-64972476D01*
X76269157Y-72592202D02*
X76596194Y-72919239D01*
X75903229Y-68096771D02*
X75917372Y-68110913D01*
X78731657Y-70925198D02*
X79438763Y-71632304D01*
X78731657Y-70925198D02*
X77600286Y-70925198D01*
X74983991Y-69298852D02*
X74572101Y-69710742D01*
X77105311Y-71137330D02*
X76539626Y-71137330D01*
D40*
X66604000Y-84896000D02*
X65000000Y-86500000D01*
D41*
X74474874Y-77303301D02*
X73590991Y-78187184D01*
X66696699Y-69525126D02*
X66696699Y-69496842D01*
X75196123Y-67389664D02*
X75196123Y-67417948D01*
X74474874Y-75889087D02*
X73723573Y-75137786D01*
X77458864Y-70783776D02*
X76327494Y-70783776D01*
X70500000Y-76045585D02*
X70842113Y-75703472D01*
X76327494Y-70783776D02*
X75986314Y-71124955D01*
D40*
X65725000Y-44950000D02*
X64216327Y-44950000D01*
D41*
X75196123Y-67417948D02*
X75874945Y-68096771D01*
X77600286Y-70925198D02*
X77458864Y-70783776D01*
X73590991Y-78187184D02*
X70055456Y-78187184D01*
X68605887Y-76808326D02*
X67969491Y-76808326D01*
X79247845Y-72558614D02*
X79926667Y-72558614D01*
X79438763Y-71632304D02*
X79247845Y-71823223D01*
X75691097Y-68308903D02*
X75691097Y-69157431D01*
X68605887Y-76808326D02*
X68605887Y-75676955D01*
X71407798Y-67730843D02*
X70020101Y-66343146D01*
D40*
X74865068Y-57565068D02*
X74344777Y-57044777D01*
D41*
X67969491Y-76808326D02*
X67050253Y-75889087D01*
X75196123Y-67389664D02*
X75196123Y-66682557D01*
X77600286Y-71632304D02*
X77105311Y-71137330D01*
D40*
X72950000Y-52350000D02*
X70130000Y-52350000D01*
X62353827Y-44775000D02*
X64041327Y-44775000D01*
X66775000Y-48995000D02*
X66775000Y-46000000D01*
X75402010Y-57565068D02*
X74865068Y-57565068D01*
X66775000Y-46000000D02*
X65725000Y-44950000D01*
D41*
X75874945Y-68096771D02*
X75903229Y-68096771D01*
X74983991Y-67601796D02*
X74983991Y-69298852D01*
D40*
X64135000Y-45031327D02*
X64216327Y-44950000D01*
D41*
X76582759Y-68110913D02*
X78731657Y-70259810D01*
D40*
X64135000Y-46355000D02*
X64135000Y-45031327D01*
D41*
X74503158Y-77303301D02*
X74474874Y-77303301D01*
X74474874Y-75889087D02*
X75196123Y-76610336D01*
X68605887Y-77473714D02*
X68605887Y-76808326D01*
X70479720Y-66802765D02*
X70020101Y-66343146D01*
X68605887Y-75676955D02*
X69710742Y-74572101D01*
X70020101Y-66343146D02*
X70020101Y-66173440D01*
X76906204Y-58521428D02*
X75949844Y-57565068D01*
X79247845Y-71823223D02*
X79247845Y-72558614D01*
D40*
X74344777Y-53744777D02*
X72950000Y-52350000D01*
D41*
X75196123Y-67389664D02*
X74983991Y-67601796D01*
X78731657Y-70259810D02*
X78731657Y-70925198D01*
X69319358Y-78187184D02*
X68605887Y-77473714D01*
X70055456Y-78187184D02*
X69319358Y-78187184D01*
X75196123Y-76610336D02*
X74503158Y-77303301D01*
X70055456Y-78187184D02*
X70500000Y-78187184D01*
X79926667Y-72558614D02*
X80131728Y-72353553D01*
X66696699Y-69496842D02*
X67389664Y-68803877D01*
X67389664Y-68803877D02*
X68862214Y-70276427D01*
X79438763Y-71632304D02*
X77600286Y-71632304D01*
%TO.N,/RP2040-base/USB_D-*%
X79001085Y-53575000D02*
X79176085Y-53750000D01*
X76250000Y-51522656D02*
X78302344Y-53575000D01*
X79176085Y-53750000D02*
X79176085Y-54082266D01*
X78302344Y-53575000D02*
X79001085Y-53575000D01*
D42*
X79763500Y-54669681D02*
X79763500Y-66255468D01*
D41*
X76250000Y-49500000D02*
X76250000Y-51522656D01*
X79176085Y-53167417D02*
X79176085Y-53750000D01*
D42*
X79140516Y-67759484D02*
X78300000Y-68600000D01*
D41*
X79176085Y-54082266D02*
X79763500Y-54669681D01*
D42*
X79140532Y-67759500D02*
G75*
G03*
X79763500Y-66255468I-1504032J1504000D01*
G01*
D41*
%TO.N,Net-(C16-Pad1)*%
X67198745Y-78498745D02*
X68679530Y-79979530D01*
X67198745Y-76801255D02*
X67198745Y-78498745D01*
X68679530Y-82053431D02*
X69470030Y-82843931D01*
X68679530Y-79979530D02*
X68679530Y-82053431D01*
X69470030Y-82843931D02*
X70500030Y-82843931D01*
X70500030Y-82843931D02*
X71120030Y-82223931D01*
%TO.N,/RP2040-base/QSPI_SS*%
X68202010Y-57565068D02*
X67343049Y-57565068D01*
X66852263Y-58055854D02*
X66852263Y-61990904D01*
X67343049Y-57565068D02*
X66852263Y-58055854D01*
X68825000Y-55580981D02*
X68202010Y-56203971D01*
X68202010Y-56203971D02*
X68202010Y-57565068D01*
X66852263Y-61990904D02*
X72592202Y-67730843D01*
%TO.N,/RP2040-base/~{USB_BOOT}*%
X65545282Y-52500000D02*
X65545282Y-53951263D01*
X67175000Y-55580981D02*
X65545282Y-53951263D01*
X65545282Y-52500000D02*
X65545282Y-46500000D01*
%TO.N,/RP2040-base/XOUT*%
X67919994Y-76080006D02*
X67919994Y-75797163D01*
X67919994Y-75797163D02*
X69427899Y-74289258D01*
%TO.N,/RP2040-base/QSPI_SD1*%
X73142061Y-67392576D02*
X72644174Y-66894689D01*
X73142061Y-67746669D02*
X73142061Y-67392576D01*
X72644174Y-66894689D02*
X72155563Y-66894689D01*
X67205816Y-61944942D02*
X67205816Y-59116514D01*
X72155563Y-66894689D02*
X67205816Y-61944942D01*
X72875045Y-68013686D02*
X73142061Y-67746669D01*
X67487262Y-58835068D02*
X68202010Y-58835068D01*
X67205816Y-59116514D02*
X67487262Y-58835068D01*
%TO.N,/RP2040-base/QSPI_SD2*%
X68202010Y-60105067D02*
X68901476Y-60105067D01*
X73424904Y-68029512D02*
X73157887Y-68296528D01*
X68901476Y-60105067D02*
X70055456Y-61259048D01*
X73424904Y-67316208D02*
X73424904Y-68029512D01*
X70055456Y-63946761D02*
X73424904Y-67316208D01*
X70055456Y-61259048D02*
X70055456Y-63946761D01*
%TO.N,/RP2040-base/QSPI_SD0*%
X73707746Y-68312355D02*
X73440730Y-68579371D01*
X73707746Y-62514079D02*
X73707746Y-68312355D01*
X75402010Y-61375068D02*
X74846757Y-61375068D01*
X74846757Y-61375068D02*
X73707746Y-62514079D01*
%TO.N,/RP2040-base/QSPI_SCLK*%
X73995322Y-68590464D02*
X73995322Y-64063295D01*
X76398204Y-60530728D02*
X75972544Y-60105067D01*
X73995322Y-64063295D02*
X76398204Y-61660413D01*
X75972544Y-60105067D02*
X75402010Y-60105067D01*
X73723573Y-68862214D02*
X73995322Y-68590464D01*
X76398204Y-61660413D02*
X76398204Y-60530728D01*
%TO.N,/RP2040-base/QSPI_SD3*%
X74006415Y-69145056D02*
X74314225Y-68837247D01*
X74314225Y-68837247D02*
X74314225Y-64103603D01*
X74314225Y-64103603D02*
X76652204Y-61765624D01*
X76652204Y-59370514D02*
X76116758Y-58835068D01*
X76116758Y-58835068D02*
X75402010Y-58835068D01*
X76652204Y-61765624D02*
X76652204Y-59370514D01*
%TO.N,/RP2040-base/GPIO0*%
X66000000Y-59000000D02*
X62500000Y-55500000D01*
X71013686Y-68013686D02*
X66000000Y-63000000D01*
X71124955Y-68013686D02*
X71013686Y-68013686D01*
X66000000Y-63000000D02*
X66000000Y-59000000D01*
%TO.N,/RP2040-base/GPIO1*%
X65685585Y-61225585D02*
X62500000Y-58040000D01*
X65685585Y-63140000D02*
X65685585Y-61225585D01*
X70842113Y-68296528D02*
X65685585Y-63140000D01*
%TO.N,/RP2040-base/GPIO2*%
X70559270Y-68579371D02*
X62559899Y-60580000D01*
X62559899Y-60580000D02*
X62500000Y-60580000D01*
%TO.N,/RP2040-base/GPIO3*%
X64534213Y-63120000D02*
X62500000Y-63120000D01*
X70276427Y-68862214D02*
X64534213Y-63120000D01*
%TO.N,/RP2040-base/GPIO4*%
X69993585Y-69145056D02*
X69993585Y-68990200D01*
X69993585Y-68990200D02*
X69726568Y-68723183D01*
X69726568Y-68671565D02*
X66715003Y-65660000D01*
X66715003Y-65660000D02*
X62500000Y-65660000D01*
X69726568Y-68723183D02*
X69726568Y-68671565D01*
%TO.N,/RP2040-base/GPIO5*%
X67672883Y-66977090D02*
X63722910Y-66977090D01*
X68200000Y-67917157D02*
X68200000Y-67504207D01*
X63722910Y-66977090D02*
X62500000Y-68200000D01*
X69710742Y-69427899D02*
X68200000Y-67917157D01*
X68200000Y-67504207D02*
X67672883Y-66977090D01*
%TO.N,/RP2040-base/GPIO6*%
X67900000Y-67563417D02*
X67586583Y-67250000D01*
X67900000Y-68182843D02*
X67900000Y-67563417D01*
X67586583Y-67250000D02*
X65990000Y-67250000D01*
X69427899Y-69710742D02*
X67900000Y-68182843D01*
X65990000Y-67250000D02*
X62500000Y-70740000D01*
%TO.N,/RP2040-base/GPIO7*%
X68250000Y-68950000D02*
X67554173Y-68254173D01*
X62500000Y-73001285D02*
X62500000Y-73280000D01*
X68250000Y-69098529D02*
X68250000Y-68950000D01*
X67554173Y-68254173D02*
X67247112Y-68254173D01*
X67247112Y-68254173D02*
X62500000Y-73001285D01*
X69145056Y-69993585D02*
X68250000Y-69098529D01*
%TO.N,/RP2040-base/GPIO8*%
X68579371Y-70559270D02*
X68312854Y-70292753D01*
X67240048Y-70292753D02*
X62500000Y-75032801D01*
X68312854Y-70292753D02*
X67240048Y-70292753D01*
X62500000Y-75032801D02*
X62500000Y-75820000D01*
%TO.N,/RP2040-base/GPIO9*%
X63540500Y-77319500D02*
X62500000Y-78360000D01*
X68029511Y-70575096D02*
X67675419Y-70575096D01*
X67675419Y-70575096D02*
X67646576Y-70603939D01*
X67646576Y-70603939D02*
X67287366Y-70603939D01*
X63540500Y-74350805D02*
X63540500Y-77319500D01*
X67287366Y-70603939D02*
X63540500Y-74350805D01*
X68296528Y-70842113D02*
X68029511Y-70575096D01*
%TO.N,/RP2040-base/GPIO10*%
X63794500Y-74456015D02*
X63794500Y-79605500D01*
X63794500Y-79605500D02*
X62500000Y-80900000D01*
X68013686Y-71124955D02*
X67746670Y-70857939D01*
X67746670Y-70857939D02*
X67392576Y-70857939D01*
X67392576Y-70857939D02*
X63794500Y-74456015D01*
%TO.N,/RP2040-base/GPIO11*%
X64048001Y-75090640D02*
X64048001Y-81891999D01*
X67730843Y-71407798D02*
X64048001Y-75090640D01*
X64048001Y-81891999D02*
X62500000Y-83440000D01*
%TO.N,/RP2040-base/GPIO12*%
X65000000Y-83480000D02*
X62500000Y-85980000D01*
X65000000Y-75323045D02*
X65000000Y-83480000D01*
X67730843Y-72592202D02*
X65000000Y-75323045D01*
%TO.N,/RP2040-base/SWCLK*%
X69900000Y-76550000D02*
X69900000Y-75514213D01*
X69900000Y-75514213D02*
X70276427Y-75137786D01*
%TO.N,/RP2040-base/SWD*%
X71500000Y-75000000D02*
X70979899Y-75000000D01*
X70979899Y-75000000D02*
X70559270Y-75420629D01*
D40*
%TO.N,VBUS*%
X66491327Y-44000000D02*
X66491327Y-44064908D01*
X76834000Y-47900000D02*
X74113079Y-47900000D01*
X78436000Y-87104000D02*
X66104000Y-87104000D01*
X77900000Y-49535000D02*
X77900000Y-48966000D01*
X66491327Y-44064908D02*
X66938037Y-44511618D01*
X67013210Y-44586790D02*
X67013210Y-45163210D01*
X66938037Y-44511618D02*
X67013210Y-44586790D01*
X74113079Y-47900000D02*
X73213079Y-47000000D01*
X67067209Y-44532791D02*
X67013210Y-44586790D01*
X67013210Y-45163210D02*
X68850000Y-47000000D01*
X73100000Y-48913079D02*
X73100000Y-49535000D01*
X73213079Y-47000000D02*
X73000000Y-47000000D01*
X67067209Y-44511618D02*
X68353827Y-43225000D01*
X74113079Y-47900000D02*
X73100000Y-48913079D01*
X77900000Y-48966000D02*
X76834000Y-47900000D01*
X68850000Y-47000000D02*
X73000000Y-47000000D01*
X67067209Y-44511618D02*
X67067209Y-44532791D01*
X79500000Y-86040000D02*
X78436000Y-87104000D01*
X66104000Y-87104000D02*
X66000000Y-87000000D01*
D41*
%TO.N,Net-(U3-USB_DP)*%
X76589123Y-68825091D02*
X75137786Y-70276427D01*
%TO.N,Net-(U3-USB_DM)*%
X77296230Y-69532197D02*
X76447702Y-69532197D01*
X76447702Y-69532197D02*
X75420629Y-70559270D01*
%TO.N,Net-(J3-CC1)*%
X76750000Y-50592000D02*
X76750000Y-49500000D01*
X76858000Y-50700000D02*
X76750000Y-50592000D01*
X79690000Y-51200000D02*
X79190000Y-50700000D01*
X79190000Y-50700000D02*
X76858000Y-50700000D01*
%TO.N,Net-(J3-CC2)*%
X72746000Y-51500000D02*
X73750000Y-50496000D01*
X73750000Y-50496000D02*
X73750000Y-49500000D01*
X72510000Y-51500000D02*
X72746000Y-51500000D01*
%TD*%
%TA.AperFunction,Conductor*%
%TO.N,GND*%
G36*
X81299500Y-46400000D02*
G01*
X69400000Y-46400000D01*
X69400000Y-43400000D01*
X81299500Y-43400000D01*
X81299500Y-46400000D01*
G37*
%TD.AperFunction*%
%TD*%
%TA.AperFunction,Conductor*%
%TO.N,/RP2040-base/USB_D-*%
G36*
X75399194Y-49323306D02*
G01*
X75417500Y-49367500D01*
X75417500Y-50087500D01*
X75427586Y-50138207D01*
X75445249Y-50180849D01*
X75445253Y-50180857D01*
X75445892Y-50182400D01*
X75446689Y-50183860D01*
X75446694Y-50183870D01*
X75456508Y-50201842D01*
X75459467Y-50207261D01*
X75517600Y-50254108D01*
X75561794Y-50272414D01*
X75599908Y-50279995D01*
X75612499Y-50282500D01*
X75612500Y-50282500D01*
X75887501Y-50282500D01*
X75897587Y-50280493D01*
X75938206Y-50272414D01*
X75982400Y-50254108D01*
X76007261Y-50240533D01*
X76054108Y-50182400D01*
X76072414Y-50138206D01*
X76082500Y-50087500D01*
X76082500Y-49367500D01*
X76100806Y-49323306D01*
X76145000Y-49305000D01*
X76387500Y-49305000D01*
X76431694Y-49323306D01*
X76450000Y-49367500D01*
X76450000Y-50650000D01*
X77419266Y-51619266D01*
X77437572Y-51663460D01*
X77419266Y-51707654D01*
X77139877Y-51987044D01*
X77139868Y-51987053D01*
X77138606Y-51988316D01*
X77137499Y-51989713D01*
X77137487Y-51989727D01*
X77124102Y-52006625D01*
X77086624Y-52103365D01*
X77086624Y-52207116D01*
X77124102Y-52303855D01*
X77124103Y-52303857D01*
X77138606Y-52322166D01*
X77409332Y-52592892D01*
X77427641Y-52607395D01*
X77476011Y-52626134D01*
X77524382Y-52644874D01*
X77524383Y-52644874D01*
X77628131Y-52644874D01*
X77708749Y-52613641D01*
X77756572Y-52614745D01*
X77789607Y-52649341D01*
X77789607Y-52694498D01*
X77758375Y-52775116D01*
X77758375Y-52775117D01*
X77758375Y-52775118D01*
X77758375Y-52878866D01*
X77795854Y-52975608D01*
X77810357Y-52993917D01*
X78081083Y-53264643D01*
X78099392Y-53279146D01*
X78147763Y-53297885D01*
X78196133Y-53316625D01*
X78196134Y-53316625D01*
X78299883Y-53316625D01*
X78396623Y-53279146D01*
X78414933Y-53264643D01*
X78695594Y-52983981D01*
X78739787Y-52965676D01*
X78783981Y-52983982D01*
X79116625Y-53316625D01*
X80055806Y-54255806D01*
X80074112Y-54299999D01*
X80055806Y-54344193D01*
X79444194Y-54955806D01*
X79400000Y-54974112D01*
X79355806Y-54955806D01*
X75100806Y-50700806D01*
X75082500Y-50656612D01*
X75082500Y-49367500D01*
X75100806Y-49323306D01*
X75145000Y-49305000D01*
X75355000Y-49305000D01*
X75399194Y-49323306D01*
G37*
%TD.AperFunction*%
%TD*%
%TA.AperFunction,Conductor*%
%TO.N,/RP2040-base/USB_D+*%
G36*
X75618306Y-48468306D02*
G01*
X75931694Y-48781694D01*
X75950000Y-48825888D01*
X75950000Y-50087500D01*
X75931694Y-50131694D01*
X75887500Y-50150000D01*
X75612500Y-50150000D01*
X75568306Y-50131694D01*
X75550000Y-50087500D01*
X75550000Y-49300000D01*
X75545806Y-49295806D01*
X75527500Y-49251612D01*
X75527500Y-48907442D01*
X75520102Y-48870252D01*
X75491922Y-48828078D01*
X75449748Y-48799898D01*
X75412558Y-48792500D01*
X75087442Y-48792500D01*
X75068846Y-48796199D01*
X75050251Y-48799898D01*
X75008078Y-48828078D01*
X74979898Y-48870251D01*
X74972500Y-48907442D01*
X74972500Y-49251612D01*
X74954194Y-49295806D01*
X74950000Y-49300000D01*
X74950000Y-50750000D01*
X78949043Y-54749043D01*
X78967349Y-54793237D01*
X78949043Y-54837431D01*
X78942349Y-54843237D01*
X78243364Y-55367476D01*
X78197025Y-55379348D01*
X78161670Y-55361670D01*
X77283982Y-54483982D01*
X77265676Y-54439788D01*
X77283982Y-54395594D01*
X77426034Y-54253542D01*
X77589643Y-54089933D01*
X77604146Y-54071623D01*
X77604146Y-54071622D01*
X77641625Y-53974883D01*
X77641625Y-53871132D01*
X77604146Y-53774393D01*
X77604146Y-53774392D01*
X77589643Y-53756083D01*
X77318917Y-53485357D01*
X77317514Y-53484246D01*
X77317510Y-53484242D01*
X77309873Y-53478193D01*
X77300608Y-53470854D01*
X77300606Y-53470853D01*
X77203867Y-53433375D01*
X77203866Y-53433375D01*
X77100118Y-53433375D01*
X77100116Y-53433375D01*
X77019498Y-53464607D01*
X76971675Y-53463503D01*
X76938641Y-53428906D01*
X76938641Y-53383749D01*
X76951667Y-53350128D01*
X76969874Y-53303131D01*
X76969874Y-53199383D01*
X76969874Y-53199381D01*
X76932395Y-53102642D01*
X76932395Y-53102641D01*
X76917892Y-53084332D01*
X76647166Y-52813606D01*
X76645763Y-52812495D01*
X76645759Y-52812491D01*
X76638122Y-52806442D01*
X76628857Y-52799103D01*
X76628855Y-52799102D01*
X76532116Y-52761624D01*
X76532115Y-52761624D01*
X76428367Y-52761624D01*
X76428366Y-52761624D01*
X76331625Y-52799102D01*
X76314727Y-52812487D01*
X76314713Y-52812499D01*
X76313316Y-52813606D01*
X76312053Y-52814868D01*
X76312044Y-52814877D01*
X76007655Y-53119267D01*
X75963461Y-53137573D01*
X75919267Y-53119267D01*
X75053656Y-52253656D01*
X75046992Y-52245789D01*
X74561642Y-51566298D01*
X74550000Y-51529971D01*
X74550000Y-48825887D01*
X74568305Y-48781694D01*
X74881694Y-48468306D01*
X74925888Y-48450000D01*
X75574112Y-48450000D01*
X75618306Y-48468306D01*
G37*
%TD.AperFunction*%
%TD*%
%TA.AperFunction,Conductor*%
%TO.N,GND*%
G36*
X69043707Y-60517413D02*
G01*
X69846150Y-61319856D01*
X69864456Y-61364050D01*
X69864456Y-63903690D01*
X69860949Y-63924331D01*
X69860776Y-63924825D01*
X69864063Y-63953998D01*
X69864456Y-63960996D01*
X69864456Y-63968281D01*
X69866077Y-63975385D01*
X69867250Y-63982291D01*
X69870537Y-64011466D01*
X69870815Y-64011908D01*
X69878827Y-64031250D01*
X69878943Y-64031762D01*
X69897247Y-64054713D01*
X69901304Y-64060431D01*
X69905181Y-64066601D01*
X69910332Y-64071752D01*
X69915003Y-64076978D01*
X69933307Y-64099931D01*
X69933781Y-64100159D01*
X69950854Y-64112274D01*
X71225901Y-65387321D01*
X72435576Y-66596995D01*
X72453882Y-66641189D01*
X72435576Y-66685383D01*
X72391382Y-66703689D01*
X72260566Y-66703689D01*
X72216372Y-66685383D01*
X67436720Y-61905731D01*
X67418414Y-61861537D01*
X67436720Y-61817343D01*
X67480914Y-61799037D01*
X67488118Y-61799454D01*
X67508850Y-61801859D01*
X67512456Y-61802067D01*
X68075010Y-61802067D01*
X68075010Y-61502068D01*
X68329010Y-61502068D01*
X68329010Y-61802067D01*
X68891561Y-61802067D01*
X68895160Y-61801859D01*
X68916527Y-61799381D01*
X69011265Y-61757550D01*
X69084492Y-61684323D01*
X69126322Y-61589585D01*
X69128802Y-61568212D01*
X69129010Y-61564621D01*
X69129010Y-61502068D01*
X68329010Y-61502068D01*
X68075010Y-61502068D01*
X68075010Y-60948068D01*
X68329010Y-60948068D01*
X68329010Y-61248068D01*
X69129009Y-61248068D01*
X69129009Y-61185517D01*
X69128801Y-61181917D01*
X69126323Y-61160550D01*
X69084492Y-61065812D01*
X69011265Y-60992585D01*
X68916527Y-60950755D01*
X68895154Y-60948275D01*
X68891564Y-60948068D01*
X68329010Y-60948068D01*
X68075010Y-60948068D01*
X67512459Y-60948068D01*
X67508859Y-60948276D01*
X67487488Y-60950755D01*
X67484557Y-60952049D01*
X67436734Y-60953151D01*
X67402140Y-60920114D01*
X67396816Y-60894873D01*
X67396816Y-60585807D01*
X67415122Y-60541613D01*
X67459316Y-60523307D01*
X67484562Y-60528633D01*
X67487376Y-60529876D01*
X67499083Y-60531234D01*
X67508775Y-60532359D01*
X67508778Y-60532359D01*
X67510578Y-60532568D01*
X67512381Y-60532568D01*
X68891639Y-60532568D01*
X68893442Y-60532568D01*
X68895242Y-60532359D01*
X68895244Y-60532359D01*
X68916640Y-60529877D01*
X68916641Y-60529876D01*
X68916644Y-60529876D01*
X68974270Y-60504431D01*
X69022090Y-60503327D01*
X69043707Y-60517413D01*
G37*
%TD.AperFunction*%
%TA.AperFunction,Conductor*%
G36*
X76696898Y-62079432D02*
G01*
X76715204Y-62123626D01*
X76715204Y-64867472D01*
X76696898Y-64911666D01*
X76221242Y-65387321D01*
X76177048Y-65405627D01*
X76132854Y-65387321D01*
X76125082Y-65377851D01*
X76103553Y-65345632D01*
X76054549Y-65296627D01*
X75856560Y-65494617D01*
X75856560Y-65494618D01*
X75941059Y-65579117D01*
X75959365Y-65623311D01*
X75941059Y-65667505D01*
X75849842Y-65758721D01*
X75805648Y-65777027D01*
X75761454Y-65758721D01*
X75676955Y-65674223D01*
X75278147Y-65275415D01*
X75250357Y-65303204D01*
X75206242Y-65369226D01*
X75185521Y-65473404D01*
X75206242Y-65577583D01*
X75250359Y-65643608D01*
X75527964Y-65921213D01*
X75560187Y-65942744D01*
X75586763Y-65982518D01*
X75577431Y-66029434D01*
X75569657Y-66038906D01*
X75542779Y-66065783D01*
X75498585Y-66084088D01*
X75454391Y-66065781D01*
X75446619Y-66056311D01*
X75425117Y-66024131D01*
X75147441Y-65746455D01*
X75081293Y-65702256D01*
X74976920Y-65681496D01*
X74872546Y-65702256D01*
X74806398Y-65746455D01*
X74611919Y-65940934D01*
X74567725Y-65959240D01*
X74523531Y-65940934D01*
X74505225Y-65896740D01*
X74505225Y-65095810D01*
X75457752Y-65095810D01*
X75676954Y-65315012D01*
X75874945Y-65117022D01*
X75825943Y-65068022D01*
X75759918Y-65023905D01*
X75655742Y-65003184D01*
X75551563Y-65023905D01*
X75485541Y-65068020D01*
X75457752Y-65095810D01*
X74505225Y-65095810D01*
X74505225Y-64208604D01*
X74523530Y-64164411D01*
X76608510Y-62079431D01*
X76652704Y-62061126D01*
X76696898Y-62079432D01*
G37*
%TD.AperFunction*%
%TA.AperFunction,Conductor*%
G36*
X81281194Y-42318806D02*
G01*
X81299500Y-42363000D01*
X81299500Y-43400000D01*
X69400000Y-43400000D01*
X69400000Y-46400000D01*
X81299500Y-46400000D01*
X81299500Y-87337000D01*
X81281194Y-87381194D01*
X81237000Y-87399500D01*
X78657875Y-87399500D01*
X78613681Y-87381194D01*
X78595375Y-87337000D01*
X78613681Y-87292806D01*
X78618656Y-87288722D01*
X78619482Y-87287484D01*
X78619484Y-87287484D01*
X78630262Y-87271352D01*
X78638029Y-87261887D01*
X78979473Y-86920443D01*
X79023666Y-86902138D01*
X79053128Y-86909518D01*
X79124114Y-86947461D01*
X79124116Y-86947461D01*
X79124117Y-86947462D01*
X79308376Y-87003357D01*
X79500000Y-87022230D01*
X79691624Y-87003357D01*
X79875883Y-86947462D01*
X80045698Y-86856694D01*
X80194541Y-86734541D01*
X80316694Y-86585698D01*
X80407462Y-86415883D01*
X80463357Y-86231624D01*
X80482230Y-86040000D01*
X80463357Y-85848376D01*
X80407462Y-85664117D01*
X80407461Y-85664116D01*
X80407461Y-85664114D01*
X80327928Y-85515320D01*
X80316694Y-85494302D01*
X80194541Y-85345459D01*
X80045698Y-85223306D01*
X80026417Y-85213000D01*
X79875885Y-85132538D01*
X79691622Y-85076642D01*
X79500000Y-85057770D01*
X79308377Y-85076642D01*
X79124114Y-85132538D01*
X78954303Y-85223305D01*
X78805459Y-85345459D01*
X78683305Y-85494303D01*
X78592538Y-85664114D01*
X78536642Y-85848377D01*
X78517770Y-86040000D01*
X78536642Y-86231622D01*
X78576282Y-86362295D01*
X78592538Y-86415883D01*
X78630057Y-86486076D01*
X78630481Y-86486868D01*
X78635170Y-86534473D01*
X78619555Y-86560525D01*
X78348888Y-86831194D01*
X78304694Y-86849500D01*
X74735399Y-86849500D01*
X74691205Y-86831194D01*
X74672899Y-86787000D01*
X74691205Y-86742806D01*
X74695749Y-86738687D01*
X74701492Y-86733974D01*
X74749541Y-86694541D01*
X74871694Y-86545698D01*
X74962462Y-86375883D01*
X75018357Y-86191624D01*
X75037230Y-86000000D01*
X75018357Y-85808376D01*
X74962462Y-85624117D01*
X74962461Y-85624116D01*
X74962461Y-85624114D01*
X74893074Y-85494302D01*
X74871694Y-85454302D01*
X74749541Y-85305459D01*
X74695748Y-85261312D01*
X74673200Y-85219126D01*
X74687086Y-85173350D01*
X74729273Y-85150801D01*
X74735399Y-85150500D01*
X75532778Y-85150500D01*
X75544970Y-85151701D01*
X75548754Y-85152453D01*
X75564000Y-85155486D01*
X75663301Y-85135734D01*
X75726234Y-85093684D01*
X75726234Y-85093683D01*
X75735104Y-85087757D01*
X75735108Y-85087752D01*
X75747484Y-85079484D01*
X75758262Y-85063352D01*
X75766029Y-85053887D01*
X77192916Y-83627000D01*
X78530782Y-83627000D01*
X78537136Y-83691522D01*
X78593003Y-83875692D01*
X78683724Y-84045419D01*
X78805813Y-84194186D01*
X78954580Y-84316275D01*
X79124307Y-84406996D01*
X79308477Y-84462863D01*
X79373000Y-84469217D01*
X79373000Y-83986881D01*
X79464237Y-84000000D01*
X79535763Y-84000000D01*
X79627000Y-83986881D01*
X79627000Y-84469217D01*
X79691522Y-84462863D01*
X79875692Y-84406996D01*
X80045419Y-84316275D01*
X80194186Y-84194186D01*
X80316275Y-84045419D01*
X80406996Y-83875692D01*
X80462863Y-83691522D01*
X80469218Y-83627000D01*
X79983818Y-83627000D01*
X80000000Y-83571889D01*
X80000000Y-83428111D01*
X79983818Y-83373000D01*
X80469217Y-83373000D01*
X80462863Y-83308477D01*
X80406996Y-83124307D01*
X80316275Y-82954580D01*
X80194186Y-82805813D01*
X80045419Y-82683724D01*
X79875692Y-82593003D01*
X79691524Y-82537136D01*
X79627000Y-82530780D01*
X79627000Y-83013118D01*
X79535763Y-83000000D01*
X79464237Y-83000000D01*
X79373000Y-83013118D01*
X79373000Y-82530781D01*
X79372999Y-82530780D01*
X79308475Y-82537136D01*
X79124307Y-82593003D01*
X78954580Y-82683724D01*
X78805813Y-82805813D01*
X78683724Y-82954580D01*
X78593003Y-83124307D01*
X78537136Y-83308477D01*
X78530782Y-83373000D01*
X79016182Y-83373000D01*
X79000000Y-83428111D01*
X79000000Y-83571889D01*
X79016182Y-83627000D01*
X78530782Y-83627000D01*
X77192916Y-83627000D01*
X78864110Y-81955806D01*
X78908305Y-81937500D01*
X80362557Y-81937500D01*
X80362558Y-81937500D01*
X80399748Y-81930102D01*
X80441922Y-81901922D01*
X80470102Y-81859748D01*
X80477500Y-81822558D01*
X80477500Y-80097442D01*
X80470102Y-80060252D01*
X80441922Y-80018078D01*
X80399748Y-79989898D01*
X80362558Y-79982500D01*
X78637442Y-79982500D01*
X78618846Y-79986199D01*
X78600251Y-79989898D01*
X78558078Y-80018078D01*
X78529898Y-80060251D01*
X78522500Y-80097442D01*
X78522500Y-81551694D01*
X78504194Y-81595888D01*
X75476888Y-84623194D01*
X75432694Y-84641500D01*
X66635222Y-84641500D01*
X66623030Y-84640299D01*
X66604000Y-84636514D01*
X66504699Y-84656265D01*
X66441793Y-84698297D01*
X66441765Y-84698317D01*
X66420514Y-84712516D01*
X66409733Y-84728651D01*
X66401962Y-84738119D01*
X65173902Y-85966179D01*
X65129708Y-85984485D01*
X65121550Y-85983950D01*
X65000000Y-85967948D01*
X64862296Y-85986076D01*
X64733972Y-86039229D01*
X64623781Y-86123781D01*
X64539229Y-86233972D01*
X64486076Y-86362296D01*
X64467948Y-86499999D01*
X64486076Y-86637703D01*
X64539229Y-86766027D01*
X64623781Y-86876218D01*
X64733972Y-86960770D01*
X64733973Y-86960770D01*
X64733974Y-86960771D01*
X64862295Y-87013923D01*
X65000000Y-87032052D01*
X65137705Y-87013923D01*
X65266026Y-86960771D01*
X65376218Y-86876218D01*
X65376218Y-86876217D01*
X65376675Y-86875867D01*
X65422881Y-86863487D01*
X65464308Y-86887404D01*
X65476688Y-86933610D01*
X65467947Y-86999999D01*
X65486076Y-87137703D01*
X65539229Y-87266027D01*
X65564494Y-87298953D01*
X65576874Y-87345158D01*
X65552956Y-87386585D01*
X65514909Y-87399500D01*
X60863000Y-87399500D01*
X60818806Y-87381194D01*
X60800500Y-87337000D01*
X60800500Y-85980000D01*
X61517770Y-85980000D01*
X61536642Y-86171622D01*
X61592538Y-86355885D01*
X61669570Y-86500000D01*
X61683306Y-86525698D01*
X61805459Y-86674541D01*
X61954302Y-86796694D01*
X62010346Y-86826650D01*
X62124114Y-86887461D01*
X62124116Y-86887461D01*
X62124117Y-86887462D01*
X62308376Y-86943357D01*
X62500000Y-86962230D01*
X62691624Y-86943357D01*
X62875883Y-86887462D01*
X63045698Y-86796694D01*
X63194541Y-86674541D01*
X63316694Y-86525698D01*
X63407462Y-86355883D01*
X63463357Y-86171624D01*
X63482230Y-85980000D01*
X63463357Y-85788376D01*
X63407462Y-85604117D01*
X63407461Y-85604116D01*
X63407461Y-85604114D01*
X63338237Y-85474606D01*
X63333548Y-85427001D01*
X63349161Y-85400952D01*
X65104602Y-83645511D01*
X65121676Y-83633397D01*
X65122149Y-83633170D01*
X65140462Y-83610205D01*
X65145107Y-83605006D01*
X65150275Y-83599840D01*
X65154155Y-83593662D01*
X65158209Y-83587951D01*
X65176511Y-83565003D01*
X65176627Y-83564496D01*
X65179965Y-83556439D01*
X67043029Y-83556439D01*
X67050398Y-83593483D01*
X67078468Y-83635492D01*
X67120477Y-83663562D01*
X67157521Y-83670931D01*
X67643030Y-83670931D01*
X67643030Y-82970931D01*
X67897030Y-82970931D01*
X67897030Y-83670931D01*
X68382539Y-83670931D01*
X68419582Y-83663562D01*
X68461591Y-83635492D01*
X68489661Y-83593483D01*
X68497030Y-83556439D01*
X68497030Y-82970931D01*
X67897030Y-82970931D01*
X67643030Y-82970931D01*
X67043030Y-82970931D01*
X67043029Y-83556439D01*
X65179965Y-83556439D01*
X65184645Y-83545140D01*
X65184918Y-83544706D01*
X65188203Y-83515534D01*
X65189379Y-83508621D01*
X65191000Y-83501522D01*
X65191000Y-83494235D01*
X65191393Y-83487237D01*
X65194680Y-83458065D01*
X65194507Y-83457570D01*
X65191000Y-83436929D01*
X65191000Y-82350931D01*
X65683030Y-82350931D01*
X65683030Y-82390229D01*
X65698520Y-82468108D01*
X65757533Y-82556427D01*
X65845852Y-82615440D01*
X65923731Y-82630931D01*
X65993030Y-82630931D01*
X65993030Y-82350931D01*
X66247030Y-82350931D01*
X66247030Y-82630931D01*
X66316329Y-82630931D01*
X66394207Y-82615440D01*
X66482526Y-82556427D01*
X66541539Y-82468108D01*
X66557030Y-82390229D01*
X66557030Y-82350931D01*
X66247030Y-82350931D01*
X65993030Y-82350931D01*
X65683030Y-82350931D01*
X65191000Y-82350931D01*
X65191000Y-82131422D01*
X67043029Y-82131422D01*
X67043030Y-82716931D01*
X67643030Y-82716931D01*
X67643030Y-82016931D01*
X67157521Y-82016931D01*
X67120477Y-82024299D01*
X67078468Y-82052369D01*
X67050398Y-82094378D01*
X67043029Y-82131422D01*
X65191000Y-82131422D01*
X65191000Y-82096931D01*
X65683029Y-82096931D01*
X65993030Y-82096931D01*
X65993030Y-81816931D01*
X66247030Y-81816931D01*
X66247030Y-82096931D01*
X66557029Y-82096931D01*
X66557030Y-82057632D01*
X66541539Y-81979753D01*
X66482526Y-81891434D01*
X66394207Y-81832421D01*
X66316329Y-81816931D01*
X66247030Y-81816931D01*
X65993030Y-81816931D01*
X65923731Y-81816931D01*
X65845852Y-81832421D01*
X65757533Y-81891434D01*
X65698520Y-81979753D01*
X65683030Y-82057632D01*
X65683029Y-82096931D01*
X65191000Y-82096931D01*
X65191000Y-75428046D01*
X65209305Y-75383853D01*
X67433388Y-73159770D01*
X67477581Y-73141465D01*
X67521775Y-73159771D01*
X67529055Y-73173390D01*
X67530219Y-73172613D01*
X67566455Y-73226845D01*
X67661885Y-73322275D01*
X67705781Y-73351605D01*
X67760064Y-73362403D01*
X67799838Y-73388979D01*
X67809170Y-73411509D01*
X67819967Y-73465791D01*
X67824563Y-73472669D01*
X67849297Y-73509687D01*
X67944728Y-73605118D01*
X67988622Y-73634446D01*
X67988623Y-73634447D01*
X68042907Y-73645245D01*
X68082681Y-73671821D01*
X68092013Y-73694351D01*
X68102810Y-73748634D01*
X68130098Y-73789474D01*
X68132140Y-73792530D01*
X68227571Y-73887961D01*
X68271466Y-73917290D01*
X68326280Y-73928193D01*
X68366054Y-73954768D01*
X68375386Y-73977299D01*
X68386124Y-74031284D01*
X68396920Y-74047444D01*
X68862214Y-73582152D01*
X69186084Y-73258281D01*
X69169923Y-73247482D01*
X69115941Y-73236745D01*
X69076167Y-73210170D01*
X69066834Y-73187639D01*
X69065901Y-73182950D01*
X69055931Y-73132825D01*
X69026602Y-73088930D01*
X68931171Y-72993499D01*
X68887276Y-72964170D01*
X68887275Y-72964169D01*
X68832992Y-72953372D01*
X68793218Y-72926796D01*
X68783886Y-72904266D01*
X68773088Y-72849982D01*
X68743758Y-72806086D01*
X68648328Y-72710656D01*
X68604432Y-72681326D01*
X68550150Y-72670529D01*
X68510376Y-72643953D01*
X68501044Y-72621423D01*
X68490246Y-72567140D01*
X68472566Y-72540679D01*
X68460917Y-72523245D01*
X68365486Y-72427814D01*
X68354869Y-72420720D01*
X68321590Y-72398484D01*
X68267307Y-72387687D01*
X68227533Y-72361111D01*
X68218201Y-72338581D01*
X68207403Y-72284297D01*
X68178073Y-72240401D01*
X68082643Y-72144971D01*
X68038747Y-72115641D01*
X67977641Y-72103487D01*
X67969492Y-72101866D01*
X67969491Y-72101866D01*
X67900235Y-72115641D01*
X67856339Y-72144971D01*
X67283612Y-72717698D01*
X67254282Y-72761594D01*
X67248780Y-72789254D01*
X67231675Y-72821253D01*
X64895396Y-75157532D01*
X64878325Y-75169646D01*
X64877850Y-75169874D01*
X64859546Y-75192826D01*
X64854882Y-75198047D01*
X64849724Y-75203205D01*
X64845850Y-75209371D01*
X64841796Y-75215084D01*
X64823488Y-75238041D01*
X64823371Y-75238556D01*
X64815363Y-75257892D01*
X64815081Y-75258339D01*
X64811794Y-75287515D01*
X64810621Y-75294420D01*
X64809000Y-75301524D01*
X64809000Y-75308808D01*
X64808607Y-75315805D01*
X64805320Y-75344979D01*
X64805493Y-75345474D01*
X64809000Y-75366116D01*
X64809000Y-83374996D01*
X64790694Y-83419190D01*
X63079048Y-85130835D01*
X63034854Y-85149141D01*
X63005392Y-85141761D01*
X62875885Y-85072538D01*
X62691622Y-85016642D01*
X62520933Y-84999831D01*
X62500000Y-84997770D01*
X62499999Y-84997770D01*
X62308377Y-85016642D01*
X62124114Y-85072538D01*
X61954303Y-85163305D01*
X61805459Y-85285459D01*
X61683305Y-85434303D01*
X61592538Y-85604114D01*
X61536642Y-85788377D01*
X61517770Y-85980000D01*
X60800500Y-85980000D01*
X60800500Y-83440000D01*
X61517770Y-83440000D01*
X61536642Y-83631622D01*
X61592538Y-83815885D01*
X61677799Y-83975396D01*
X61683306Y-83985698D01*
X61805459Y-84134541D01*
X61954302Y-84256694D01*
X62034058Y-84299324D01*
X62124114Y-84347461D01*
X62124116Y-84347461D01*
X62124117Y-84347462D01*
X62308376Y-84403357D01*
X62500000Y-84422230D01*
X62691624Y-84403357D01*
X62875883Y-84347462D01*
X63045698Y-84256694D01*
X63194541Y-84134541D01*
X63316694Y-83985698D01*
X63407462Y-83815883D01*
X63463357Y-83631624D01*
X63482230Y-83440000D01*
X63463357Y-83248376D01*
X63407462Y-83064117D01*
X63407461Y-83064116D01*
X63407461Y-83064114D01*
X63338237Y-82934606D01*
X63333548Y-82887001D01*
X63349161Y-82860952D01*
X64152603Y-82057510D01*
X64169677Y-82045396D01*
X64170150Y-82045169D01*
X64188463Y-82022204D01*
X64193108Y-82017005D01*
X64198276Y-82011839D01*
X64202156Y-82005661D01*
X64206210Y-81999950D01*
X64212055Y-81992622D01*
X64224512Y-81977002D01*
X64224628Y-81976495D01*
X64232646Y-81957139D01*
X64232919Y-81956705D01*
X64236204Y-81927533D01*
X64237380Y-81920620D01*
X64239001Y-81913521D01*
X64239001Y-81906234D01*
X64239394Y-81899236D01*
X64240273Y-81891434D01*
X64242681Y-81870064D01*
X64242508Y-81869569D01*
X64239001Y-81848928D01*
X64239001Y-75195642D01*
X64257306Y-75151449D01*
X67660839Y-71747915D01*
X67705033Y-71729610D01*
X67749226Y-71747915D01*
X67856340Y-71855029D01*
X67900235Y-71884358D01*
X67969492Y-71898134D01*
X68038748Y-71884358D01*
X68082643Y-71855029D01*
X68178074Y-71759598D01*
X68207403Y-71715703D01*
X68218200Y-71661419D01*
X68244777Y-71621645D01*
X68267307Y-71612313D01*
X68291231Y-71607554D01*
X68321591Y-71601515D01*
X68365486Y-71572186D01*
X68460917Y-71476755D01*
X68490246Y-71432860D01*
X68501043Y-71378575D01*
X68527618Y-71338803D01*
X68550146Y-71329471D01*
X68604433Y-71318673D01*
X68648328Y-71289344D01*
X68743759Y-71193913D01*
X68773088Y-71150018D01*
X68773088Y-71150017D01*
X68773089Y-71150016D01*
X68783886Y-71095734D01*
X68810462Y-71055960D01*
X68832992Y-71046628D01*
X68856916Y-71041869D01*
X68887276Y-71035830D01*
X68931171Y-71006501D01*
X69026602Y-70911070D01*
X69055931Y-70867175D01*
X69066728Y-70812891D01*
X69093305Y-70773117D01*
X69115835Y-70763785D01*
X69139759Y-70759026D01*
X69170119Y-70752987D01*
X69214014Y-70723658D01*
X69309445Y-70628227D01*
X69338774Y-70584332D01*
X69349571Y-70530047D01*
X69376146Y-70490275D01*
X69398674Y-70480943D01*
X69452961Y-70470145D01*
X69496856Y-70440816D01*
X69592287Y-70345385D01*
X69621616Y-70301490D01*
X69628360Y-70267588D01*
X69632414Y-70247206D01*
X69658990Y-70207432D01*
X69681520Y-70198100D01*
X69705444Y-70193341D01*
X69735804Y-70187302D01*
X69779699Y-70157973D01*
X69875130Y-70062542D01*
X69904459Y-70018647D01*
X69915256Y-69964363D01*
X69941833Y-69924589D01*
X69964363Y-69915257D01*
X69995109Y-69909141D01*
X70018647Y-69904459D01*
X70062542Y-69875130D01*
X70157973Y-69779699D01*
X70187302Y-69735804D01*
X70187302Y-69735803D01*
X70187303Y-69735802D01*
X70198100Y-69681520D01*
X70224676Y-69641746D01*
X70247206Y-69632414D01*
X70271130Y-69627655D01*
X70301490Y-69621616D01*
X70345385Y-69592287D01*
X70440816Y-69496856D01*
X70470145Y-69452961D01*
X70480942Y-69398676D01*
X70507517Y-69358904D01*
X70530045Y-69349572D01*
X70584332Y-69338774D01*
X70628227Y-69309445D01*
X70723658Y-69214014D01*
X70752987Y-69170119D01*
X70762305Y-69123277D01*
X70763785Y-69115835D01*
X70790361Y-69076061D01*
X70812891Y-69066729D01*
X70836815Y-69061970D01*
X70867175Y-69055931D01*
X70911070Y-69026602D01*
X71006501Y-68931171D01*
X71035830Y-68887276D01*
X71046627Y-68832992D01*
X71073204Y-68793218D01*
X71095734Y-68783886D01*
X71136253Y-68775826D01*
X71150018Y-68773088D01*
X71193913Y-68743759D01*
X71289344Y-68648328D01*
X71318673Y-68604433D01*
X71329470Y-68550148D01*
X71356045Y-68510376D01*
X71378573Y-68501044D01*
X71432860Y-68490246D01*
X71476755Y-68460917D01*
X71572186Y-68365486D01*
X71601515Y-68321591D01*
X71601515Y-68321590D01*
X71601516Y-68321589D01*
X71612313Y-68267307D01*
X71638889Y-68227533D01*
X71661419Y-68218201D01*
X71685343Y-68213442D01*
X71715703Y-68207403D01*
X71759598Y-68178074D01*
X71855029Y-68082643D01*
X71884358Y-68038748D01*
X71898134Y-67969492D01*
X71884358Y-67900235D01*
X71855029Y-67856340D01*
X71282301Y-67283612D01*
X71238406Y-67254283D01*
X71238405Y-67254282D01*
X71210745Y-67248780D01*
X71178745Y-67231675D01*
X70892715Y-66945645D01*
X70874409Y-66901451D01*
X70875177Y-66891686D01*
X70889262Y-66802765D01*
X70869218Y-66676210D01*
X70855682Y-66649644D01*
X70811046Y-66562041D01*
X70720443Y-66471438D01*
X70606276Y-66413267D01*
X70571370Y-66407738D01*
X70504057Y-66397077D01*
X70463271Y-66372084D01*
X70452104Y-66325570D01*
X70461869Y-66300623D01*
X70491284Y-66256601D01*
X70512045Y-66152227D01*
X70496974Y-66076462D01*
X70494777Y-66065413D01*
X70504109Y-66018496D01*
X70543883Y-65991921D01*
X70590800Y-66001253D01*
X70600270Y-66009026D01*
X72252083Y-67660839D01*
X72270389Y-67705033D01*
X72252083Y-67749227D01*
X72144971Y-67856338D01*
X72115641Y-67900235D01*
X72103627Y-67960638D01*
X72101866Y-67969492D01*
X72103173Y-67976064D01*
X72115641Y-68038747D01*
X72130771Y-68061391D01*
X72144971Y-68082643D01*
X72240402Y-68178074D01*
X72273217Y-68200000D01*
X72284297Y-68207403D01*
X72338581Y-68218201D01*
X72378355Y-68244777D01*
X72387687Y-68267307D01*
X72398484Y-68321589D01*
X72427814Y-68365486D01*
X72523244Y-68460916D01*
X72567140Y-68490246D01*
X72621423Y-68501044D01*
X72661197Y-68527620D01*
X72670529Y-68550150D01*
X72681326Y-68604432D01*
X72710656Y-68648328D01*
X72806086Y-68743758D01*
X72849982Y-68773088D01*
X72904266Y-68783886D01*
X72944040Y-68810462D01*
X72953372Y-68832992D01*
X72964169Y-68887275D01*
X72992358Y-68929464D01*
X72993499Y-68931171D01*
X73088930Y-69026602D01*
X73127581Y-69052427D01*
X73132825Y-69055931D01*
X73187109Y-69066729D01*
X73226883Y-69093305D01*
X73236215Y-69115835D01*
X73247012Y-69170118D01*
X73259943Y-69189471D01*
X73276342Y-69214014D01*
X73371773Y-69309445D01*
X73401802Y-69329509D01*
X73415668Y-69338774D01*
X73469951Y-69349572D01*
X73509725Y-69376148D01*
X73519057Y-69398678D01*
X73529854Y-69452960D01*
X73559184Y-69496856D01*
X73654614Y-69592286D01*
X73698510Y-69621616D01*
X73752794Y-69632414D01*
X73792568Y-69658990D01*
X73801900Y-69681520D01*
X73812698Y-69735804D01*
X73820709Y-69747794D01*
X73831242Y-69782516D01*
X73831242Y-70005938D01*
X73827735Y-70026579D01*
X73827562Y-70027074D01*
X73829633Y-70045459D01*
X73830849Y-70056246D01*
X73831242Y-70063244D01*
X73831242Y-70070530D01*
X73831922Y-70073509D01*
X73832863Y-70077633D01*
X73834036Y-70084539D01*
X73837323Y-70113714D01*
X73837601Y-70114156D01*
X73845613Y-70133498D01*
X73845729Y-70134010D01*
X73864033Y-70156961D01*
X73868090Y-70162679D01*
X73871967Y-70168849D01*
X73877118Y-70174000D01*
X73881789Y-70179226D01*
X73900093Y-70202179D01*
X73900567Y-70202407D01*
X73917640Y-70214522D01*
X74873056Y-71169938D01*
X74891362Y-71214132D01*
X74891362Y-72348169D01*
X74873056Y-72392363D01*
X72999851Y-74265568D01*
X72955657Y-74283874D01*
X72544553Y-74283874D01*
X74828427Y-72000000D01*
X72000000Y-69171573D01*
X69171573Y-72000000D01*
X71455447Y-74283874D01*
X70416725Y-74283874D01*
X70396083Y-74280367D01*
X70395589Y-74280194D01*
X70395588Y-74280194D01*
X70366415Y-74283481D01*
X70359418Y-74283874D01*
X70352133Y-74283874D01*
X70345029Y-74285495D01*
X70338124Y-74286668D01*
X70308948Y-74289955D01*
X70308501Y-74290237D01*
X70289165Y-74298245D01*
X70288650Y-74298362D01*
X70287284Y-74299452D01*
X70241318Y-74312692D01*
X70199452Y-74289550D01*
X70188537Y-74266044D01*
X70157972Y-74220300D01*
X70062542Y-74124870D01*
X70018646Y-74095540D01*
X69964363Y-74084743D01*
X69924589Y-74058167D01*
X69915257Y-74035637D01*
X69904459Y-73981353D01*
X69875129Y-73937457D01*
X69779699Y-73842027D01*
X69735803Y-73812697D01*
X69681520Y-73801900D01*
X69641746Y-73775324D01*
X69632414Y-73752794D01*
X69621616Y-73698510D01*
X69603783Y-73671821D01*
X69592287Y-73654615D01*
X69496856Y-73559184D01*
X69452961Y-73529855D01*
X69452960Y-73529854D01*
X69412400Y-73521786D01*
X69398146Y-73518951D01*
X69358373Y-73492377D01*
X69349041Y-73469845D01*
X69338304Y-73415862D01*
X69327506Y-73399701D01*
X69327505Y-73399700D01*
X68862214Y-73864994D01*
X68538342Y-74188863D01*
X68564841Y-74206571D01*
X68562977Y-74209358D01*
X68585681Y-74224528D01*
X68595014Y-74271444D01*
X68577909Y-74303446D01*
X67802616Y-75078741D01*
X67758422Y-75097047D01*
X66987258Y-75097047D01*
X66966616Y-75093540D01*
X66966122Y-75093367D01*
X66966121Y-75093367D01*
X66936948Y-75096654D01*
X66929951Y-75097047D01*
X66922666Y-75097047D01*
X66915562Y-75098668D01*
X66908657Y-75099841D01*
X66879481Y-75103128D01*
X66879034Y-75103410D01*
X66859698Y-75111418D01*
X66859183Y-75111535D01*
X66836226Y-75129843D01*
X66830513Y-75133897D01*
X66824347Y-75137771D01*
X66819189Y-75142929D01*
X66813968Y-75147593D01*
X66791016Y-75165897D01*
X66790788Y-75166372D01*
X66778674Y-75183443D01*
X66061765Y-75900351D01*
X66044694Y-75912465D01*
X66044219Y-75912693D01*
X66025915Y-75935645D01*
X66021251Y-75940866D01*
X66016093Y-75946024D01*
X66012219Y-75952190D01*
X66008165Y-75957903D01*
X65989857Y-75980860D01*
X65989740Y-75981375D01*
X65981732Y-76000711D01*
X65981450Y-76001158D01*
X65978163Y-76030334D01*
X65976990Y-76037239D01*
X65975369Y-76044343D01*
X65975369Y-76051627D01*
X65974976Y-76058624D01*
X65971689Y-76087798D01*
X65971862Y-76088293D01*
X65975369Y-76108935D01*
X65975369Y-78910248D01*
X65971862Y-78930889D01*
X65971689Y-78931383D01*
X65974976Y-78960556D01*
X65975369Y-78967554D01*
X65975369Y-78974839D01*
X65976990Y-78981943D01*
X65978163Y-78988849D01*
X65981450Y-79018024D01*
X65981728Y-79018466D01*
X65989740Y-79037808D01*
X65989856Y-79038320D01*
X65989858Y-79038322D01*
X66002792Y-79054541D01*
X66008160Y-79061271D01*
X66012217Y-79066989D01*
X66016094Y-79073159D01*
X66021245Y-79078310D01*
X66025916Y-79083536D01*
X66044220Y-79106489D01*
X66044694Y-79106717D01*
X66061767Y-79118832D01*
X67024224Y-80081289D01*
X67042530Y-80125483D01*
X67042530Y-81010432D01*
X67024224Y-81054626D01*
X66980030Y-81072932D01*
X66603919Y-81072932D01*
X66559725Y-81054626D01*
X66542620Y-81022624D01*
X66542010Y-81019558D01*
X66535912Y-81010432D01*
X66482887Y-80931074D01*
X66423762Y-80891568D01*
X66394402Y-80871950D01*
X66316379Y-80856431D01*
X66316378Y-80856431D01*
X65923682Y-80856431D01*
X65923681Y-80856431D01*
X65845657Y-80871950D01*
X65757173Y-80931074D01*
X65698049Y-81019558D01*
X65682530Y-81097582D01*
X65682530Y-81430279D01*
X65698049Y-81508303D01*
X65698050Y-81508304D01*
X65757173Y-81596788D01*
X65844952Y-81655440D01*
X65845657Y-81655911D01*
X65923681Y-81671431D01*
X65923682Y-81671431D01*
X66316379Y-81671431D01*
X66355390Y-81663671D01*
X66394403Y-81655911D01*
X66482887Y-81596788D01*
X66542010Y-81508304D01*
X66542619Y-81505239D01*
X66569196Y-81465465D01*
X66603919Y-81454932D01*
X67087703Y-81454932D01*
X67112787Y-81462541D01*
X67120280Y-81464031D01*
X67120282Y-81464033D01*
X67157472Y-81471431D01*
X67157473Y-81471431D01*
X68382586Y-81471431D01*
X68382588Y-81471431D01*
X68413838Y-81465214D01*
X68460751Y-81474545D01*
X68487329Y-81514318D01*
X68488530Y-81526513D01*
X68488530Y-81961857D01*
X68470224Y-82006051D01*
X68426030Y-82024357D01*
X68413838Y-82023156D01*
X68382540Y-82016931D01*
X67897030Y-82016931D01*
X67897030Y-82716931D01*
X68497030Y-82716931D01*
X68497030Y-82291934D01*
X68515336Y-82247740D01*
X68559530Y-82229434D01*
X68603724Y-82247740D01*
X68724224Y-82368240D01*
X68742530Y-82412434D01*
X68742530Y-83556489D01*
X68749928Y-83593679D01*
X68778108Y-83635853D01*
X68820282Y-83664033D01*
X68857472Y-83671431D01*
X68857473Y-83671431D01*
X70082587Y-83671431D01*
X70082588Y-83671431D01*
X70119778Y-83664033D01*
X70161952Y-83635853D01*
X70190132Y-83593679D01*
X70197530Y-83556489D01*
X70197530Y-83097430D01*
X70215836Y-83053237D01*
X70260030Y-83034931D01*
X70456959Y-83034931D01*
X70477600Y-83038437D01*
X70478095Y-83038611D01*
X70504363Y-83035651D01*
X70507269Y-83035324D01*
X70514266Y-83034931D01*
X70521553Y-83034931D01*
X70528651Y-83033310D01*
X70535564Y-83032134D01*
X70564736Y-83028849D01*
X70565171Y-83028575D01*
X70584526Y-83020558D01*
X70585033Y-83020442D01*
X70607981Y-83002140D01*
X70613692Y-82998086D01*
X70619870Y-82994206D01*
X70625036Y-82989038D01*
X70630235Y-82984393D01*
X70653200Y-82966080D01*
X70653427Y-82965607D01*
X70665541Y-82948533D01*
X70964338Y-82649737D01*
X71008533Y-82631431D01*
X71316379Y-82631431D01*
X71357225Y-82623306D01*
X71394403Y-82615911D01*
X71482887Y-82556788D01*
X71542010Y-82468304D01*
X71557530Y-82390279D01*
X71557530Y-82057583D01*
X71555105Y-82045394D01*
X71542010Y-81979558D01*
X71533043Y-81966138D01*
X71482887Y-81891074D01*
X71419811Y-81848928D01*
X71394402Y-81831950D01*
X71316379Y-81816431D01*
X71316378Y-81816431D01*
X70923682Y-81816431D01*
X70923681Y-81816431D01*
X70845657Y-81831950D01*
X70757173Y-81891074D01*
X70698049Y-81979558D01*
X70682530Y-82057582D01*
X70682530Y-82365427D01*
X70664224Y-82409621D01*
X70439221Y-82634625D01*
X70395027Y-82652931D01*
X70260030Y-82652931D01*
X70215836Y-82634625D01*
X70197530Y-82590431D01*
X70197530Y-82131373D01*
X70194897Y-82118137D01*
X70190132Y-82094183D01*
X70161952Y-82052009D01*
X70119778Y-82023829D01*
X70082588Y-82016431D01*
X70082587Y-82016431D01*
X68938533Y-82016431D01*
X68894339Y-81998125D01*
X68888836Y-81992622D01*
X68870530Y-81948428D01*
X68870530Y-81533431D01*
X68888836Y-81489237D01*
X68933030Y-81470931D01*
X69343030Y-81470931D01*
X69343030Y-80770931D01*
X69597030Y-80770931D01*
X69597030Y-81470931D01*
X70082539Y-81470931D01*
X70119582Y-81463562D01*
X70161591Y-81435492D01*
X70189661Y-81393483D01*
X70190169Y-81390931D01*
X70683030Y-81390931D01*
X70683030Y-81430229D01*
X70698520Y-81508108D01*
X70757533Y-81596427D01*
X70845852Y-81655440D01*
X70923731Y-81670931D01*
X70993030Y-81670931D01*
X70993030Y-81390931D01*
X71247030Y-81390931D01*
X71247030Y-81670931D01*
X71316329Y-81670931D01*
X71394207Y-81655440D01*
X71482526Y-81596427D01*
X71541539Y-81508108D01*
X71557030Y-81430229D01*
X71557030Y-81390931D01*
X71247030Y-81390931D01*
X70993030Y-81390931D01*
X70683030Y-81390931D01*
X70190169Y-81390931D01*
X70197030Y-81356439D01*
X70197030Y-81136931D01*
X70683030Y-81136931D01*
X70993030Y-81136931D01*
X70993030Y-80856931D01*
X71247030Y-80856931D01*
X71247030Y-81136931D01*
X71557030Y-81136931D01*
X71557030Y-81097632D01*
X71541539Y-81019753D01*
X71482526Y-80931434D01*
X71394207Y-80872421D01*
X71316329Y-80856931D01*
X71247030Y-80856931D01*
X70993030Y-80856931D01*
X70923731Y-80856931D01*
X70845852Y-80872421D01*
X70757533Y-80931434D01*
X70698520Y-81019753D01*
X70683030Y-81097632D01*
X70683030Y-81136931D01*
X70197030Y-81136931D01*
X70197030Y-80770931D01*
X69597030Y-80770931D01*
X69343030Y-80770931D01*
X69343030Y-79816931D01*
X69597030Y-79816931D01*
X69597030Y-80516931D01*
X70197030Y-80516931D01*
X70197030Y-79931422D01*
X70189661Y-79894378D01*
X70161591Y-79852369D01*
X70119582Y-79824299D01*
X70082539Y-79816931D01*
X69597030Y-79816931D01*
X69343030Y-79816931D01*
X68857521Y-79816931D01*
X68831503Y-79822106D01*
X68784586Y-79812774D01*
X68775116Y-79805001D01*
X67541964Y-78571849D01*
X68436181Y-78571849D01*
X68485183Y-78620850D01*
X68551208Y-78664967D01*
X68655385Y-78685688D01*
X68759563Y-78664967D01*
X68825585Y-78620852D01*
X68853374Y-78593062D01*
X68634172Y-78373860D01*
X68436181Y-78571849D01*
X67541964Y-78571849D01*
X67408051Y-78437936D01*
X67389745Y-78393742D01*
X67389745Y-78173041D01*
X68142738Y-78173041D01*
X68163459Y-78277218D01*
X68207576Y-78343243D01*
X68256576Y-78392244D01*
X68454567Y-78194254D01*
X68273663Y-78013351D01*
X68235364Y-77975052D01*
X68207574Y-78002841D01*
X68163459Y-78068863D01*
X68142738Y-78173041D01*
X67389745Y-78173041D01*
X67389745Y-77864742D01*
X67729074Y-77864742D01*
X67778076Y-77913743D01*
X67844101Y-77957860D01*
X67948278Y-77978581D01*
X68052456Y-77957860D01*
X68118478Y-77913745D01*
X68146268Y-77885955D01*
X67927065Y-77666752D01*
X67729074Y-77864742D01*
X67389745Y-77864742D01*
X67389745Y-77676301D01*
X67408051Y-77632107D01*
X67452245Y-77613801D01*
X67496439Y-77632107D01*
X67496440Y-77632107D01*
X67549469Y-77685137D01*
X67882870Y-77351736D01*
X67927064Y-77333430D01*
X67971258Y-77351736D01*
X68325872Y-77706350D01*
X68353662Y-77678561D01*
X68384239Y-77632800D01*
X68424013Y-77606224D01*
X68470929Y-77615556D01*
X68482719Y-77626393D01*
X68483767Y-77626898D01*
X68515641Y-77662567D01*
X68512958Y-77710327D01*
X68491372Y-77735175D01*
X68442756Y-77767659D01*
X68414969Y-77795447D01*
X69032979Y-78413457D01*
X69032980Y-78413457D01*
X69060766Y-78385671D01*
X69092914Y-78337559D01*
X69132688Y-78310983D01*
X69179604Y-78320315D01*
X69183844Y-78323414D01*
X69189135Y-78327633D01*
X69189142Y-78327638D01*
X69194368Y-78332309D01*
X69199514Y-78337455D01*
X69199516Y-78337456D01*
X69199519Y-78337459D01*
X69205693Y-78341339D01*
X69211389Y-78345380D01*
X69229722Y-78360000D01*
X69234355Y-78363695D01*
X69234862Y-78363811D01*
X69254205Y-78371822D01*
X69254652Y-78372103D01*
X69270248Y-78373860D01*
X69283829Y-78375390D01*
X69290735Y-78376563D01*
X69297837Y-78378184D01*
X69305120Y-78378184D01*
X69312117Y-78378577D01*
X69341293Y-78381864D01*
X69341293Y-78381863D01*
X69341294Y-78381864D01*
X69341788Y-78381690D01*
X69362430Y-78378184D01*
X70033935Y-78378184D01*
X70456405Y-78378184D01*
X70543595Y-78378184D01*
X73547920Y-78378184D01*
X73568561Y-78381690D01*
X73569056Y-78381864D01*
X73595324Y-78378904D01*
X73598230Y-78378577D01*
X73605227Y-78378184D01*
X73612514Y-78378184D01*
X73619612Y-78376563D01*
X73626525Y-78375387D01*
X73655697Y-78372102D01*
X73656132Y-78371828D01*
X73675487Y-78363811D01*
X73675994Y-78363695D01*
X73677961Y-78362126D01*
X73698946Y-78345389D01*
X73704653Y-78341339D01*
X73710831Y-78337459D01*
X73715997Y-78332291D01*
X73721196Y-78327646D01*
X73744161Y-78309333D01*
X73744388Y-78308860D01*
X73756502Y-78291786D01*
X74331992Y-77716296D01*
X74376185Y-77697991D01*
X74385954Y-77698759D01*
X74474874Y-77712843D01*
X74601429Y-77692799D01*
X74610914Y-77687966D01*
X75655741Y-77687966D01*
X75683526Y-77715751D01*
X75749555Y-77759870D01*
X75853732Y-77780591D01*
X75957910Y-77759870D01*
X76023935Y-77715753D01*
X76072935Y-77666753D01*
X75874945Y-77468763D01*
X75655741Y-77687966D01*
X74610914Y-77687966D01*
X74715597Y-77634627D01*
X74806200Y-77544024D01*
X74864372Y-77429856D01*
X74883296Y-77310370D01*
X75383511Y-77310370D01*
X75404232Y-77414549D01*
X75448347Y-77480571D01*
X75476137Y-77508360D01*
X75695339Y-77289158D01*
X76054550Y-77289158D01*
X76252540Y-77487148D01*
X76301540Y-77438148D01*
X76345657Y-77372123D01*
X76366378Y-77267945D01*
X76345657Y-77163766D01*
X76301542Y-77097744D01*
X76273752Y-77069955D01*
X76054550Y-77289158D01*
X75695339Y-77289158D01*
X76094148Y-76890350D01*
X76066358Y-76862560D01*
X76000336Y-76818445D01*
X75896158Y-76797724D01*
X75791979Y-76818445D01*
X75725954Y-76862562D01*
X75448349Y-77140167D01*
X75404232Y-77206192D01*
X75383511Y-77310370D01*
X74883296Y-77310370D01*
X74884416Y-77303301D01*
X74874200Y-77238804D01*
X74885366Y-77192293D01*
X74891729Y-77184842D01*
X74989019Y-77087553D01*
X75033212Y-77069248D01*
X75067934Y-77079780D01*
X75070536Y-77081519D01*
X75174910Y-77102280D01*
X75279284Y-77081519D01*
X75345430Y-77037321D01*
X75623108Y-76759643D01*
X75667306Y-76693497D01*
X75688067Y-76589123D01*
X75667306Y-76484749D01*
X75661894Y-76476650D01*
X75623107Y-76418601D01*
X75387857Y-76183351D01*
X75321709Y-76139152D01*
X75217336Y-76118392D01*
X75112960Y-76139153D01*
X75084928Y-76157883D01*
X75038012Y-76167215D01*
X75006012Y-76150110D01*
X74291143Y-75435241D01*
X74272837Y-75391047D01*
X74291143Y-75346853D01*
X74304761Y-75339576D01*
X74303983Y-75338411D01*
X74314586Y-75331326D01*
X74358215Y-75302175D01*
X74453646Y-75206744D01*
X74482975Y-75162849D01*
X74493772Y-75108565D01*
X74520349Y-75068791D01*
X74542879Y-75059459D01*
X74566803Y-75054700D01*
X74597163Y-75048661D01*
X74641058Y-75019332D01*
X74736489Y-74923901D01*
X74765818Y-74880006D01*
X74773887Y-74839440D01*
X74776616Y-74825722D01*
X74803192Y-74785948D01*
X74825722Y-74776616D01*
X74849646Y-74771857D01*
X74880006Y-74765818D01*
X74923901Y-74736489D01*
X75019332Y-74641058D01*
X75048661Y-74597163D01*
X75059458Y-74542879D01*
X75086035Y-74503105D01*
X75108565Y-74493773D01*
X75132489Y-74489014D01*
X75162849Y-74482975D01*
X75206744Y-74453646D01*
X75302175Y-74358215D01*
X75331504Y-74314320D01*
X75342301Y-74260035D01*
X75368876Y-74220263D01*
X75391404Y-74210931D01*
X75445691Y-74200133D01*
X75489586Y-74170804D01*
X75585017Y-74075373D01*
X75614346Y-74031478D01*
X75621230Y-73996869D01*
X79346838Y-73996869D01*
X79374623Y-74024654D01*
X79440652Y-74068773D01*
X79544829Y-74089494D01*
X79649007Y-74068773D01*
X79715032Y-74024656D01*
X79764032Y-73975656D01*
X79566042Y-73777666D01*
X79346838Y-73996869D01*
X75621230Y-73996869D01*
X75625143Y-73977194D01*
X75651720Y-73937420D01*
X75674250Y-73928088D01*
X75698174Y-73923329D01*
X75728534Y-73917290D01*
X75772429Y-73887961D01*
X75867860Y-73792530D01*
X75897189Y-73748635D01*
X75907986Y-73694351D01*
X75934563Y-73654577D01*
X75957093Y-73645245D01*
X75981017Y-73640486D01*
X76011377Y-73634447D01*
X76034086Y-73619274D01*
X79074608Y-73619274D01*
X79095329Y-73723452D01*
X79139444Y-73789474D01*
X79167234Y-73817263D01*
X79386436Y-73598061D01*
X79745647Y-73598061D01*
X79943637Y-73796051D01*
X79992637Y-73747051D01*
X80036754Y-73681026D01*
X80057475Y-73576848D01*
X80036754Y-73472669D01*
X79992639Y-73406647D01*
X79964849Y-73378858D01*
X79745647Y-73598061D01*
X79386436Y-73598061D01*
X79785245Y-73199253D01*
X79757455Y-73171463D01*
X79691433Y-73127348D01*
X79587255Y-73106627D01*
X79483076Y-73127348D01*
X79417051Y-73171465D01*
X79139446Y-73449070D01*
X79095329Y-73515095D01*
X79074608Y-73619274D01*
X76034086Y-73619274D01*
X76055272Y-73605118D01*
X76150703Y-73509687D01*
X76180032Y-73465792D01*
X76190829Y-73411507D01*
X76217404Y-73371735D01*
X76239932Y-73362403D01*
X76294219Y-73351605D01*
X76338114Y-73322276D01*
X76433545Y-73226845D01*
X76462874Y-73182950D01*
X76468499Y-73154668D01*
X76495076Y-73114894D01*
X76536793Y-73104754D01*
X76560667Y-73107443D01*
X76567556Y-73108614D01*
X76574673Y-73110239D01*
X76581958Y-73110239D01*
X76588955Y-73110632D01*
X76591974Y-73110972D01*
X76618129Y-73113919D01*
X76618623Y-73113745D01*
X76639265Y-73110239D01*
X78433614Y-73110239D01*
X78477808Y-73128545D01*
X78695485Y-73346223D01*
X78759473Y-73388979D01*
X78761633Y-73390422D01*
X78866007Y-73411183D01*
X78970381Y-73390422D01*
X79036527Y-73346224D01*
X79314205Y-73068546D01*
X79358403Y-73002400D01*
X79379164Y-72898026D01*
X79369608Y-72849982D01*
X79364501Y-72824306D01*
X79373834Y-72777390D01*
X79413608Y-72750815D01*
X79425800Y-72749614D01*
X79883596Y-72749614D01*
X79904237Y-72753120D01*
X79904732Y-72753294D01*
X79931000Y-72750334D01*
X79933906Y-72750007D01*
X79940903Y-72749614D01*
X79948190Y-72749614D01*
X79955288Y-72747993D01*
X79962198Y-72746818D01*
X79991373Y-72743532D01*
X79991373Y-72743531D01*
X79992798Y-72743371D01*
X80009566Y-72743746D01*
X80131728Y-72763095D01*
X80258283Y-72743051D01*
X80372451Y-72684879D01*
X80463054Y-72594276D01*
X80521226Y-72480108D01*
X80541270Y-72353553D01*
X80521226Y-72226998D01*
X80464487Y-72115642D01*
X80463054Y-72112829D01*
X80372451Y-72022226D01*
X80258284Y-71964055D01*
X80131728Y-71944011D01*
X80005171Y-71964055D01*
X79891004Y-72022226D01*
X79800401Y-72112829D01*
X79742230Y-72226996D01*
X79742229Y-72226998D01*
X79742230Y-72226998D01*
X79728309Y-72314892D01*
X79703316Y-72355677D01*
X79666579Y-72367614D01*
X79501345Y-72367614D01*
X79457151Y-72349308D01*
X79438845Y-72305114D01*
X79438845Y-72179744D01*
X79457151Y-72135550D01*
X79489152Y-72118445D01*
X79525910Y-72111133D01*
X79564351Y-72103487D01*
X79630497Y-72059289D01*
X79865749Y-71824037D01*
X79909947Y-71757891D01*
X79930708Y-71653517D01*
X79909947Y-71549143D01*
X79865749Y-71482997D01*
X79865748Y-71482995D01*
X79588072Y-71205319D01*
X79521924Y-71161120D01*
X79417551Y-71140360D01*
X79313177Y-71161120D01*
X79310574Y-71162860D01*
X79263657Y-71172189D01*
X79231659Y-71155085D01*
X79208875Y-71132301D01*
X79190569Y-71088107D01*
X79201105Y-71053380D01*
X79202840Y-71050784D01*
X79223601Y-70946410D01*
X79220788Y-70932269D01*
X79626152Y-70932269D01*
X79646873Y-71036447D01*
X79690990Y-71102472D01*
X79968595Y-71380077D01*
X80034620Y-71424194D01*
X80138799Y-71444915D01*
X80242977Y-71424194D01*
X80309000Y-71380077D01*
X80336789Y-71352288D01*
X80117586Y-71133087D01*
X79937980Y-70953481D01*
X80297191Y-70953481D01*
X80516393Y-71172684D01*
X80544183Y-71144895D01*
X80588298Y-71078873D01*
X80609019Y-70974695D01*
X80588298Y-70870516D01*
X80544181Y-70804491D01*
X80495181Y-70755492D01*
X80297191Y-70953481D01*
X79937980Y-70953481D01*
X79718778Y-70734279D01*
X79690988Y-70762068D01*
X79646873Y-70828090D01*
X79626152Y-70932269D01*
X79220788Y-70932269D01*
X79202840Y-70842036D01*
X79202840Y-70842035D01*
X79158641Y-70775888D01*
X78940963Y-70558210D01*
X78922657Y-70514016D01*
X78922657Y-70485027D01*
X78940963Y-70440833D01*
X78985157Y-70422527D01*
X79029351Y-70440833D01*
X79261488Y-70672970D01*
X79327513Y-70717087D01*
X79431691Y-70737808D01*
X79535870Y-70717087D01*
X79601892Y-70672972D01*
X79629681Y-70645182D01*
X79539173Y-70554674D01*
X79898383Y-70554674D01*
X80117586Y-70773877D01*
X80315576Y-70575887D01*
X80315576Y-70575886D01*
X80266576Y-70526886D01*
X80200551Y-70482769D01*
X80096373Y-70462048D01*
X79992194Y-70482769D01*
X79926172Y-70526884D01*
X79898383Y-70554674D01*
X79539173Y-70554674D01*
X79230874Y-70246375D01*
X79590084Y-70246375D01*
X79809286Y-70465577D01*
X79837076Y-70437788D01*
X79881191Y-70371766D01*
X79901912Y-70267588D01*
X79881191Y-70163409D01*
X79837074Y-70097384D01*
X79788074Y-70048385D01*
X79590084Y-70246375D01*
X79230874Y-70246375D01*
X79041181Y-70056682D01*
X79041178Y-70056680D01*
X79011670Y-70027172D01*
X78983882Y-70054960D01*
X78953303Y-70100724D01*
X78913529Y-70127299D01*
X78866613Y-70117966D01*
X78854823Y-70107129D01*
X78853772Y-70106623D01*
X78821901Y-70070952D01*
X78824587Y-70023192D01*
X78846172Y-69998348D01*
X78894785Y-69965866D01*
X78922574Y-69938076D01*
X78832065Y-69847567D01*
X79191276Y-69847567D01*
X79410479Y-70066770D01*
X79608469Y-69868779D01*
X79559469Y-69819779D01*
X79493444Y-69775662D01*
X79389266Y-69754941D01*
X79285087Y-69775662D01*
X79219065Y-69819777D01*
X79191276Y-69847567D01*
X78832065Y-69847567D01*
X78567961Y-69583463D01*
X78549655Y-69539269D01*
X78882977Y-69539269D01*
X79072670Y-69728962D01*
X79072672Y-69728963D01*
X79072673Y-69728963D01*
X79102180Y-69758470D01*
X79129967Y-69730683D01*
X79174084Y-69664660D01*
X79194805Y-69560482D01*
X79174084Y-69456303D01*
X79129967Y-69390278D01*
X79080967Y-69341279D01*
X78882977Y-69539269D01*
X78549655Y-69539269D01*
X78567961Y-69495075D01*
X78901362Y-69161673D01*
X78852361Y-69112672D01*
X78809209Y-69083838D01*
X78782634Y-69044064D01*
X78791967Y-68997148D01*
X78799730Y-68987688D01*
X79523178Y-68264239D01*
X79523190Y-68264231D01*
X79565908Y-68221512D01*
X79565960Y-68221490D01*
X79584245Y-68203204D01*
X79584246Y-68203205D01*
X79679932Y-68107518D01*
X79851622Y-67898307D01*
X80001980Y-67673275D01*
X80129556Y-67434590D01*
X80233123Y-67184548D01*
X80311683Y-66925560D01*
X80364478Y-66660118D01*
X80391002Y-66390779D01*
X80391000Y-66255459D01*
X80391000Y-66238146D01*
X80391000Y-54630205D01*
X80376116Y-54512388D01*
X80366276Y-54487534D01*
X80317753Y-54364977D01*
X80224563Y-54236713D01*
X80175221Y-54195895D01*
X80163092Y-54182459D01*
X80149498Y-54162113D01*
X79549424Y-53562040D01*
X79531118Y-53517846D01*
X79549423Y-53473653D01*
X79870062Y-53153016D01*
X79884565Y-53134706D01*
X79922044Y-53037965D01*
X79922044Y-52934217D01*
X79922044Y-52934215D01*
X79893899Y-52861568D01*
X79884565Y-52837475D01*
X79870062Y-52819166D01*
X79599336Y-52548440D01*
X79597933Y-52547329D01*
X79597929Y-52547325D01*
X79590292Y-52541276D01*
X79581027Y-52533937D01*
X79581025Y-52533936D01*
X79484286Y-52496458D01*
X79484285Y-52496458D01*
X79380537Y-52496458D01*
X79380536Y-52496458D01*
X79299286Y-52527935D01*
X79251463Y-52526831D01*
X79218429Y-52492234D01*
X79218429Y-52447078D01*
X79249792Y-52366121D01*
X79249792Y-52262559D01*
X79212382Y-52165992D01*
X79199027Y-52149132D01*
X79196622Y-52146432D01*
X79152397Y-52102207D01*
X78548527Y-52706076D01*
X78504333Y-52724382D01*
X78460139Y-52706076D01*
X78368922Y-52614859D01*
X78350616Y-52570665D01*
X78368922Y-52526471D01*
X78972790Y-51922602D01*
X78928561Y-51878373D01*
X78925871Y-51875977D01*
X78909009Y-51862618D01*
X78812440Y-51825208D01*
X78708880Y-51825208D01*
X78627289Y-51856816D01*
X78579467Y-51855710D01*
X78546432Y-51821113D01*
X78546433Y-51775958D01*
X78578041Y-51694370D01*
X78578041Y-51590808D01*
X78540631Y-51494241D01*
X78527276Y-51477381D01*
X78524871Y-51474681D01*
X78480646Y-51430456D01*
X77876776Y-52034325D01*
X77832582Y-52052631D01*
X77788388Y-52034325D01*
X77697171Y-51943108D01*
X77678865Y-51898914D01*
X77697171Y-51854720D01*
X78301039Y-51250851D01*
X78256810Y-51206622D01*
X78254120Y-51204226D01*
X78237258Y-51190867D01*
X78140689Y-51153457D01*
X78037130Y-51153457D01*
X77940562Y-51190867D01*
X77923693Y-51204228D01*
X77921004Y-51206623D01*
X77601700Y-51525928D01*
X77557506Y-51544234D01*
X77513312Y-51525928D01*
X76985078Y-50997694D01*
X76966772Y-50953500D01*
X76985078Y-50909306D01*
X77029272Y-50891000D01*
X79084997Y-50891000D01*
X79129191Y-50909306D01*
X79274194Y-51054308D01*
X79292500Y-51098502D01*
X79292500Y-51410856D01*
X79307729Y-51487422D01*
X79365747Y-51574252D01*
X79452577Y-51632270D01*
X79529143Y-51647500D01*
X79529144Y-51647500D01*
X79850857Y-51647500D01*
X79889139Y-51639885D01*
X79927423Y-51632270D01*
X80014252Y-51574252D01*
X80072270Y-51487423D01*
X80087500Y-51410856D01*
X80087500Y-51327000D01*
X80313000Y-51327000D01*
X80313000Y-51410806D01*
X80328200Y-51487226D01*
X80386108Y-51573891D01*
X80472773Y-51631799D01*
X80549193Y-51647000D01*
X80583000Y-51647000D01*
X80583000Y-51327000D01*
X80837000Y-51327000D01*
X80837000Y-51647000D01*
X80870807Y-51647000D01*
X80947226Y-51631799D01*
X81033891Y-51573891D01*
X81091799Y-51487226D01*
X81107000Y-51410806D01*
X81107000Y-51327000D01*
X80837000Y-51327000D01*
X80583000Y-51327000D01*
X80313000Y-51327000D01*
X80087500Y-51327000D01*
X80087500Y-51073000D01*
X80313000Y-51073000D01*
X80583000Y-51073000D01*
X80583000Y-50753000D01*
X80837000Y-50753000D01*
X80837000Y-51073000D01*
X81107000Y-51073000D01*
X81107000Y-50989193D01*
X81091799Y-50912773D01*
X81033891Y-50826108D01*
X80947226Y-50768200D01*
X80870807Y-50753000D01*
X80837000Y-50753000D01*
X80583000Y-50753000D01*
X80549193Y-50753000D01*
X80472773Y-50768200D01*
X80386108Y-50826108D01*
X80328200Y-50912773D01*
X80313000Y-50989193D01*
X80313000Y-51073000D01*
X80087500Y-51073000D01*
X80087500Y-50989144D01*
X80072270Y-50912577D01*
X80014493Y-50826108D01*
X80014252Y-50825747D01*
X79927422Y-50767729D01*
X79850857Y-50752500D01*
X79850856Y-50752500D01*
X79538503Y-50752500D01*
X79494309Y-50734194D01*
X79355513Y-50595398D01*
X79343398Y-50578325D01*
X79343170Y-50577851D01*
X79343168Y-50577849D01*
X79320219Y-50559548D01*
X79314991Y-50554876D01*
X79309840Y-50549725D01*
X79303670Y-50545848D01*
X79297957Y-50541794D01*
X79280716Y-50528045D01*
X79275001Y-50523487D01*
X79274489Y-50523371D01*
X79255147Y-50515359D01*
X79254705Y-50515081D01*
X79225530Y-50511794D01*
X79218624Y-50510621D01*
X79215394Y-50509884D01*
X79211521Y-50509000D01*
X79211520Y-50509000D01*
X79204236Y-50509000D01*
X79197239Y-50508607D01*
X79168065Y-50505320D01*
X79167571Y-50505493D01*
X79146929Y-50509000D01*
X77003500Y-50509000D01*
X76959306Y-50490694D01*
X76941000Y-50446500D01*
X76941000Y-50244031D01*
X76959306Y-50199837D01*
X77003500Y-50181531D01*
X77038221Y-50192063D01*
X77050252Y-50200102D01*
X77087442Y-50207500D01*
X77087443Y-50207500D01*
X77412557Y-50207500D01*
X77412558Y-50207500D01*
X77449748Y-50200102D01*
X77465276Y-50189725D01*
X77512192Y-50180393D01*
X77534722Y-50189725D01*
X77550252Y-50200102D01*
X77587442Y-50207500D01*
X77587443Y-50207500D01*
X78212557Y-50207500D01*
X78212558Y-50207500D01*
X78249748Y-50200102D01*
X78265725Y-50189425D01*
X78312641Y-50180093D01*
X78335172Y-50189425D01*
X78350447Y-50199631D01*
X78387491Y-50207000D01*
X78573000Y-50207000D01*
X78573000Y-49687000D01*
X78827000Y-49687000D01*
X78827000Y-50207000D01*
X79012509Y-50207000D01*
X79049552Y-50199631D01*
X79091561Y-50171561D01*
X79119631Y-50129552D01*
X79127000Y-50092508D01*
X79127000Y-49687000D01*
X78827000Y-49687000D01*
X78573000Y-49687000D01*
X78390000Y-49687000D01*
X78345806Y-49668694D01*
X78327500Y-49624500D01*
X78327500Y-49495500D01*
X78345806Y-49451306D01*
X78390000Y-49433000D01*
X78573000Y-49433000D01*
X78573000Y-49006055D01*
X78591306Y-48961861D01*
X78610597Y-48948730D01*
X78680818Y-48918230D01*
X78708003Y-48896113D01*
X78814701Y-48896113D01*
X78827000Y-48930720D01*
X78827000Y-49433000D01*
X79127000Y-49433000D01*
X79136306Y-49423694D01*
X79180500Y-49405388D01*
X79224694Y-49423694D01*
X79243000Y-49467888D01*
X79243000Y-49545773D01*
X79243267Y-49549851D01*
X79257850Y-49660624D01*
X79315992Y-49800991D01*
X79408478Y-49921520D01*
X79529007Y-50014007D01*
X79669373Y-50072148D01*
X79693000Y-50075258D01*
X79693000Y-49785772D01*
X79791840Y-49813895D01*
X79903521Y-49803546D01*
X79947000Y-49781895D01*
X79947000Y-50075257D01*
X79970629Y-50072148D01*
X80110986Y-50014011D01*
X80231521Y-49921521D01*
X80324008Y-49800989D01*
X80382149Y-49660624D01*
X80396732Y-49549851D01*
X80397000Y-49545773D01*
X80397000Y-49087000D01*
X80120000Y-49087000D01*
X80120000Y-48833000D01*
X80397000Y-48833000D01*
X80397000Y-48374226D01*
X80396732Y-48370148D01*
X80382149Y-48259375D01*
X80324007Y-48119008D01*
X80231521Y-47998479D01*
X80110991Y-47905991D01*
X79970625Y-47847850D01*
X79947000Y-47844739D01*
X79947000Y-48134227D01*
X79848160Y-48106105D01*
X79736479Y-48116454D01*
X79693000Y-48138104D01*
X79693000Y-47844740D01*
X79692999Y-47844739D01*
X79669376Y-47847850D01*
X79529010Y-47905991D01*
X79408478Y-47998478D01*
X79315991Y-48119010D01*
X79257850Y-48259375D01*
X79243267Y-48370148D01*
X79243000Y-48374226D01*
X79243000Y-48833000D01*
X79520000Y-48833000D01*
X79520000Y-49087000D01*
X79243000Y-49087000D01*
X79233694Y-49096306D01*
X79189500Y-49114612D01*
X79145306Y-49096306D01*
X79127000Y-49052112D01*
X79127000Y-49027491D01*
X79119631Y-48990447D01*
X79091561Y-48948438D01*
X79049552Y-48920368D01*
X79012509Y-48913000D01*
X78855467Y-48913000D01*
X78814701Y-48896113D01*
X78708003Y-48896113D01*
X78725058Y-48882237D01*
X78770891Y-48868548D01*
X78808957Y-48889103D01*
X78792967Y-48850500D01*
X78804406Y-48814457D01*
X78819905Y-48792500D01*
X78886961Y-48697504D01*
X78938006Y-48553877D01*
X78948408Y-48401804D01*
X78917396Y-48252564D01*
X78847269Y-48117225D01*
X78835124Y-48104221D01*
X78743229Y-48005824D01*
X78612989Y-47926624D01*
X78466215Y-47885500D01*
X78466214Y-47885500D01*
X78352073Y-47885500D01*
X78349975Y-47885788D01*
X78349965Y-47885789D01*
X78238991Y-47901043D01*
X78099181Y-47961770D01*
X77980941Y-48057965D01*
X77893037Y-48182497D01*
X77841993Y-48326122D01*
X77837161Y-48396768D01*
X77815882Y-48439609D01*
X77770541Y-48454856D01*
X77730613Y-48436696D01*
X77036035Y-47742118D01*
X77028262Y-47732646D01*
X77017484Y-47716516D01*
X77001353Y-47705737D01*
X77001352Y-47705736D01*
X76933300Y-47660265D01*
X76853029Y-47644299D01*
X76834000Y-47640514D01*
X76833999Y-47640514D01*
X76814970Y-47644299D01*
X76802778Y-47645500D01*
X74244385Y-47645500D01*
X74200191Y-47627194D01*
X73540845Y-46967848D01*
X73523074Y-46931812D01*
X73513923Y-46862295D01*
X73460771Y-46733974D01*
X73460770Y-46733973D01*
X73460770Y-46733972D01*
X73376218Y-46623781D01*
X73266027Y-46539229D01*
X73137703Y-46486076D01*
X73000000Y-46467948D01*
X72862296Y-46486076D01*
X72733972Y-46539229D01*
X72623781Y-46623781D01*
X72549148Y-46721047D01*
X72507721Y-46744965D01*
X72499563Y-46745500D01*
X68981305Y-46745500D01*
X68937111Y-46727194D01*
X67286016Y-45076098D01*
X67267710Y-45031904D01*
X67267710Y-44902000D01*
X67751828Y-44902000D01*
X67751828Y-45033405D01*
X67761795Y-45101824D01*
X67813392Y-45207368D01*
X67896458Y-45290434D01*
X68002002Y-45342031D01*
X68070421Y-45351999D01*
X68226826Y-45351999D01*
X68226827Y-45351998D01*
X68226827Y-44902000D01*
X68480827Y-44902000D01*
X68480827Y-45351999D01*
X68637232Y-45351999D01*
X68705651Y-45342031D01*
X68811195Y-45290434D01*
X68894261Y-45207368D01*
X68945858Y-45101824D01*
X68955827Y-45033404D01*
X68955827Y-44902000D01*
X68480827Y-44902000D01*
X68226827Y-44902000D01*
X67751828Y-44902000D01*
X67267710Y-44902000D01*
X67267710Y-44709768D01*
X67278243Y-44675046D01*
X67296314Y-44648000D01*
X67751827Y-44648000D01*
X68226827Y-44648000D01*
X68226827Y-44198000D01*
X68480827Y-44198000D01*
X68480827Y-44648000D01*
X68955826Y-44648000D01*
X68955826Y-44516594D01*
X68945858Y-44448175D01*
X68894261Y-44342631D01*
X68811195Y-44259565D01*
X68705651Y-44207968D01*
X68637232Y-44198000D01*
X68480827Y-44198000D01*
X68226827Y-44198000D01*
X68070421Y-44198000D01*
X68002002Y-44207968D01*
X67896458Y-44259565D01*
X67813392Y-44342631D01*
X67761795Y-44448175D01*
X67751827Y-44516595D01*
X67751827Y-44648000D01*
X67296314Y-44648000D01*
X67304110Y-44636332D01*
X67311878Y-44626865D01*
X68117938Y-43820804D01*
X68162132Y-43802499D01*
X68637280Y-43802499D01*
X68645992Y-43801229D01*
X68705799Y-43792517D01*
X68811489Y-43740848D01*
X68894675Y-43657662D01*
X68946344Y-43551972D01*
X68956327Y-43483453D01*
X68956326Y-42966548D01*
X68946344Y-42898028D01*
X68915767Y-42835482D01*
X68894675Y-42792337D01*
X68811489Y-42709151D01*
X68705800Y-42657483D01*
X68637280Y-42647500D01*
X68070373Y-42647500D01*
X68001854Y-42657483D01*
X67896164Y-42709151D01*
X67812978Y-42792337D01*
X67761310Y-42898026D01*
X67751327Y-42966547D01*
X67751327Y-43441693D01*
X67733021Y-43485887D01*
X67386122Y-43832785D01*
X67341928Y-43851091D01*
X67297734Y-43832785D01*
X67279844Y-43795793D01*
X67278635Y-43785366D01*
X67236730Y-43690458D01*
X67236730Y-43690457D01*
X67163369Y-43617096D01*
X67068459Y-43575191D01*
X67047061Y-43572708D01*
X67047042Y-43572706D01*
X67045259Y-43572500D01*
X65937395Y-43572500D01*
X65935612Y-43572706D01*
X65935592Y-43572708D01*
X65914194Y-43575191D01*
X65819284Y-43617096D01*
X65745923Y-43690457D01*
X65704018Y-43785367D01*
X65701535Y-43806765D01*
X65701533Y-43806785D01*
X65701327Y-43808568D01*
X65701327Y-44191432D01*
X65701533Y-44193215D01*
X65701535Y-44193234D01*
X65704018Y-44214632D01*
X65745923Y-44309542D01*
X65819284Y-44382903D01*
X65866738Y-44403855D01*
X65914193Y-44424808D01*
X65922250Y-44425742D01*
X65935592Y-44427291D01*
X65935595Y-44427291D01*
X65937395Y-44427500D01*
X66468113Y-44427500D01*
X66512307Y-44445806D01*
X66735974Y-44669472D01*
X66735983Y-44669483D01*
X66740399Y-44673898D01*
X66741212Y-44675861D01*
X66743783Y-44678997D01*
X66743787Y-44679003D01*
X66742789Y-44679667D01*
X66758710Y-44718090D01*
X66758710Y-45131988D01*
X66757509Y-45144180D01*
X66753724Y-45163209D01*
X66757509Y-45182237D01*
X66757509Y-45182240D01*
X66772885Y-45259542D01*
X66773475Y-45262510D01*
X66818940Y-45330554D01*
X66818945Y-45330560D01*
X66829726Y-45346694D01*
X66838415Y-45352500D01*
X66845854Y-45357470D01*
X66855325Y-45365243D01*
X68647963Y-47157880D01*
X68655733Y-47167346D01*
X68666516Y-47183484D01*
X68750699Y-47239734D01*
X68830965Y-47255700D01*
X68830975Y-47255701D01*
X68850000Y-47259485D01*
X68869025Y-47255701D01*
X68881217Y-47254500D01*
X72499563Y-47254500D01*
X72543757Y-47272806D01*
X72549148Y-47278953D01*
X72623781Y-47376218D01*
X72733972Y-47460770D01*
X72733973Y-47460770D01*
X72733974Y-47460771D01*
X72862295Y-47513923D01*
X73000000Y-47532052D01*
X73137705Y-47513923D01*
X73261320Y-47462719D01*
X73309152Y-47462719D01*
X73329429Y-47476268D01*
X73708966Y-47855805D01*
X73727272Y-47899999D01*
X73708966Y-47944193D01*
X73264518Y-48388641D01*
X73220324Y-48406947D01*
X73176130Y-48388641D01*
X73159132Y-48357164D01*
X73137396Y-48252564D01*
X73067269Y-48117225D01*
X73055124Y-48104221D01*
X72963229Y-48005824D01*
X72832989Y-47926624D01*
X72686215Y-47885500D01*
X72686214Y-47885500D01*
X72572073Y-47885500D01*
X72569975Y-47885788D01*
X72569965Y-47885789D01*
X72458991Y-47901043D01*
X72319181Y-47961770D01*
X72200941Y-48057965D01*
X72113037Y-48182497D01*
X72061993Y-48326122D01*
X72051591Y-48478193D01*
X72082604Y-48627436D01*
X72136260Y-48730989D01*
X72152731Y-48762775D01*
X72187401Y-48799898D01*
X72194819Y-48807840D01*
X72211606Y-48852634D01*
X72195269Y-48888553D01*
X72235500Y-48871889D01*
X72267973Y-48880987D01*
X72279063Y-48887731D01*
X72394350Y-48957839D01*
X72392639Y-48960651D01*
X72418977Y-48981339D01*
X72427000Y-49011975D01*
X72427000Y-50207000D01*
X72612509Y-50207000D01*
X72649550Y-50199631D01*
X72664826Y-50189425D01*
X72711743Y-50180093D01*
X72734272Y-50189424D01*
X72750252Y-50200102D01*
X72787442Y-50207500D01*
X72787443Y-50207500D01*
X73412557Y-50207500D01*
X73412558Y-50207500D01*
X73449748Y-50200102D01*
X73461777Y-50192063D01*
X73508693Y-50182732D01*
X73548467Y-50209308D01*
X73559000Y-50244031D01*
X73559000Y-50390996D01*
X73540694Y-50435190D01*
X72880043Y-51095840D01*
X72835849Y-51114146D01*
X72801126Y-51103613D01*
X72747422Y-51067729D01*
X72670857Y-51052500D01*
X72670856Y-51052500D01*
X72349144Y-51052500D01*
X72349143Y-51052500D01*
X72272577Y-51067729D01*
X72185747Y-51125747D01*
X72127729Y-51212577D01*
X72112500Y-51289143D01*
X72112500Y-51710856D01*
X72127729Y-51787422D01*
X72185747Y-51874252D01*
X72272577Y-51932270D01*
X72349143Y-51947500D01*
X72349144Y-51947500D01*
X72670857Y-51947500D01*
X72716811Y-51938359D01*
X72747423Y-51932270D01*
X72834252Y-51874252D01*
X72892270Y-51787423D01*
X72907500Y-51710856D01*
X72907500Y-51634500D01*
X72925805Y-51590308D01*
X73854602Y-50661511D01*
X73871676Y-50649397D01*
X73872149Y-50649170D01*
X73890462Y-50626205D01*
X73895107Y-50621006D01*
X73900275Y-50615840D01*
X73904155Y-50609662D01*
X73908209Y-50603951D01*
X73915031Y-50595398D01*
X73926511Y-50581003D01*
X73926627Y-50580496D01*
X73934645Y-50561140D01*
X73934918Y-50560706D01*
X73938203Y-50531534D01*
X73939379Y-50524621D01*
X73941000Y-50517522D01*
X73941000Y-50510235D01*
X73941393Y-50503237D01*
X73942806Y-50490694D01*
X73944680Y-50474065D01*
X73944618Y-50473889D01*
X73944507Y-50473569D01*
X73941000Y-50452928D01*
X73941000Y-50244031D01*
X73959306Y-50199837D01*
X74003500Y-50181531D01*
X74038221Y-50192063D01*
X74050252Y-50200102D01*
X74087442Y-50207500D01*
X74087443Y-50207500D01*
X74355000Y-50207500D01*
X74399194Y-50225806D01*
X74417500Y-50270000D01*
X74417500Y-51529970D01*
X74421750Y-51557159D01*
X74422500Y-51566812D01*
X74422500Y-51590181D01*
X74422744Y-51592120D01*
X74422746Y-51592138D01*
X74423369Y-51597074D01*
X74423830Y-51602934D01*
X74425298Y-51649647D01*
X74432266Y-51673633D01*
X74434254Y-51683230D01*
X74437384Y-51707999D01*
X74454585Y-51751444D01*
X74456491Y-51757011D01*
X74469532Y-51801896D01*
X74474325Y-51810000D01*
X74482240Y-51823384D01*
X74486553Y-51832189D01*
X74495746Y-51855406D01*
X74495747Y-51855408D01*
X74513882Y-51880368D01*
X74523209Y-51893205D01*
X74526442Y-51898127D01*
X74550235Y-51938359D01*
X74567892Y-51956016D01*
X74574261Y-51963473D01*
X74588938Y-51983674D01*
X74624938Y-52013455D01*
X74629293Y-52017417D01*
X75328851Y-52716976D01*
X75330406Y-52718182D01*
X75331877Y-52719479D01*
X75329227Y-52717287D01*
X75334935Y-52722319D01*
X75825928Y-53213312D01*
X75844234Y-53257506D01*
X75825928Y-53301700D01*
X75531629Y-53596000D01*
X75529213Y-53598712D01*
X75515867Y-53615560D01*
X75478457Y-53712127D01*
X75478457Y-53815689D01*
X75515866Y-53912256D01*
X75529221Y-53929116D01*
X75531626Y-53931816D01*
X75575850Y-53976040D01*
X76179720Y-53372171D01*
X76223914Y-53353865D01*
X76268108Y-53372171D01*
X76359325Y-53463388D01*
X76377631Y-53507582D01*
X76359325Y-53551776D01*
X75755457Y-54155644D01*
X75755457Y-54155645D01*
X75799688Y-54199876D01*
X75802377Y-54202271D01*
X75819239Y-54215630D01*
X75915809Y-54253041D01*
X76019371Y-54253041D01*
X76100327Y-54221678D01*
X76148150Y-54222782D01*
X76181184Y-54257379D01*
X76181184Y-54302535D01*
X76149707Y-54383784D01*
X76149707Y-54487534D01*
X76156730Y-54505663D01*
X76155626Y-54553486D01*
X76142645Y-54572435D01*
X76102503Y-54612577D01*
X76058309Y-54630883D01*
X76034392Y-54626126D01*
X75937703Y-54586076D01*
X75800000Y-54567948D01*
X75662296Y-54586076D01*
X75533972Y-54639229D01*
X75423781Y-54723781D01*
X75339229Y-54833972D01*
X75286076Y-54962296D01*
X75267948Y-55100000D01*
X75286076Y-55237703D01*
X75339229Y-55366027D01*
X75423781Y-55476218D01*
X75533972Y-55560770D01*
X75533973Y-55560770D01*
X75533974Y-55560771D01*
X75662295Y-55613923D01*
X75800000Y-55632052D01*
X75937705Y-55613923D01*
X76066026Y-55560771D01*
X76176218Y-55476218D01*
X76260771Y-55366026D01*
X76313923Y-55237705D01*
X76328848Y-55124332D01*
X76346617Y-55088299D01*
X76502564Y-54932352D01*
X76546757Y-54914047D01*
X76569328Y-54918266D01*
X76587466Y-54925293D01*
X76587469Y-54925293D01*
X76691214Y-54925293D01*
X76771832Y-54894060D01*
X76819655Y-54895164D01*
X76852690Y-54929760D01*
X76852690Y-54974917D01*
X76821458Y-55055535D01*
X76821458Y-55159286D01*
X76848470Y-55229009D01*
X76858937Y-55256027D01*
X76866276Y-55265292D01*
X76869729Y-55269652D01*
X76873440Y-55274336D01*
X77144166Y-55545062D01*
X77162475Y-55559565D01*
X77210845Y-55578304D01*
X77259216Y-55597044D01*
X77259217Y-55597044D01*
X77362966Y-55597044D01*
X77459706Y-55559565D01*
X77478016Y-55545062D01*
X77773654Y-55249423D01*
X77817847Y-55231118D01*
X77862039Y-55249423D01*
X77917907Y-55305290D01*
X77990694Y-55378077D01*
X78009000Y-55422271D01*
X78009000Y-66166909D01*
X78008999Y-66166919D01*
X78008999Y-66245202D01*
X78008465Y-66253358D01*
X78008038Y-66256600D01*
X77997382Y-66337548D01*
X77993161Y-66353305D01*
X77962245Y-66427944D01*
X77954087Y-66442074D01*
X77902439Y-66509384D01*
X77897048Y-66515531D01*
X77116562Y-67296018D01*
X77072368Y-67314324D01*
X77028174Y-67296018D01*
X77020402Y-67286548D01*
X77008648Y-67268958D01*
X76959647Y-67219958D01*
X76626246Y-67553358D01*
X76582052Y-67571664D01*
X76537858Y-67553358D01*
X76212754Y-67228255D01*
X76212751Y-67228253D01*
X76183243Y-67198745D01*
X76155458Y-67226529D01*
X76111339Y-67292558D01*
X76090618Y-67396735D01*
X76111339Y-67500913D01*
X76155456Y-67566938D01*
X76401737Y-67813219D01*
X76420043Y-67857413D01*
X76401737Y-67901607D01*
X76357543Y-67919913D01*
X76328553Y-67919913D01*
X76284359Y-67901607D01*
X76052538Y-67669785D01*
X75986390Y-67625586D01*
X75882017Y-67604826D01*
X75777643Y-67625586D01*
X75758086Y-67638654D01*
X75711170Y-67647985D01*
X75679171Y-67630881D01*
X75670591Y-67622302D01*
X75662012Y-67613722D01*
X75643706Y-67569531D01*
X75654239Y-67534806D01*
X75667306Y-67515251D01*
X75688067Y-67410877D01*
X75667306Y-67306503D01*
X75653972Y-67286548D01*
X75623107Y-67240355D01*
X75405429Y-67022677D01*
X75387123Y-66978483D01*
X75387123Y-66949494D01*
X75405429Y-66905300D01*
X75449623Y-66886994D01*
X75493817Y-66905300D01*
X75725954Y-67137437D01*
X75791979Y-67181554D01*
X75896158Y-67202275D01*
X76000336Y-67181554D01*
X76066358Y-67137439D01*
X76094147Y-67109649D01*
X76003638Y-67019140D01*
X76362849Y-67019140D01*
X76582052Y-67238343D01*
X76780042Y-67040353D01*
X76780042Y-67040352D01*
X76731042Y-66991352D01*
X76665017Y-66947235D01*
X76560839Y-66926514D01*
X76456660Y-66947235D01*
X76390638Y-66991350D01*
X76362849Y-67019140D01*
X76003638Y-67019140D01*
X75739534Y-66755036D01*
X75721228Y-66710842D01*
X76054550Y-66710842D01*
X76244243Y-66900535D01*
X76244245Y-66900536D01*
X76244246Y-66900536D01*
X76273753Y-66930043D01*
X76301540Y-66902256D01*
X76345657Y-66836233D01*
X76366378Y-66732054D01*
X76345657Y-66627878D01*
X76301540Y-66561853D01*
X76252539Y-66512851D01*
X76054550Y-66710841D01*
X76054550Y-66710842D01*
X75721228Y-66710842D01*
X75739534Y-66666648D01*
X75874945Y-66531237D01*
X76072935Y-66333246D01*
X76023932Y-66284245D01*
X75991710Y-66262715D01*
X75965134Y-66222941D01*
X75974466Y-66176025D01*
X75982231Y-66166563D01*
X77010806Y-65137987D01*
X77027880Y-65125873D01*
X77028353Y-65125646D01*
X77046666Y-65102681D01*
X77051311Y-65097482D01*
X77056479Y-65092316D01*
X77060365Y-65086130D01*
X77064400Y-65080443D01*
X77082715Y-65057479D01*
X77082830Y-65056974D01*
X77090848Y-65037618D01*
X77091123Y-65037182D01*
X77094411Y-65007994D01*
X77095581Y-65001107D01*
X77097204Y-64993997D01*
X77097204Y-64986713D01*
X77097597Y-64979716D01*
X77099203Y-64965459D01*
X77100884Y-64950541D01*
X77100711Y-64950046D01*
X77097204Y-64929405D01*
X77097204Y-58564499D01*
X77100711Y-58543857D01*
X77100884Y-58543363D01*
X77097597Y-58514188D01*
X77097204Y-58507191D01*
X77097204Y-58499910D01*
X77097204Y-58499907D01*
X77095579Y-58492790D01*
X77094407Y-58485888D01*
X77091122Y-58456723D01*
X77091122Y-58456722D01*
X77090841Y-58456276D01*
X77082830Y-58436932D01*
X77082715Y-58436425D01*
X77082713Y-58436422D01*
X77064407Y-58413467D01*
X77060357Y-58407760D01*
X77056479Y-58401588D01*
X77051325Y-58396434D01*
X77046664Y-58391219D01*
X77028353Y-58368258D01*
X77027879Y-58368029D01*
X77010805Y-58355914D01*
X76347816Y-57692924D01*
X76329510Y-57648730D01*
X76329510Y-57375439D01*
X76329510Y-57373636D01*
X76327821Y-57359083D01*
X76326818Y-57350435D01*
X76284913Y-57255525D01*
X76211552Y-57182164D01*
X76116642Y-57140259D01*
X76095244Y-57137776D01*
X76095225Y-57137774D01*
X76093442Y-57137568D01*
X76091639Y-57137568D01*
X74823373Y-57137568D01*
X74779179Y-57119262D01*
X74617583Y-56957665D01*
X74599277Y-56913471D01*
X74599277Y-56213829D01*
X74617583Y-56169635D01*
X74634323Y-56157682D01*
X74707662Y-56121829D01*
X74790848Y-56038643D01*
X74842517Y-55932953D01*
X74852500Y-55864434D01*
X74852499Y-55297529D01*
X74842517Y-55229009D01*
X74791345Y-55124335D01*
X74790848Y-55123318D01*
X74707662Y-55040132D01*
X74634327Y-55004281D01*
X74602663Y-54968426D01*
X74599277Y-54948132D01*
X74599277Y-54482848D01*
X74617583Y-54438654D01*
X74634323Y-54426701D01*
X74707662Y-54390848D01*
X74790848Y-54307662D01*
X74842517Y-54201972D01*
X74852500Y-54133453D01*
X74852499Y-53566548D01*
X74850817Y-53555005D01*
X74845404Y-53517846D01*
X74842517Y-53498028D01*
X74808725Y-53428906D01*
X74790848Y-53392337D01*
X74707662Y-53309151D01*
X74601973Y-53257483D01*
X74533453Y-53247500D01*
X74233305Y-53247500D01*
X74189111Y-53229194D01*
X73677204Y-52717287D01*
X73152033Y-52192115D01*
X73144260Y-52182644D01*
X73133484Y-52166516D01*
X73132700Y-52165992D01*
X73117350Y-52155735D01*
X73117344Y-52155730D01*
X73049300Y-52110265D01*
X72969029Y-52094299D01*
X72950000Y-52090514D01*
X72949999Y-52090514D01*
X72930970Y-52094299D01*
X72918778Y-52095500D01*
X70261305Y-52095500D01*
X70217111Y-52077194D01*
X69766917Y-51627000D01*
X71093000Y-51627000D01*
X71093000Y-51710806D01*
X71108200Y-51787226D01*
X71166108Y-51873891D01*
X71252773Y-51931799D01*
X71329193Y-51947000D01*
X71363000Y-51947000D01*
X71363000Y-51627000D01*
X71617000Y-51627000D01*
X71617000Y-51947000D01*
X71650807Y-51947000D01*
X71727226Y-51931799D01*
X71813891Y-51873891D01*
X71871799Y-51787226D01*
X71887000Y-51710806D01*
X71887000Y-51627000D01*
X71617000Y-51627000D01*
X71363000Y-51627000D01*
X71093000Y-51627000D01*
X69766917Y-51627000D01*
X69512917Y-51373000D01*
X71093000Y-51373000D01*
X71363000Y-51373000D01*
X71363000Y-51053000D01*
X71617000Y-51053000D01*
X71617000Y-51373000D01*
X71887000Y-51373000D01*
X71887000Y-51289193D01*
X71871799Y-51212773D01*
X71813891Y-51126108D01*
X71727226Y-51068200D01*
X71650807Y-51053000D01*
X71617000Y-51053000D01*
X71363000Y-51053000D01*
X71329193Y-51053000D01*
X71252773Y-51068200D01*
X71166108Y-51126108D01*
X71108200Y-51212773D01*
X71093000Y-51289193D01*
X71093000Y-51373000D01*
X69512917Y-51373000D01*
X67685691Y-49545773D01*
X70603000Y-49545773D01*
X70603267Y-49549851D01*
X70617850Y-49660624D01*
X70675992Y-49800991D01*
X70768478Y-49921520D01*
X70889007Y-50014007D01*
X71029373Y-50072148D01*
X71053000Y-50075258D01*
X71053000Y-49785772D01*
X71151840Y-49813895D01*
X71263521Y-49803546D01*
X71307000Y-49781895D01*
X71307000Y-50075257D01*
X71330629Y-50072148D01*
X71470986Y-50014011D01*
X71591521Y-49921521D01*
X71684008Y-49800989D01*
X71731224Y-49687000D01*
X71873000Y-49687000D01*
X71873000Y-50092508D01*
X71880368Y-50129552D01*
X71908438Y-50171561D01*
X71950447Y-50199631D01*
X71987491Y-50207000D01*
X72173000Y-50207000D01*
X72173000Y-49687000D01*
X71873000Y-49687000D01*
X71731224Y-49687000D01*
X71742149Y-49660624D01*
X71756732Y-49549851D01*
X71757000Y-49545773D01*
X71757000Y-49467888D01*
X71775306Y-49423694D01*
X71819500Y-49405388D01*
X71863694Y-49423694D01*
X71873000Y-49433000D01*
X72173000Y-49433000D01*
X72173000Y-48934389D01*
X72188247Y-48897578D01*
X72149142Y-48913000D01*
X71987491Y-48913000D01*
X71950447Y-48920368D01*
X71908438Y-48948438D01*
X71880368Y-48990447D01*
X71873000Y-49027491D01*
X71873000Y-49052112D01*
X71854694Y-49096306D01*
X71810500Y-49114612D01*
X71766306Y-49096306D01*
X71757000Y-49087000D01*
X71480000Y-49087000D01*
X71480000Y-48833000D01*
X71757000Y-48833000D01*
X71757000Y-48374226D01*
X71756732Y-48370148D01*
X71742149Y-48259375D01*
X71684007Y-48119008D01*
X71591521Y-47998479D01*
X71470991Y-47905991D01*
X71330625Y-47847850D01*
X71307000Y-47844739D01*
X71307000Y-48134227D01*
X71208160Y-48106105D01*
X71096479Y-48116454D01*
X71053000Y-48138104D01*
X71053000Y-47844740D01*
X71052999Y-47844739D01*
X71029376Y-47847850D01*
X70889010Y-47905991D01*
X70768478Y-47998478D01*
X70675991Y-48119010D01*
X70617850Y-48259375D01*
X70603267Y-48370148D01*
X70603000Y-48374226D01*
X70603000Y-48833000D01*
X70880000Y-48833000D01*
X70880000Y-49087000D01*
X70603000Y-49087000D01*
X70603000Y-49545773D01*
X67685691Y-49545773D01*
X67047806Y-48907888D01*
X67029500Y-48863694D01*
X67029500Y-46031216D01*
X67030701Y-46019023D01*
X67034485Y-46000000D01*
X67030701Y-45980975D01*
X67030701Y-45980970D01*
X67014734Y-45900699D01*
X66995892Y-45872500D01*
X66969267Y-45832652D01*
X66969260Y-45832644D01*
X66958484Y-45816516D01*
X66942349Y-45805735D01*
X66932883Y-45797965D01*
X65927033Y-44792115D01*
X65919260Y-44782644D01*
X65908484Y-44766516D01*
X65892350Y-44755735D01*
X65892344Y-44755730D01*
X65824300Y-44710265D01*
X65733516Y-44692208D01*
X65725000Y-44690514D01*
X65724999Y-44690514D01*
X65705970Y-44694299D01*
X65693778Y-44695500D01*
X65026759Y-44695500D01*
X64982565Y-44677194D01*
X64969584Y-44658245D01*
X64961729Y-44640456D01*
X64888369Y-44567096D01*
X64793459Y-44525191D01*
X64772061Y-44522708D01*
X64772042Y-44522706D01*
X64770259Y-44522500D01*
X64768456Y-44522500D01*
X64082604Y-44522500D01*
X64070411Y-44521299D01*
X64066394Y-44520500D01*
X64060356Y-44519299D01*
X64041327Y-44515514D01*
X64041326Y-44515514D01*
X64022297Y-44519299D01*
X64010105Y-44520500D01*
X63010956Y-44520500D01*
X62966762Y-44502194D01*
X62949109Y-44467009D01*
X62946365Y-44448175D01*
X62946344Y-44448028D01*
X62914506Y-44382903D01*
X62894675Y-44342337D01*
X62811489Y-44259151D01*
X62705800Y-44207483D01*
X62637280Y-44197500D01*
X62070373Y-44197500D01*
X62001854Y-44207483D01*
X61896164Y-44259151D01*
X61812978Y-44342337D01*
X61761310Y-44448026D01*
X61751327Y-44516546D01*
X61751327Y-45033453D01*
X61761310Y-45101972D01*
X61812978Y-45207662D01*
X61896164Y-45290848D01*
X61966932Y-45325444D01*
X62001855Y-45342517D01*
X62070374Y-45352500D01*
X62637279Y-45352499D01*
X62637280Y-45352499D01*
X62645992Y-45351229D01*
X62705799Y-45342517D01*
X62811489Y-45290848D01*
X62894675Y-45207662D01*
X62946344Y-45101972D01*
X62949109Y-45082989D01*
X62973596Y-45041896D01*
X63010957Y-45029500D01*
X63363827Y-45029500D01*
X63408021Y-45047806D01*
X63426326Y-45092000D01*
X63426327Y-45141432D01*
X63426533Y-45143215D01*
X63426535Y-45143234D01*
X63429018Y-45164632D01*
X63470923Y-45259542D01*
X63544284Y-45332903D01*
X63566059Y-45342517D01*
X63639193Y-45374808D01*
X63647250Y-45375742D01*
X63660592Y-45377291D01*
X63660595Y-45377291D01*
X63662395Y-45377500D01*
X63818000Y-45377500D01*
X63862194Y-45395806D01*
X63880500Y-45440000D01*
X63880500Y-45854562D01*
X63862194Y-45898756D01*
X63856048Y-45904147D01*
X63758780Y-45978783D01*
X63674229Y-46088972D01*
X63621076Y-46217296D01*
X63602948Y-46355000D01*
X63621076Y-46492703D01*
X63674229Y-46621027D01*
X63758781Y-46731218D01*
X63868972Y-46815770D01*
X63868973Y-46815770D01*
X63868974Y-46815771D01*
X63997295Y-46868923D01*
X64135000Y-46887052D01*
X64272705Y-46868923D01*
X64401026Y-46815771D01*
X64511218Y-46731218D01*
X64595771Y-46621026D01*
X64648923Y-46492705D01*
X64667052Y-46355000D01*
X64648923Y-46217295D01*
X64595771Y-46088974D01*
X64595770Y-46088973D01*
X64595770Y-46088972D01*
X64511219Y-45978783D01*
X64413952Y-45904147D01*
X64390035Y-45862720D01*
X64389500Y-45854562D01*
X64389500Y-45440000D01*
X64407806Y-45395806D01*
X64452000Y-45377500D01*
X64768456Y-45377500D01*
X64770259Y-45377500D01*
X64772059Y-45377291D01*
X64772061Y-45377291D01*
X64777346Y-45376677D01*
X64793461Y-45374808D01*
X64888369Y-45332903D01*
X64961730Y-45259542D01*
X64969583Y-45241755D01*
X65004181Y-45208720D01*
X65026759Y-45204500D01*
X65593694Y-45204500D01*
X65637888Y-45222806D01*
X66502194Y-46087112D01*
X66520500Y-46131306D01*
X66520500Y-48963778D01*
X66519299Y-48975970D01*
X66515514Y-48994999D01*
X66535265Y-49094300D01*
X66580730Y-49162344D01*
X66580735Y-49162350D01*
X66591516Y-49178484D01*
X66607644Y-49189260D01*
X66617115Y-49197033D01*
X69927963Y-52507880D01*
X69935733Y-52517346D01*
X69939671Y-52523240D01*
X69946516Y-52533484D01*
X69962647Y-52544262D01*
X69962649Y-52544264D01*
X69967766Y-52547683D01*
X69967767Y-52547684D01*
X70030699Y-52589734D01*
X70130000Y-52609486D01*
X70145873Y-52606328D01*
X70149030Y-52605701D01*
X70161222Y-52604500D01*
X72818694Y-52604500D01*
X72862888Y-52622806D01*
X73278048Y-53037966D01*
X73689203Y-53449120D01*
X73707509Y-53493314D01*
X73706856Y-53502324D01*
X73697500Y-53566545D01*
X73697500Y-54133453D01*
X73707483Y-54201972D01*
X73759151Y-54307662D01*
X73842337Y-54390848D01*
X73915670Y-54426698D01*
X73948028Y-54442517D01*
X74016547Y-54452500D01*
X74027775Y-54452499D01*
X74071968Y-54470802D01*
X74090277Y-54514995D01*
X74090277Y-54915981D01*
X74071971Y-54960175D01*
X74027781Y-54978481D01*
X74016548Y-54978481D01*
X73948027Y-54988464D01*
X73842337Y-55040132D01*
X73759151Y-55123318D01*
X73707483Y-55229007D01*
X73697500Y-55297527D01*
X73697500Y-55864434D01*
X73707483Y-55932953D01*
X73759151Y-56038643D01*
X73842337Y-56121829D01*
X73915670Y-56157679D01*
X73948028Y-56173498D01*
X74016547Y-56183481D01*
X74027775Y-56183480D01*
X74071968Y-56201783D01*
X74090277Y-56245976D01*
X74090277Y-57013555D01*
X74089076Y-57025747D01*
X74085291Y-57044777D01*
X74089219Y-57064527D01*
X74105042Y-57144077D01*
X74150507Y-57212121D01*
X74150512Y-57212127D01*
X74157982Y-57223306D01*
X74161293Y-57228261D01*
X74177422Y-57239038D01*
X74186893Y-57246811D01*
X74326159Y-57386077D01*
X74456204Y-57516121D01*
X74474510Y-57560315D01*
X74474510Y-57756500D01*
X74474716Y-57758283D01*
X74474718Y-57758302D01*
X74477201Y-57779700D01*
X74519106Y-57874610D01*
X74592467Y-57947971D01*
X74639921Y-57968923D01*
X74687376Y-57989876D01*
X74694487Y-57990701D01*
X74708775Y-57992359D01*
X74708778Y-57992359D01*
X74710578Y-57992568D01*
X74712381Y-57992568D01*
X76081341Y-57992568D01*
X76125535Y-58010874D01*
X76696898Y-58582237D01*
X76715204Y-58626431D01*
X76715204Y-59012511D01*
X76696898Y-59056705D01*
X76652704Y-59075011D01*
X76608510Y-59056705D01*
X76347816Y-58796010D01*
X76329510Y-58751816D01*
X76329510Y-58645439D01*
X76329510Y-58645438D01*
X76329510Y-58643636D01*
X76326818Y-58620434D01*
X76297432Y-58553880D01*
X76284913Y-58525525D01*
X76211552Y-58452164D01*
X76116642Y-58410259D01*
X76095244Y-58407776D01*
X76095225Y-58407774D01*
X76093442Y-58407568D01*
X74710578Y-58407568D01*
X74708795Y-58407774D01*
X74708775Y-58407776D01*
X74687377Y-58410259D01*
X74592467Y-58452164D01*
X74519106Y-58525525D01*
X74477201Y-58620435D01*
X74474718Y-58641833D01*
X74474716Y-58641853D01*
X74474510Y-58643636D01*
X74474510Y-59026500D01*
X74474716Y-59028283D01*
X74474718Y-59028302D01*
X74477201Y-59049700D01*
X74519106Y-59144610D01*
X74592467Y-59217971D01*
X74619150Y-59229752D01*
X74687376Y-59259876D01*
X74695433Y-59260810D01*
X74708775Y-59262359D01*
X74708778Y-59262359D01*
X74710578Y-59262568D01*
X74712381Y-59262568D01*
X76091639Y-59262568D01*
X76093442Y-59262568D01*
X76095242Y-59262359D01*
X76095244Y-59262359D01*
X76116641Y-59259877D01*
X76116643Y-59259876D01*
X76116644Y-59259876D01*
X76184870Y-59229751D01*
X76232692Y-59228648D01*
X76254308Y-59242733D01*
X76442898Y-59431323D01*
X76461204Y-59475517D01*
X76461204Y-60172725D01*
X76442898Y-60216919D01*
X76398704Y-60235225D01*
X76354510Y-60216919D01*
X76347816Y-60210225D01*
X76329510Y-60166031D01*
X76329510Y-59915439D01*
X76329510Y-59913636D01*
X76326818Y-59890434D01*
X76284913Y-59795526D01*
X76284913Y-59795525D01*
X76211552Y-59722164D01*
X76116642Y-59680259D01*
X76095244Y-59677776D01*
X76095225Y-59677774D01*
X76093442Y-59677568D01*
X74710578Y-59677568D01*
X74708795Y-59677774D01*
X74708775Y-59677776D01*
X74687377Y-59680259D01*
X74592467Y-59722164D01*
X74519106Y-59795525D01*
X74477201Y-59890435D01*
X74474718Y-59911833D01*
X74474716Y-59911853D01*
X74474510Y-59913636D01*
X74474510Y-60296500D01*
X74474716Y-60298283D01*
X74474718Y-60298302D01*
X74477201Y-60319700D01*
X74519106Y-60414610D01*
X74592467Y-60487971D01*
X74627247Y-60503327D01*
X74687376Y-60529876D01*
X74695433Y-60530810D01*
X74708775Y-60532359D01*
X74708778Y-60532359D01*
X74710578Y-60532568D01*
X74712381Y-60532568D01*
X76091639Y-60532568D01*
X76093442Y-60532568D01*
X76095664Y-60532310D01*
X76096107Y-60532259D01*
X76096255Y-60532301D01*
X76097041Y-60532256D01*
X76096317Y-60532318D01*
X76142117Y-60545346D01*
X76147509Y-60550148D01*
X76188897Y-60591536D01*
X76207203Y-60635730D01*
X76207204Y-60894328D01*
X76188898Y-60938522D01*
X76144704Y-60956828D01*
X76119460Y-60951503D01*
X76116642Y-60950259D01*
X76095244Y-60947776D01*
X76095225Y-60947774D01*
X76093442Y-60947568D01*
X74710578Y-60947568D01*
X74708795Y-60947774D01*
X74708775Y-60947776D01*
X74687377Y-60950259D01*
X74592467Y-60992164D01*
X74519106Y-61065525D01*
X74477201Y-61160435D01*
X74474718Y-61181833D01*
X74474716Y-61181853D01*
X74474510Y-61183636D01*
X74474510Y-61185439D01*
X74474510Y-61451311D01*
X74456204Y-61495505D01*
X73603142Y-62348566D01*
X73586071Y-62360680D01*
X73585596Y-62360908D01*
X73567292Y-62383860D01*
X73562628Y-62389081D01*
X73557470Y-62394239D01*
X73553596Y-62400405D01*
X73549542Y-62406118D01*
X73531234Y-62429075D01*
X73531117Y-62429590D01*
X73523109Y-62448926D01*
X73522827Y-62449373D01*
X73519540Y-62478549D01*
X73518367Y-62485454D01*
X73516746Y-62492558D01*
X73516746Y-62499842D01*
X73516353Y-62506839D01*
X73513066Y-62536013D01*
X73513239Y-62536508D01*
X73516746Y-62557150D01*
X73516746Y-66987047D01*
X73498440Y-67031241D01*
X73454246Y-67049547D01*
X73410052Y-67031241D01*
X70264762Y-63885951D01*
X70246456Y-63841757D01*
X70246456Y-61302119D01*
X70249963Y-61281477D01*
X70250136Y-61280983D01*
X70246849Y-61251808D01*
X70246456Y-61244811D01*
X70246456Y-61237530D01*
X70246456Y-61237527D01*
X70244831Y-61230410D01*
X70243659Y-61223508D01*
X70240374Y-61194343D01*
X70240374Y-61194342D01*
X70240093Y-61193896D01*
X70232082Y-61174552D01*
X70231967Y-61174045D01*
X70221205Y-61160550D01*
X70213659Y-61151087D01*
X70209609Y-61145380D01*
X70205731Y-61139208D01*
X70200577Y-61134054D01*
X70195916Y-61128839D01*
X70177605Y-61105878D01*
X70177604Y-61105877D01*
X70177602Y-61105875D01*
X70177126Y-61105646D01*
X70160057Y-61093533D01*
X69147816Y-60081292D01*
X69129510Y-60037098D01*
X69129510Y-59915439D01*
X69129510Y-59915438D01*
X69129510Y-59913636D01*
X69126818Y-59890434D01*
X69084913Y-59795526D01*
X69084913Y-59795525D01*
X69011552Y-59722164D01*
X68916642Y-59680259D01*
X68895244Y-59677776D01*
X68895225Y-59677774D01*
X68893442Y-59677568D01*
X67510578Y-59677568D01*
X67508795Y-59677774D01*
X67508775Y-59677776D01*
X67487377Y-59680259D01*
X67484560Y-59681503D01*
X67436737Y-59682607D01*
X67402141Y-59649572D01*
X67396816Y-59624328D01*
X67396816Y-59315807D01*
X67415122Y-59271613D01*
X67459316Y-59253307D01*
X67484562Y-59258633D01*
X67487376Y-59259876D01*
X67499083Y-59261234D01*
X67508775Y-59262359D01*
X67508778Y-59262359D01*
X67510578Y-59262568D01*
X67512381Y-59262568D01*
X68891639Y-59262568D01*
X68893442Y-59262568D01*
X68895242Y-59262359D01*
X68895244Y-59262359D01*
X68900529Y-59261745D01*
X68916644Y-59259876D01*
X69011552Y-59217971D01*
X69084913Y-59144610D01*
X69126818Y-59049702D01*
X69129510Y-59026500D01*
X69129510Y-58643636D01*
X69126818Y-58620434D01*
X69097432Y-58553880D01*
X69084913Y-58525525D01*
X69011552Y-58452164D01*
X68916642Y-58410259D01*
X68895244Y-58407776D01*
X68895225Y-58407774D01*
X68893442Y-58407568D01*
X67510578Y-58407568D01*
X67508795Y-58407774D01*
X67508775Y-58407776D01*
X67487377Y-58410259D01*
X67392467Y-58452164D01*
X67319106Y-58525525D01*
X67277201Y-58620435D01*
X67274718Y-58641833D01*
X67274716Y-58641853D01*
X67274510Y-58643636D01*
X67274510Y-58645439D01*
X67274510Y-58751816D01*
X67256204Y-58796010D01*
X67149957Y-58902257D01*
X67105763Y-58920563D01*
X67061569Y-58902257D01*
X67043263Y-58858063D01*
X67043263Y-58160856D01*
X67061568Y-58116663D01*
X67267171Y-57911060D01*
X67311363Y-57892755D01*
X67355557Y-57911061D01*
X67392467Y-57947971D01*
X67439921Y-57968923D01*
X67487376Y-57989876D01*
X67494487Y-57990701D01*
X67508775Y-57992359D01*
X67508778Y-57992359D01*
X67510578Y-57992568D01*
X67512381Y-57992568D01*
X68891639Y-57992568D01*
X68893442Y-57992568D01*
X68895242Y-57992359D01*
X68895244Y-57992359D01*
X68900529Y-57991745D01*
X68916644Y-57989876D01*
X69011552Y-57947971D01*
X69084913Y-57874610D01*
X69126818Y-57779702D01*
X69129510Y-57756500D01*
X69129510Y-57373636D01*
X69127821Y-57359083D01*
X69126818Y-57350435D01*
X69084913Y-57255525D01*
X69011552Y-57182164D01*
X68916642Y-57140259D01*
X68895244Y-57137776D01*
X68895225Y-57137774D01*
X68893442Y-57137568D01*
X68891639Y-57137568D01*
X68455510Y-57137568D01*
X68411316Y-57119262D01*
X68393010Y-57075068D01*
X68393010Y-56308973D01*
X68411315Y-56264780D01*
X68481758Y-56194337D01*
X68525950Y-56176032D01*
X68534108Y-56176567D01*
X68538927Y-56177201D01*
X68538929Y-56177202D01*
X68586625Y-56183481D01*
X69063374Y-56183480D01*
X69111071Y-56177202D01*
X69215744Y-56128392D01*
X69297411Y-56046725D01*
X69346221Y-55942052D01*
X69352500Y-55894356D01*
X69352500Y-55707981D01*
X72148001Y-55707981D01*
X72148001Y-55864386D01*
X72157968Y-55932805D01*
X72209565Y-56038349D01*
X72292631Y-56121415D01*
X72398175Y-56173012D01*
X72466594Y-56182980D01*
X72597999Y-56182980D01*
X72598000Y-56182979D01*
X72598000Y-55707981D01*
X72852000Y-55707981D01*
X72852000Y-56182980D01*
X72983405Y-56182980D01*
X73051824Y-56173012D01*
X73157368Y-56121415D01*
X73240434Y-56038349D01*
X73292031Y-55932805D01*
X73302000Y-55864385D01*
X73302000Y-55707981D01*
X72852000Y-55707981D01*
X72598000Y-55707981D01*
X72148001Y-55707981D01*
X69352500Y-55707981D01*
X69352499Y-55453981D01*
X72148000Y-55453981D01*
X72598000Y-55453981D01*
X72598000Y-54978981D01*
X72852000Y-54978981D01*
X72852000Y-55453981D01*
X73301999Y-55453981D01*
X73301999Y-55297575D01*
X73292031Y-55229156D01*
X73240434Y-55123612D01*
X73157368Y-55040546D01*
X73051824Y-54988949D01*
X72983405Y-54978981D01*
X72852000Y-54978981D01*
X72598000Y-54978981D01*
X72466594Y-54978981D01*
X72398175Y-54988949D01*
X72292631Y-55040546D01*
X72209565Y-55123612D01*
X72157968Y-55229156D01*
X72148000Y-55297576D01*
X72148000Y-55453981D01*
X69352499Y-55453981D01*
X69352499Y-55267607D01*
X69346221Y-55219910D01*
X69339376Y-55205231D01*
X69297411Y-55115236D01*
X69215744Y-55033569D01*
X69111070Y-54984759D01*
X69065408Y-54978748D01*
X69065398Y-54978747D01*
X69063375Y-54978481D01*
X69061328Y-54978481D01*
X68588662Y-54978481D01*
X68588646Y-54978481D01*
X68586626Y-54978482D01*
X68584613Y-54978746D01*
X68584597Y-54978748D01*
X68538929Y-54984759D01*
X68434255Y-55033569D01*
X68352588Y-55115236D01*
X68303778Y-55219910D01*
X68297767Y-55265572D01*
X68297767Y-55265578D01*
X68297500Y-55267606D01*
X68297500Y-55269651D01*
X68297500Y-55269652D01*
X68297500Y-55812477D01*
X68279194Y-55856671D01*
X68097406Y-56038458D01*
X68080335Y-56050572D01*
X68079860Y-56050800D01*
X68061556Y-56073752D01*
X68056892Y-56078973D01*
X68051734Y-56084131D01*
X68047860Y-56090297D01*
X68043806Y-56096010D01*
X68025498Y-56118967D01*
X68025381Y-56119482D01*
X68017373Y-56138818D01*
X68017091Y-56139265D01*
X68013804Y-56168441D01*
X68012631Y-56175346D01*
X68011010Y-56182450D01*
X68011010Y-56189734D01*
X68010617Y-56196731D01*
X68007330Y-56225905D01*
X68007503Y-56226400D01*
X68011010Y-56247042D01*
X68011010Y-57075068D01*
X67992704Y-57119262D01*
X67948510Y-57137568D01*
X67510578Y-57137568D01*
X67508795Y-57137774D01*
X67508775Y-57137776D01*
X67487377Y-57140259D01*
X67392467Y-57182164D01*
X67319106Y-57255525D01*
X67273383Y-57359083D01*
X67272449Y-57358670D01*
X67254134Y-57391675D01*
X67235089Y-57406863D01*
X67229375Y-57410918D01*
X67223209Y-57414792D01*
X67218051Y-57419950D01*
X67212830Y-57424614D01*
X67189878Y-57442918D01*
X67189650Y-57443393D01*
X67177536Y-57460464D01*
X66747659Y-57890341D01*
X66730588Y-57902455D01*
X66730113Y-57902683D01*
X66711809Y-57925635D01*
X66707145Y-57930856D01*
X66701987Y-57936014D01*
X66698113Y-57942180D01*
X66694059Y-57947893D01*
X66675751Y-57970850D01*
X66675634Y-57971365D01*
X66667626Y-57990701D01*
X66667344Y-57991148D01*
X66664057Y-58020324D01*
X66662884Y-58027229D01*
X66661263Y-58034333D01*
X66661263Y-58041617D01*
X66660870Y-58048614D01*
X66657583Y-58077788D01*
X66657756Y-58078283D01*
X66661263Y-58098925D01*
X66661263Y-61947833D01*
X66657756Y-61968474D01*
X66657583Y-61968968D01*
X66660870Y-61998141D01*
X66661263Y-62005139D01*
X66661263Y-62012424D01*
X66662884Y-62019528D01*
X66664057Y-62026434D01*
X66667344Y-62055609D01*
X66667622Y-62056051D01*
X66675634Y-62075393D01*
X66675750Y-62075905D01*
X66694054Y-62098856D01*
X66698111Y-62104574D01*
X66701988Y-62110744D01*
X66707139Y-62115895D01*
X66711811Y-62121123D01*
X66725086Y-62137770D01*
X66730114Y-62144074D01*
X66730588Y-62144302D01*
X66747661Y-62156417D01*
X69506329Y-64915085D01*
X69524635Y-64959279D01*
X69506329Y-65003473D01*
X69462135Y-65021779D01*
X69449943Y-65020578D01*
X69362492Y-65003184D01*
X69258313Y-65023905D01*
X69192288Y-65068022D01*
X69143289Y-65117022D01*
X69143289Y-65117023D01*
X69476690Y-65450424D01*
X69494996Y-65494618D01*
X69476690Y-65538812D01*
X69385473Y-65630029D01*
X69341279Y-65648335D01*
X69297085Y-65630029D01*
X68963684Y-65296628D01*
X68914683Y-65345627D01*
X68870566Y-65411652D01*
X68862054Y-65454446D01*
X68835478Y-65494219D01*
X68788561Y-65503551D01*
X68756561Y-65486446D01*
X66209306Y-62939191D01*
X66191000Y-62894997D01*
X66191000Y-59043070D01*
X66194507Y-59022427D01*
X66194680Y-59021935D01*
X66191393Y-58992760D01*
X66191000Y-58985763D01*
X66191000Y-58978482D01*
X66191000Y-58978479D01*
X66189375Y-58971362D01*
X66188203Y-58964460D01*
X66188077Y-58963344D01*
X66184918Y-58935294D01*
X66184637Y-58934848D01*
X66176626Y-58915504D01*
X66176511Y-58914997D01*
X66176509Y-58914994D01*
X66158203Y-58892039D01*
X66154153Y-58886332D01*
X66150275Y-58880160D01*
X66145121Y-58875006D01*
X66140460Y-58869791D01*
X66122149Y-58846830D01*
X66122146Y-58846828D01*
X66121671Y-58846599D01*
X66104600Y-58834485D01*
X63495805Y-56225690D01*
X63477499Y-56181496D01*
X63477499Y-55453981D01*
X63477500Y-54637442D01*
X63470102Y-54600252D01*
X63441922Y-54558078D01*
X63399748Y-54529898D01*
X63362558Y-54522500D01*
X61637442Y-54522500D01*
X61618846Y-54526199D01*
X61600251Y-54529898D01*
X61558078Y-54558078D01*
X61529898Y-54600251D01*
X61522499Y-54637442D01*
X61522499Y-56362557D01*
X61529898Y-56399748D01*
X61558078Y-56441922D01*
X61600252Y-56470102D01*
X61637442Y-56477500D01*
X63181497Y-56477500D01*
X63225691Y-56495806D01*
X65790694Y-59060808D01*
X65809000Y-59105002D01*
X65809000Y-60927997D01*
X65790694Y-60972191D01*
X65746500Y-60990497D01*
X65702306Y-60972191D01*
X63349163Y-58619049D01*
X63330857Y-58574855D01*
X63338236Y-58545395D01*
X63407462Y-58415883D01*
X63463357Y-58231624D01*
X63482230Y-58040000D01*
X63463357Y-57848376D01*
X63407462Y-57664117D01*
X63407461Y-57664116D01*
X63407461Y-57664114D01*
X63328356Y-57516121D01*
X63316694Y-57494302D01*
X63194541Y-57345459D01*
X63045698Y-57223306D01*
X62968729Y-57182165D01*
X62875885Y-57132538D01*
X62691622Y-57076642D01*
X62520933Y-57059831D01*
X62500000Y-57057770D01*
X62499999Y-57057770D01*
X62308377Y-57076642D01*
X62124114Y-57132538D01*
X61954303Y-57223305D01*
X61805459Y-57345459D01*
X61683305Y-57494303D01*
X61592538Y-57664114D01*
X61536642Y-57848377D01*
X61517770Y-58040000D01*
X61536642Y-58231622D01*
X61592538Y-58415885D01*
X61661762Y-58545392D01*
X61683306Y-58585698D01*
X61805459Y-58734541D01*
X61954302Y-58856694D01*
X62015047Y-58889163D01*
X62124114Y-58947461D01*
X62124116Y-58947461D01*
X62124117Y-58947462D01*
X62308376Y-59003357D01*
X62500000Y-59022230D01*
X62691624Y-59003357D01*
X62875883Y-58947462D01*
X63005394Y-58878236D01*
X63052997Y-58873548D01*
X63079049Y-58889163D01*
X65476279Y-61286393D01*
X65494585Y-61330587D01*
X65494585Y-63093683D01*
X65476279Y-63137877D01*
X65432085Y-63156183D01*
X65387891Y-63137877D01*
X63370028Y-61120014D01*
X63351722Y-61075820D01*
X63359102Y-61046357D01*
X63387844Y-60992585D01*
X63407462Y-60955883D01*
X63463357Y-60771624D01*
X63482230Y-60580000D01*
X63463357Y-60388376D01*
X63407462Y-60204117D01*
X63407461Y-60204116D01*
X63407461Y-60204114D01*
X63359324Y-60114058D01*
X63316694Y-60034302D01*
X63194541Y-59885459D01*
X63045698Y-59763306D01*
X62968729Y-59722165D01*
X62875885Y-59672538D01*
X62691622Y-59616642D01*
X62520933Y-59599831D01*
X62500000Y-59597770D01*
X62499999Y-59597770D01*
X62308377Y-59616642D01*
X62124114Y-59672538D01*
X61954303Y-59763305D01*
X61805459Y-59885459D01*
X61683305Y-60034303D01*
X61592538Y-60204114D01*
X61536642Y-60388377D01*
X61517770Y-60579999D01*
X61536642Y-60771622D01*
X61592538Y-60955885D01*
X61662748Y-61087237D01*
X61683306Y-61125698D01*
X61805459Y-61274541D01*
X61954302Y-61396694D01*
X62034058Y-61439324D01*
X62124114Y-61487461D01*
X62124116Y-61487461D01*
X62124117Y-61487462D01*
X62308376Y-61543357D01*
X62500000Y-61562230D01*
X62691624Y-61543357D01*
X62875883Y-61487462D01*
X63044428Y-61397372D01*
X63092032Y-61392684D01*
X63118083Y-61408299D01*
X64532090Y-62822306D01*
X64550396Y-62866500D01*
X64532090Y-62910694D01*
X64487896Y-62929000D01*
X63509899Y-62929000D01*
X63465705Y-62910694D01*
X63450091Y-62884644D01*
X63407462Y-62744117D01*
X63407461Y-62744116D01*
X63407461Y-62744114D01*
X63326792Y-62593194D01*
X63316694Y-62574302D01*
X63194541Y-62425459D01*
X63045698Y-62303306D01*
X63035396Y-62297799D01*
X62875885Y-62212538D01*
X62691622Y-62156642D01*
X62520933Y-62139831D01*
X62500000Y-62137770D01*
X62499999Y-62137770D01*
X62308377Y-62156642D01*
X62124114Y-62212538D01*
X61954303Y-62303305D01*
X61805459Y-62425459D01*
X61683305Y-62574303D01*
X61592538Y-62744114D01*
X61536642Y-62928377D01*
X61517770Y-63120000D01*
X61536642Y-63311622D01*
X61592538Y-63495885D01*
X61677799Y-63655396D01*
X61683306Y-63665698D01*
X61805459Y-63814541D01*
X61954302Y-63936694D01*
X61986676Y-63953998D01*
X62124114Y-64027461D01*
X62124116Y-64027461D01*
X62124117Y-64027462D01*
X62308376Y-64083357D01*
X62500000Y-64102230D01*
X62691624Y-64083357D01*
X62875883Y-64027462D01*
X63045698Y-63936694D01*
X63194541Y-63814541D01*
X63316694Y-63665698D01*
X63407462Y-63495883D01*
X63450090Y-63355355D01*
X63480437Y-63318380D01*
X63509899Y-63311000D01*
X64429210Y-63311000D01*
X64473404Y-63329306D01*
X66506404Y-65362306D01*
X66524710Y-65406500D01*
X66506404Y-65450694D01*
X66462210Y-65469000D01*
X63509899Y-65469000D01*
X63465705Y-65450694D01*
X63450091Y-65424644D01*
X63407462Y-65284117D01*
X63407461Y-65284116D01*
X63407461Y-65284114D01*
X63325341Y-65130480D01*
X63316694Y-65114302D01*
X63194541Y-64965459D01*
X63045698Y-64843306D01*
X63035396Y-64837799D01*
X62875885Y-64752538D01*
X62691622Y-64696642D01*
X62520933Y-64679831D01*
X62500000Y-64677770D01*
X62499999Y-64677770D01*
X62308377Y-64696642D01*
X62124114Y-64752538D01*
X61954303Y-64843305D01*
X61805459Y-64965459D01*
X61683305Y-65114303D01*
X61592538Y-65284114D01*
X61536642Y-65468377D01*
X61517770Y-65660000D01*
X61536642Y-65851622D01*
X61592538Y-66035885D01*
X61662383Y-66166554D01*
X61683306Y-66205698D01*
X61805459Y-66354541D01*
X61954302Y-66476694D01*
X62015461Y-66509384D01*
X62124114Y-66567461D01*
X62124116Y-66567461D01*
X62124117Y-66567462D01*
X62308376Y-66623357D01*
X62500000Y-66642230D01*
X62691624Y-66623357D01*
X62875883Y-66567462D01*
X63045698Y-66476694D01*
X63194541Y-66354541D01*
X63316694Y-66205698D01*
X63407462Y-66035883D01*
X63450090Y-65895355D01*
X63480437Y-65858380D01*
X63509899Y-65851000D01*
X66610000Y-65851000D01*
X66654194Y-65869306D01*
X67464284Y-66679396D01*
X67482590Y-66723590D01*
X67464284Y-66767784D01*
X67420090Y-66786090D01*
X63765981Y-66786090D01*
X63745339Y-66782583D01*
X63744845Y-66782410D01*
X63744844Y-66782410D01*
X63715671Y-66785697D01*
X63708674Y-66786090D01*
X63701389Y-66786090D01*
X63694285Y-66787711D01*
X63687380Y-66788884D01*
X63658204Y-66792171D01*
X63657757Y-66792453D01*
X63638421Y-66800461D01*
X63637906Y-66800578D01*
X63614949Y-66818886D01*
X63609236Y-66822940D01*
X63603070Y-66826814D01*
X63597912Y-66831972D01*
X63592691Y-66836636D01*
X63569739Y-66854940D01*
X63569511Y-66855415D01*
X63557397Y-66872486D01*
X63079048Y-67350835D01*
X63034854Y-67369141D01*
X63005392Y-67361761D01*
X62875885Y-67292538D01*
X62691622Y-67236642D01*
X62520933Y-67219831D01*
X62500000Y-67217770D01*
X62499999Y-67217770D01*
X62308377Y-67236642D01*
X62124114Y-67292538D01*
X61954303Y-67383305D01*
X61805459Y-67505459D01*
X61683305Y-67654303D01*
X61592538Y-67824114D01*
X61536642Y-68008377D01*
X61517770Y-68200000D01*
X61536642Y-68391622D01*
X61592538Y-68575885D01*
X61652097Y-68687310D01*
X61683306Y-68745698D01*
X61805459Y-68894541D01*
X61954302Y-69016694D01*
X62001162Y-69041741D01*
X62124114Y-69107461D01*
X62124116Y-69107461D01*
X62124117Y-69107462D01*
X62308376Y-69163357D01*
X62500000Y-69182230D01*
X62691624Y-69163357D01*
X62875883Y-69107462D01*
X63045698Y-69016694D01*
X63194541Y-68894541D01*
X63316694Y-68745698D01*
X63407462Y-68575883D01*
X63463357Y-68391624D01*
X63482230Y-68200000D01*
X63463357Y-68008376D01*
X63407462Y-67824117D01*
X63407461Y-67824116D01*
X63407461Y-67824114D01*
X63338237Y-67694606D01*
X63333548Y-67647001D01*
X63349161Y-67620952D01*
X63783718Y-67186396D01*
X63827913Y-67168090D01*
X65650907Y-67168090D01*
X65695101Y-67186396D01*
X65713407Y-67230590D01*
X65695101Y-67274784D01*
X63079048Y-69890835D01*
X63034854Y-69909141D01*
X63005392Y-69901761D01*
X62875885Y-69832538D01*
X62691622Y-69776642D01*
X62507107Y-69758470D01*
X62500000Y-69757770D01*
X62499999Y-69757770D01*
X62308377Y-69776642D01*
X62124114Y-69832538D01*
X61954303Y-69923305D01*
X61805459Y-70045459D01*
X61683305Y-70194303D01*
X61592538Y-70364114D01*
X61536642Y-70548377D01*
X61517770Y-70739999D01*
X61536642Y-70931622D01*
X61592538Y-71115885D01*
X61645053Y-71214132D01*
X61683306Y-71285698D01*
X61805459Y-71434541D01*
X61954302Y-71556694D01*
X62034058Y-71599324D01*
X62124114Y-71647461D01*
X62124116Y-71647461D01*
X62124117Y-71647462D01*
X62308376Y-71703357D01*
X62500000Y-71722230D01*
X62691624Y-71703357D01*
X62875883Y-71647462D01*
X63045698Y-71556694D01*
X63194541Y-71434541D01*
X63316694Y-71285698D01*
X63407462Y-71115883D01*
X63463357Y-70931624D01*
X63482230Y-70740000D01*
X63463357Y-70548376D01*
X63407462Y-70364117D01*
X63407461Y-70364116D01*
X63407461Y-70364114D01*
X63338237Y-70234606D01*
X63333548Y-70187001D01*
X63349161Y-70160952D01*
X65363846Y-68146268D01*
X66219408Y-68146268D01*
X66240129Y-68250446D01*
X66284244Y-68316468D01*
X66312034Y-68344257D01*
X66531237Y-68125055D01*
X66333247Y-67927065D01*
X66284246Y-67976064D01*
X66240129Y-68042089D01*
X66219408Y-68146268D01*
X65363846Y-68146268D01*
X65762654Y-67747460D01*
X66512852Y-67747460D01*
X66710841Y-67945449D01*
X66930044Y-67726247D01*
X66902256Y-67698459D01*
X66836233Y-67654342D01*
X66732055Y-67633621D01*
X66627876Y-67654342D01*
X66561851Y-67698459D01*
X66512852Y-67747459D01*
X66512852Y-67747460D01*
X65762654Y-67747460D01*
X66050808Y-67459306D01*
X66095003Y-67441000D01*
X67481580Y-67441000D01*
X67525774Y-67459306D01*
X67690694Y-67624225D01*
X67709000Y-67668419D01*
X67709000Y-68012796D01*
X67690694Y-68056990D01*
X67646500Y-68075296D01*
X67629801Y-68070485D01*
X67589703Y-68065967D01*
X67582797Y-68064794D01*
X67579567Y-68064057D01*
X67575694Y-68063173D01*
X67575693Y-68063173D01*
X67568409Y-68063173D01*
X67561412Y-68062780D01*
X67532238Y-68059493D01*
X67531744Y-68059666D01*
X67511102Y-68063173D01*
X67290183Y-68063173D01*
X67269541Y-68059666D01*
X67269046Y-68059492D01*
X67252199Y-68061391D01*
X67206233Y-68048148D01*
X67183902Y-68011474D01*
X67181552Y-67999661D01*
X67137439Y-67933641D01*
X67109649Y-67905852D01*
X66491639Y-68523862D01*
X66519429Y-68551653D01*
X66552072Y-68573465D01*
X66578647Y-68613238D01*
X66569314Y-68660155D01*
X66561542Y-68669625D01*
X62889136Y-72342032D01*
X62844942Y-72360338D01*
X62826800Y-72357647D01*
X62691623Y-72316642D01*
X62518871Y-72299628D01*
X62500000Y-72297770D01*
X62499999Y-72297770D01*
X62308377Y-72316642D01*
X62124114Y-72372538D01*
X61954303Y-72463305D01*
X61805459Y-72585459D01*
X61683305Y-72734303D01*
X61592538Y-72904114D01*
X61536642Y-73088377D01*
X61517770Y-73280000D01*
X61536642Y-73471622D01*
X61592538Y-73655885D01*
X61667459Y-73796051D01*
X61683306Y-73825698D01*
X61805459Y-73974541D01*
X61954302Y-74096694D01*
X62007016Y-74124870D01*
X62124114Y-74187461D01*
X62124116Y-74187461D01*
X62124117Y-74187462D01*
X62308376Y-74243357D01*
X62500000Y-74262230D01*
X62691624Y-74243357D01*
X62875883Y-74187462D01*
X62932533Y-74157181D01*
X62980136Y-74152493D01*
X63017114Y-74182839D01*
X63021803Y-74230444D01*
X63006188Y-74256496D01*
X62432526Y-74830158D01*
X62394459Y-74848163D01*
X62308377Y-74856642D01*
X62124114Y-74912538D01*
X61954303Y-75003305D01*
X61805459Y-75125459D01*
X61683305Y-75274303D01*
X61592538Y-75444114D01*
X61536642Y-75628377D01*
X61517770Y-75820000D01*
X61536642Y-76011622D01*
X61592538Y-76195885D01*
X61668562Y-76338114D01*
X61683306Y-76365698D01*
X61805459Y-76514541D01*
X61954302Y-76636694D01*
X62028877Y-76676555D01*
X62124114Y-76727461D01*
X62124116Y-76727461D01*
X62124117Y-76727462D01*
X62308376Y-76783357D01*
X62500000Y-76802230D01*
X62691624Y-76783357D01*
X62875883Y-76727462D01*
X63045698Y-76636694D01*
X63194541Y-76514541D01*
X63238687Y-76460748D01*
X63280874Y-76438199D01*
X63326649Y-76452085D01*
X63349199Y-76494272D01*
X63349500Y-76500398D01*
X63349500Y-77214496D01*
X63331194Y-77258690D01*
X63079048Y-77510835D01*
X63034854Y-77529141D01*
X63005392Y-77521761D01*
X62875885Y-77452538D01*
X62691622Y-77396642D01*
X62520933Y-77379831D01*
X62500000Y-77377770D01*
X62499999Y-77377770D01*
X62308377Y-77396642D01*
X62124114Y-77452538D01*
X61954303Y-77543305D01*
X61805459Y-77665459D01*
X61683305Y-77814303D01*
X61592538Y-77984114D01*
X61536642Y-78168377D01*
X61517770Y-78360000D01*
X61536642Y-78551622D01*
X61592538Y-78735885D01*
X61666472Y-78874204D01*
X61683306Y-78905698D01*
X61805459Y-79054541D01*
X61954302Y-79176694D01*
X62034058Y-79219324D01*
X62124114Y-79267461D01*
X62124116Y-79267461D01*
X62124117Y-79267462D01*
X62308376Y-79323357D01*
X62500000Y-79342230D01*
X62691624Y-79323357D01*
X62875883Y-79267462D01*
X63045698Y-79176694D01*
X63194541Y-79054541D01*
X63316694Y-78905698D01*
X63407462Y-78735883D01*
X63463357Y-78551624D01*
X63478800Y-78394816D01*
X63496273Y-78362126D01*
X63478800Y-78325184D01*
X63463357Y-78168376D01*
X63407462Y-77984117D01*
X63407461Y-77984116D01*
X63407461Y-77984114D01*
X63338237Y-77854606D01*
X63333548Y-77807001D01*
X63349161Y-77780952D01*
X63496807Y-77633306D01*
X63540999Y-77615002D01*
X63585193Y-77633308D01*
X63603499Y-77677502D01*
X63603499Y-78319056D01*
X63586602Y-78359846D01*
X63589312Y-78361294D01*
X63603499Y-78400944D01*
X63603499Y-79500496D01*
X63585193Y-79544690D01*
X63079048Y-80050835D01*
X63034854Y-80069141D01*
X63005392Y-80061761D01*
X62875885Y-79992538D01*
X62691622Y-79936642D01*
X62520682Y-79919807D01*
X62500000Y-79917770D01*
X62499999Y-79917770D01*
X62308377Y-79936642D01*
X62124114Y-79992538D01*
X61954303Y-80083305D01*
X61805459Y-80205459D01*
X61683305Y-80354303D01*
X61592538Y-80524114D01*
X61536642Y-80708377D01*
X61517770Y-80899999D01*
X61536642Y-81091622D01*
X61592538Y-81275885D01*
X61656782Y-81396076D01*
X61683306Y-81445698D01*
X61805459Y-81594541D01*
X61954302Y-81716694D01*
X62034058Y-81759324D01*
X62124114Y-81807461D01*
X62124116Y-81807461D01*
X62124117Y-81807462D01*
X62308376Y-81863357D01*
X62500000Y-81882230D01*
X62691624Y-81863357D01*
X62875883Y-81807462D01*
X63045698Y-81716694D01*
X63194541Y-81594541D01*
X63316694Y-81445698D01*
X63407462Y-81275883D01*
X63463357Y-81091624D01*
X63482230Y-80900000D01*
X63463357Y-80708376D01*
X63407462Y-80524117D01*
X63407461Y-80524116D01*
X63407461Y-80524114D01*
X63338237Y-80394606D01*
X63333548Y-80347001D01*
X63349161Y-80320952D01*
X63750309Y-79919805D01*
X63794500Y-79901501D01*
X63838694Y-79919807D01*
X63857000Y-79964001D01*
X63857000Y-81786995D01*
X63838694Y-81831189D01*
X63079048Y-82590835D01*
X63034854Y-82609141D01*
X63005392Y-82601761D01*
X62875885Y-82532538D01*
X62691622Y-82476642D01*
X62520933Y-82459831D01*
X62500000Y-82457770D01*
X62499999Y-82457770D01*
X62308377Y-82476642D01*
X62124114Y-82532538D01*
X61954303Y-82623305D01*
X61805459Y-82745459D01*
X61683305Y-82894303D01*
X61592538Y-83064114D01*
X61536642Y-83248377D01*
X61517770Y-83440000D01*
X60800500Y-83440000D01*
X60800500Y-52627000D01*
X61293282Y-52627000D01*
X61293282Y-53012508D01*
X61300650Y-53049552D01*
X61328720Y-53091561D01*
X61370729Y-53119631D01*
X61407773Y-53127000D01*
X61668282Y-53127000D01*
X61668282Y-52627000D01*
X61922282Y-52627000D01*
X61922282Y-53127000D01*
X62182791Y-53127000D01*
X62219834Y-53119631D01*
X62261843Y-53091561D01*
X62289913Y-53049552D01*
X62297272Y-53012558D01*
X65042782Y-53012558D01*
X65050180Y-53049748D01*
X65078360Y-53091922D01*
X65120534Y-53120102D01*
X65157724Y-53127500D01*
X65291782Y-53127500D01*
X65335976Y-53145806D01*
X65354282Y-53190000D01*
X65354282Y-53908192D01*
X65350775Y-53928833D01*
X65350602Y-53929327D01*
X65353889Y-53958500D01*
X65354282Y-53965498D01*
X65354282Y-53972783D01*
X65355903Y-53979887D01*
X65357076Y-53986793D01*
X65360363Y-54015968D01*
X65360641Y-54016410D01*
X65368653Y-54035752D01*
X65368769Y-54036264D01*
X65387073Y-54059215D01*
X65391130Y-54064933D01*
X65395007Y-54071103D01*
X65400158Y-54076254D01*
X65404829Y-54081480D01*
X65423133Y-54104433D01*
X65423607Y-54104661D01*
X65440680Y-54116776D01*
X66629194Y-55305290D01*
X66647500Y-55349484D01*
X66647500Y-55892318D01*
X66647500Y-55892333D01*
X66647501Y-55894355D01*
X66647766Y-55896368D01*
X66647767Y-55896383D01*
X66653778Y-55942051D01*
X66702588Y-56046725D01*
X66784255Y-56128392D01*
X66880984Y-56173497D01*
X66888929Y-56177202D01*
X66936625Y-56183481D01*
X67413374Y-56183480D01*
X67461071Y-56177202D01*
X67565744Y-56128392D01*
X67647411Y-56046725D01*
X67696221Y-55942052D01*
X67702500Y-55894356D01*
X67702499Y-55267607D01*
X67696221Y-55219910D01*
X67689376Y-55205231D01*
X67647411Y-55115236D01*
X67565744Y-55033569D01*
X67461070Y-54984759D01*
X67415408Y-54978748D01*
X67415398Y-54978747D01*
X67413375Y-54978481D01*
X67411328Y-54978481D01*
X66938662Y-54978481D01*
X66938646Y-54978481D01*
X66936626Y-54978482D01*
X66934615Y-54978746D01*
X66934595Y-54978748D01*
X66884107Y-54985394D01*
X66837902Y-54973013D01*
X66831757Y-54967623D01*
X65841133Y-53977000D01*
X72148001Y-53977000D01*
X72148001Y-54133405D01*
X72157968Y-54201824D01*
X72209565Y-54307368D01*
X72292631Y-54390434D01*
X72398175Y-54442031D01*
X72466594Y-54451999D01*
X72597999Y-54451999D01*
X72598000Y-54451998D01*
X72598000Y-53977000D01*
X72852000Y-53977000D01*
X72852000Y-54451999D01*
X72983405Y-54451999D01*
X73051824Y-54442031D01*
X73157368Y-54390434D01*
X73240434Y-54307368D01*
X73292031Y-54201824D01*
X73302000Y-54133404D01*
X73302000Y-53977000D01*
X72852000Y-53977000D01*
X72598000Y-53977000D01*
X72148001Y-53977000D01*
X65841133Y-53977000D01*
X65754587Y-53890454D01*
X65736281Y-53846260D01*
X65736281Y-53723000D01*
X72148000Y-53723000D01*
X72598000Y-53723000D01*
X72598000Y-53248000D01*
X72852000Y-53248000D01*
X72852000Y-53723000D01*
X73301999Y-53723000D01*
X73301999Y-53566594D01*
X73292031Y-53498175D01*
X73240434Y-53392631D01*
X73157368Y-53309565D01*
X73051824Y-53257968D01*
X72983405Y-53248000D01*
X72852000Y-53248000D01*
X72598000Y-53248000D01*
X72466594Y-53248000D01*
X72398175Y-53257968D01*
X72292631Y-53309565D01*
X72209565Y-53392631D01*
X72157968Y-53498175D01*
X72148000Y-53566595D01*
X72148000Y-53723000D01*
X65736281Y-53723000D01*
X65736282Y-53190000D01*
X65754588Y-53145806D01*
X65798782Y-53127500D01*
X65932839Y-53127500D01*
X65932840Y-53127500D01*
X65970030Y-53120102D01*
X66012204Y-53091922D01*
X66040384Y-53049748D01*
X66047782Y-53012558D01*
X66047782Y-51987442D01*
X66040384Y-51950252D01*
X66012204Y-51908078D01*
X65970030Y-51879898D01*
X65932840Y-51872500D01*
X65932839Y-51872500D01*
X65798782Y-51872500D01*
X65754588Y-51854194D01*
X65736282Y-51810000D01*
X65736282Y-47190000D01*
X65754588Y-47145806D01*
X65798782Y-47127500D01*
X65932839Y-47127500D01*
X65932840Y-47127500D01*
X65970030Y-47120102D01*
X66012204Y-47091922D01*
X66040384Y-47049748D01*
X66047782Y-47012558D01*
X66047782Y-45987442D01*
X66040384Y-45950252D01*
X66012204Y-45908078D01*
X65970030Y-45879898D01*
X65932840Y-45872500D01*
X65157724Y-45872500D01*
X65139129Y-45876199D01*
X65120533Y-45879898D01*
X65078360Y-45908078D01*
X65050180Y-45950251D01*
X65044505Y-45978782D01*
X65042782Y-45987442D01*
X65042782Y-47012558D01*
X65050180Y-47049748D01*
X65078360Y-47091922D01*
X65120534Y-47120102D01*
X65157724Y-47127500D01*
X65291782Y-47127500D01*
X65335976Y-47145806D01*
X65354282Y-47190000D01*
X65354282Y-51810000D01*
X65335976Y-51854194D01*
X65291782Y-51872500D01*
X65157724Y-51872500D01*
X65148917Y-51874252D01*
X65120533Y-51879898D01*
X65078360Y-51908078D01*
X65050180Y-51950251D01*
X65050179Y-51950252D01*
X65050180Y-51950252D01*
X65042782Y-51987442D01*
X65042782Y-53012558D01*
X62297272Y-53012558D01*
X62297282Y-53012508D01*
X62297282Y-52627000D01*
X61922282Y-52627000D01*
X61668282Y-52627000D01*
X61293282Y-52627000D01*
X60800500Y-52627000D01*
X60800500Y-52373000D01*
X61293282Y-52373000D01*
X61668282Y-52373000D01*
X61668282Y-51873000D01*
X61922282Y-51873000D01*
X61922282Y-52373000D01*
X62297282Y-52373000D01*
X62297282Y-51987491D01*
X62289913Y-51950447D01*
X62261843Y-51908438D01*
X62219834Y-51880368D01*
X62182791Y-51873000D01*
X61922282Y-51873000D01*
X61668282Y-51873000D01*
X61407773Y-51873000D01*
X61370729Y-51880368D01*
X61328720Y-51908438D01*
X61300650Y-51950447D01*
X61293282Y-51987491D01*
X61293282Y-52373000D01*
X60800500Y-52373000D01*
X60800500Y-46627000D01*
X61293282Y-46627000D01*
X61293282Y-47012508D01*
X61300650Y-47049552D01*
X61328720Y-47091561D01*
X61370729Y-47119631D01*
X61407773Y-47127000D01*
X61668282Y-47127000D01*
X61668282Y-46627000D01*
X61922282Y-46627000D01*
X61922282Y-47127000D01*
X62182791Y-47127000D01*
X62219834Y-47119631D01*
X62261843Y-47091561D01*
X62289913Y-47049552D01*
X62297282Y-47012508D01*
X62297282Y-46627000D01*
X61922282Y-46627000D01*
X61668282Y-46627000D01*
X61293282Y-46627000D01*
X60800500Y-46627000D01*
X60800500Y-46373000D01*
X61293282Y-46373000D01*
X61668282Y-46373000D01*
X61668282Y-45873000D01*
X61922282Y-45873000D01*
X61922282Y-46373000D01*
X62297282Y-46373000D01*
X62297282Y-45987491D01*
X62289913Y-45950447D01*
X62261843Y-45908438D01*
X62219834Y-45880368D01*
X62182791Y-45873000D01*
X61922282Y-45873000D01*
X61668282Y-45873000D01*
X61407773Y-45873000D01*
X61370729Y-45880368D01*
X61328720Y-45908438D01*
X61300650Y-45950447D01*
X61293282Y-45987491D01*
X61293282Y-46373000D01*
X60800500Y-46373000D01*
X60800500Y-43352000D01*
X61751828Y-43352000D01*
X61751828Y-43483405D01*
X61761795Y-43551824D01*
X61813392Y-43657368D01*
X61896458Y-43740434D01*
X62002002Y-43792031D01*
X62070421Y-43801999D01*
X62226826Y-43801999D01*
X62226827Y-43801998D01*
X62226827Y-43352000D01*
X62480827Y-43352000D01*
X62480827Y-43801999D01*
X62637232Y-43801999D01*
X62705651Y-43792031D01*
X62811195Y-43740434D01*
X62894261Y-43657368D01*
X62945858Y-43551824D01*
X62955827Y-43483404D01*
X62955827Y-43352000D01*
X62480827Y-43352000D01*
X62226827Y-43352000D01*
X61751828Y-43352000D01*
X60800500Y-43352000D01*
X60800500Y-43177000D01*
X63426828Y-43177000D01*
X63426828Y-43239551D01*
X63427035Y-43243150D01*
X63429513Y-43264517D01*
X63471344Y-43359255D01*
X63544571Y-43432482D01*
X63639309Y-43474312D01*
X63660682Y-43476792D01*
X63664273Y-43476999D01*
X64089325Y-43476999D01*
X64089326Y-43476998D01*
X64089327Y-43177000D01*
X64343327Y-43177000D01*
X64343327Y-43476999D01*
X64768378Y-43476999D01*
X64771977Y-43476791D01*
X64793344Y-43474313D01*
X64888082Y-43432482D01*
X64961309Y-43359255D01*
X65003139Y-43264517D01*
X65005619Y-43243144D01*
X65005827Y-43239553D01*
X65005827Y-43177000D01*
X64343327Y-43177000D01*
X64089327Y-43177000D01*
X63426828Y-43177000D01*
X60800500Y-43177000D01*
X60800500Y-43098000D01*
X61751827Y-43098000D01*
X62226827Y-43098000D01*
X62226827Y-42648000D01*
X62480827Y-42648000D01*
X62480827Y-43098000D01*
X62955826Y-43098000D01*
X62955826Y-42966594D01*
X62949475Y-42923000D01*
X63426827Y-42923000D01*
X64089326Y-42923000D01*
X64089326Y-42623000D01*
X64343327Y-42623000D01*
X64343327Y-42923000D01*
X65005826Y-42923000D01*
X65005826Y-42860449D01*
X65005618Y-42856849D01*
X65003140Y-42835482D01*
X64961309Y-42740744D01*
X64888082Y-42667517D01*
X64793344Y-42625687D01*
X64771971Y-42623207D01*
X64768381Y-42623000D01*
X64343327Y-42623000D01*
X64089326Y-42623000D01*
X63664276Y-42623000D01*
X63660676Y-42623208D01*
X63639309Y-42625686D01*
X63544571Y-42667517D01*
X63471344Y-42740744D01*
X63429514Y-42835482D01*
X63427034Y-42856855D01*
X63426827Y-42860446D01*
X63426827Y-42923000D01*
X62949475Y-42923000D01*
X62945858Y-42898175D01*
X62894261Y-42792631D01*
X62811195Y-42709565D01*
X62705651Y-42657968D01*
X62637232Y-42648000D01*
X62480827Y-42648000D01*
X62226827Y-42648000D01*
X62070421Y-42648000D01*
X62002002Y-42657968D01*
X61896458Y-42709565D01*
X61813392Y-42792631D01*
X61761795Y-42898175D01*
X61751827Y-42966595D01*
X61751827Y-43098000D01*
X60800500Y-43098000D01*
X60800500Y-42363000D01*
X60818806Y-42318806D01*
X60863000Y-42300500D01*
X81237000Y-42300500D01*
X81281194Y-42318806D01*
G37*
%TD.AperFunction*%
%TA.AperFunction,Conductor*%
G36*
X70879583Y-85168806D02*
G01*
X70897889Y-85213000D01*
X70879583Y-85257194D01*
X70875039Y-85261313D01*
X70820811Y-85305816D01*
X70698724Y-85454580D01*
X70608003Y-85624307D01*
X70552136Y-85808477D01*
X70545782Y-85873000D01*
X71031182Y-85873000D01*
X71015000Y-85928111D01*
X71015000Y-86071889D01*
X71031182Y-86127000D01*
X70545782Y-86127000D01*
X70552136Y-86191522D01*
X70608003Y-86375692D01*
X70698724Y-86545419D01*
X70820811Y-86694183D01*
X70875039Y-86738687D01*
X70897588Y-86780874D01*
X70883702Y-86826650D01*
X70841515Y-86849199D01*
X70835389Y-86849500D01*
X70015000Y-86849500D01*
X69970806Y-86831194D01*
X69952500Y-86787000D01*
X69952500Y-85213000D01*
X69970806Y-85168806D01*
X70015000Y-85150500D01*
X70835389Y-85150500D01*
X70879583Y-85168806D01*
G37*
%TD.AperFunction*%
%TA.AperFunction,Conductor*%
G36*
X73418795Y-85168806D02*
G01*
X73437101Y-85213000D01*
X73418795Y-85257194D01*
X73414251Y-85261313D01*
X73360459Y-85305459D01*
X73238305Y-85454303D01*
X73147538Y-85624114D01*
X73091642Y-85808377D01*
X73072770Y-86000000D01*
X73091642Y-86191622D01*
X73147538Y-86375885D01*
X73213879Y-86499999D01*
X73238306Y-86545698D01*
X73360459Y-86694541D01*
X73408508Y-86733974D01*
X73414251Y-86738687D01*
X73436800Y-86780874D01*
X73422914Y-86826650D01*
X73380727Y-86849199D01*
X73374601Y-86849500D01*
X72194611Y-86849500D01*
X72150417Y-86831194D01*
X72132111Y-86787000D01*
X72150417Y-86742806D01*
X72154961Y-86738687D01*
X72209188Y-86694183D01*
X72331275Y-86545419D01*
X72421996Y-86375692D01*
X72477863Y-86191522D01*
X72484218Y-86127000D01*
X71998818Y-86127000D01*
X72015000Y-86071889D01*
X72015000Y-85928111D01*
X71998818Y-85873000D01*
X72484217Y-85873000D01*
X72477863Y-85808477D01*
X72421996Y-85624307D01*
X72331275Y-85454580D01*
X72209188Y-85305816D01*
X72154961Y-85261313D01*
X72132412Y-85219126D01*
X72146298Y-85173350D01*
X72188485Y-85150801D01*
X72194611Y-85150500D01*
X73374601Y-85150500D01*
X73418795Y-85168806D01*
G37*
%TD.AperFunction*%
%TD*%
%TA.AperFunction,Conductor*%
%TO.N,GND*%
G36*
X74828427Y-72000000D02*
G01*
X72544553Y-74283874D01*
X71455447Y-74283874D01*
X69171573Y-72000000D01*
X72000000Y-69171573D01*
X74828427Y-72000000D01*
G37*
%TD.AperFunction*%
%TD*%
M02*
