M48
; DRILL file {KiCad 7.0.2} date di 01 aug 2023 17:34:10 CEST
; FORMAT={-:-/ absolute / inch / decimal}
; #@! TF.CreationDate,2023-08-01T17:34:10+02:00
; #@! TF.GenerationSoftware,Kicad,Pcbnew,7.0.2
; #@! TF.FileFunction,Plated,1,2,PTH
FMAT,2
INCH
; #@! TA.AperFunction,Plated,PTH,ViaDrill
T1C0.0118
; #@! TA.AperFunction,Plated,PTH,ViaDrill
T2C0.0157
; #@! TA.AperFunction,Plated,PTH,ComponentDrill
T3C0.0236
; #@! TA.AperFunction,Plated,PTH,ComponentDrill
T4C0.0394
; #@! TA.AperFunction,Plated,PTH,ComponentDrill
T5C0.0571
; #@! TA.AperFunction,Plated,PTH,ComponentDrill
T6C0.0591
; #@! TA.AperFunction,Plated,PTH,ComponentDrill
T7C0.0669
%
G90
G05
T1
X2.4311Y-1.939
X2.4311Y-1.9783
X2.5295Y-1.5059
X2.5689Y-1.9882
X2.6181Y-2.1161
X2.6259Y-2.7372
X2.6259Y-3.2661
X2.6378Y-1.7126
X2.6378Y-1.7913
X2.6398Y-2.9878
X2.6537Y-2.6676
X2.6676Y-3.0852
X2.6676Y-3.3079
X2.6815Y-2.4449
X2.7024Y-3.12
X2.7094Y-2.4449
X2.7094Y-2.5563
X2.7233Y-2.8346
X2.7372Y-2.4171
X2.7372Y-3.127
X2.752Y-3.0138
X2.7748Y-2.63
X2.779Y-2.779
X2.779Y-2.8903
X2.779Y-3.1687
X2.815Y-2.9528
X2.8268Y-3.0472
X2.8346Y-1.8209
X2.8346Y-2.7233
X2.8346Y-3.4252
X2.8445Y-1.6437
X2.8625Y-2.083
X2.8625Y-2.1526
X2.8625Y-2.2222
X2.8834Y-2.8973
X2.8903Y-2.779
X2.9251Y-2.8138
X2.9251Y-2.8555
X2.9321Y-3.0434
X3.0017Y-2.5563
X3.0086Y-3.0226
X3.0156Y-2.598
X3.0413Y-2.626
X3.113Y-2.9182
X3.127Y-2.7094
X3.1548Y-2.7372
X3.1548Y-2.8486
T2
X2.4114Y-1.7815
X2.9921Y-1.7891
X3.0571Y-1.8918
T4
X2.4606Y-2.185
X2.4606Y-2.285
X2.4606Y-2.385
X2.4606Y-2.485
X2.4606Y-2.585
X2.4606Y-2.685
X2.4606Y-2.785
X2.4606Y-2.885
X2.4606Y-2.985
X2.4606Y-3.085
X2.4606Y-3.185
X2.4606Y-3.285
X2.4606Y-3.385
X2.4606Y-3.485
X2.4606Y-3.585
X3.1299Y-3.1874
X3.1299Y-3.2874
X3.1299Y-3.3874
T5
X2.7703Y-3.513
T6
X2.7203Y-3.613
X2.8203Y-3.613
X2.8703Y-3.513
T7
X2.3228Y-2.211
X2.3228Y-2.3669
X2.3228Y-2.5228
X2.3228Y-2.6787
X2.3228Y-2.8346
X2.3228Y-2.9906
X2.3228Y-3.1465
X2.3228Y-3.3024
X2.3228Y-3.4583
T3
G00X2.9756Y-1.5622
M15
G01X2.9323Y-1.5622
M16
G05
G00X2.9756Y-1.9024
M15
G01X2.9323Y-1.9024
M16
G05
T0
M30
