%TF.GenerationSoftware,KiCad,Pcbnew,7.0.2*%
%TF.CreationDate,2023-08-01T17:34:10+02:00*%
%TF.ProjectId,playstation_adapter,706c6179-7374-4617-9469-6f6e5f616461,0.9*%
%TF.SameCoordinates,Original*%
%TF.FileFunction,Legend,Bot*%
%TF.FilePolarity,Positive*%
%FSLAX46Y46*%
G04 Gerber Fmt 4.6, Leading zero omitted, Abs format (unit mm)*
G04 Created by KiCad (PCBNEW 7.0.2) date 2023-08-01 17:34:10*
%MOMM*%
%LPD*%
G01*
G04 APERTURE LIST*
G04 Aperture macros list*
%AMRoundRect*
0 Rectangle with rounded corners*
0 $1 Rounding radius*
0 $2 $3 $4 $5 $6 $7 $8 $9 X,Y pos of 4 corners*
0 Add a 4 corners polygon primitive as box body*
4,1,4,$2,$3,$4,$5,$6,$7,$8,$9,$2,$3,0*
0 Add four circle primitives for the rounded corners*
1,1,$1+$1,$2,$3*
1,1,$1+$1,$4,$5*
1,1,$1+$1,$6,$7*
1,1,$1+$1,$8,$9*
0 Add four rect primitives between the rounded corners*
20,1,$1+$1,$2,$3,$4,$5,0*
20,1,$1+$1,$4,$5,$6,$7,0*
20,1,$1+$1,$6,$7,$8,$9,0*
20,1,$1+$1,$8,$9,$2,$3,0*%
G04 Aperture macros list end*
%ADD10C,0.120000*%
%ADD11C,0.600000*%
%ADD12O,2.000000X0.900000*%
%ADD13R,1.700000X1.700000*%
%ADD14O,1.700000X1.700000*%
%ADD15C,2.200000*%
%ADD16C,2.550000*%
%ADD17C,1.850000*%
%ADD18RoundRect,0.250000X-0.450000X0.262500X-0.450000X-0.262500X0.450000X-0.262500X0.450000X0.262500X0*%
%ADD19RoundRect,0.250001X1.099999X-1.099999X1.099999X1.099999X-1.099999X1.099999X-1.099999X-1.099999X0*%
%ADD20C,2.700000*%
G04 APERTURE END LIST*
D10*
%TO.C,R2*%
X57735000Y-46685436D02*
X57735000Y-47139564D01*
X56265000Y-46685436D02*
X56265000Y-47139564D01*
%TO.C,J4*%
X59300000Y-52330000D02*
X58700000Y-52330000D01*
X58700000Y-52330000D02*
X59000000Y-52930000D01*
X59000000Y-52930000D02*
X59300000Y-52330000D01*
X56750000Y-49750000D02*
X82750000Y-49750000D01*
X82750000Y-49750000D02*
X82750000Y-94250000D01*
X82750000Y-94250000D02*
X56750000Y-94250000D01*
X56750000Y-94250000D02*
X56750000Y-49750000D01*
%TD*%
%LPC*%
D11*
%TO.C,J3*%
X75550000Y-46890000D03*
X75550000Y-41110000D03*
D12*
X75030000Y-48320000D03*
X75030000Y-39680000D03*
%TD*%
D13*
%TO.C,J2*%
X62500000Y-55500000D03*
D14*
X62500000Y-58040000D03*
X62500000Y-60580000D03*
X62500000Y-63120000D03*
X62500000Y-65660000D03*
X62500000Y-68200000D03*
X62500000Y-70740000D03*
X62500000Y-73280000D03*
X62500000Y-75820000D03*
X62500000Y-78360000D03*
X62500000Y-80900000D03*
X62500000Y-83440000D03*
X62500000Y-85980000D03*
X62500000Y-88520000D03*
X62500000Y-91060000D03*
%TD*%
D15*
%TO.C,SWD1*%
X74135000Y-91770000D03*
D16*
X67865000Y-89230000D03*
D17*
X69095000Y-91770000D03*
X70365000Y-89230000D03*
X71635000Y-91770000D03*
X72905000Y-89230000D03*
%TD*%
D13*
%TO.C,J1*%
X79500000Y-80960000D03*
D14*
X79500000Y-83500000D03*
X79500000Y-86040000D03*
%TD*%
D18*
%TO.C,R2*%
X57000000Y-46000000D03*
X57000000Y-47825000D03*
%TD*%
D19*
%TO.C,J4*%
X59000000Y-87840000D03*
D20*
X59000000Y-83880000D03*
X59000000Y-79920000D03*
X59000000Y-75960000D03*
X59000000Y-72000000D03*
X59000000Y-68040000D03*
X59000000Y-64080000D03*
X59000000Y-60120000D03*
X59000000Y-56160000D03*
%TD*%
%LPD*%
M02*
