%TF.GenerationSoftware,KiCad,Pcbnew,7.0.2*%
%TF.CreationDate,2023-08-01T17:34:10+02:00*%
%TF.ProjectId,playstation_adapter,706c6179-7374-4617-9469-6f6e5f616461,0.9*%
%TF.SameCoordinates,Original*%
%TF.FileFunction,Soldermask,Top*%
%TF.FilePolarity,Negative*%
%FSLAX46Y46*%
G04 Gerber Fmt 4.6, Leading zero omitted, Abs format (unit mm)*
G04 Created by KiCad (PCBNEW 7.0.2) date 2023-08-01 17:34:10*
%MOMM*%
%LPD*%
G01*
G04 APERTURE LIST*
G04 Aperture macros list*
%AMRoundRect*
0 Rectangle with rounded corners*
0 $1 Rounding radius*
0 $2 $3 $4 $5 $6 $7 $8 $9 X,Y pos of 4 corners*
0 Add a 4 corners polygon primitive as box body*
4,1,4,$2,$3,$4,$5,$6,$7,$8,$9,$2,$3,0*
0 Add four circle primitives for the rounded corners*
1,1,$1+$1,$2,$3*
1,1,$1+$1,$4,$5*
1,1,$1+$1,$6,$7*
1,1,$1+$1,$8,$9*
0 Add four rect primitives between the rounded corners*
20,1,$1+$1,$2,$3,$4,$5,0*
20,1,$1+$1,$4,$5,$6,$7,0*
20,1,$1+$1,$6,$7,$8,$9,0*
20,1,$1+$1,$8,$9,$2,$3,0*%
%AMRotRect*
0 Rectangle, with rotation*
0 The origin of the aperture is its center*
0 $1 length*
0 $2 width*
0 $3 Rotation angle, in degrees counterclockwise*
0 Add horizontal line*
21,1,$1,$2,0,0,$3*%
G04 Aperture macros list end*
%ADD10R,1.200000X1.400000*%
%ADD11RoundRect,0.140000X0.170000X-0.140000X0.170000X0.140000X-0.170000X0.140000X-0.170000X-0.140000X0*%
%ADD12RoundRect,0.150000X-0.150000X0.512500X-0.150000X-0.512500X0.150000X-0.512500X0.150000X0.512500X0*%
%ADD13RoundRect,0.140000X0.021213X-0.219203X0.219203X-0.021213X-0.021213X0.219203X-0.219203X0.021213X0*%
%ADD14RoundRect,0.225000X0.225000X0.250000X-0.225000X0.250000X-0.225000X-0.250000X0.225000X-0.250000X0*%
%ADD15RoundRect,0.225000X-0.225000X-0.250000X0.225000X-0.250000X0.225000X0.250000X-0.225000X0.250000X0*%
%ADD16RoundRect,0.140000X-0.170000X0.140000X-0.170000X-0.140000X0.170000X-0.140000X0.170000X0.140000X0*%
%ADD17RoundRect,0.140000X-0.021213X0.219203X-0.219203X0.021213X0.021213X-0.219203X0.219203X-0.021213X0*%
%ADD18RoundRect,0.140000X0.219203X0.021213X0.021213X0.219203X-0.219203X-0.021213X-0.021213X-0.219203X0*%
%ADD19R,1.000000X0.750000*%
%ADD20R,2.000000X1.500000*%
%ADD21R,2.000000X3.800000*%
%ADD22RoundRect,0.135000X0.135000X0.185000X-0.135000X0.185000X-0.135000X-0.185000X0.135000X-0.185000X0*%
%ADD23RoundRect,0.135000X-0.035355X0.226274X-0.226274X0.035355X0.035355X-0.226274X0.226274X-0.035355X0*%
%ADD24C,0.600000*%
%ADD25R,1.040000X0.600000*%
%ADD26R,1.090000X0.600000*%
%ADD27R,1.160000X0.300000*%
%ADD28R,2.000000X2.000000*%
%ADD29O,2.000000X0.900000*%
%ADD30R,1.700000X1.700000*%
%ADD31O,1.700000X1.700000*%
%ADD32RoundRect,0.150000X-0.650000X-0.150000X0.650000X-0.150000X0.650000X0.150000X-0.650000X0.150000X0*%
%ADD33RoundRect,0.135000X-0.185000X0.135000X-0.185000X-0.135000X0.185000X-0.135000X0.185000X0.135000X0*%
%ADD34RoundRect,0.140000X-0.219203X-0.021213X-0.021213X-0.219203X0.219203X0.021213X0.021213X0.219203X0*%
%ADD35RoundRect,0.050000X-0.309359X0.238649X0.238649X-0.309359X0.309359X-0.238649X-0.238649X0.309359X0*%
%ADD36RoundRect,0.050000X-0.309359X-0.238649X-0.238649X-0.309359X0.309359X0.238649X0.238649X0.309359X0*%
%ADD37RotRect,3.200000X3.200000X315.000000*%
%ADD38RoundRect,0.200000X0.200000X0.275000X-0.200000X0.275000X-0.200000X-0.275000X0.200000X-0.275000X0*%
%ADD39RoundRect,0.135000X-0.135000X-0.185000X0.135000X-0.185000X0.135000X0.185000X-0.135000X0.185000X0*%
%ADD40RoundRect,0.200000X-0.200000X-0.275000X0.200000X-0.275000X0.200000X0.275000X-0.200000X0.275000X0*%
%ADD41C,2.200000*%
%ADD42C,2.550000*%
%ADD43C,1.850000*%
%ADD44RoundRect,0.250001X1.099999X-1.099999X1.099999X1.099999X-1.099999X1.099999X-1.099999X-1.099999X0*%
%ADD45C,2.700000*%
G04 APERTURE END LIST*
D10*
%TO.C,Y1*%
X67770030Y-80643931D03*
X67770030Y-82843931D03*
X69470030Y-82843931D03*
X69470030Y-80643931D03*
%TD*%
D11*
%TO.C,C16*%
X71120030Y-82223931D03*
X71120030Y-81263931D03*
%TD*%
D12*
%TO.C,U2*%
X72350000Y-42862500D03*
X71400000Y-42862500D03*
X70450000Y-42862500D03*
X70450000Y-45137500D03*
X71400000Y-45137500D03*
X72350000Y-45137500D03*
%TD*%
D13*
%TO.C,C14*%
X78731657Y-70925197D03*
X79410479Y-70246375D03*
%TD*%
D14*
%TO.C,C17*%
X74275000Y-53850000D03*
X72725000Y-53850000D03*
%TD*%
D15*
%TO.C,C1*%
X65437500Y-44500000D03*
X66987500Y-44500000D03*
%TD*%
D13*
%TO.C,C11*%
X75196123Y-67389664D03*
X75874945Y-66710842D03*
%TD*%
D16*
%TO.C,C15*%
X66120030Y-81263931D03*
X66120030Y-82223931D03*
%TD*%
D17*
%TO.C,C3*%
X69312994Y-77515433D03*
X68634172Y-78194255D03*
%TD*%
D14*
%TO.C,C2*%
X66762500Y-49500000D03*
X65212500Y-49500000D03*
%TD*%
D13*
%TO.C,C4*%
X74998133Y-66173440D03*
X75676955Y-65494618D03*
%TD*%
D18*
%TO.C,C7*%
X67389664Y-68803877D03*
X66710842Y-68125055D03*
%TD*%
D19*
%TO.C,SW1*%
X63000000Y-41875000D03*
X57000000Y-41875000D03*
X63000000Y-38125000D03*
X57000000Y-38125000D03*
%TD*%
D20*
%TO.C,U1*%
X63137500Y-49800000D03*
D21*
X56837500Y-47500000D03*
D20*
X63137500Y-47500000D03*
X63137500Y-45200000D03*
%TD*%
D22*
%TO.C,R8*%
X72010000Y-41000000D03*
X70990000Y-41000000D03*
%TD*%
D23*
%TO.C,R4*%
X78017478Y-68810949D03*
X77296230Y-69532197D03*
%TD*%
D24*
%TO.C,J3*%
X75550000Y-46890000D03*
X75550000Y-41110000D03*
D25*
X74430000Y-47200000D03*
D26*
X74455000Y-46400000D03*
D27*
X74490000Y-45250000D03*
X74490000Y-44250000D03*
X74490000Y-43750000D03*
X74490000Y-42750000D03*
D26*
X74455000Y-41600000D03*
D25*
X74430000Y-40800000D03*
X74430000Y-40800000D03*
D26*
X74455000Y-41600000D03*
D27*
X74490000Y-42250000D03*
X74490000Y-43250000D03*
X74490000Y-44750000D03*
X74490000Y-45750000D03*
D26*
X74455000Y-46400000D03*
D25*
X74430000Y-47200000D03*
D28*
X79230000Y-48750000D03*
D29*
X75030000Y-48320000D03*
X75030000Y-39680000D03*
D28*
X79230000Y-39250000D03*
%TD*%
D17*
%TO.C,C8*%
X68605887Y-76808326D03*
X67927065Y-77487148D03*
%TD*%
D30*
%TO.C,J2*%
X62500000Y-55500000D03*
D31*
X62500000Y-58040000D03*
X62500000Y-60580000D03*
X62500000Y-63120000D03*
X62500000Y-65660000D03*
X62500000Y-68200000D03*
X62500000Y-70740000D03*
X62500000Y-73280000D03*
X62500000Y-75820000D03*
X62500000Y-78360000D03*
X62500000Y-80900000D03*
X62500000Y-83440000D03*
X62500000Y-85980000D03*
X62500000Y-88520000D03*
X62500000Y-91060000D03*
%TD*%
D32*
%TO.C,U4*%
X68202010Y-57565068D03*
X68202010Y-58835068D03*
X68202010Y-60105068D03*
X68202010Y-61375068D03*
X75402010Y-61375068D03*
X75402010Y-60105068D03*
X75402010Y-58835068D03*
X75402010Y-57565068D03*
%TD*%
D13*
%TO.C,C12*%
X75903230Y-68096770D03*
X76582052Y-67417948D03*
%TD*%
D22*
%TO.C,R9*%
X59760000Y-92250000D03*
X58740000Y-92250000D03*
%TD*%
D33*
%TO.C,R7*%
X72750000Y-46740000D03*
X72750000Y-47760000D03*
%TD*%
D13*
%TO.C,C5*%
X79438764Y-71632304D03*
X80117586Y-70953482D03*
%TD*%
D18*
%TO.C,C6*%
X70020101Y-66173440D03*
X69341279Y-65494618D03*
%TD*%
D34*
%TO.C,C10*%
X78887220Y-72919239D03*
X79566042Y-73598061D03*
%TD*%
D23*
%TO.C,R3*%
X77310371Y-68103842D03*
X76589123Y-68825090D03*
%TD*%
D13*
%TO.C,C13*%
X78024550Y-70218091D03*
X78703372Y-69539269D03*
%TD*%
D35*
%TO.C,U3*%
X71407798Y-67730843D03*
X71124955Y-68013686D03*
X70842113Y-68296528D03*
X70559270Y-68579371D03*
X70276427Y-68862214D03*
X69993585Y-69145056D03*
X69710742Y-69427899D03*
X69427899Y-69710742D03*
X69145056Y-69993585D03*
X68862214Y-70276427D03*
X68579371Y-70559270D03*
X68296528Y-70842113D03*
X68013686Y-71124955D03*
X67730843Y-71407798D03*
D36*
X67730843Y-72592202D03*
X68013686Y-72875045D03*
X68296528Y-73157887D03*
X68579371Y-73440730D03*
X68862214Y-73723573D03*
X69145056Y-74006415D03*
X69427899Y-74289258D03*
X69710742Y-74572101D03*
X69993585Y-74854944D03*
X70276427Y-75137786D03*
X70559270Y-75420629D03*
X70842113Y-75703472D03*
X71124955Y-75986314D03*
X71407798Y-76269157D03*
D35*
X72592202Y-76269157D03*
X72875045Y-75986314D03*
X73157887Y-75703472D03*
X73440730Y-75420629D03*
X73723573Y-75137786D03*
X74006415Y-74854944D03*
X74289258Y-74572101D03*
X74572101Y-74289258D03*
X74854944Y-74006415D03*
X75137786Y-73723573D03*
X75420629Y-73440730D03*
X75703472Y-73157887D03*
X75986314Y-72875045D03*
X76269157Y-72592202D03*
D36*
X76269157Y-71407798D03*
X75986314Y-71124955D03*
X75703472Y-70842113D03*
X75420629Y-70559270D03*
X75137786Y-70276427D03*
X74854944Y-69993585D03*
X74572101Y-69710742D03*
X74289258Y-69427899D03*
X74006415Y-69145056D03*
X73723573Y-68862214D03*
X73440730Y-68579371D03*
X73157887Y-68296528D03*
X72875045Y-68013686D03*
X72592202Y-67730843D03*
D37*
X72000000Y-72000000D03*
%TD*%
D34*
%TO.C,C9*%
X75196123Y-76610336D03*
X75874945Y-77289158D03*
%TD*%
D14*
%TO.C,C18*%
X74275000Y-55580981D03*
X72725000Y-55580981D03*
%TD*%
D23*
%TO.C,R5*%
X67919993Y-76080007D03*
X67198745Y-76801255D03*
%TD*%
D38*
%TO.C,R6*%
X68825000Y-55580981D03*
X67175000Y-55580981D03*
%TD*%
D39*
%TO.C,R10*%
X60599999Y-51800000D03*
X61619999Y-51800000D03*
%TD*%
D40*
%TO.C,R1*%
X65162500Y-47500000D03*
X66812500Y-47500000D03*
%TD*%
D41*
%TO.C,SWD1*%
X74135000Y-91770000D03*
D42*
X67865000Y-89230000D03*
D43*
X69095000Y-91770000D03*
X70365000Y-89230000D03*
X71635000Y-91770000D03*
X72905000Y-89230000D03*
%TD*%
D30*
%TO.C,J1*%
X79500000Y-80960000D03*
D31*
X79500000Y-83500000D03*
X79500000Y-86040000D03*
%TD*%
D44*
%TO.C,J4*%
X59000000Y-87840000D03*
D45*
X59000000Y-83880000D03*
X59000000Y-79920000D03*
X59000000Y-75960000D03*
X59000000Y-72000000D03*
X59000000Y-68040000D03*
X59000000Y-64080000D03*
X59000000Y-60120000D03*
X59000000Y-56160000D03*
%TD*%
M02*
