%TF.GenerationSoftware,KiCad,Pcbnew,7.0.2*%
%TF.CreationDate,2023-08-01T17:34:10+02:00*%
%TF.ProjectId,playstation_adapter,706c6179-7374-4617-9469-6f6e5f616461,0.9*%
%TF.SameCoordinates,Original*%
%TF.FileFunction,Copper,L2,Bot*%
%TF.FilePolarity,Positive*%
%FSLAX46Y46*%
G04 Gerber Fmt 4.6, Leading zero omitted, Abs format (unit mm)*
G04 Created by KiCad (PCBNEW 7.0.2) date 2023-08-01 17:34:10*
%MOMM*%
%LPD*%
G01*
G04 APERTURE LIST*
G04 Aperture macros list*
%AMRoundRect*
0 Rectangle with rounded corners*
0 $1 Rounding radius*
0 $2 $3 $4 $5 $6 $7 $8 $9 X,Y pos of 4 corners*
0 Add a 4 corners polygon primitive as box body*
4,1,4,$2,$3,$4,$5,$6,$7,$8,$9,$2,$3,0*
0 Add four circle primitives for the rounded corners*
1,1,$1+$1,$2,$3*
1,1,$1+$1,$4,$5*
1,1,$1+$1,$6,$7*
1,1,$1+$1,$8,$9*
0 Add four rect primitives between the rounded corners*
20,1,$1+$1,$2,$3,$4,$5,0*
20,1,$1+$1,$4,$5,$6,$7,0*
20,1,$1+$1,$6,$7,$8,$9,0*
20,1,$1+$1,$8,$9,$2,$3,0*%
G04 Aperture macros list end*
%TA.AperFunction,ComponentPad*%
%ADD10O,2.000000X0.900000*%
%TD*%
%TA.AperFunction,ComponentPad*%
%ADD11R,1.700000X1.700000*%
%TD*%
%TA.AperFunction,ComponentPad*%
%ADD12O,1.700000X1.700000*%
%TD*%
%TA.AperFunction,ComponentPad*%
%ADD13C,1.850000*%
%TD*%
%TA.AperFunction,SMDPad,CuDef*%
%ADD14RoundRect,0.250000X-0.450000X0.262500X-0.450000X-0.262500X0.450000X-0.262500X0.450000X0.262500X0*%
%TD*%
%TA.AperFunction,ComponentPad*%
%ADD15RoundRect,0.250001X1.099999X-1.099999X1.099999X1.099999X-1.099999X1.099999X-1.099999X-1.099999X0*%
%TD*%
%TA.AperFunction,ComponentPad*%
%ADD16C,2.700000*%
%TD*%
%TA.AperFunction,ViaPad*%
%ADD17C,0.500000*%
%TD*%
%TA.AperFunction,ViaPad*%
%ADD18C,0.800000*%
%TD*%
%TA.AperFunction,Conductor*%
%ADD19C,0.300000*%
%TD*%
%TA.AperFunction,Conductor*%
%ADD20C,0.127000*%
%TD*%
G04 APERTURE END LIST*
D10*
%TO.P,J3,S1,SHIELD*%
%TO.N,GND*%
X75030000Y-48320000D03*
X75030000Y-39680000D03*
%TD*%
D11*
%TO.P,J2,1,Pin_1*%
%TO.N,/RP2040-base/GPIO1*%
X62500000Y-55500000D03*
D12*
%TO.P,J2,2,Pin_2*%
%TO.N,/RP2040-base/GPIO2*%
X62500000Y-58040000D03*
%TO.P,J2,3,Pin_3*%
%TO.N,/RP2040-base/GPIO3*%
X62500000Y-60580000D03*
%TO.P,J2,4,Pin_4*%
%TO.N,/RP2040-base/GPIO4*%
X62500000Y-63120000D03*
%TO.P,J2,5,Pin_5*%
%TO.N,/RP2040-base/GPIO5*%
X62500000Y-65660000D03*
%TO.P,J2,6,Pin_6*%
%TO.N,/RP2040-base/GPIO6*%
X62500000Y-68200000D03*
%TO.P,J2,7,Pin_7*%
%TO.N,/RP2040-base/GPIO7*%
X62500000Y-70740000D03*
%TO.P,J2,8,Pin_8*%
%TO.N,/RP2040-base/GPIO8*%
X62500000Y-73280000D03*
%TO.P,J2,9,Pin_9*%
%TO.N,/RP2040-base/GPIO9*%
X62500000Y-75820000D03*
%TO.P,J2,10,Pin_10*%
%TO.N,/RP2040-base/GPIO10*%
X62500000Y-78360000D03*
%TO.P,J2,11,Pin_11*%
%TO.N,/RP2040-base/GPIO11*%
X62500000Y-80900000D03*
%TO.P,J2,12,Pin_12*%
%TO.N,/RP2040-base/GPIO12*%
X62500000Y-83440000D03*
%TO.P,J2,13,Pin_13*%
%TO.N,/RP2040-base/GPIO14*%
X62500000Y-85980000D03*
%TO.P,J2,14,Pin_14*%
%TO.N,/RP2040-base/GPIO15*%
X62500000Y-88520000D03*
%TO.P,J2,15,Pin_15*%
%TO.N,/RP2040-base/GPIO16*%
X62500000Y-91060000D03*
%TD*%
D13*
%TO.P,SWD1,1,Pin_1*%
%TO.N,/RP2040-base/SWCLK*%
X69095000Y-91770000D03*
%TO.P,SWD1,2,Pin_2*%
%TO.N,GND*%
X70365000Y-89230000D03*
%TO.P,SWD1,3,Pin_3*%
%TO.N,/RP2040-base/SWD*%
X71635000Y-91770000D03*
%TO.P,SWD1,4,Pin_4*%
%TO.N,VBUS*%
X72905000Y-89230000D03*
%TD*%
D11*
%TO.P,J1,1,Pin_1*%
%TO.N,+3V3*%
X79500000Y-80960000D03*
D12*
%TO.P,J1,2,Pin_2*%
%TO.N,GND*%
X79500000Y-83500000D03*
%TO.P,J1,3,Pin_3*%
%TO.N,VBUS*%
X79500000Y-86040000D03*
%TD*%
D14*
%TO.P,R2,1*%
%TO.N,VBUS*%
X57000000Y-46000000D03*
%TO.P,R2,2*%
%TO.N,/vibrator power*%
X57000000Y-47825000D03*
%TD*%
D15*
%TO.P,J4,1,data*%
%TO.N,/RP2040-base/GPIO13*%
X59000000Y-87840000D03*
D16*
%TO.P,J4,2,cmd*%
%TO.N,/RP2040-base/GPIO12*%
X59000000Y-83880000D03*
%TO.P,J4,3,vpwr*%
%TO.N,/vibrator power*%
X59000000Y-79920000D03*
%TO.P,J4,4,gnd*%
%TO.N,GND*%
X59000000Y-75960000D03*
%TO.P,J4,5,pwr*%
%TO.N,+3V3*%
X59000000Y-72000000D03*
%TO.P,J4,6,att*%
%TO.N,/RP2040-base/GPIO6*%
X59000000Y-68040000D03*
%TO.P,J4,7,clk*%
%TO.N,/RP2040-base/GPIO4*%
X59000000Y-64080000D03*
%TO.P,J4,8,n.c.*%
%TO.N,unconnected-(J4-n.c.-Pad8)*%
X59000000Y-60120000D03*
%TO.P,J4,9,ack*%
%TO.N,/RP2040-base/GPIO0*%
X59000000Y-56160000D03*
%TD*%
D17*
%TO.N,GND*%
X67757359Y-84020815D03*
X73414214Y-70585786D03*
X74298097Y-72530330D03*
X67000000Y-45500000D03*
X80131728Y-69525126D03*
X69525126Y-61393398D03*
X68641243Y-79247845D03*
X76419417Y-76772971D03*
X77250000Y-66700000D03*
X69171573Y-72000000D03*
X69525126Y-79424621D03*
X61750000Y-50250000D03*
X74298097Y-71469670D03*
X79424621Y-68818019D03*
X67000000Y-43500000D03*
X72707107Y-56443651D03*
X79071068Y-74121320D03*
X68818019Y-62100505D03*
X61750000Y-49250000D03*
X68818019Y-64928932D03*
X70585786Y-80485281D03*
X72707107Y-54675884D03*
X72707107Y-52908117D03*
X65250000Y-50500000D03*
X72000000Y-46250000D03*
X73237437Y-73590990D03*
X70585786Y-70585786D03*
X67757359Y-78363961D03*
X66696699Y-82960155D03*
X67403806Y-67757359D03*
X68110913Y-62100505D03*
X72250000Y-41750000D03*
X76596194Y-65989592D03*
X72000000Y-69171573D03*
X70585786Y-73414214D03*
X76242641Y-64928932D03*
D18*
%TO.N,+3V3*%
X77651194Y-48052304D03*
D17*
X74474874Y-77303301D03*
X66696699Y-69525126D03*
X67050253Y-75889087D03*
X80131728Y-72353553D03*
X70479720Y-66802765D03*
%TO.N,/RP2040-base/~{USB_BOOT}*%
X66500000Y-53750000D03*
X64250000Y-38250000D03*
%TO.N,/RP2040-base/SWCLK*%
X69900000Y-76550000D03*
%TO.N,/RP2040-base/SWD*%
X71500000Y-75000000D03*
%TO.N,/RP2040-base/GPIO16*%
X71800000Y-77400000D03*
X72000000Y-87000000D03*
D18*
%TO.N,VBUS*%
X76000000Y-45444394D03*
X61250000Y-45250000D03*
%TD*%
D19*
%TO.N,+3V3*%
X80723000Y-79737000D02*
X79500000Y-80960000D01*
D20*
X66696699Y-75535534D02*
X67050253Y-75889087D01*
X66696699Y-69525126D02*
X66696699Y-75535534D01*
X75181981Y-78010408D02*
X75889087Y-78010408D01*
X67651293Y-66802765D02*
X70479720Y-66802765D01*
X66696699Y-69525126D02*
X66696699Y-67757359D01*
X66696699Y-67757359D02*
X67651293Y-66802765D01*
X80131728Y-73767767D02*
X80131728Y-72353553D01*
X74474874Y-77303301D02*
X75181981Y-78010408D01*
D19*
X80723000Y-51723000D02*
X80723000Y-79737000D01*
D20*
X75889087Y-78010408D02*
X80131728Y-73767767D01*
D19*
X77651194Y-48651194D02*
X80723000Y-51723000D01*
X77651194Y-48052304D02*
X77651194Y-48651194D01*
D20*
%TO.N,/RP2040-base/~{USB_BOOT}*%
X66500000Y-53750000D02*
X68000000Y-52250000D01*
X68000000Y-42000000D02*
X64250000Y-38250000D01*
X68000000Y-52250000D02*
X68000000Y-42000000D01*
%TO.N,/RP2040-base/SWCLK*%
X71500000Y-89960000D02*
X69460000Y-92000000D01*
X69900000Y-76550000D02*
X71500000Y-78150000D01*
X71500000Y-78150000D02*
X71500000Y-89960000D01*
%TO.N,/RP2040-base/SWD*%
X73000000Y-76500000D02*
X71500000Y-75000000D01*
X71754000Y-91651000D02*
X71754000Y-88246000D01*
X73000000Y-87000000D02*
X73000000Y-76500000D01*
X71635000Y-91770000D02*
X71754000Y-91651000D01*
X71754000Y-88246000D02*
X73000000Y-87000000D01*
%TO.N,/RP2040-base/GPIO16*%
X71800000Y-77400000D02*
X71800000Y-86800000D01*
X71800000Y-86800000D02*
X72000000Y-87000000D01*
D19*
%TO.N,VBUS*%
X81150000Y-84390000D02*
X79500000Y-86040000D01*
X76310000Y-89230000D02*
X72905000Y-89230000D01*
X79500000Y-86040000D02*
X76310000Y-89230000D01*
X81150000Y-50594394D02*
X81150000Y-84390000D01*
X60500000Y-46000000D02*
X61250000Y-45250000D01*
X76000000Y-45444394D02*
X81150000Y-50594394D01*
X57000000Y-46000000D02*
X60500000Y-46000000D01*
%TO.N,/vibrator power*%
X56000000Y-48825000D02*
X56000000Y-76920000D01*
X56000000Y-76920000D02*
X59000000Y-79920000D01*
X57000000Y-47825000D02*
X56000000Y-48825000D01*
%TD*%
%TA.AperFunction,Conductor*%
%TO.N,GND*%
G36*
X80603056Y-37300801D02*
G01*
X80730342Y-37313337D01*
X80742353Y-37315726D01*
X80861799Y-37351960D01*
X80873110Y-37356644D01*
X80983195Y-37415486D01*
X80993378Y-37422291D01*
X81089862Y-37501474D01*
X81098525Y-37510137D01*
X81177708Y-37606621D01*
X81184515Y-37616808D01*
X81243351Y-37726881D01*
X81248040Y-37738202D01*
X81284272Y-37857645D01*
X81286662Y-37869660D01*
X81299199Y-37996941D01*
X81299500Y-38003068D01*
X81299500Y-50200561D01*
X81281194Y-50244755D01*
X81237000Y-50263061D01*
X81192806Y-50244755D01*
X76537604Y-45589554D01*
X76519298Y-45545360D01*
X76519833Y-45537202D01*
X76522621Y-45516026D01*
X76532052Y-45444394D01*
X76513923Y-45306689D01*
X76460771Y-45178368D01*
X76460770Y-45178367D01*
X76460770Y-45178366D01*
X76376218Y-45068175D01*
X76266027Y-44983623D01*
X76137703Y-44930470D01*
X76000000Y-44912342D01*
X75862296Y-44930470D01*
X75733972Y-44983623D01*
X75623781Y-45068175D01*
X75539229Y-45178366D01*
X75486076Y-45306690D01*
X75467948Y-45444394D01*
X75486076Y-45582097D01*
X75539229Y-45710421D01*
X75623781Y-45820612D01*
X75733972Y-45905164D01*
X75733973Y-45905164D01*
X75733974Y-45905165D01*
X75862295Y-45958317D01*
X76000000Y-45976446D01*
X76092807Y-45964227D01*
X76139012Y-45976607D01*
X76145159Y-45981998D01*
X77590048Y-47426886D01*
X77608354Y-47471080D01*
X77590048Y-47515274D01*
X77554013Y-47533045D01*
X77513490Y-47538380D01*
X77385166Y-47591533D01*
X77274975Y-47676085D01*
X77190423Y-47786276D01*
X77137270Y-47914600D01*
X77119142Y-48052304D01*
X77137270Y-48190007D01*
X77190423Y-48318331D01*
X77255792Y-48403521D01*
X77274976Y-48428522D01*
X77349241Y-48485507D01*
X77373159Y-48526932D01*
X77373694Y-48535091D01*
X77373694Y-48595731D01*
X77371464Y-48609397D01*
X77373627Y-48656159D01*
X77373694Y-48659046D01*
X77373694Y-48676911D01*
X77374083Y-48678994D01*
X77375079Y-48687582D01*
X77376386Y-48715829D01*
X77381406Y-48727199D01*
X77385667Y-48740957D01*
X77387951Y-48753177D01*
X77402835Y-48777216D01*
X77406870Y-48784871D01*
X77418291Y-48810736D01*
X77427080Y-48819525D01*
X77436024Y-48830816D01*
X77442566Y-48841382D01*
X77465129Y-48858421D01*
X77471658Y-48864103D01*
X80427194Y-51819639D01*
X80445500Y-51863833D01*
X80445500Y-71957456D01*
X80427194Y-72001650D01*
X80383000Y-72019956D01*
X80354626Y-72013144D01*
X80258284Y-71964055D01*
X80131728Y-71944011D01*
X80005171Y-71964055D01*
X79891004Y-72022226D01*
X79800401Y-72112829D01*
X79742230Y-72226996D01*
X79722186Y-72353552D01*
X79742230Y-72480109D01*
X79800401Y-72594276D01*
X79891004Y-72684877D01*
X79891005Y-72684879D01*
X79906602Y-72692826D01*
X79937669Y-72729200D01*
X79940728Y-72748514D01*
X79940728Y-73662764D01*
X79922422Y-73706958D01*
X75828278Y-77801102D01*
X75784084Y-77819408D01*
X75286984Y-77819408D01*
X75242790Y-77801102D01*
X74887869Y-77446181D01*
X74869563Y-77401987D01*
X74870331Y-77392222D01*
X74884416Y-77303301D01*
X74864372Y-77176746D01*
X74820726Y-77091086D01*
X74806200Y-77062577D01*
X74715597Y-76971974D01*
X74601430Y-76913803D01*
X74538151Y-76903781D01*
X74474874Y-76893759D01*
X74474873Y-76893759D01*
X74348317Y-76913803D01*
X74234150Y-76971974D01*
X74143547Y-77062577D01*
X74085376Y-77176744D01*
X74065332Y-77303300D01*
X74085376Y-77429857D01*
X74143547Y-77544024D01*
X74234150Y-77634627D01*
X74348317Y-77692798D01*
X74348319Y-77692799D01*
X74474874Y-77712843D01*
X74563784Y-77698760D01*
X74610296Y-77709926D01*
X74617754Y-77716296D01*
X75016466Y-78115008D01*
X75028580Y-78132079D01*
X75028809Y-78132554D01*
X75028811Y-78132557D01*
X75051772Y-78150868D01*
X75056987Y-78155529D01*
X75062141Y-78160683D01*
X75068313Y-78164561D01*
X75074020Y-78168611D01*
X75096975Y-78186917D01*
X75096978Y-78186919D01*
X75097485Y-78187034D01*
X75116829Y-78195045D01*
X75117275Y-78195326D01*
X75146448Y-78198612D01*
X75153343Y-78199783D01*
X75160460Y-78201408D01*
X75167745Y-78201408D01*
X75174742Y-78201801D01*
X75177975Y-78202165D01*
X75203916Y-78205088D01*
X75204410Y-78204914D01*
X75225052Y-78201408D01*
X75846016Y-78201408D01*
X75866657Y-78204914D01*
X75867152Y-78205088D01*
X75893420Y-78202128D01*
X75896326Y-78201801D01*
X75903323Y-78201408D01*
X75910610Y-78201408D01*
X75917708Y-78199787D01*
X75924621Y-78198611D01*
X75953793Y-78195326D01*
X75954228Y-78195052D01*
X75973583Y-78187035D01*
X75974090Y-78186919D01*
X75997038Y-78168617D01*
X76002749Y-78164563D01*
X76008927Y-78160683D01*
X76014093Y-78155515D01*
X76019292Y-78150870D01*
X76042257Y-78132557D01*
X76042484Y-78132084D01*
X76054598Y-78115010D01*
X80236330Y-73933278D01*
X80253404Y-73921164D01*
X80253877Y-73920937D01*
X80272190Y-73897972D01*
X80276835Y-73892773D01*
X80282003Y-73887607D01*
X80285883Y-73881429D01*
X80289937Y-73875718D01*
X80308239Y-73852770D01*
X80308355Y-73852263D01*
X80316373Y-73832907D01*
X80316646Y-73832473D01*
X80319931Y-73803301D01*
X80321108Y-73796383D01*
X80322070Y-73792172D01*
X80349758Y-73753164D01*
X80396919Y-73745161D01*
X80435927Y-73772849D01*
X80445500Y-73806091D01*
X80445500Y-79596168D01*
X80427194Y-79640362D01*
X80103362Y-79964194D01*
X80059168Y-79982500D01*
X78637442Y-79982500D01*
X78618846Y-79986199D01*
X78600251Y-79989898D01*
X78558078Y-80018078D01*
X78529898Y-80060251D01*
X78529897Y-80060252D01*
X78529898Y-80060252D01*
X78522500Y-80097442D01*
X78522500Y-81822558D01*
X78529898Y-81859748D01*
X78558078Y-81901922D01*
X78600252Y-81930102D01*
X78637442Y-81937500D01*
X78637443Y-81937500D01*
X80362557Y-81937500D01*
X80362558Y-81937500D01*
X80399748Y-81930102D01*
X80441922Y-81901922D01*
X80470102Y-81859748D01*
X80477500Y-81822558D01*
X80477500Y-80400830D01*
X80495805Y-80356638D01*
X80765806Y-80086638D01*
X80810000Y-80068332D01*
X80854194Y-80086638D01*
X80872500Y-80130832D01*
X80872500Y-84249167D01*
X80854194Y-84293361D01*
X79999329Y-85148225D01*
X79955135Y-85166531D01*
X79925673Y-85159151D01*
X79875884Y-85132538D01*
X79691622Y-85076642D01*
X79500000Y-85057770D01*
X79308377Y-85076642D01*
X79124114Y-85132538D01*
X78954303Y-85223305D01*
X78805459Y-85345459D01*
X78683305Y-85494303D01*
X78592538Y-85664114D01*
X78536642Y-85848377D01*
X78517770Y-86040000D01*
X78536642Y-86231622D01*
X78592538Y-86415884D01*
X78619151Y-86465673D01*
X78623840Y-86513278D01*
X78608225Y-86539329D01*
X76213362Y-88934194D01*
X76169168Y-88952500D01*
X73967035Y-88952500D01*
X73922841Y-88934194D01*
X73907226Y-88908143D01*
X73882089Y-88825277D01*
X73784356Y-88642433D01*
X73703644Y-88544085D01*
X73652831Y-88482168D01*
X73534873Y-88385364D01*
X73492567Y-88350644D01*
X73309723Y-88252911D01*
X73309723Y-88252910D01*
X73111324Y-88192727D01*
X72927539Y-88174626D01*
X72905000Y-88172407D01*
X72904999Y-88172407D01*
X72698675Y-88192727D01*
X72500276Y-88252911D01*
X72399444Y-88306808D01*
X72317433Y-88350644D01*
X72317431Y-88350645D01*
X72317430Y-88350646D01*
X72157171Y-88482166D01*
X72055813Y-88605672D01*
X72013626Y-88628221D01*
X71967850Y-88614335D01*
X71945301Y-88572148D01*
X71945000Y-88566022D01*
X71945000Y-88351002D01*
X71963305Y-88306809D01*
X73104602Y-87165511D01*
X73121676Y-87153397D01*
X73122149Y-87153170D01*
X73140462Y-87130205D01*
X73145107Y-87125006D01*
X73150275Y-87119840D01*
X73154155Y-87113662D01*
X73158209Y-87107951D01*
X73176511Y-87085003D01*
X73176627Y-87084496D01*
X73184645Y-87065140D01*
X73184918Y-87064706D01*
X73188203Y-87035534D01*
X73189379Y-87028621D01*
X73191000Y-87021522D01*
X73191000Y-87014235D01*
X73191393Y-87007237D01*
X73191830Y-87003357D01*
X73194680Y-86978065D01*
X73194507Y-86977570D01*
X73191000Y-86956929D01*
X73191000Y-83627000D01*
X78530782Y-83627000D01*
X78537136Y-83691522D01*
X78593003Y-83875692D01*
X78683724Y-84045419D01*
X78805813Y-84194186D01*
X78954580Y-84316275D01*
X79124307Y-84406996D01*
X79308477Y-84462863D01*
X79373000Y-84469217D01*
X79373000Y-83986881D01*
X79464237Y-84000000D01*
X79535763Y-84000000D01*
X79627000Y-83986881D01*
X79627000Y-84469217D01*
X79691522Y-84462863D01*
X79875692Y-84406996D01*
X80045419Y-84316275D01*
X80194186Y-84194186D01*
X80316275Y-84045419D01*
X80406996Y-83875692D01*
X80462863Y-83691522D01*
X80469218Y-83627000D01*
X79983818Y-83627000D01*
X80000000Y-83571889D01*
X80000000Y-83428111D01*
X79983818Y-83373000D01*
X80469217Y-83373000D01*
X80462863Y-83308477D01*
X80406996Y-83124307D01*
X80316275Y-82954580D01*
X80194186Y-82805813D01*
X80045419Y-82683724D01*
X79875692Y-82593003D01*
X79691524Y-82537136D01*
X79627000Y-82530780D01*
X79627000Y-83013118D01*
X79535763Y-83000000D01*
X79464237Y-83000000D01*
X79373000Y-83013118D01*
X79373000Y-82530781D01*
X79372999Y-82530780D01*
X79308475Y-82537136D01*
X79124307Y-82593003D01*
X78954580Y-82683724D01*
X78805813Y-82805813D01*
X78683724Y-82954580D01*
X78593003Y-83124307D01*
X78537136Y-83308477D01*
X78530782Y-83373000D01*
X79016182Y-83373000D01*
X79000000Y-83428111D01*
X79000000Y-83571889D01*
X79016182Y-83627000D01*
X78530782Y-83627000D01*
X73191000Y-83627000D01*
X73191000Y-76543070D01*
X73194507Y-76522427D01*
X73194680Y-76521935D01*
X73191393Y-76492760D01*
X73191000Y-76485763D01*
X73191000Y-76478482D01*
X73191000Y-76478479D01*
X73189375Y-76471362D01*
X73188203Y-76464460D01*
X73185585Y-76441221D01*
X73184918Y-76435294D01*
X73184637Y-76434848D01*
X73176626Y-76415504D01*
X73176511Y-76414997D01*
X73176509Y-76414994D01*
X73158203Y-76392039D01*
X73154153Y-76386332D01*
X73150275Y-76380160D01*
X73145121Y-76375006D01*
X73140460Y-76369791D01*
X73122149Y-76346830D01*
X73122146Y-76346828D01*
X73121671Y-76346599D01*
X73104600Y-76334485D01*
X71912995Y-75142880D01*
X71894689Y-75098686D01*
X71895457Y-75088921D01*
X71909542Y-75000000D01*
X71889498Y-74873445D01*
X71866807Y-74828912D01*
X71831326Y-74759276D01*
X71740723Y-74668673D01*
X71626556Y-74610502D01*
X71500000Y-74590458D01*
X71373443Y-74610502D01*
X71259276Y-74668673D01*
X71168673Y-74759276D01*
X71110502Y-74873443D01*
X71090458Y-75000000D01*
X71110502Y-75126556D01*
X71168673Y-75240723D01*
X71259276Y-75331326D01*
X71373443Y-75389497D01*
X71373445Y-75389498D01*
X71500000Y-75409542D01*
X71588910Y-75395459D01*
X71635422Y-75406625D01*
X71642880Y-75412995D01*
X72790694Y-76560809D01*
X72809000Y-76605003D01*
X72809000Y-86894997D01*
X72790694Y-86939191D01*
X72446390Y-87283494D01*
X72402196Y-87301800D01*
X72358002Y-87283494D01*
X72339696Y-87239300D01*
X72346507Y-87210928D01*
X72389498Y-87126555D01*
X72409542Y-87000000D01*
X72389498Y-86873445D01*
X72350391Y-86796694D01*
X72331326Y-86759276D01*
X72240723Y-86668673D01*
X72126556Y-86610502D01*
X72043723Y-86597383D01*
X72002936Y-86572388D01*
X71991000Y-86535652D01*
X71991000Y-77794961D01*
X72009306Y-77750767D01*
X72025126Y-77739273D01*
X72040723Y-77731326D01*
X72131326Y-77640723D01*
X72189498Y-77526555D01*
X72209542Y-77400000D01*
X72189498Y-77273445D01*
X72140226Y-77176744D01*
X72131326Y-77159276D01*
X72040723Y-77068673D01*
X71926556Y-77010502D01*
X71800000Y-76990458D01*
X71673443Y-77010502D01*
X71559276Y-77068673D01*
X71468673Y-77159276D01*
X71410502Y-77273443D01*
X71390458Y-77400000D01*
X71410502Y-77526556D01*
X71468673Y-77640723D01*
X71520749Y-77692798D01*
X71559277Y-77731326D01*
X71574874Y-77739273D01*
X71605941Y-77775647D01*
X71609000Y-77794961D01*
X71609000Y-77837997D01*
X71590694Y-77882191D01*
X71546500Y-77900497D01*
X71502306Y-77882191D01*
X70312995Y-76692880D01*
X70294689Y-76648686D01*
X70295457Y-76638921D01*
X70309542Y-76550000D01*
X70289498Y-76423445D01*
X70285450Y-76415500D01*
X70231326Y-76309276D01*
X70140723Y-76218673D01*
X70026556Y-76160502D01*
X69900000Y-76140458D01*
X69773443Y-76160502D01*
X69659276Y-76218673D01*
X69568673Y-76309276D01*
X69510502Y-76423443D01*
X69490458Y-76550000D01*
X69510502Y-76676556D01*
X69568673Y-76790723D01*
X69659276Y-76881326D01*
X69719028Y-76911771D01*
X69773445Y-76939498D01*
X69900000Y-76959542D01*
X69988910Y-76945459D01*
X70035422Y-76956625D01*
X70042880Y-76962995D01*
X71290694Y-78210809D01*
X71309000Y-78255003D01*
X71309000Y-88547314D01*
X71290694Y-88591508D01*
X71246500Y-88609814D01*
X71202306Y-88591508D01*
X71198187Y-88586964D01*
X71193432Y-88581171D01*
X70959770Y-88814832D01*
X70895936Y-88729088D01*
X70781950Y-88633442D01*
X71013827Y-88401566D01*
X71013827Y-88401565D01*
X70952289Y-88351062D01*
X70769532Y-88253376D01*
X70571226Y-88193221D01*
X70365000Y-88172910D01*
X70158773Y-88193221D01*
X69960467Y-88253376D01*
X69777713Y-88351061D01*
X69716171Y-88401566D01*
X69949877Y-88635272D01*
X69895806Y-88670837D01*
X69779501Y-88794112D01*
X69768522Y-88813127D01*
X69536566Y-88581171D01*
X69486062Y-88642712D01*
X69429542Y-88748451D01*
X69392564Y-88778797D01*
X69344959Y-88774108D01*
X69314613Y-88737130D01*
X69314431Y-88736518D01*
X69299760Y-88685867D01*
X69193895Y-88462762D01*
X69193894Y-88462761D01*
X69193893Y-88462758D01*
X69053613Y-88259528D01*
X68882545Y-88081427D01*
X68685126Y-87933076D01*
X68466466Y-87818315D01*
X68465380Y-87817952D01*
X68232224Y-87740113D01*
X67988474Y-87700500D01*
X67803361Y-87700500D01*
X67802116Y-87700600D01*
X67802103Y-87700601D01*
X67618855Y-87715394D01*
X67457512Y-87755162D01*
X67379081Y-87774494D01*
X67276231Y-87818314D01*
X67151888Y-87871291D01*
X66943176Y-88003272D01*
X66758333Y-88167029D01*
X66602151Y-88358317D01*
X66541853Y-88462758D01*
X66482234Y-88566022D01*
X66478675Y-88572186D01*
X66391108Y-88803078D01*
X66341711Y-89045041D01*
X66331768Y-89291786D01*
X66361535Y-89536936D01*
X66430237Y-89774129D01*
X66536106Y-89997241D01*
X66676386Y-90200471D01*
X66847454Y-90378572D01*
X67044873Y-90526923D01*
X67044875Y-90526924D01*
X67263537Y-90641686D01*
X67497776Y-90719887D01*
X67741526Y-90759500D01*
X67741529Y-90759500D01*
X67925381Y-90759500D01*
X67926639Y-90759500D01*
X68111147Y-90744605D01*
X68350919Y-90685506D01*
X68578107Y-90588711D01*
X68786825Y-90456726D01*
X68971668Y-90292969D01*
X69127849Y-90101682D01*
X69251323Y-89887818D01*
X69315646Y-89718211D01*
X69348432Y-89683383D01*
X69396246Y-89681938D01*
X69429203Y-89710914D01*
X69486064Y-89817291D01*
X69536565Y-89878827D01*
X69536566Y-89878827D01*
X69770227Y-89645165D01*
X69834064Y-89730912D01*
X69948047Y-89826556D01*
X69716171Y-90058432D01*
X69716171Y-90058433D01*
X69777710Y-90108937D01*
X69960467Y-90206623D01*
X70158773Y-90266778D01*
X70365000Y-90287089D01*
X70571226Y-90266778D01*
X70769530Y-90206623D01*
X70857092Y-90159820D01*
X70904697Y-90155131D01*
X70941675Y-90185477D01*
X70946364Y-90233082D01*
X70930749Y-90259134D01*
X70038034Y-91151849D01*
X69993840Y-91170155D01*
X69949646Y-91151849D01*
X69945527Y-91147305D01*
X69873877Y-91059999D01*
X69842831Y-91022169D01*
X69842829Y-91022167D01*
X69842828Y-91022166D01*
X69682569Y-90890646D01*
X69682570Y-90890646D01*
X69682567Y-90890644D01*
X69499723Y-90792911D01*
X69389582Y-90759500D01*
X69301324Y-90732727D01*
X69117539Y-90714626D01*
X69095000Y-90712407D01*
X69094999Y-90712407D01*
X68888675Y-90732727D01*
X68690276Y-90792911D01*
X68585294Y-90849025D01*
X68507433Y-90890644D01*
X68507431Y-90890645D01*
X68507430Y-90890646D01*
X68347168Y-91022168D01*
X68215646Y-91182430D01*
X68117911Y-91365276D01*
X68057727Y-91563675D01*
X68037407Y-91770000D01*
X68057727Y-91976324D01*
X68082017Y-92056397D01*
X68117911Y-92174723D01*
X68215644Y-92357567D01*
X68250364Y-92399873D01*
X68347168Y-92517831D01*
X68420901Y-92578341D01*
X68507433Y-92649356D01*
X68690277Y-92747089D01*
X68888674Y-92807272D01*
X69095000Y-92827593D01*
X69301326Y-92807272D01*
X69499723Y-92747089D01*
X69682567Y-92649356D01*
X69842831Y-92517831D01*
X69974356Y-92357567D01*
X70072089Y-92174723D01*
X70132272Y-91976326D01*
X70152593Y-91770000D01*
X70138232Y-91624195D01*
X70152118Y-91578420D01*
X70156227Y-91573886D01*
X71456307Y-90273807D01*
X71500500Y-90255502D01*
X71544694Y-90273808D01*
X71563000Y-90318002D01*
X71563000Y-90662851D01*
X71544694Y-90707045D01*
X71506626Y-90725050D01*
X71428675Y-90732727D01*
X71230276Y-90792911D01*
X71125294Y-90849025D01*
X71047433Y-90890644D01*
X71047431Y-90890645D01*
X71047430Y-90890646D01*
X70887168Y-91022168D01*
X70755646Y-91182430D01*
X70657911Y-91365276D01*
X70597727Y-91563675D01*
X70577407Y-91769999D01*
X70597727Y-91976324D01*
X70622017Y-92056397D01*
X70657911Y-92174723D01*
X70755644Y-92357567D01*
X70790364Y-92399873D01*
X70887168Y-92517831D01*
X70960901Y-92578341D01*
X71047433Y-92649356D01*
X71230277Y-92747089D01*
X71428674Y-92807272D01*
X71635000Y-92827593D01*
X71841326Y-92807272D01*
X72039723Y-92747089D01*
X72222567Y-92649356D01*
X72382831Y-92517831D01*
X72514356Y-92357567D01*
X72612089Y-92174723D01*
X72672272Y-91976326D01*
X72672272Y-91976324D01*
X72673302Y-91972930D01*
X72703649Y-91935953D01*
X72751254Y-91931264D01*
X72788231Y-91961611D01*
X72794208Y-91977906D01*
X72835189Y-92168061D01*
X72921159Y-92382007D01*
X73042047Y-92578341D01*
X73146418Y-92696930D01*
X73194380Y-92751425D01*
X73373772Y-92896274D01*
X73464857Y-92947156D01*
X73575060Y-93008720D01*
X73575063Y-93008721D01*
X73792462Y-93085533D01*
X74019715Y-93124500D01*
X74191203Y-93124500D01*
X74192535Y-93124500D01*
X74364739Y-93109843D01*
X74587869Y-93051745D01*
X74797971Y-92956773D01*
X74989000Y-92827659D01*
X75073067Y-92747088D01*
X75155462Y-92668120D01*
X75266614Y-92517831D01*
X75292566Y-92482742D01*
X75396370Y-92276860D01*
X75396370Y-92276859D01*
X75396372Y-92276856D01*
X75463885Y-92056401D01*
X75465700Y-92042229D01*
X75493172Y-91827694D01*
X75483386Y-91597332D01*
X75434810Y-91371938D01*
X75348841Y-91157994D01*
X75348840Y-91157992D01*
X75227952Y-90961658D01*
X75075620Y-90788575D01*
X75006455Y-90732728D01*
X74896228Y-90643726D01*
X74877107Y-90633044D01*
X74694939Y-90531279D01*
X74477538Y-90454467D01*
X74250285Y-90415500D01*
X74077465Y-90415500D01*
X74076159Y-90415611D01*
X74076139Y-90415612D01*
X73905258Y-90430157D01*
X73682134Y-90488254D01*
X73682132Y-90488254D01*
X73682131Y-90488255D01*
X73624506Y-90514303D01*
X73472030Y-90583226D01*
X73280996Y-90712343D01*
X73114537Y-90871879D01*
X72977435Y-91057255D01*
X72873627Y-91263143D01*
X72806114Y-91483598D01*
X72796101Y-91561795D01*
X72772329Y-91603306D01*
X72726168Y-91615850D01*
X72684657Y-91592078D01*
X72675539Y-91569115D01*
X72674059Y-91569565D01*
X72671702Y-91561795D01*
X72612089Y-91365277D01*
X72514356Y-91182433D01*
X72462275Y-91118972D01*
X72382831Y-91022168D01*
X72222569Y-90890646D01*
X72222570Y-90890646D01*
X72222567Y-90890644D01*
X72134414Y-90843525D01*
X72039723Y-90792910D01*
X71989357Y-90777632D01*
X71952380Y-90747285D01*
X71945000Y-90717823D01*
X71945000Y-89893977D01*
X71963306Y-89849783D01*
X72007500Y-89831477D01*
X72051694Y-89849783D01*
X72055813Y-89854328D01*
X72157168Y-89977831D01*
X72253972Y-90057275D01*
X72317433Y-90109356D01*
X72500277Y-90207089D01*
X72698674Y-90267272D01*
X72905000Y-90287593D01*
X73111326Y-90267272D01*
X73309723Y-90207089D01*
X73492567Y-90109356D01*
X73652831Y-89977831D01*
X73784356Y-89817567D01*
X73882089Y-89634723D01*
X73907226Y-89551856D01*
X73937573Y-89514880D01*
X73967035Y-89507500D01*
X76254537Y-89507500D01*
X76268203Y-89509729D01*
X76270996Y-89509599D01*
X76270997Y-89509600D01*
X76314964Y-89507567D01*
X76317852Y-89507500D01*
X76335714Y-89507500D01*
X76335715Y-89507500D01*
X76337792Y-89507111D01*
X76346390Y-89506113D01*
X76374635Y-89504808D01*
X76386002Y-89499788D01*
X76399763Y-89495526D01*
X76411981Y-89493243D01*
X76436017Y-89478359D01*
X76443675Y-89474324D01*
X76453402Y-89470029D01*
X76469542Y-89462903D01*
X76474929Y-89457515D01*
X76478332Y-89454113D01*
X76489627Y-89445166D01*
X76500189Y-89438627D01*
X76517228Y-89416062D01*
X76522903Y-89409540D01*
X79000670Y-86931772D01*
X79044863Y-86913467D01*
X79074322Y-86920846D01*
X79124117Y-86947462D01*
X79308376Y-87003357D01*
X79500000Y-87022230D01*
X79691624Y-87003357D01*
X79875883Y-86947462D01*
X80045698Y-86856694D01*
X80194541Y-86734541D01*
X80316694Y-86585698D01*
X80407462Y-86415883D01*
X80463357Y-86231624D01*
X80482230Y-86040000D01*
X80463357Y-85848376D01*
X80407462Y-85664117D01*
X80380846Y-85614323D01*
X80376158Y-85566721D01*
X80391771Y-85540671D01*
X81192807Y-84739636D01*
X81237000Y-84721331D01*
X81281194Y-84739637D01*
X81299500Y-84783831D01*
X81299500Y-92696930D01*
X81299199Y-92703056D01*
X81286662Y-92830338D01*
X81284272Y-92842354D01*
X81248040Y-92961797D01*
X81243351Y-92973118D01*
X81184515Y-93083191D01*
X81177708Y-93093378D01*
X81098525Y-93189862D01*
X81089862Y-93198525D01*
X80993378Y-93277708D01*
X80983191Y-93284515D01*
X80873118Y-93343351D01*
X80861797Y-93348040D01*
X80742354Y-93384272D01*
X80730338Y-93386662D01*
X80603056Y-93399199D01*
X80596930Y-93399500D01*
X55863000Y-93399500D01*
X55818806Y-93381194D01*
X55800500Y-93337000D01*
X55800500Y-91059999D01*
X61517770Y-91059999D01*
X61536642Y-91251622D01*
X61592538Y-91435885D01*
X61676026Y-91592078D01*
X61683306Y-91605698D01*
X61805459Y-91754541D01*
X61954302Y-91876694D01*
X62034058Y-91919324D01*
X62124114Y-91967461D01*
X62124116Y-91967461D01*
X62124117Y-91967462D01*
X62308376Y-92023357D01*
X62500000Y-92042230D01*
X62691624Y-92023357D01*
X62875883Y-91967462D01*
X63045698Y-91876694D01*
X63194541Y-91754541D01*
X63316694Y-91605698D01*
X63407462Y-91435883D01*
X63463357Y-91251624D01*
X63482230Y-91060000D01*
X63463357Y-90868376D01*
X63407462Y-90684117D01*
X63407461Y-90684116D01*
X63407461Y-90684114D01*
X63325768Y-90531279D01*
X63316694Y-90514302D01*
X63194541Y-90365459D01*
X63045698Y-90243306D01*
X62977941Y-90207089D01*
X62875885Y-90152538D01*
X62691622Y-90096642D01*
X62520933Y-90079831D01*
X62500000Y-90077770D01*
X62499999Y-90077770D01*
X62308377Y-90096642D01*
X62124114Y-90152538D01*
X61954303Y-90243305D01*
X61805459Y-90365459D01*
X61683305Y-90514303D01*
X61592538Y-90684114D01*
X61536642Y-90868377D01*
X61517770Y-91059999D01*
X55800500Y-91059999D01*
X55800500Y-88975825D01*
X57522500Y-88975825D01*
X57533191Y-89049204D01*
X57588523Y-89162388D01*
X57588524Y-89162389D01*
X57677611Y-89251476D01*
X57790797Y-89306809D01*
X57864174Y-89317500D01*
X60135826Y-89317500D01*
X60209203Y-89306809D01*
X60322389Y-89251476D01*
X60411476Y-89162389D01*
X60466809Y-89049203D01*
X60477500Y-88975826D01*
X60477500Y-88520000D01*
X61517770Y-88520000D01*
X61536642Y-88711622D01*
X61592538Y-88895885D01*
X61672265Y-89045041D01*
X61683306Y-89065698D01*
X61805459Y-89214541D01*
X61954302Y-89336694D01*
X61991828Y-89356752D01*
X62124114Y-89427461D01*
X62124116Y-89427461D01*
X62124117Y-89427462D01*
X62308376Y-89483357D01*
X62500000Y-89502230D01*
X62691624Y-89483357D01*
X62875883Y-89427462D01*
X63045698Y-89336694D01*
X63194541Y-89214541D01*
X63316694Y-89065698D01*
X63407462Y-88895883D01*
X63463357Y-88711624D01*
X63482230Y-88520000D01*
X63463357Y-88328376D01*
X63407462Y-88144117D01*
X63407461Y-88144116D01*
X63407461Y-88144114D01*
X63332180Y-88003274D01*
X63316694Y-87974302D01*
X63194541Y-87825459D01*
X63045698Y-87703306D01*
X63035396Y-87697799D01*
X62875885Y-87612538D01*
X62691622Y-87556642D01*
X62520933Y-87539831D01*
X62500000Y-87537770D01*
X62499999Y-87537770D01*
X62308377Y-87556642D01*
X62124114Y-87612538D01*
X61954303Y-87703305D01*
X61805459Y-87825459D01*
X61683305Y-87974303D01*
X61592538Y-88144114D01*
X61536642Y-88328377D01*
X61517770Y-88520000D01*
X60477500Y-88520000D01*
X60477500Y-86704174D01*
X60466809Y-86630797D01*
X60411476Y-86517611D01*
X60322389Y-86428524D01*
X60322388Y-86428523D01*
X60209204Y-86373191D01*
X60135826Y-86362500D01*
X57864174Y-86362500D01*
X57790795Y-86373191D01*
X57677611Y-86428523D01*
X57588523Y-86517611D01*
X57533191Y-86630795D01*
X57522500Y-86704174D01*
X57522500Y-88975825D01*
X55800500Y-88975825D01*
X55800500Y-85980000D01*
X61517770Y-85980000D01*
X61536642Y-86171622D01*
X61592538Y-86355885D01*
X61631365Y-86428524D01*
X61683306Y-86525698D01*
X61805459Y-86674541D01*
X61954302Y-86796694D01*
X62034058Y-86839324D01*
X62124114Y-86887461D01*
X62124116Y-86887461D01*
X62124117Y-86887462D01*
X62308376Y-86943357D01*
X62500000Y-86962230D01*
X62691624Y-86943357D01*
X62875883Y-86887462D01*
X63045698Y-86796694D01*
X63194541Y-86674541D01*
X63316694Y-86525698D01*
X63407462Y-86355883D01*
X63463357Y-86171624D01*
X63482230Y-85980000D01*
X63463357Y-85788376D01*
X63407462Y-85604117D01*
X63407461Y-85604116D01*
X63407461Y-85604114D01*
X63348765Y-85494302D01*
X63316694Y-85434302D01*
X63194541Y-85285459D01*
X63045698Y-85163306D01*
X63035396Y-85157799D01*
X62875885Y-85072538D01*
X62691622Y-85016642D01*
X62520933Y-84999831D01*
X62500000Y-84997770D01*
X62499999Y-84997770D01*
X62308377Y-85016642D01*
X62124114Y-85072538D01*
X61954303Y-85163305D01*
X61805459Y-85285459D01*
X61683305Y-85434303D01*
X61592538Y-85604114D01*
X61536642Y-85788377D01*
X61517770Y-85980000D01*
X55800500Y-85980000D01*
X55800500Y-83880000D01*
X57517436Y-83880000D01*
X57537656Y-84124022D01*
X57597765Y-84361388D01*
X57696124Y-84585622D01*
X57830049Y-84790610D01*
X57995887Y-84970758D01*
X58189114Y-85121153D01*
X58404461Y-85237693D01*
X58636052Y-85317198D01*
X58877571Y-85357500D01*
X58877573Y-85357500D01*
X59122427Y-85357500D01*
X59122429Y-85357500D01*
X59363948Y-85317198D01*
X59595539Y-85237693D01*
X59810886Y-85121153D01*
X60004113Y-84970758D01*
X60169951Y-84790610D01*
X60303876Y-84585622D01*
X60402235Y-84361388D01*
X60462344Y-84124022D01*
X60482564Y-83880000D01*
X60462344Y-83635978D01*
X60412716Y-83440000D01*
X61517770Y-83440000D01*
X61536642Y-83631622D01*
X61592538Y-83815885D01*
X61677799Y-83975396D01*
X61683306Y-83985698D01*
X61805459Y-84134541D01*
X61954302Y-84256694D01*
X61988655Y-84275056D01*
X62124114Y-84347461D01*
X62124116Y-84347461D01*
X62124117Y-84347462D01*
X62308376Y-84403357D01*
X62500000Y-84422230D01*
X62691624Y-84403357D01*
X62875883Y-84347462D01*
X63045698Y-84256694D01*
X63194541Y-84134541D01*
X63316694Y-83985698D01*
X63407462Y-83815883D01*
X63463357Y-83631624D01*
X63482230Y-83440000D01*
X63463357Y-83248376D01*
X63407462Y-83064117D01*
X63407461Y-83064116D01*
X63407461Y-83064114D01*
X63348913Y-82954580D01*
X63316694Y-82894302D01*
X63194541Y-82745459D01*
X63045698Y-82623306D01*
X63035396Y-82617799D01*
X62875885Y-82532538D01*
X62691622Y-82476642D01*
X62520933Y-82459831D01*
X62500000Y-82457770D01*
X62499999Y-82457770D01*
X62308377Y-82476642D01*
X62124114Y-82532538D01*
X61954303Y-82623305D01*
X61805459Y-82745459D01*
X61683305Y-82894303D01*
X61592538Y-83064114D01*
X61536642Y-83248377D01*
X61517770Y-83440000D01*
X60412716Y-83440000D01*
X60402235Y-83398612D01*
X60303876Y-83174378D01*
X60169951Y-82969390D01*
X60004113Y-82789242D01*
X59810886Y-82638847D01*
X59595539Y-82522307D01*
X59363948Y-82442802D01*
X59122429Y-82402500D01*
X58877571Y-82402500D01*
X58636052Y-82442802D01*
X58423011Y-82515938D01*
X58404458Y-82522308D01*
X58189112Y-82638848D01*
X57995889Y-82789240D01*
X57830048Y-82969390D01*
X57696125Y-83174376D01*
X57696124Y-83174378D01*
X57597765Y-83398612D01*
X57537656Y-83635978D01*
X57517436Y-83880000D01*
X55800500Y-83880000D01*
X55800500Y-77263833D01*
X55818806Y-77219639D01*
X55863000Y-77201333D01*
X55907194Y-77219639D01*
X57741562Y-79054007D01*
X57759868Y-79098201D01*
X57749691Y-79132385D01*
X57696124Y-79214376D01*
X57648321Y-79323357D01*
X57597765Y-79438612D01*
X57537656Y-79675978D01*
X57517436Y-79920000D01*
X57537656Y-80164022D01*
X57597765Y-80401388D01*
X57696124Y-80625622D01*
X57830049Y-80830610D01*
X57995887Y-81010758D01*
X58189114Y-81161153D01*
X58404461Y-81277693D01*
X58636052Y-81357198D01*
X58877571Y-81397500D01*
X58877573Y-81397500D01*
X59122427Y-81397500D01*
X59122429Y-81397500D01*
X59363948Y-81357198D01*
X59595539Y-81277693D01*
X59810886Y-81161153D01*
X60004113Y-81010758D01*
X60106074Y-80899999D01*
X61517770Y-80899999D01*
X61536642Y-81091622D01*
X61592538Y-81275885D01*
X61677799Y-81435396D01*
X61683306Y-81445698D01*
X61805459Y-81594541D01*
X61954302Y-81716694D01*
X62034058Y-81759324D01*
X62124114Y-81807461D01*
X62124116Y-81807461D01*
X62124117Y-81807462D01*
X62308376Y-81863357D01*
X62500000Y-81882230D01*
X62691624Y-81863357D01*
X62875883Y-81807462D01*
X63045698Y-81716694D01*
X63194541Y-81594541D01*
X63316694Y-81445698D01*
X63407462Y-81275883D01*
X63463357Y-81091624D01*
X63482230Y-80900000D01*
X63463357Y-80708376D01*
X63407462Y-80524117D01*
X63407461Y-80524116D01*
X63407461Y-80524114D01*
X63359324Y-80434058D01*
X63316694Y-80354302D01*
X63194541Y-80205459D01*
X63045698Y-80083306D01*
X63002567Y-80060252D01*
X62875885Y-79992538D01*
X62691622Y-79936642D01*
X62520933Y-79919831D01*
X62500000Y-79917770D01*
X62499999Y-79917770D01*
X62308377Y-79936642D01*
X62124114Y-79992538D01*
X61954303Y-80083305D01*
X61805459Y-80205459D01*
X61683305Y-80354303D01*
X61592538Y-80524114D01*
X61536642Y-80708377D01*
X61517770Y-80899999D01*
X60106074Y-80899999D01*
X60169951Y-80830610D01*
X60303876Y-80625622D01*
X60402235Y-80401388D01*
X60462344Y-80164022D01*
X60482564Y-79920000D01*
X60462344Y-79675978D01*
X60402235Y-79438612D01*
X60303876Y-79214378D01*
X60169951Y-79009390D01*
X60004113Y-78829242D01*
X59810886Y-78678847D01*
X59595539Y-78562307D01*
X59363948Y-78482802D01*
X59122429Y-78442500D01*
X58877571Y-78442500D01*
X58636052Y-78482802D01*
X58435580Y-78551624D01*
X58404458Y-78562308D01*
X58205559Y-78669947D01*
X58157978Y-78674882D01*
X58131618Y-78659174D01*
X57832444Y-78360000D01*
X61517770Y-78360000D01*
X61536642Y-78551622D01*
X61592538Y-78735885D01*
X61642438Y-78829240D01*
X61683306Y-78905698D01*
X61805459Y-79054541D01*
X61954302Y-79176694D01*
X62024800Y-79214376D01*
X62124114Y-79267461D01*
X62124116Y-79267461D01*
X62124117Y-79267462D01*
X62308376Y-79323357D01*
X62500000Y-79342230D01*
X62691624Y-79323357D01*
X62875883Y-79267462D01*
X63045698Y-79176694D01*
X63194541Y-79054541D01*
X63316694Y-78905698D01*
X63407462Y-78735883D01*
X63463357Y-78551624D01*
X63482230Y-78360000D01*
X63463357Y-78168376D01*
X63407462Y-77984117D01*
X63407461Y-77984116D01*
X63407461Y-77984114D01*
X63319423Y-77819408D01*
X63316694Y-77814302D01*
X63194541Y-77665459D01*
X63045698Y-77543306D01*
X63014359Y-77526555D01*
X62875885Y-77452538D01*
X62691622Y-77396642D01*
X62520933Y-77379831D01*
X62500000Y-77377770D01*
X62499999Y-77377770D01*
X62308377Y-77396642D01*
X62124114Y-77452538D01*
X61954303Y-77543305D01*
X61805459Y-77665459D01*
X61683305Y-77814303D01*
X61592538Y-77984114D01*
X61536642Y-78168377D01*
X61517770Y-78360000D01*
X57832444Y-78360000D01*
X56295806Y-76823362D01*
X56277500Y-76779168D01*
X56277500Y-75960000D01*
X57517938Y-75960000D01*
X57538151Y-76203944D01*
X57598238Y-76441221D01*
X57696566Y-76665385D01*
X57830447Y-76870303D01*
X57868619Y-76911771D01*
X57868621Y-76911772D01*
X58314478Y-76465914D01*
X58412009Y-76580735D01*
X58495443Y-76644160D01*
X58048516Y-77091086D01*
X58189389Y-77200733D01*
X58404659Y-77317231D01*
X58636176Y-77396710D01*
X58877614Y-77437000D01*
X59122386Y-77437000D01*
X59363823Y-77396710D01*
X59595340Y-77317231D01*
X59810610Y-77200733D01*
X59951481Y-77091086D01*
X59951482Y-77091086D01*
X59507212Y-76646817D01*
X59517431Y-76640669D01*
X59651658Y-76513523D01*
X59684576Y-76464970D01*
X60131377Y-76911771D01*
X60131378Y-76911771D01*
X60169555Y-76870300D01*
X60303433Y-76665385D01*
X60401761Y-76441221D01*
X60461848Y-76203944D01*
X60482061Y-75960000D01*
X60470461Y-75820000D01*
X61517770Y-75820000D01*
X61536642Y-76011622D01*
X61592538Y-76195885D01*
X61653148Y-76309276D01*
X61683306Y-76365698D01*
X61805459Y-76514541D01*
X61954302Y-76636694D01*
X62007979Y-76665385D01*
X62124114Y-76727461D01*
X62124116Y-76727461D01*
X62124117Y-76727462D01*
X62308376Y-76783357D01*
X62500000Y-76802230D01*
X62691624Y-76783357D01*
X62875883Y-76727462D01*
X63045698Y-76636694D01*
X63194541Y-76514541D01*
X63316694Y-76365698D01*
X63407462Y-76195883D01*
X63463357Y-76011624D01*
X63482230Y-75820000D01*
X63463357Y-75628376D01*
X63407462Y-75444117D01*
X63407461Y-75444116D01*
X63407461Y-75444114D01*
X63319382Y-75279331D01*
X63316694Y-75274302D01*
X63194541Y-75125459D01*
X63045698Y-75003306D01*
X63035396Y-74997799D01*
X62875885Y-74912538D01*
X62691622Y-74856642D01*
X62520933Y-74839831D01*
X62500000Y-74837770D01*
X62499999Y-74837770D01*
X62308377Y-74856642D01*
X62124114Y-74912538D01*
X61954303Y-75003305D01*
X61805459Y-75125459D01*
X61683305Y-75274303D01*
X61592538Y-75444114D01*
X61536642Y-75628377D01*
X61517770Y-75820000D01*
X60470461Y-75820000D01*
X60461848Y-75716055D01*
X60401761Y-75478778D01*
X60303433Y-75254614D01*
X60169552Y-75049696D01*
X60131379Y-75008227D01*
X60131377Y-75008226D01*
X59685519Y-75454083D01*
X59587991Y-75339265D01*
X59504554Y-75275838D01*
X59951482Y-74828912D01*
X59810610Y-74719266D01*
X59595340Y-74602768D01*
X59363823Y-74523289D01*
X59122386Y-74483000D01*
X58877614Y-74483000D01*
X58636176Y-74523289D01*
X58404659Y-74602768D01*
X58189387Y-74719268D01*
X58048517Y-74828912D01*
X58048516Y-74828912D01*
X58492787Y-75273182D01*
X58482569Y-75279331D01*
X58348342Y-75406477D01*
X58315423Y-75455028D01*
X57868621Y-75008226D01*
X57830443Y-75049700D01*
X57696566Y-75254614D01*
X57598238Y-75478778D01*
X57538151Y-75716055D01*
X57517938Y-75960000D01*
X56277500Y-75960000D01*
X56277500Y-72000000D01*
X57517436Y-72000000D01*
X57537656Y-72244022D01*
X57597765Y-72481388D01*
X57696124Y-72705622D01*
X57830049Y-72910610D01*
X57995887Y-73090758D01*
X58189114Y-73241153D01*
X58404461Y-73357693D01*
X58636052Y-73437198D01*
X58877571Y-73477500D01*
X58877573Y-73477500D01*
X59122427Y-73477500D01*
X59122429Y-73477500D01*
X59363948Y-73437198D01*
X59595539Y-73357693D01*
X59739103Y-73280000D01*
X61517770Y-73280000D01*
X61536642Y-73471622D01*
X61592538Y-73655885D01*
X61658074Y-73778493D01*
X61683306Y-73825698D01*
X61805459Y-73974541D01*
X61954302Y-74096694D01*
X62034058Y-74139324D01*
X62124114Y-74187461D01*
X62124116Y-74187461D01*
X62124117Y-74187462D01*
X62308376Y-74243357D01*
X62500000Y-74262230D01*
X62691624Y-74243357D01*
X62875883Y-74187462D01*
X63045698Y-74096694D01*
X63194541Y-73974541D01*
X63316694Y-73825698D01*
X63407462Y-73655883D01*
X63463357Y-73471624D01*
X63482230Y-73280000D01*
X63463357Y-73088376D01*
X63407462Y-72904117D01*
X63407461Y-72904116D01*
X63407461Y-72904114D01*
X63324290Y-72748514D01*
X63316694Y-72734302D01*
X63194541Y-72585459D01*
X63045698Y-72463306D01*
X63035396Y-72457799D01*
X62875885Y-72372538D01*
X62691622Y-72316642D01*
X62520933Y-72299831D01*
X62500000Y-72297770D01*
X62499999Y-72297770D01*
X62308377Y-72316642D01*
X62124114Y-72372538D01*
X61954303Y-72463305D01*
X61805459Y-72585459D01*
X61683305Y-72734303D01*
X61592538Y-72904114D01*
X61536642Y-73088377D01*
X61517770Y-73280000D01*
X59739103Y-73280000D01*
X59810886Y-73241153D01*
X60004113Y-73090758D01*
X60169951Y-72910610D01*
X60303876Y-72705622D01*
X60402235Y-72481388D01*
X60462344Y-72244022D01*
X60482564Y-72000000D01*
X60462344Y-71755978D01*
X60402235Y-71518612D01*
X60303876Y-71294378D01*
X60169951Y-71089390D01*
X60004113Y-70909242D01*
X59810886Y-70758847D01*
X59776058Y-70739999D01*
X61517770Y-70739999D01*
X61536642Y-70931622D01*
X61592538Y-71115885D01*
X61677799Y-71275396D01*
X61683306Y-71285698D01*
X61805459Y-71434541D01*
X61954302Y-71556694D01*
X62034058Y-71599324D01*
X62124114Y-71647461D01*
X62124116Y-71647461D01*
X62124117Y-71647462D01*
X62308376Y-71703357D01*
X62500000Y-71722230D01*
X62691624Y-71703357D01*
X62875883Y-71647462D01*
X63045698Y-71556694D01*
X63194541Y-71434541D01*
X63316694Y-71285698D01*
X63407462Y-71115883D01*
X63463357Y-70931624D01*
X63482230Y-70740000D01*
X63463357Y-70548376D01*
X63407462Y-70364117D01*
X63407461Y-70364116D01*
X63407461Y-70364114D01*
X63359324Y-70274058D01*
X63316694Y-70194302D01*
X63194541Y-70045459D01*
X63045698Y-69923306D01*
X63003542Y-69900773D01*
X62875885Y-69832538D01*
X62691622Y-69776642D01*
X62520933Y-69759831D01*
X62500000Y-69757770D01*
X62499999Y-69757770D01*
X62308377Y-69776642D01*
X62124114Y-69832538D01*
X61954303Y-69923305D01*
X61805459Y-70045459D01*
X61683305Y-70194303D01*
X61592538Y-70364114D01*
X61536642Y-70548377D01*
X61517770Y-70739999D01*
X59776058Y-70739999D01*
X59595539Y-70642307D01*
X59363948Y-70562802D01*
X59122429Y-70522500D01*
X58877571Y-70522500D01*
X58636052Y-70562802D01*
X58423011Y-70635938D01*
X58404458Y-70642308D01*
X58189112Y-70758848D01*
X57995889Y-70909240D01*
X57830048Y-71089390D01*
X57701796Y-71285696D01*
X57696124Y-71294378D01*
X57597765Y-71518612D01*
X57537656Y-71755978D01*
X57517436Y-72000000D01*
X56277500Y-72000000D01*
X56277500Y-69525126D01*
X66287157Y-69525126D01*
X66307201Y-69651682D01*
X66365372Y-69765849D01*
X66432062Y-69832538D01*
X66455976Y-69856452D01*
X66471573Y-69864399D01*
X66502640Y-69900773D01*
X66505699Y-69920087D01*
X66505699Y-75492463D01*
X66502192Y-75513105D01*
X66502018Y-75513600D01*
X66505305Y-75542774D01*
X66505698Y-75549761D01*
X66505699Y-75557055D01*
X66507320Y-75564157D01*
X66508493Y-75571063D01*
X66511780Y-75600239D01*
X66512058Y-75600681D01*
X66520070Y-75620023D01*
X66520186Y-75620535D01*
X66538490Y-75643486D01*
X66542547Y-75649204D01*
X66546424Y-75655374D01*
X66551575Y-75660525D01*
X66556246Y-75665751D01*
X66574550Y-75688704D01*
X66575024Y-75688932D01*
X66592097Y-75701047D01*
X66637255Y-75746205D01*
X66655561Y-75790399D01*
X66654792Y-75800175D01*
X66640711Y-75889086D01*
X66660755Y-76015643D01*
X66718926Y-76129810D01*
X66809529Y-76220413D01*
X66919553Y-76276473D01*
X66923698Y-76278585D01*
X67050253Y-76298629D01*
X67176808Y-76278585D01*
X67290976Y-76220413D01*
X67381579Y-76129810D01*
X67439751Y-76015642D01*
X67459795Y-75889087D01*
X67439751Y-75762532D01*
X67408423Y-75701047D01*
X67381579Y-75648363D01*
X67290976Y-75557760D01*
X67176809Y-75499589D01*
X67068645Y-75482458D01*
X67050253Y-75479545D01*
X67050252Y-75479545D01*
X66961341Y-75493626D01*
X66914828Y-75482458D01*
X66907371Y-75476089D01*
X66906005Y-75474723D01*
X66887699Y-75430529D01*
X66887699Y-72000000D01*
X69171573Y-72000000D01*
X72000000Y-74828427D01*
X74828427Y-72000000D01*
X72000000Y-69171573D01*
X69171573Y-72000000D01*
X66887699Y-72000000D01*
X66887699Y-69920087D01*
X66906005Y-69875893D01*
X66921825Y-69864399D01*
X66937422Y-69856452D01*
X67028025Y-69765849D01*
X67086197Y-69651681D01*
X67106241Y-69525126D01*
X67086197Y-69398571D01*
X67085749Y-69397691D01*
X67028025Y-69284402D01*
X66937423Y-69193800D01*
X66921824Y-69185852D01*
X66890758Y-69149477D01*
X66887699Y-69130164D01*
X66887699Y-67862361D01*
X66906005Y-67818167D01*
X67712102Y-67012071D01*
X67756296Y-66993765D01*
X70084759Y-66993765D01*
X70128953Y-67012071D01*
X70140447Y-67027891D01*
X70148394Y-67043488D01*
X70238996Y-67134091D01*
X70353163Y-67192262D01*
X70353165Y-67192263D01*
X70479720Y-67212307D01*
X70606275Y-67192263D01*
X70720443Y-67134091D01*
X70811046Y-67043488D01*
X70869218Y-66929320D01*
X70889262Y-66802765D01*
X70869218Y-66676210D01*
X70857132Y-66652490D01*
X70811046Y-66562041D01*
X70720443Y-66471438D01*
X70606276Y-66413267D01*
X70542997Y-66403244D01*
X70479720Y-66393223D01*
X70479719Y-66393223D01*
X70353163Y-66413267D01*
X70238996Y-66471438D01*
X70148394Y-66562041D01*
X70140447Y-66577639D01*
X70104073Y-66608706D01*
X70084759Y-66611765D01*
X67694364Y-66611765D01*
X67673722Y-66608258D01*
X67673228Y-66608085D01*
X67673227Y-66608085D01*
X67644054Y-66611372D01*
X67637057Y-66611765D01*
X67629772Y-66611765D01*
X67622668Y-66613386D01*
X67615763Y-66614559D01*
X67586587Y-66617846D01*
X67586140Y-66618128D01*
X67566804Y-66626136D01*
X67566289Y-66626253D01*
X67543332Y-66644561D01*
X67537619Y-66648615D01*
X67531453Y-66652489D01*
X67526295Y-66657647D01*
X67521074Y-66662311D01*
X67498122Y-66680615D01*
X67497894Y-66681090D01*
X67485780Y-66698161D01*
X66592095Y-67591846D01*
X66575024Y-67603960D01*
X66574549Y-67604188D01*
X66556245Y-67627140D01*
X66551581Y-67632361D01*
X66546423Y-67637519D01*
X66542549Y-67643685D01*
X66538495Y-67649398D01*
X66520187Y-67672355D01*
X66520070Y-67672870D01*
X66512062Y-67692206D01*
X66511780Y-67692653D01*
X66508493Y-67721829D01*
X66507320Y-67728734D01*
X66505699Y-67735838D01*
X66505699Y-67743122D01*
X66505306Y-67750119D01*
X66502019Y-67779293D01*
X66502192Y-67779788D01*
X66505699Y-67800430D01*
X66505699Y-69130164D01*
X66487393Y-69174358D01*
X66471574Y-69185852D01*
X66455974Y-69193800D01*
X66365372Y-69284402D01*
X66307201Y-69398569D01*
X66287157Y-69525126D01*
X56277500Y-69525126D01*
X56277500Y-68040000D01*
X57517436Y-68040000D01*
X57537656Y-68284022D01*
X57597765Y-68521388D01*
X57696124Y-68745622D01*
X57830049Y-68950610D01*
X57995887Y-69130758D01*
X58189114Y-69281153D01*
X58404461Y-69397693D01*
X58636052Y-69477198D01*
X58877571Y-69517500D01*
X58877573Y-69517500D01*
X59122427Y-69517500D01*
X59122429Y-69517500D01*
X59363948Y-69477198D01*
X59595539Y-69397693D01*
X59810886Y-69281153D01*
X60004113Y-69130758D01*
X60169951Y-68950610D01*
X60303876Y-68745622D01*
X60402235Y-68521388D01*
X60462344Y-68284022D01*
X60469306Y-68200000D01*
X61517770Y-68200000D01*
X61536642Y-68391622D01*
X61592538Y-68575885D01*
X61677799Y-68735396D01*
X61683306Y-68745698D01*
X61805459Y-68894541D01*
X61954302Y-69016694D01*
X62034058Y-69059324D01*
X62124114Y-69107461D01*
X62124116Y-69107461D01*
X62124117Y-69107462D01*
X62308376Y-69163357D01*
X62500000Y-69182230D01*
X62691624Y-69163357D01*
X62875883Y-69107462D01*
X63045698Y-69016694D01*
X63194541Y-68894541D01*
X63316694Y-68745698D01*
X63407462Y-68575883D01*
X63463357Y-68391624D01*
X63482230Y-68200000D01*
X63463357Y-68008376D01*
X63407462Y-67824117D01*
X63407461Y-67824116D01*
X63407461Y-67824114D01*
X63332150Y-67683219D01*
X63316694Y-67654302D01*
X63194541Y-67505459D01*
X63045698Y-67383306D01*
X63035396Y-67377799D01*
X62875885Y-67292538D01*
X62691622Y-67236642D01*
X62520933Y-67219831D01*
X62500000Y-67217770D01*
X62499999Y-67217770D01*
X62308377Y-67236642D01*
X62124114Y-67292538D01*
X61954303Y-67383305D01*
X61805459Y-67505459D01*
X61683305Y-67654303D01*
X61592538Y-67824114D01*
X61536642Y-68008377D01*
X61517770Y-68200000D01*
X60469306Y-68200000D01*
X60482564Y-68040000D01*
X60462344Y-67795978D01*
X60402235Y-67558612D01*
X60303876Y-67334378D01*
X60169951Y-67129390D01*
X60004113Y-66949242D01*
X59810886Y-66798847D01*
X59595539Y-66682307D01*
X59363948Y-66602802D01*
X59122429Y-66562500D01*
X58877571Y-66562500D01*
X58636052Y-66602802D01*
X58469081Y-66660123D01*
X58404458Y-66682308D01*
X58189112Y-66798848D01*
X57995889Y-66949240D01*
X57830048Y-67129390D01*
X57759977Y-67236643D01*
X57696124Y-67334378D01*
X57597765Y-67558612D01*
X57537656Y-67795978D01*
X57517436Y-68040000D01*
X56277500Y-68040000D01*
X56277500Y-65660000D01*
X61517770Y-65660000D01*
X61536642Y-65851622D01*
X61592538Y-66035885D01*
X61677799Y-66195396D01*
X61683306Y-66205698D01*
X61805459Y-66354541D01*
X61954302Y-66476694D01*
X62034058Y-66519324D01*
X62124114Y-66567461D01*
X62124116Y-66567461D01*
X62124117Y-66567462D01*
X62308376Y-66623357D01*
X62500000Y-66642230D01*
X62691624Y-66623357D01*
X62875883Y-66567462D01*
X63045698Y-66476694D01*
X63194541Y-66354541D01*
X63316694Y-66205698D01*
X63407462Y-66035883D01*
X63463357Y-65851624D01*
X63482230Y-65660000D01*
X63463357Y-65468376D01*
X63407462Y-65284117D01*
X63407461Y-65284116D01*
X63407461Y-65284114D01*
X63346870Y-65170758D01*
X63316694Y-65114302D01*
X63194541Y-64965459D01*
X63045698Y-64843306D01*
X63035396Y-64837799D01*
X62875885Y-64752538D01*
X62691622Y-64696642D01*
X62520933Y-64679831D01*
X62500000Y-64677770D01*
X62499999Y-64677770D01*
X62308377Y-64696642D01*
X62124114Y-64752538D01*
X61954303Y-64843305D01*
X61805459Y-64965459D01*
X61683305Y-65114303D01*
X61592538Y-65284114D01*
X61536642Y-65468377D01*
X61517770Y-65660000D01*
X56277500Y-65660000D01*
X56277500Y-64080000D01*
X57517436Y-64080000D01*
X57537656Y-64324022D01*
X57597765Y-64561388D01*
X57696124Y-64785622D01*
X57830049Y-64990610D01*
X57995887Y-65170758D01*
X58189114Y-65321153D01*
X58404461Y-65437693D01*
X58636052Y-65517198D01*
X58877571Y-65557500D01*
X58877573Y-65557500D01*
X59122427Y-65557500D01*
X59122429Y-65557500D01*
X59363948Y-65517198D01*
X59595539Y-65437693D01*
X59810886Y-65321153D01*
X60004113Y-65170758D01*
X60169951Y-64990610D01*
X60303876Y-64785622D01*
X60402235Y-64561388D01*
X60462344Y-64324022D01*
X60482564Y-64080000D01*
X60462344Y-63835978D01*
X60402235Y-63598612D01*
X60303876Y-63374378D01*
X60169951Y-63169390D01*
X60124484Y-63120000D01*
X61517770Y-63120000D01*
X61536642Y-63311622D01*
X61592538Y-63495885D01*
X61677799Y-63655396D01*
X61683306Y-63665698D01*
X61805459Y-63814541D01*
X61954302Y-63936694D01*
X62034058Y-63979324D01*
X62124114Y-64027461D01*
X62124116Y-64027461D01*
X62124117Y-64027462D01*
X62308376Y-64083357D01*
X62500000Y-64102230D01*
X62691624Y-64083357D01*
X62875883Y-64027462D01*
X63045698Y-63936694D01*
X63194541Y-63814541D01*
X63316694Y-63665698D01*
X63407462Y-63495883D01*
X63463357Y-63311624D01*
X63482230Y-63120000D01*
X63463357Y-62928376D01*
X63407462Y-62744117D01*
X63407461Y-62744116D01*
X63407461Y-62744114D01*
X63331766Y-62602500D01*
X63316694Y-62574302D01*
X63194541Y-62425459D01*
X63045698Y-62303306D01*
X63035396Y-62297799D01*
X62875885Y-62212538D01*
X62691622Y-62156642D01*
X62520933Y-62139831D01*
X62500000Y-62137770D01*
X62499999Y-62137770D01*
X62308377Y-62156642D01*
X62124114Y-62212538D01*
X61954303Y-62303305D01*
X61805459Y-62425459D01*
X61683305Y-62574303D01*
X61592538Y-62744114D01*
X61536642Y-62928377D01*
X61517770Y-63120000D01*
X60124484Y-63120000D01*
X60004113Y-62989242D01*
X59810886Y-62838847D01*
X59595539Y-62722307D01*
X59363948Y-62642802D01*
X59122429Y-62602500D01*
X58877571Y-62602500D01*
X58636052Y-62642802D01*
X58423011Y-62715938D01*
X58404458Y-62722308D01*
X58189112Y-62838848D01*
X57995889Y-62989240D01*
X57830048Y-63169390D01*
X57737124Y-63311622D01*
X57696124Y-63374378D01*
X57597765Y-63598612D01*
X57537656Y-63835978D01*
X57517436Y-64080000D01*
X56277500Y-64080000D01*
X56277500Y-62928376D01*
X56277500Y-60120000D01*
X57517436Y-60120000D01*
X57537656Y-60364022D01*
X57597765Y-60601388D01*
X57696124Y-60825622D01*
X57696125Y-60825623D01*
X57781227Y-60955883D01*
X57830049Y-61030610D01*
X57995887Y-61210758D01*
X58189114Y-61361153D01*
X58404461Y-61477693D01*
X58636052Y-61557198D01*
X58877571Y-61597500D01*
X58877573Y-61597500D01*
X59122427Y-61597500D01*
X59122429Y-61597500D01*
X59363948Y-61557198D01*
X59595539Y-61477693D01*
X59810886Y-61361153D01*
X60004113Y-61210758D01*
X60169951Y-61030610D01*
X60303876Y-60825622D01*
X60402235Y-60601388D01*
X60407651Y-60579999D01*
X61517770Y-60579999D01*
X61536642Y-60771622D01*
X61592538Y-60955885D01*
X61632480Y-61030610D01*
X61683306Y-61125698D01*
X61805459Y-61274541D01*
X61954302Y-61396694D01*
X62034058Y-61439324D01*
X62124114Y-61487461D01*
X62124116Y-61487461D01*
X62124117Y-61487462D01*
X62308376Y-61543357D01*
X62500000Y-61562230D01*
X62691624Y-61543357D01*
X62875883Y-61487462D01*
X63045698Y-61396694D01*
X63194541Y-61274541D01*
X63316694Y-61125698D01*
X63407462Y-60955883D01*
X63463357Y-60771624D01*
X63482230Y-60580000D01*
X63463357Y-60388376D01*
X63407462Y-60204117D01*
X63407461Y-60204116D01*
X63407461Y-60204114D01*
X63359324Y-60114058D01*
X63316694Y-60034302D01*
X63194541Y-59885459D01*
X63045698Y-59763306D01*
X63035396Y-59757799D01*
X62875885Y-59672538D01*
X62691622Y-59616642D01*
X62520933Y-59599831D01*
X62500000Y-59597770D01*
X62499999Y-59597770D01*
X62308377Y-59616642D01*
X62124114Y-59672538D01*
X61954303Y-59763305D01*
X61805459Y-59885459D01*
X61683305Y-60034303D01*
X61592538Y-60204114D01*
X61536642Y-60388377D01*
X61517770Y-60579999D01*
X60407651Y-60579999D01*
X60462344Y-60364022D01*
X60482564Y-60120000D01*
X60462344Y-59875978D01*
X60402235Y-59638612D01*
X60303876Y-59414378D01*
X60169951Y-59209390D01*
X60004113Y-59029242D01*
X59810886Y-58878847D01*
X59595539Y-58762307D01*
X59363948Y-58682802D01*
X59122429Y-58642500D01*
X58877571Y-58642500D01*
X58636052Y-58682802D01*
X58485344Y-58734540D01*
X58404458Y-58762308D01*
X58189112Y-58878848D01*
X57995889Y-59029240D01*
X57830048Y-59209390D01*
X57696125Y-59414376D01*
X57696124Y-59414378D01*
X57597765Y-59638612D01*
X57537656Y-59875978D01*
X57517436Y-60120000D01*
X56277500Y-60120000D01*
X56277500Y-58040000D01*
X61517770Y-58040000D01*
X61536642Y-58231622D01*
X61592538Y-58415885D01*
X61677799Y-58575396D01*
X61683306Y-58585698D01*
X61805459Y-58734541D01*
X61954302Y-58856694D01*
X62034058Y-58899324D01*
X62124114Y-58947461D01*
X62124116Y-58947461D01*
X62124117Y-58947462D01*
X62308376Y-59003357D01*
X62500000Y-59022230D01*
X62691624Y-59003357D01*
X62875883Y-58947462D01*
X63045698Y-58856694D01*
X63194541Y-58734541D01*
X63316694Y-58585698D01*
X63407462Y-58415883D01*
X63463357Y-58231624D01*
X63482230Y-58040000D01*
X63463357Y-57848376D01*
X63407462Y-57664117D01*
X63407461Y-57664116D01*
X63407461Y-57664114D01*
X63359324Y-57574058D01*
X63316694Y-57494302D01*
X63194541Y-57345459D01*
X63045698Y-57223306D01*
X63035396Y-57217799D01*
X62875885Y-57132538D01*
X62691622Y-57076642D01*
X62520933Y-57059831D01*
X62500000Y-57057770D01*
X62499999Y-57057770D01*
X62308377Y-57076642D01*
X62124114Y-57132538D01*
X61954303Y-57223305D01*
X61805459Y-57345459D01*
X61683305Y-57494303D01*
X61592538Y-57664114D01*
X61536642Y-57848377D01*
X61517770Y-58040000D01*
X56277500Y-58040000D01*
X56277500Y-56160000D01*
X57517436Y-56160000D01*
X57537656Y-56404022D01*
X57597765Y-56641388D01*
X57696124Y-56865622D01*
X57830049Y-57070610D01*
X57995887Y-57250758D01*
X58189114Y-57401153D01*
X58404461Y-57517693D01*
X58636052Y-57597198D01*
X58877571Y-57637500D01*
X58877573Y-57637500D01*
X59122427Y-57637500D01*
X59122429Y-57637500D01*
X59363948Y-57597198D01*
X59595539Y-57517693D01*
X59810886Y-57401153D01*
X60004113Y-57250758D01*
X60169951Y-57070610D01*
X60303876Y-56865622D01*
X60402235Y-56641388D01*
X60462344Y-56404022D01*
X60465780Y-56362557D01*
X61522499Y-56362557D01*
X61529898Y-56399748D01*
X61558078Y-56441922D01*
X61600252Y-56470102D01*
X61637442Y-56477500D01*
X61637443Y-56477500D01*
X63362557Y-56477500D01*
X63362558Y-56477500D01*
X63399748Y-56470102D01*
X63441922Y-56441922D01*
X63470102Y-56399748D01*
X63477500Y-56362558D01*
X63477500Y-54637442D01*
X63470102Y-54600252D01*
X63441922Y-54558078D01*
X63399748Y-54529898D01*
X63362558Y-54522500D01*
X61637442Y-54522500D01*
X61618846Y-54526199D01*
X61600251Y-54529898D01*
X61558078Y-54558078D01*
X61529898Y-54600251D01*
X61522499Y-54637442D01*
X61522499Y-56362557D01*
X60465780Y-56362557D01*
X60482564Y-56160000D01*
X60462344Y-55915978D01*
X60402235Y-55678612D01*
X60303876Y-55454378D01*
X60169951Y-55249390D01*
X60004113Y-55069242D01*
X59810886Y-54918847D01*
X59595539Y-54802307D01*
X59363948Y-54722802D01*
X59122429Y-54682500D01*
X58877571Y-54682500D01*
X58636052Y-54722802D01*
X58423011Y-54795938D01*
X58404458Y-54802308D01*
X58189112Y-54918848D01*
X57995889Y-55069240D01*
X57830048Y-55249390D01*
X57696125Y-55454376D01*
X57696124Y-55454378D01*
X57597765Y-55678612D01*
X57537656Y-55915978D01*
X57517436Y-56160000D01*
X56277500Y-56160000D01*
X56277500Y-48965829D01*
X56295803Y-48921641D01*
X56734139Y-48483304D01*
X56778333Y-48464999D01*
X57485827Y-48464999D01*
X57495157Y-48463639D01*
X57559204Y-48454309D01*
X57672390Y-48398976D01*
X57761476Y-48309890D01*
X57816809Y-48196704D01*
X57827500Y-48123327D01*
X57827499Y-47526674D01*
X57826563Y-47520252D01*
X57824780Y-47508010D01*
X57816809Y-47453296D01*
X57761476Y-47340110D01*
X57672390Y-47251024D01*
X57672389Y-47251023D01*
X57559205Y-47195691D01*
X57522515Y-47190345D01*
X57485827Y-47185000D01*
X57485826Y-47185000D01*
X56514172Y-47185000D01*
X56440795Y-47195691D01*
X56327610Y-47251023D01*
X56238523Y-47340110D01*
X56183191Y-47453294D01*
X56172500Y-47526673D01*
X56172500Y-48123327D01*
X56184599Y-48206369D01*
X56181802Y-48206776D01*
X56183843Y-48239737D01*
X56168927Y-48263627D01*
X55907194Y-48525361D01*
X55863000Y-48543667D01*
X55818806Y-48525361D01*
X55800500Y-48481167D01*
X55800500Y-46298327D01*
X56172500Y-46298327D01*
X56183191Y-46371704D01*
X56238523Y-46484889D01*
X56238524Y-46484890D01*
X56327610Y-46573976D01*
X56440796Y-46629309D01*
X56514173Y-46640000D01*
X57485826Y-46639999D01*
X57485827Y-46639999D01*
X57495157Y-46638639D01*
X57559204Y-46629309D01*
X57672390Y-46573976D01*
X57761476Y-46484890D01*
X57816809Y-46371704D01*
X57822741Y-46330988D01*
X57847227Y-46289896D01*
X57884588Y-46277500D01*
X60444537Y-46277500D01*
X60458203Y-46279729D01*
X60460996Y-46279599D01*
X60460997Y-46279600D01*
X60504964Y-46277567D01*
X60507852Y-46277500D01*
X60525714Y-46277500D01*
X60525715Y-46277500D01*
X60527792Y-46277111D01*
X60536390Y-46276113D01*
X60564635Y-46274808D01*
X60576002Y-46269788D01*
X60589763Y-46265526D01*
X60601981Y-46263243D01*
X60626017Y-46248359D01*
X60633675Y-46244324D01*
X60643402Y-46240029D01*
X60659542Y-46232903D01*
X60664929Y-46227515D01*
X60668332Y-46224113D01*
X60679627Y-46215166D01*
X60690189Y-46208627D01*
X60707228Y-46186062D01*
X60712903Y-46179540D01*
X61104839Y-45787603D01*
X61149032Y-45769298D01*
X61157189Y-45769832D01*
X61250000Y-45782052D01*
X61387705Y-45763923D01*
X61516026Y-45710771D01*
X61626218Y-45626218D01*
X61710771Y-45516026D01*
X61763923Y-45387705D01*
X61782052Y-45250000D01*
X61763923Y-45112295D01*
X61710771Y-44983974D01*
X61710770Y-44983973D01*
X61710770Y-44983972D01*
X61626218Y-44873781D01*
X61516027Y-44789229D01*
X61387703Y-44736076D01*
X61250000Y-44717948D01*
X61112296Y-44736076D01*
X60983972Y-44789229D01*
X60873781Y-44873781D01*
X60789229Y-44983972D01*
X60736076Y-45112296D01*
X60717948Y-45250000D01*
X60730166Y-45342807D01*
X60717785Y-45389013D01*
X60712395Y-45395159D01*
X60403362Y-45704194D01*
X60359168Y-45722500D01*
X57884588Y-45722500D01*
X57840394Y-45704194D01*
X57822741Y-45669011D01*
X57820617Y-45654437D01*
X57816809Y-45628296D01*
X57761476Y-45515110D01*
X57672390Y-45426024D01*
X57672390Y-45426023D01*
X57672389Y-45426023D01*
X57559205Y-45370691D01*
X57522515Y-45365345D01*
X57485827Y-45360000D01*
X57485826Y-45360000D01*
X56514172Y-45360000D01*
X56440795Y-45370691D01*
X56327610Y-45426023D01*
X56238523Y-45515110D01*
X56183191Y-45628294D01*
X56172500Y-45701673D01*
X56172500Y-46298327D01*
X55800500Y-46298327D01*
X55800500Y-38249999D01*
X63840458Y-38249999D01*
X63860502Y-38376556D01*
X63918673Y-38490723D01*
X64009276Y-38581326D01*
X64123443Y-38639497D01*
X64123445Y-38639498D01*
X64250000Y-38659542D01*
X64338910Y-38645459D01*
X64385422Y-38656625D01*
X64392880Y-38662995D01*
X67790694Y-42060808D01*
X67809000Y-42105002D01*
X67809000Y-52144996D01*
X67790694Y-52189190D01*
X66642881Y-53337002D01*
X66598687Y-53355308D01*
X66588911Y-53354539D01*
X66500000Y-53340458D01*
X66373443Y-53360502D01*
X66259276Y-53418673D01*
X66168673Y-53509276D01*
X66110502Y-53623443D01*
X66090458Y-53750000D01*
X66110502Y-53876556D01*
X66168673Y-53990723D01*
X66259276Y-54081326D01*
X66373443Y-54139497D01*
X66373445Y-54139498D01*
X66500000Y-54159542D01*
X66626555Y-54139498D01*
X66740723Y-54081326D01*
X66831326Y-53990723D01*
X66889498Y-53876555D01*
X66909542Y-53750000D01*
X66895459Y-53661086D01*
X66906626Y-53614575D01*
X66912990Y-53607123D01*
X68104602Y-52415511D01*
X68121676Y-52403397D01*
X68122149Y-52403170D01*
X68140462Y-52380205D01*
X68145107Y-52375006D01*
X68150275Y-52369840D01*
X68154155Y-52363662D01*
X68158209Y-52357951D01*
X68176511Y-52335003D01*
X68176627Y-52334496D01*
X68184645Y-52315140D01*
X68184918Y-52314706D01*
X68188203Y-52285534D01*
X68189379Y-52278621D01*
X68191000Y-52271522D01*
X68191000Y-52264235D01*
X68191393Y-52257237D01*
X68194680Y-52228065D01*
X68194618Y-52227889D01*
X68194507Y-52227569D01*
X68191000Y-52206928D01*
X68191000Y-48447000D01*
X73914741Y-48447000D01*
X73917851Y-48470629D01*
X73975988Y-48610986D01*
X74068478Y-48731521D01*
X74189010Y-48824008D01*
X74329375Y-48882149D01*
X74440148Y-48896732D01*
X74444227Y-48897000D01*
X74903000Y-48897000D01*
X74903000Y-48620000D01*
X75157000Y-48620000D01*
X75157000Y-48897000D01*
X75615773Y-48897000D01*
X75619851Y-48896732D01*
X75730624Y-48882149D01*
X75870991Y-48824007D01*
X75991520Y-48731521D01*
X76084007Y-48610992D01*
X76142148Y-48470626D01*
X76145259Y-48447000D01*
X75855773Y-48447000D01*
X75883895Y-48348160D01*
X75873546Y-48236479D01*
X75851896Y-48193000D01*
X76145258Y-48193000D01*
X76142148Y-48169370D01*
X76084011Y-48029013D01*
X75991521Y-47908478D01*
X75870989Y-47815991D01*
X75730624Y-47757850D01*
X75619851Y-47743267D01*
X75615773Y-47743000D01*
X75157000Y-47743000D01*
X75157000Y-48020000D01*
X74903000Y-48020000D01*
X74903000Y-47743000D01*
X74444227Y-47743000D01*
X74440148Y-47743267D01*
X74329375Y-47757850D01*
X74189008Y-47815992D01*
X74068479Y-47908478D01*
X73975992Y-48029007D01*
X73917851Y-48169373D01*
X73914741Y-48193000D01*
X74204227Y-48193000D01*
X74176105Y-48291840D01*
X74186454Y-48403521D01*
X74208104Y-48447000D01*
X73914741Y-48447000D01*
X68191000Y-48447000D01*
X68191000Y-46928193D01*
X74991591Y-46928193D01*
X74991592Y-46928196D01*
X75022604Y-47077436D01*
X75078339Y-47185000D01*
X75092732Y-47212776D01*
X75196770Y-47324175D01*
X75327010Y-47403375D01*
X75473785Y-47444500D01*
X75473786Y-47444500D01*
X75585798Y-47444500D01*
X75587927Y-47444500D01*
X75701009Y-47428957D01*
X75840818Y-47368230D01*
X75959058Y-47272034D01*
X76046961Y-47147504D01*
X76098006Y-47003877D01*
X76108408Y-46851804D01*
X76077396Y-46702564D01*
X76007269Y-46567225D01*
X75995124Y-46554221D01*
X75903229Y-46455824D01*
X75772989Y-46376624D01*
X75626215Y-46335500D01*
X75626214Y-46335500D01*
X75512073Y-46335500D01*
X75509975Y-46335788D01*
X75509965Y-46335789D01*
X75398991Y-46351043D01*
X75259181Y-46411770D01*
X75140941Y-46507965D01*
X75053037Y-46632497D01*
X75001993Y-46776122D01*
X74991591Y-46928193D01*
X68191000Y-46928193D01*
X68191000Y-42043071D01*
X68194507Y-42022429D01*
X68194680Y-42021935D01*
X68191393Y-41992760D01*
X68191000Y-41985763D01*
X68191000Y-41978482D01*
X68191000Y-41978479D01*
X68189375Y-41971362D01*
X68188203Y-41964460D01*
X68184918Y-41935295D01*
X68184918Y-41935294D01*
X68184637Y-41934848D01*
X68176626Y-41915504D01*
X68176511Y-41914997D01*
X68176509Y-41914994D01*
X68158203Y-41892039D01*
X68154153Y-41886332D01*
X68150275Y-41880160D01*
X68145121Y-41875006D01*
X68140460Y-41869791D01*
X68122149Y-41846830D01*
X68122146Y-41846828D01*
X68121671Y-41846599D01*
X68104600Y-41834485D01*
X67418308Y-41148193D01*
X74991591Y-41148193D01*
X74991592Y-41148196D01*
X75022604Y-41297436D01*
X75058910Y-41367504D01*
X75092732Y-41432776D01*
X75196770Y-41544175D01*
X75327010Y-41623375D01*
X75473785Y-41664500D01*
X75473786Y-41664500D01*
X75585798Y-41664500D01*
X75587927Y-41664500D01*
X75701009Y-41648957D01*
X75840818Y-41588230D01*
X75959058Y-41492034D01*
X76046961Y-41367504D01*
X76098006Y-41223877D01*
X76108408Y-41071804D01*
X76077396Y-40922564D01*
X76007269Y-40787225D01*
X75995124Y-40774221D01*
X75903229Y-40675824D01*
X75772989Y-40596624D01*
X75626215Y-40555500D01*
X75626214Y-40555500D01*
X75512073Y-40555500D01*
X75509975Y-40555788D01*
X75509965Y-40555789D01*
X75398991Y-40571043D01*
X75259181Y-40631770D01*
X75140941Y-40727965D01*
X75053037Y-40852497D01*
X75001993Y-40996122D01*
X74991591Y-41148193D01*
X67418308Y-41148193D01*
X66077115Y-39807000D01*
X73914741Y-39807000D01*
X73917851Y-39830629D01*
X73975988Y-39970986D01*
X74068478Y-40091521D01*
X74189010Y-40184008D01*
X74329375Y-40242149D01*
X74440148Y-40256732D01*
X74444227Y-40257000D01*
X74903000Y-40257000D01*
X74903000Y-39980000D01*
X75157000Y-39980000D01*
X75157000Y-40257000D01*
X75615773Y-40257000D01*
X75619851Y-40256732D01*
X75730624Y-40242149D01*
X75870991Y-40184007D01*
X75991520Y-40091521D01*
X76084007Y-39970992D01*
X76142148Y-39830626D01*
X76145259Y-39807000D01*
X75855773Y-39807000D01*
X75883895Y-39708160D01*
X75873546Y-39596479D01*
X75851896Y-39553000D01*
X76145258Y-39553000D01*
X76142148Y-39529370D01*
X76084011Y-39389013D01*
X75991521Y-39268478D01*
X75870989Y-39175991D01*
X75730624Y-39117850D01*
X75619851Y-39103267D01*
X75615773Y-39103000D01*
X75157000Y-39103000D01*
X75157000Y-39380000D01*
X74903000Y-39380000D01*
X74903000Y-39103000D01*
X74444227Y-39103000D01*
X74440148Y-39103267D01*
X74329375Y-39117850D01*
X74189008Y-39175992D01*
X74068479Y-39268478D01*
X73975992Y-39389007D01*
X73917851Y-39529373D01*
X73914741Y-39553000D01*
X74204227Y-39553000D01*
X74176105Y-39651840D01*
X74186454Y-39763521D01*
X74208104Y-39807000D01*
X73914741Y-39807000D01*
X66077115Y-39807000D01*
X64662995Y-38392880D01*
X64644689Y-38348686D01*
X64645457Y-38338921D01*
X64659542Y-38250000D01*
X64639498Y-38123445D01*
X64639497Y-38123443D01*
X64581326Y-38009276D01*
X64490723Y-37918673D01*
X64376556Y-37860502D01*
X64313277Y-37850480D01*
X64250000Y-37840458D01*
X64249999Y-37840458D01*
X64123443Y-37860502D01*
X64009276Y-37918673D01*
X63918673Y-38009276D01*
X63860502Y-38123443D01*
X63840458Y-38249999D01*
X55800500Y-38249999D01*
X55800500Y-37363000D01*
X55818806Y-37318806D01*
X55863000Y-37300500D01*
X80552405Y-37300500D01*
X80596930Y-37300500D01*
X80603056Y-37300801D01*
G37*
%TD.AperFunction*%
%TD*%
%TA.AperFunction,Conductor*%
%TO.N,GND*%
G36*
X74828427Y-72000000D02*
G01*
X72000000Y-74828427D01*
X69171573Y-72000000D01*
X72000000Y-69171573D01*
X74828427Y-72000000D01*
G37*
%TD.AperFunction*%
%TD*%
M02*
