M48
; DRILL file {KiCad 7.0.2} date zo 30 jul 2023 12:29:19 CEST
; FORMAT={-:-/ absolute / inch / decimal}
; #@! TF.CreationDate,2023-07-30T12:29:19+02:00
; #@! TF.GenerationSoftware,Kicad,Pcbnew,7.0.2
; #@! TF.FileFunction,Plated,1,2,PTH
FMAT,2
INCH
; #@! TA.AperFunction,Plated,PTH,ViaDrill
T1C0.0118
; #@! TA.AperFunction,Plated,PTH,ViaDrill
T2C0.0157
; #@! TA.AperFunction,Plated,PTH,ComponentDrill
T3C0.0236
; #@! TA.AperFunction,Plated,PTH,ComponentDrill
T4C0.0394
%
G90
G05
T1
X2.6259Y-2.7372
X2.6259Y-3.2661
X2.6398Y-2.9878
X2.6537Y-2.6676
X2.6676Y-3.0852
X2.6676Y-3.3079
X2.6815Y-2.4449
X2.7024Y-3.12
X2.7094Y-2.4449
X2.7094Y-2.5563
X2.7233Y-2.8346
X2.7372Y-2.4171
X2.7372Y-3.127
X2.752Y-3.0138
X2.7748Y-2.63
X2.779Y-2.779
X2.779Y-2.8903
X2.779Y-3.1687
X2.815Y-2.9528
X2.8346Y-2.7233
X2.8625Y-2.083
X2.8625Y-2.1526
X2.8625Y-2.2222
X2.8834Y-2.8973
X2.8903Y-2.779
X2.9251Y-2.8138
X2.9251Y-2.8555
X2.9321Y-3.0434
X3.0017Y-2.5563
X3.0086Y-3.0226
X3.0156Y-2.598
X3.0413Y-2.626
X3.113Y-2.9182
X3.127Y-2.7094
X3.1548Y-2.7372
X3.1548Y-2.8486
X3.1826Y-2.765
T2
X2.525Y-1.825
X2.5591Y-3.4055
X2.5984Y-3.4252
X2.874Y-1.8504
X2.9843Y-2.1693
T4
X2.4606Y-2.185
X2.4606Y-2.285
X2.4606Y-2.385
X2.4606Y-2.485
X2.4606Y-2.585
X2.4606Y-2.685
X2.4606Y-2.785
X2.4606Y-2.885
X2.4606Y-2.985
X2.4606Y-3.085
X2.4606Y-3.185
X2.4606Y-3.285
X2.4606Y-3.385
X2.7156Y-3.3858
X2.8156Y-3.3858
X2.9156Y-3.3858
X3.1299Y-3.1874
X3.1299Y-3.2874
X3.1299Y-3.3874
T3
G00X2.8024Y-1.9059
M15
G01X2.8024Y-1.9492
M16
G05
G00X3.1425Y-1.9059
M15
G01X3.1425Y-1.9492
M16
G05
T0
M30
